<svg xmlns="http://www.w3.org/2000/svg" xmlns:xlink="http://www.w3.org/1999/xlink" width="340" height="196" viewBox="0 0 340 196">
  <defs>
    <clipPath id="clip-path">
      <rect id="Rectángulo_420656" data-name="Rectángulo 420656" width="340" height="196" transform="translate(135 914)" fill="#fff" stroke="#707070" stroke-width="1"/>
    </clipPath>
    <clipPath id="clip-path-2">
      <rect id="Rectángulo_420611" data-name="Rectángulo 420611" width="340.055" height="295.055" transform="translate(-45)" fill="none"/>
    </clipPath>
  </defs>
  <g id="Enmascarar_grupo_1098928" data-name="Enmascarar grupo 1098928" transform="translate(-135 -914)" clip-path="url(#clip-path)">
    <g id="POST_4" transform="translate(180 832.433)">
      <g id="Grupo_1218809" data-name="Grupo 1218809">
        <path id="Trazado_1089091" data-name="Trazado 1089091" d="M295.055,500h0Z" transform="translate(0 -204.945)" fill="#fdf1e8"/>
        <g id="Grupo_1218440" data-name="Grupo 1218440" clip-path="url(#clip-path-2)">
          <path id="Trazado_1087693" data-name="Trazado 1087693" d="M74.007,320.478,89.7,89.7l15.7,230.774H74.013Zm0-461.548L89.7,89.7,105.4-141.07H74.013Zm101.936,445.4L89.7,89.7l56.385,224.33,29.854-9.7ZM3.466-124.925,89.7,89.7,33.319-134.626l-29.854,9.7Zm234.58,392.1L89.7,89.7,212.654,285.627ZM-58.638-87.771,89.7,89.7-33.245-106.218ZM285.627,212.654,89.7,89.7,267.18,238.046Zm-391.845-245.9L89.7,89.7-87.771-58.638ZM314.035,146.089,89.7,89.7l214.629,86.239ZM-134.626,33.319,89.7,89.7-124.925,3.466Zm455.1,40.688L89.7,89.7l230.774,15.7V74.013ZM-141.07,105.4,89.7,89.7l-230.774-15.7V105.4ZM304.333,3.466,89.7,89.7l224.33-56.385ZM-124.925,175.943,89.7,89.7l-224.33,56.385,9.7,29.854ZM267.18-58.638,89.7,89.7,285.627-33.245ZM-87.771,238.046,89.7,89.7-106.218,212.654ZM212.654-106.218,89.7,89.7,238.046-87.771l-25.392-18.453Zm-245.9,391.845L89.7,89.7-58.638,267.18ZM146.089-134.626,89.7,89.7l86.239-214.629-29.854-9.7ZM33.319,314.035,89.7,89.7,3.466,304.333Z" transform="translate(57.823 57.823)" fill="#fae7d0" opacity="0.53"/>
        </g>
        <g id="Grupo_1218445" data-name="Grupo 1218445" transform="translate(44.099 86.823)">
          <path id="Trazado_1087694" data-name="Trazado 1087694" d="M81.183,187.729V379.993H77.69V157.486a3.226,3.226,0,0,0,1.552.4,3.292,3.292,0,0,0,1.941-.631Z" transform="translate(-75.943 -151.278)" fill="#331e1a"/>
          <path id="Trazado_1087695" data-name="Trazado 1087695" d="M76.477,153.338a3.3,3.3,0,1,1,3.493-.242h0a3.262,3.262,0,0,1-3.493.242Z" transform="translate(-74.73 -147.13)" fill="#331e1a"/>
          <path id="Trazado_1087696" data-name="Trazado 1087696" d="M183.269,187.391c-16.24-1.157-32.444-3.086-48.548-5.034-8.3-1-16.505-2.207-24.82-2.567a207.7,207.7,0,0,0-26.348.413V204.1l-.083-.083.083,83.619v23.445c18.884-1.6,37.962.112,56.733,2.248,16.169,1.841,32.279,4.119,48.507,5.447a411.9,411.9,0,0,0,58.256.625c4.933-.3,9.861-.584,14.776-.991q19.429-1.6,38.694-4.632V182.894a517.631,517.631,0,0,1-114.352,4.691c-.968-.065-1.93-.13-2.9-.2Z" transform="translate(-78.312 -160.423)" fill="#efa700"/>
          <path id="Trazado_1087697" data-name="Trazado 1087697" d="M183.269,296.5c-16.24-1.157-32.444-3.086-48.548-5.034-8.3-1-16.505-2.207-24.82-2.567a207.7,207.7,0,0,0-26.348.413v23.894l-.083-.083.083,19.232V355.8c18.884-1.6,37.962.112,56.733,2.248,16.169,1.841,32.279,4.119,48.507,5.447a411.9,411.9,0,0,0,58.256.625c4.933-.3,9.861-.584,14.776-.991q19.429-1.6,38.694-4.632V292A517.63,517.63,0,0,1,186.167,296.7c-.968-.065-1.93-.13-2.9-.2Z" transform="translate(-78.312 -205.146)" fill="#2b5493"/>
          <path id="Trazado_1087698" data-name="Trazado 1087698" d="M183.3,352.9c-16.234-1.157-32.432-3.086-48.531-5.034-8.3-1-16.494-2.207-24.814-2.567a207.51,207.51,0,0,0-26.337.413v23.894l-.083-.083.083,9.4c18.872-1.6,37.944.112,56.71,2.248,16.157,1.841,32.267,4.119,48.489,5.447a411.575,411.575,0,0,0,58.232.626c4.933-.3,9.855-.584,14.77-.991q19.429-1.6,38.682-4.632V348.4A517.244,517.244,0,0,1,186.2,353.1c-.968-.065-1.93-.13-2.9-.2Z" transform="translate(-78.341 -228.264)" fill="#e61300"/>
          <path id="Trazado_1087699" data-name="Trazado 1087699" d="M81.183,157.25h0l-3.493.236a3.226,3.226,0,0,0,1.552.4A3.292,3.292,0,0,0,81.183,157.25Z" transform="translate(-75.943 -151.278)" fill="#56311e"/>
          <path id="Trazado_1087700" data-name="Trazado 1087700" d="M83.54,192.746s44.8,136.787,216.966,100.289v26.142a433.548,433.548,0,0,1-97.763,5.889c-53.434-2.962-91.9-12.794-119.2-8.586V192.74Z" transform="translate(-78.341 -165.825)" opacity="0.3"/>
          <g id="Grupo_1218444" data-name="Grupo 1218444" transform="translate(21.309 27.369)">
            <path id="Trazado_1087701" data-name="Trazado 1087701" d="M443.81,193.51v57.884" transform="translate(-247.321 -193.51)" fill="none" stroke="#331e1a" stroke-miterlimit="10" stroke-width="1"/>
            <path id="Trazado_1087702" data-name="Trazado 1087702" d="M110.84,376.94q1.753,1,3.511,2.006" transform="translate(-110.84 -268.696)" fill="none" stroke="#331e1a" stroke-miterlimit="10" stroke-width="1"/>
            <path id="Trazado_1087703" data-name="Trazado 1087703" d="M343.38,202.51a69.492,69.492,0,0,0,15.266,15.437" transform="translate(-206.156 -197.199)" fill="none" stroke="#331e1a" stroke-miterlimit="10" stroke-width="1"/>
            <path id="Trazado_1087704" data-name="Trazado 1087704" d="M360.13,201.81a37.147,37.147,0,0,0,2.921,8.114" transform="translate(-213.022 -196.912)" fill="none" stroke="#331e1a" stroke-miterlimit="10" stroke-width="1"/>
            <path id="Trazado_1087705" data-name="Trazado 1087705" d="M376.97,310.384a187.416,187.416,0,0,0,29.9-3.364" transform="translate(-219.924 -240.037)" fill="none" stroke="#331e1a" stroke-miterlimit="10" stroke-width="1"/>
          </g>
        </g>
        <g id="Grupo_1218475" data-name="Grupo 1218475" transform="translate(61.295 105.177)">
          <g id="Grupo_1218473" data-name="Grupo 1218473">
            <g id="Grupo_1218466" data-name="Grupo 1218466" transform="translate(124.698 69.894)">
              <path id="Trazado_1087740" data-name="Trazado 1087740" d="M374.109,480.739c-3.193-38.688-5.541-85.306-11.065-123.728,7.878-6.7,11.2-17.2,14.151-27.116.749-2.526,1.511-5.2.873-7.76s-3.128-4.951-5.665-4.237a10.516,10.516,0,0,0-3.617-6.208,11.085,11.085,0,0,0-6.975-2.419,7.364,7.364,0,0,0-2.5-6.019,7.958,7.958,0,0,0-6.6-1.6,7.182,7.182,0,0,0-5.942-4.9,10.127,10.127,0,0,0-7.583,2.331c-2.118,1.7-4.526,3.971-5.653,6.45-3.517-1.57-7.742.661-9.937,3.83s-2.968,7.07-4.19,10.722c-1.54,4.6-3.883,9.029-4.19,13.868s1.5,9.648,4.172,13.708,6.184,7.489,9.66,10.882c-1.936,37.295-5.14,83.589-5.759,120.931l50.82,1.263Z" transform="translate(-315.182 -296.676)" fill="#803b2c"/>
              <g id="Grupo_1218465" data-name="Grupo 1218465" transform="translate(7.865 5.871)">
                <path id="Trazado_1087741" data-name="Trazado 1087741" d="M335.8,334.633l-.59-.059A46.591,46.591,0,0,1,340.1,318.01l.525.271a46.07,46.07,0,0,0-4.827,16.358Z" transform="translate(-331.256 -311.291)" fill="#331e1a"/>
                <path id="Trazado_1087742" data-name="Trazado 1087742" d="M328.994,334.92l-.484-.336a32.966,32.966,0,0,1,6.137-6.674l.378.454A32.63,32.63,0,0,0,328.994,334.92Z" transform="translate(-328.51 -315.349)" fill="#331e1a"/>
                <rect id="Rectángulo_420613" data-name="Rectángulo 420613" width="2.266" height="0.59" transform="matrix(0.6, -0.8, 0.8, 0.6, 19.838, 1.813)" fill="#331e1a"/>
                <rect id="Rectángulo_420614" data-name="Rectángulo 420614" width="1.269" height="0.59" transform="translate(21.858 2.536) rotate(-63.43)" fill="#331e1a"/>
                <path id="Trazado_1087743" data-name="Trazado 1087743" d="M377.563,320.55l-.513-.3a7.882,7.882,0,0,1,1.894-2.225l.372.46A7.345,7.345,0,0,0,377.563,320.55Z" transform="translate(-348.406 -311.299)" fill="#331e1a"/>
                <rect id="Rectángulo_420615" data-name="Rectángulo 420615" width="1.227" height="0.59" transform="matrix(0.555, -0.832, 0.832, 0.555, 31.378, 9.505)" fill="#331e1a"/>
                <rect id="Rectángulo_420616" data-name="Rectángulo 420616" width="2.762" height="0.59" transform="matrix(0.568, -0.823, 0.823, 0.568, 39.405, 15.833)" fill="#331e1a"/>
                <rect id="Rectángulo_420617" data-name="Rectángulo 420617" width="2.331" height="0.59" transform="matrix(0.485, -0.875, 0.875, 0.485, 47.683, 23.937)" fill="#331e1a"/>
                <rect id="Rectángulo_420618" data-name="Rectángulo 420618" width="2.667" height="0.59" transform="translate(49.712 25.825) rotate(-77.13)" fill="#331e1a"/>
              </g>
            </g>
            <g id="Grupo_1218469" data-name="Grupo 1218469" transform="translate(40.438)">
              <path id="Trazado_1087744" data-name="Trazado 1087744" d="M273.5,234.888c-2.172-.118-4.261,1.34-6.049,2.384a57.118,57.118,0,0,0-10.48,7.713c-2.266,2.136-4.851,4.668-7.943,4.284-3.069-.384-5-3.5-5.984-6.426-2.809-8.338-1.682-17.479.325-26.047s4.857-17.007,5.435-25.788c.183-2.768-.313-6.226-2.933-7.14a4.688,4.688,0,0,0-4.927,1.77,13.783,13.783,0,0,0-2.213,5.081q-3.806,13.525-7.618,27.057a8.336,8.336,0,0,1-1.646,3.552,2.849,2.849,0,0,1-3.564.649c-1.109-.8-1.163-2.4-1.1-3.759q.372-8.621.738-17.243c.23-5.37,1.292-11.472.248-16.783-.561-2.85-2.744-6.656-6.2-5.848-5.612,1.31-3.718,10.758-3.777,14.776-.118,8.244-.643,16.476-.543,24.72.03,2.183-.46,5.028-2.614,5.382-2.29.378-3.617-2.461-4.184-4.715a196.944,196.944,0,0,0-7.878-24.56,11.177,11.177,0,0,0-2.337-4.066,3.937,3.937,0,0,0-4.32-.974c-2.4,1.192-2.024,4.68-1.286,7.258q4.488,15.623,8.97,31.24c.336,1.174.584,2.656-.36,3.423-1.21.986-2.939-.207-4.013-1.334q-7.781-8.126-15.555-16.252a12.392,12.392,0,0,0-3.771-3.021,4.194,4.194,0,0,0-4.55.531c-2.036,2.012-.46,5.423,1.174,7.766,6.367,9.141,13.319,18.706,19.686,27.847.342,7.152.7,14.387,2.744,21.25s5.972,13.425,12.044,17.219c2.779,18.022-2.3,128.467-2.8,146.7H258.72C255.114,413,245.9,299.157,242.3,280.627c10.362-5.394,13.242-10.215,17.75-20.618.454-1.05,1.882-2.177,2.65-3.045,1.027-1.157,2.089-2.284,3.134-3.429,2.172-2.372,4.337-4.75,6.521-7.117,1.841-2,3.676-4.284,4.184-7.034.4-2.177-.655-4.4-3.039-4.526Z" transform="translate(-172.397 -178.233)" fill="#934f40"/>
              <g id="Grupo_1218468" data-name="Grupo 1218468" transform="translate(8.923 17.747)">
                <g id="Grupo_1218467" data-name="Grupo 1218467" transform="translate(0 0)">
                  <path id="Trazado_1087745" data-name="Trazado 1087745" d="M257.678,327.824l-.578-.106a27.283,27.283,0,0,1,13.5-18.878l.289.519a26.685,26.685,0,0,0-13.2,18.465Z" transform="translate(-216.038 -249.514)" fill="#331e1a"/>
                  <path id="Trazado_1087746" data-name="Trazado 1087746" d="M249.124,325.312a24.992,24.992,0,0,0-13.354-13.549l.23-.543a25.593,25.593,0,0,1,13.667,13.873l-.549.224Z" transform="translate(-207.295 -250.49)" fill="#331e1a"/>
                  <rect id="Rectángulo_420619" data-name="Rectángulo 420619" width="2.183" height="0.59" transform="matrix(0.814, -0.581, 0.581, 0.814, 0, 25.522)" fill="#331e1a"/>
                  <rect id="Rectángulo_420620" data-name="Rectángulo 420620" width="2.337" height="0.59" transform="matrix(0.814, -0.581, 0.581, 0.814, 7.991, 35.233)" fill="#331e1a"/>
                  <rect id="Rectángulo_420621" data-name="Rectángulo 420621" width="2.319" height="0.59" transform="translate(17.453 9.681) rotate(-11.02)" fill="#331e1a"/>
                  <rect id="Rectángulo_420622" data-name="Rectángulo 420622" width="2.431" height="0.59" transform="translate(21.109 22.516) rotate(-14.01)" fill="#331e1a"/>
                  <rect id="Rectángulo_420623" data-name="Rectángulo 420623" width="0.59" height="2.956" transform="translate(37.678 0.568) rotate(-74.43)" fill="#331e1a"/>
                  <rect id="Rectángulo_420624" data-name="Rectángulo 420624" width="0.59" height="2.319" transform="translate(37.829 16.585) rotate(-84.29)" fill="#331e1a"/>
                </g>
                <rect id="Rectángulo_420625" data-name="Rectángulo 420625" width="0.59" height="3.139" transform="translate(54.697 20.052) rotate(-73.51)" fill="#331e1a"/>
                <path id="Trazado_1087747" data-name="Trazado 1087747" d="M291.092,216.565c-.154-.088-.685-.3-1.151-.478-.531-.207-1.033-.407-1.222-.507l.289-.519c.153.089.685.3,1.151.478.531.207,1.033.407,1.222.507Z" transform="translate(-228.999 -211.075)" fill="#331e1a"/>
                <rect id="Rectángulo_420626" data-name="Rectángulo 420626" width="0.59" height="2.231" transform="matrix(0.625, -0.781, 0.781, 0.625, 76.674, 53.401)" fill="#331e1a"/>
                <rect id="Rectángulo_420627" data-name="Rectángulo 420627" width="0.59" height="2.378" transform="translate(83.978 47.039) rotate(-48.36)" fill="#331e1a"/>
              </g>
            </g>
            <g id="Grupo_1218472" data-name="Grupo 1218472" transform="translate(0 74.26)">
              <path id="Trazado_1087748" data-name="Trazado 1087748" d="M149.255,467.52c-1.735-29.269-.891-75.392-.425-104.709,3.783-3.045,8.993-6.721,11.95-10.569s5.016-8.6,4.739-13.449c-.378-6.574-4.591-11.737-8.84-16.771a21.85,21.85,0,0,0-1.9-13.254c-1.05-2.136-2.709-4.266-5.063-4.638-2.709-.431-5.217,1.682-7.1,3.665a6.814,6.814,0,0,0-6.078-2.549,6.619,6.619,0,0,0-5.335,3.665,7.554,7.554,0,0,0-7.465-1.251,7.909,7.909,0,0,0-4.591,6.255c-1.7-2.5-5.771-2.124-7.961-.041s-2.98,5.2-3.676,8.138c-1.446,6.108-2.9,12.345-2.3,18.594.7,7.365,6.78,18.081,12.41,22.879-2.945,31.659-10.581,75.64-13.744,104.042h45.385Z" transform="translate(-103.87 -304.074)" fill="#743b2b"/>
              <g id="Grupo_1218471" data-name="Grupo 1218471" transform="translate(3.268 5.934)">
                <g id="Grupo_1218470" data-name="Grupo 1218470">
                  <path id="Trazado_1087749" data-name="Trazado 1087749" d="M160.023,363.786l-.584-.065a13.614,13.614,0,0,1,5.5-8.97,38.535,38.535,0,0,1,8.769-4.833,4.524,4.524,0,0,1-1.959-2.974,17.7,17.7,0,0,1-11.46-.313c-1.682-.626-2.638-1.6-2.691-2.726a3.638,3.638,0,0,1,1.416-2.632,33.1,33.1,0,0,1,16.618-8.663l.112.578a32.415,32.415,0,0,0-16.317,8.509,3.159,3.159,0,0,0-1.239,2.183c.059,1.186,1.469,1.888,2.307,2.2a17.084,17.084,0,0,0,11.407.195l.354-.118.035.372a3.925,3.925,0,0,0,2.213,3.157l.608.283-.614.26a39.707,39.707,0,0,0-9.188,4.986,13.017,13.017,0,0,0-5.276,8.568Z" transform="translate(-129.159 -321.705)" fill="#331e1a"/>
                  <path id="Trazado_1087750" data-name="Trazado 1087750" d="M172.305,328.4l-.59-.018A45.009,45.009,0,0,0,170.11,314.3l.567-.165A45.8,45.8,0,0,1,172.305,328.4Z" transform="translate(-134.289 -314.13)" fill="#331e1a"/>
                  <path id="Trazado_1087751" data-name="Trazado 1087751" d="M138.685,344.072a6.387,6.387,0,0,1-2.366-.454,9.509,9.509,0,0,1-4.355-3.853c-3.086-4.821-2.974-11.023-2.886-16.01l.59.012c-.089,4.9-.2,11.011,2.791,15.679a9.051,9.051,0,0,0,4.072,3.617,5.269,5.269,0,0,0,5.14-.555c2.177-1.723,2.189-5.028,1.959-7.719a105.841,105.841,0,0,0-2.9-17.072l.572-.147a105.792,105.792,0,0,1,2.915,17.172c.242,2.833.218,6.332-2.183,8.226a5.419,5.419,0,0,1-3.358,1.1Z" transform="translate(-117.457 -315.54)" fill="#331e1a"/>
                  <path id="Trazado_1087752" data-name="Trazado 1087752" d="M117.859,355.9a8.233,8.233,0,0,1-6.739-3.936,12.58,12.58,0,0,1-1.605-8.214l.584.071a12.04,12.04,0,0,0,1.517,7.831,7.65,7.65,0,0,0,6.7,3.647,6.1,6.1,0,0,0,5.158-5.6l.59.012a6.719,6.719,0,0,1-5.7,6.178c-.171.012-.336.018-.507.018Z" transform="translate(-109.407 -326.271)" fill="#331e1a"/>
                  <path id="Trazado_1087753" data-name="Trazado 1087753" d="M156.186,354.1a2.762,2.762,0,0,1-2.036-.9l.443-.389a2.17,2.17,0,0,0,2.142.626l.159.566a2.633,2.633,0,0,1-.708.1Z" transform="translate(-127.747 -329.985)" fill="#331e1a"/>
                  <path id="Trazado_1087754" data-name="Trazado 1087754" d="M143.23,375.763a10.183,10.183,0,0,0-6.22-6.409l.195-.555a10.788,10.788,0,0,1,6.592,6.786l-.561.177Z" transform="translate(-120.721 -336.539)" fill="#331e1a"/>
                </g>
                <path id="Trazado_1087755" data-name="Trazado 1087755" d="M161.783,346.007a14.613,14.613,0,0,1,4.184-3.187,1.192,1.192,0,0,1,.649-.183c.472.041.732.561.885,1.015a16.183,16.183,0,0,1,.525,2.042,1.782,1.782,0,0,1-.094,1.251,1.857,1.857,0,0,1-1.469.643c-1.422.148-2.862.248-4.3.254s-1.245-.879-.384-1.829Z" transform="translate(-130.6 -325.814)" fill="#9c5747"/>
              </g>
            </g>
          </g>
          <g id="Grupo_1218474" data-name="Grupo 1218474" transform="translate(44.937 9.039)" opacity="0.25">
            <path id="Trazado_1087756" data-name="Trazado 1087756" d="M403.337,329.906c.749-2.526,1.511-5.2.873-7.76s-3.128-4.951-5.665-4.237a10.516,10.516,0,0,0-3.617-6.208,11.085,11.085,0,0,0-6.975-2.419,7.365,7.365,0,0,0-2.5-6.019,7.958,7.958,0,0,0-6.6-1.6,7.182,7.182,0,0,0-5.942-4.9,8.692,8.692,0,0,0-3.051.13,7.114,7.114,0,0,1,5.27,4.768,7.962,7.962,0,0,1,6.6,1.6,7.365,7.365,0,0,1,2.5,6.019A11.051,11.051,0,0,1,391.2,311.7a10.486,10.486,0,0,1,3.617,6.208c2.537-.714,5.028,1.682,5.665,4.237s-.118,5.234-.873,7.76c-2.951,9.914-6.267,20.412-14.151,27.116.425,2.974.791,5.665,1.18,8.728,1.257-.124,2.484-.242,3.676-.372-.378-2.939-.726-5.506-1.133-8.362,7.878-6.7,11.2-17.2,14.151-27.116Z" transform="translate(-257.833 -235.825)" fill="#1c1c1c"/>
            <path id="Trazado_1087757" data-name="Trazado 1087757" d="M296.7,197.908c-.578,8.781-3.429,17.219-5.435,25.788s-3.133,17.709-.325,26.047c.985,2.933,2.915,6.043,5.984,6.426a5.372,5.372,0,0,0,2.526-.313c-2.378-.932-3.93-3.594-4.786-6.119-2.809-8.338-1.682-17.479.325-26.047s4.857-17.013,5.435-25.788a13.525,13.525,0,0,0-.088-2.8q-1.868-.027-3.735-.065a13.744,13.744,0,0,1,.1,2.862Z" transform="translate(-224.797 -194.161)" fill="#1c1c1c"/>
            <path id="Trazado_1087758" data-name="Trazado 1087758" d="M185.506,235.221q7.781,8.126,15.555,16.252c1.08,1.127,2.8,2.313,4.013,1.334a1.679,1.679,0,0,0,.472-.631,8.654,8.654,0,0,1-.755-.7q-7.781-8.126-15.555-16.252a12.285,12.285,0,0,0-3.771-3.015,4.533,4.533,0,0,0-3.765-.012.084.084,0,0,1,.035.012,12.374,12.374,0,0,1,3.771,3.015Z" transform="translate(-180.709 -209.226)" fill="#1c1c1c"/>
            <path id="Trazado_1087759" data-name="Trazado 1087759" d="M261.927,207.27q-.372,8.622-.738,17.243c-.059,1.363-.006,2.962,1.1,3.759a2.76,2.76,0,0,0,3.3-.407,5.052,5.052,0,0,1-.679-3.352q.372-8.622.738-17.243c.183-4.3.9-9.052.643-13.5-1.245-.065-2.49-.148-3.735-.218.289,4.514-.448,9.359-.631,13.726Z" transform="translate(-213.284 -193.55)" fill="#1c1c1c"/>
            <path id="Trazado_1087760" data-name="Trazado 1087760" d="M312.344,299.4c.454-1.05,1.882-2.178,2.65-3.045,1.027-1.157,2.089-2.284,3.133-3.429,2.172-2.372,4.337-4.75,6.521-7.117,1.841-2,3.676-4.284,4.184-7.034.4-2.177-.655-4.4-3.039-4.526a5.86,5.86,0,0,0-2.3.4,3.811,3.811,0,0,1,1.617,4.131c-.5,2.75-2.337,5.034-4.184,7.034-2.183,2.366-4.349,4.744-6.521,7.117-1.044,1.139-2.1,2.272-3.133,3.429-.767.862-2.2,1.989-2.65,3.045-4.508,10.4-7.388,15.225-17.75,20.618,1.115,5.724,2.762,20.536,4.615,38.823,1.251.047,2.5.083,3.735.118-1.859-18.341-3.511-33.206-4.626-38.936,10.362-5.394,13.242-10.215,17.75-20.618Z" transform="translate(-225.456 -226.624)" fill="#1c1c1c"/>
            <path id="Trazado_1087761" data-name="Trazado 1087761" d="M217.868,201.186a195.649,195.649,0,0,1,7.878,24.56c.561,2.254,1.888,5.093,4.184,4.715a2.382,2.382,0,0,0,1.446-.832,8.7,8.7,0,0,1-1.9-3.883,196.937,196.937,0,0,0-7.878-24.56,11.176,11.176,0,0,0-2.337-4.066,3.939,3.939,0,0,0-4.32-.974,3.017,3.017,0,0,0-.4.242,4.549,4.549,0,0,1,1,.738,11.128,11.128,0,0,1,2.337,4.066Z" transform="translate(-194.169 -194.489)" fill="#1c1c1c"/>
            <path id="Trazado_1087762" data-name="Trazado 1087762" d="M195.729,352.254c2.956-3.853,5.016-8.6,4.739-13.449-.378-6.574-4.591-11.737-8.84-16.771a21.849,21.849,0,0,0-1.9-13.254c-1.05-2.136-2.709-4.267-5.063-4.638a5.055,5.055,0,0,0-2.626.325A8.685,8.685,0,0,1,186,308.78a21.812,21.812,0,0,1,1.9,13.254c4.249,5.028,8.462,10.2,8.84,16.771.277,4.851-1.782,9.6-4.739,13.449s-8.173,7.524-11.95,10.569c-.012.578-.018.968-.03,1.564,1.227.148,2.473.283,3.724.431.012-.743.018-1.269.029-1.995,3.783-3.045,8.993-6.721,11.95-10.569Z" transform="translate(-180.02 -238.858)" fill="#1c1c1c"/>
          </g>
        </g>
      </g>
    </g>
  </g>
</svg>
