<svg xmlns="http://www.w3.org/2000/svg" width="91.266" height="96.481" viewBox="0 0 91.266 96.481">
  <g id="Grupo_1219191" data-name="Grupo 1219191" transform="translate(-180 -3942)">
    <rect id="Rectángulo_420796" data-name="Rectángulo 420796" width="59" height="96" transform="translate(206 3942)" fill="#cbd0dc"/>
    <g id="palacio-de-justicia_6_" data-name="palacio-de-justicia (6)" transform="translate(163.993 3930.171)">
      <path id="Trazado_1089453" data-name="Trazado 1089453" d="M91.643,67.184l9.714-.449c2.956-.136,5.894,1.857,5.9,4.712l.01,2.913c.009,2.846-2.916,4.856-5.875,4.733l-9.754-.409v7.727h1.128a1.046,1.046,0,0,1,1.046,1.046v5.7h2.394A1.046,1.046,0,0,1,97.257,94.2v5.191h3.1a1.046,1.046,0,0,1,1.046,1.046v6.827a1.046,1.046,0,0,1-1.046,1.046H17.053a1.046,1.046,0,0,1-1.046-1.046v-6.83a1.046,1.046,0,0,1,1.046-1.046h3.1V94.2A1.046,1.046,0,0,1,21.2,93.153h2.415v-5.7a1.046,1.046,0,0,1,1.046-1.046H25.79V58.944H24.64A1.046,1.046,0,0,1,23.594,57.9V52.377H17.952a1.046,1.046,0,0,1-1.046-1.046V45.194a1.046,1.046,0,0,1,.723-.994L58.138,17.844a1.042,1.042,0,0,1,1.154.012L99.956,44.275a1.046,1.046,0,0,1,.548.92v6.138a1.046,1.046,0,0,1-1.046,1.046H93.794V57.9a1.046,1.046,0,0,1-1.046,1.046H91.642v8.24ZM64.055,68.361l17.7-.818v-8.7h-1.15A1.046,1.046,0,0,1,79.563,57.8V52.28H37.817V57.8a1.046,1.046,0,0,1-1.046,1.046h-1.1V86.315h1.128A1.046,1.046,0,0,1,37.84,87.36v5.7H79.586v-5.7a1.046,1.046,0,0,1,1.046-1.046h1.128V78.172L64.08,77.431l.009,3.187a4.221,4.221,0,0,1,2.923,4l.008,2.72a2.634,2.634,0,0,1-2.627,2.636l-11.584.032a2.634,2.634,0,0,1-2.636-2.627l-.007-2.72a4.22,4.22,0,0,1,2.9-4.011L53.025,65.2a4.223,4.223,0,0,1-2.924-4l-.007-2.72a2.634,2.634,0,0,1,2.627-2.636L64.3,55.814a2.634,2.634,0,0,1,2.636,2.627l.007,2.72a4.219,4.219,0,0,1-2.9,4.011Z" fill-rule="evenodd"/>
      <path id="Trazado_1089454" data-name="Trazado 1089454" d="M45.018,53.369h74.411L82.2,29.178ZM82.2,37.361a6.658,6.658,0,1,1-6.658,6.658A6.658,6.658,0,0,1,82.2,37.361Z" transform="translate(-23.495 -9.316)" fill="#688b96" fill-rule="evenodd"/>
      <path id="Trazado_1089455" data-name="Trazado 1089455" d="M0,0H6.858V15.036H0Z" transform="translate(55.12 65.391) rotate(-0.172)" fill="#ba9463"/>
      <g id="Grupo_1219190" data-name="Grupo 1219190" transform="translate(18.094 30.132)">
        <path id="Trazado_1089456" data-name="Trazado 1089456" d="M372.8,242.8l5.7-.263V234.2h-5.7Z" transform="translate(-307.042 -205.488)" fill="#ccc" fill-rule="evenodd"/>
        <path id="Trazado_1089457" data-name="Trazado 1089457" d="M378.5,336.539l-5.7-.239v8.054h5.7Z" transform="translate(-307.042 -288.172)" fill="#fff" fill-rule="evenodd"/>
        <path id="Trazado_1089458" data-name="Trazado 1089458" d="M268.742,292.736l37.4,1.569a4.085,4.085,0,0,0,2.727-.839,2.372,2.372,0,0,0,.984-1.812l-.01-2.913c-.035-1.639-1.965-2.711-3.733-2.63l-37.382,1.726Z" transform="translate(-222.761 -247.523)" fill="#9a774d" fill-rule="evenodd"/>
        <path id="Trazado_1089459" data-name="Trazado 1089459" d="M206.6,360.753l.007,2.72a.557.557,0,0,0,.554.546l11.584-.032a.557.557,0,0,0,.546-.554l-.008-2.72a2.141,2.141,0,0,0-2.137-2.12l-8.426.023A2.149,2.149,0,0,0,206.6,360.753Z" transform="translate(-172.447 -306.226)" fill="#ba9463" fill-rule="evenodd"/>
        <path id="Trazado_1089460" data-name="Trazado 1089460" d="M218.91,232.465l-.008-2.72a.557.557,0,0,0-.554-.545l-11.584.032a.557.557,0,0,0-.546.554l.007,2.72a2.141,2.141,0,0,0,2.138,2.12l8.426-.023A2.147,2.147,0,0,0,218.91,232.465Z" transform="translate(-172.138 -201.436)" fill="#ba9463" fill-rule="evenodd"/>
        <path id="Trazado_1089461" data-name="Trazado 1089461" d="M224.319,84.53a4.568,4.568,0,1,0,0,6.461A4.573,4.573,0,0,0,224.319,84.53Z" transform="translate(-180.481 -83.189)" fill="#e6a211" fill-rule="evenodd"/>
        <path id="Trazado_1089462" data-name="Trazado 1089462" d="M26.982,462.645H108.2v-4.737H26.982Z" transform="translate(-26.982 -386.657)" fill="#4d4d4d" fill-rule="evenodd"/>
        <path id="Trazado_1089463" data-name="Trazado 1089463" d="M48.8,429.26h72.919v-4.145H48.8Z" transform="translate(-44.651 -360.1)" fill="#666" fill-rule="evenodd"/>
      </g>
      <path id="Trazado_1089464" data-name="Trazado 1089464" d="M67,389.652H77.046V394.3H67Z" transform="translate(-41.297 -301.247)" fill="gray"/>
      <path id="Trazado_1089465" data-name="Trazado 1089465" d="M361.371,389.652h10.046V394.3H361.371Z" transform="translate(-279.695 -301.247)" fill="gray"/>
      <path id="Trazado_1089466" data-name="Trazado 1089466" d="M31.711,167.39h79.417v4.047H31.711Z" transform="translate(-12.718 -121.247)" fill="#666"/>
      <path id="Trazado_1089467" data-name="Trazado 1089467" d="M78.426,234.2h5.7V261.67h-5.7Z" transform="translate(-50.55 -175.355)" fill="#ccc"/>
      <path id="Trazado_1089468" data-name="Trazado 1089468" d="M66.885,199.668v4.476H76.931v-4.476Z" transform="translate(-41.204 -147.388)" fill="gray" fill-rule="evenodd"/>
      <path id="Trazado_1089469" data-name="Trazado 1089469" d="M361.256,199.668H371.3v4.476H361.256Z" transform="translate(-279.602 -147.388)" fill="gray"/>
    </g>
  </g>
</svg>
