<svg xmlns="http://www.w3.org/2000/svg" width="110" height="110.611" viewBox="0 0 110 110.611">
  <g id="Grupo_1219265" data-name="Grupo 1219265" transform="translate(-181 -5397)">
    <rect id="Rectángulo_420797" data-name="Rectángulo 420797" width="70" height="108" transform="translate(221 5397)" fill="#1172b3"/>
    <g id="habla_4_" data-name="habla (4)" transform="translate(181.002 5396.054)">
      <g id="Grupo_1219263" data-name="Grupo 1219263" transform="translate(1.537 12.655)">
        <g id="Grupo_1219199" data-name="Grupo 1219199" transform="translate(36.462 0)">
          <g id="Grupo_1219198" data-name="Grupo 1219198">
            <g id="Grupo_1219197" data-name="Grupo 1219197">
              <g id="Grupo_1219196" data-name="Grupo 1219196">
                <g id="Grupo_1219195" data-name="Grupo 1219195">
                  <g id="Grupo_1219194" data-name="Grupo 1219194">
                    <g id="Grupo_1219193" data-name="Grupo 1219193" transform="translate(0 14.835)">
                      <g id="Grupo_1219192" data-name="Grupo 1219192">
                        <path id="Trazado_1089470" data-name="Trazado 1089470" d="M214.3,128.844h-29l1.8-9.393a6.851,6.851,0,0,1,4.628-5.232l8.072-2.6,8.072,2.6a6.851,6.851,0,0,1,4.628,5.232Z" transform="translate(-185.298 -107.381)" fill="#5b5555"/>
                        <path id="Trazado_1089471" data-name="Trazado 1089471" d="M289.454,134.947H284.7l-1.8-10.588a7.8,7.8,0,0,0-3.056-5.063l3.183,1.025a6.857,6.857,0,0,1,4.629,5.232Z" transform="translate(-260.455 -113.484)" fill="#444"/>
                        <path id="Trazado_1089472" data-name="Trazado 1089472" d="M234.749,114,227.36,132.86,219.971,114l7.389-2.383Z" transform="translate(-212.86 -107.376)" fill="#efe2dd"/>
                        <path id="Trazado_1089473" data-name="Trazado 1089473" d="M248.192,90.954V96.92a2.715,2.715,0,0,1-5.431,0V90.954Z" transform="translate(-230.977 -90.954)" fill="#ba5d4f"/>
                      </g>
                    </g>
                    <path id="Trazado_1089474" data-name="Trazado 1089474" d="M228.087,18.618a7.2,7.2,0,0,0-7.2,7.2v3.129a7.2,7.2,0,0,0,14.4,0V25.819A7.2,7.2,0,0,0,228.087,18.618Z" transform="translate(-213.588 -18.617)" fill="#c86f5c"/>
                    <path id="Trazado_1089475" data-name="Trazado 1089475" d="M254.509,25.817v3.128a7.315,7.315,0,0,1-7.2,7.108,6.9,6.9,0,0,1-2.243-.375,7.328,7.328,0,0,0,4.957-6.732V25.817a7.206,7.206,0,0,0-4.957-6.848,7.209,7.209,0,0,1,9.444,6.848Z" transform="translate(-232.808 -18.614)" fill="#ba5d4f"/>
                  </g>
                </g>
              </g>
            </g>
          </g>
        </g>
        <g id="Grupo_1219200" data-name="Grupo 1219200" transform="translate(31.344 35.402)">
          <path id="Trazado_1089476" data-name="Trazado 1089476" d="M187.6,220.691h28.055V254.5H187.6Z" transform="translate(-182.01 -214.652)" fill="#a34f41"/>
          <path id="Trazado_1089477" data-name="Trazado 1089477" d="M215.656,220.694V254.5h-5.2V230.256a3.231,3.231,0,0,0-3.231-3.231H187.6v-6.331Z" transform="translate(-182.01 -214.654)" fill="#873f30"/>
          <path id="Trazado_1089478" data-name="Trazado 1089478" d="M197.518,198.668H162.4a2.058,2.058,0,0,1-2.058-2.058V193.3a2.058,2.058,0,0,1,2.058-2.058h35.12a2.058,2.058,0,0,1,2.058,2.058v3.309A2.058,2.058,0,0,1,197.518,198.668Z" transform="translate(-160.34 -191.243)" fill="#ba5d4f"/>
          <path id="Trazado_1089479" data-name="Trazado 1089479" d="M323.848,193.3v3.31a2.058,2.058,0,0,1-2.057,2.059h-5.119a2.058,2.058,0,0,0,2.057-2.059V193.3a2.057,2.057,0,0,0-2.057-2.057h5.119A2.057,2.057,0,0,1,323.848,193.3Z" transform="translate(-284.612 -191.244)" fill="#a34f41"/>
        </g>
        <g id="Grupo_1219225" data-name="Grupo 1219225" transform="translate(12.74 52.224)">
          <g id="Grupo_1219208" data-name="Grupo 1219208" transform="translate(25.48)">
            <g id="Grupo_1219207" data-name="Grupo 1219207">
              <g id="Grupo_1219206" data-name="Grupo 1219206">
                <g id="Grupo_1219205" data-name="Grupo 1219205">
                  <g id="Grupo_1219204" data-name="Grupo 1219204">
                    <g id="Grupo_1219203" data-name="Grupo 1219203">
                      <g id="Grupo_1219202" data-name="Grupo 1219202" transform="translate(0 13.155)">
                        <g id="Grupo_1219201" data-name="Grupo 1219201">
                          <path id="Trazado_1089480" data-name="Trazado 1089480" d="M219.356,367.6H193.875l1.85-22.02a7.207,7.207,0,0,1,4.972-6.257l5.918-1.906,5.918,1.906a7.207,7.207,0,0,1,4.972,6.257Z" transform="translate(-193.875 -337.413)" fill="#bcea73"/>
                          <path id="Trazado_1089481" data-name="Trazado 1089481" d="M280.614,371.426h-5.285l-1.851-23.252c-.2-2.512-.532-4.717-2.541-5.945l2.854.919a7.206,7.206,0,0,1,4.971,6.256Z" transform="translate(-255.133 -341.241)" fill="#a3e440"/>
                        </g>
                      </g>
                      <path id="Trazado_1089482" data-name="Trazado 1089482" d="M231.473,273.271a6.328,6.328,0,0,0-6.327,6.327v2.749a6.328,6.328,0,0,0,12.655,0V279.6A6.328,6.328,0,0,0,231.473,273.271Z" transform="translate(-218.733 -273.27)" fill="#d5887a"/>
                      <path id="Trazado_1089483" data-name="Trazado 1089483" d="M254.688,279.6v2.748a6.427,6.427,0,0,1-6.327,6.245,6.062,6.062,0,0,1-1.971-.33,6.439,6.439,0,0,0,4.356-5.915V279.6a6.331,6.331,0,0,0-4.356-6.017,6.334,6.334,0,0,1,8.3,6.017Z" transform="translate(-235.62 -273.268)" fill="#c86f5c"/>
                    </g>
                  </g>
                </g>
              </g>
            </g>
          </g>
          <g id="Grupo_1219216" data-name="Grupo 1219216" transform="translate(50.962)">
            <g id="Grupo_1219215" data-name="Grupo 1219215">
              <g id="Grupo_1219214" data-name="Grupo 1219214">
                <g id="Grupo_1219213" data-name="Grupo 1219213">
                  <g id="Grupo_1219212" data-name="Grupo 1219212">
                    <g id="Grupo_1219211" data-name="Grupo 1219211">
                      <g id="Grupo_1219210" data-name="Grupo 1219210" transform="translate(0 13.155)">
                        <g id="Grupo_1219209" data-name="Grupo 1219209">
                          <path id="Trazado_1089484" data-name="Trazado 1089484" d="M343.608,367.6h-25.48l1.85-22.02a7.207,7.207,0,0,1,4.972-6.257l5.918-1.906,5.918,1.906a7.207,7.207,0,0,1,4.972,6.257Z" transform="translate(-318.128 -337.413)" fill="#fcb44d"/>
                          <path id="Trazado_1089485" data-name="Trazado 1089485" d="M404.866,371.426H399.58l-1.851-23.252c-.2-2.512-.532-4.717-2.541-5.945l2.854.919a7.206,7.206,0,0,1,4.971,6.256Z" transform="translate(-379.386 -341.241)" fill="#fb9927"/>
                        </g>
                      </g>
                      <path id="Trazado_1089486" data-name="Trazado 1089486" d="M355.725,273.271A6.328,6.328,0,0,0,349.4,279.6v2.749a6.328,6.328,0,0,0,12.655,0V279.6A6.328,6.328,0,0,0,355.725,273.271Z" transform="translate(-342.985 -273.27)" fill="#a34f41"/>
                      <path id="Trazado_1089487" data-name="Trazado 1089487" d="M378.941,279.6v2.748a6.427,6.427,0,0,1-6.327,6.245,6.062,6.062,0,0,1-1.971-.33A6.439,6.439,0,0,0,375,282.345V279.6a6.331,6.331,0,0,0-4.356-6.017,6.334,6.334,0,0,1,8.3,6.017Z" transform="translate(-359.873 -273.268)" fill="#873f30"/>
                    </g>
                  </g>
                </g>
              </g>
            </g>
          </g>
          <g id="Grupo_1219224" data-name="Grupo 1219224">
            <g id="Grupo_1219223" data-name="Grupo 1219223">
              <g id="Grupo_1219222" data-name="Grupo 1219222">
                <g id="Grupo_1219221" data-name="Grupo 1219221">
                  <g id="Grupo_1219220" data-name="Grupo 1219220">
                    <g id="Grupo_1219219" data-name="Grupo 1219219">
                      <g id="Grupo_1219218" data-name="Grupo 1219218" transform="translate(0 13.155)">
                        <g id="Grupo_1219217" data-name="Grupo 1219217">
                          <path id="Trazado_1089488" data-name="Trazado 1089488" d="M95.107,367.6H69.627l1.85-22.02a7.207,7.207,0,0,1,4.972-6.257l5.918-1.906,5.918,1.906a7.207,7.207,0,0,1,4.972,6.257Z" transform="translate(-69.627 -337.413)" fill="#27d1b3"/>
                          <path id="Trazado_1089489" data-name="Trazado 1089489" d="M156.38,371.426h-5.287l-1.851-23.252c-.2-2.512-.53-4.716-2.537-5.945l2.851.919a7.208,7.208,0,0,1,4.973,6.256Z" transform="translate(-130.898 -341.241)" fill="#20b69f"/>
                        </g>
                      </g>
                      <path id="Trazado_1089490" data-name="Trazado 1089490" d="M107.224,273.271A6.327,6.327,0,0,0,100.9,279.6v2.749a6.328,6.328,0,0,0,12.655,0V279.6A6.327,6.327,0,0,0,107.224,273.271Z" transform="translate(-94.484 -273.27)" fill="#ffcec0"/>
                      <path id="Trazado_1089491" data-name="Trazado 1089491" d="M130.44,279.6v2.748a6.427,6.427,0,0,1-6.327,6.245,6.062,6.062,0,0,1-1.971-.33,6.439,6.439,0,0,0,4.356-5.915V279.6a6.331,6.331,0,0,0-4.356-6.017,6.334,6.334,0,0,1,8.3,6.017Z" transform="translate(-111.372 -273.268)" fill="#fdb0a0"/>
                    </g>
                  </g>
                </g>
              </g>
            </g>
          </g>
        </g>
        <g id="Grupo_1219261" data-name="Grupo 1219261" transform="translate(0 69.074)">
          <g id="Grupo_1219242" data-name="Grupo 1219242">
            <g id="Grupo_1219233" data-name="Grupo 1219233">
              <g id="Grupo_1219232" data-name="Grupo 1219232">
                <g id="Grupo_1219231" data-name="Grupo 1219231">
                  <g id="Grupo_1219230" data-name="Grupo 1219230">
                    <g id="Grupo_1219229" data-name="Grupo 1219229">
                      <g id="Grupo_1219228" data-name="Grupo 1219228">
                        <g id="Grupo_1219227" data-name="Grupo 1219227" transform="translate(0 13.155)">
                          <g id="Grupo_1219226" data-name="Grupo 1219226">
                            <path id="Trazado_1089492" data-name="Trazado 1089492" d="M32.982,434.715H7.5l1.581-8.253a6.019,6.019,0,0,1,4.066-4.6l7.093-2.285,7.093,2.285a6.019,6.019,0,0,1,4.066,4.6Z" transform="translate(-7.502 -419.58)" fill="#fb3a82"/>
                            <path id="Trazado_1089493" data-name="Trazado 1089493" d="M99.019,440.078h-5.2l-1.58-9.3c-.317-1.861-.277-3.46-1.659-4.449l2.8.9a6.024,6.024,0,0,1,4.067,4.6Z" transform="translate(-73.539 -424.943)" fill="#fb1466"/>
                          </g>
                        </g>
                        <path id="Trazado_1089494" data-name="Trazado 1089494" d="M45.1,355.437a6.327,6.327,0,0,0-6.327,6.327v2.749a6.328,6.328,0,0,0,12.655,0v-2.749A6.327,6.327,0,0,0,45.1,355.437Z" transform="translate(-32.359 -355.436)" fill="#a34f41"/>
                        <path id="Trazado_1089495" data-name="Trazado 1089495" d="M68.315,361.763v2.748a6.427,6.427,0,0,1-6.327,6.245,6.063,6.063,0,0,1-1.971-.33,6.439,6.439,0,0,0,4.356-5.915v-2.748a6.331,6.331,0,0,0-4.356-6.017,6.334,6.334,0,0,1,8.3,6.017Z" transform="translate(-49.247 -355.434)" fill="#873f30"/>
                      </g>
                    </g>
                  </g>
                </g>
              </g>
            </g>
            <g id="Grupo_1219241" data-name="Grupo 1219241" transform="translate(25.48)">
              <g id="Grupo_1219240" data-name="Grupo 1219240">
                <g id="Grupo_1219239" data-name="Grupo 1219239">
                  <g id="Grupo_1219238" data-name="Grupo 1219238">
                    <g id="Grupo_1219237" data-name="Grupo 1219237">
                      <g id="Grupo_1219236" data-name="Grupo 1219236">
                        <g id="Grupo_1219235" data-name="Grupo 1219235" transform="translate(0 13.155)">
                          <g id="Grupo_1219234" data-name="Grupo 1219234">
                            <path id="Trazado_1089496" data-name="Trazado 1089496" d="M157.231,434.715H131.75l1.581-8.253a6.019,6.019,0,0,1,4.066-4.6l7.093-2.285,7.093,2.285a6.019,6.019,0,0,1,4.066,4.6Z" transform="translate(-131.75 -419.58)" fill="#21c1f8"/>
                            <path id="Trazado_1089497" data-name="Trazado 1089497" d="M223.27,440.078h-5.2l-1.58-9.3c-.317-1.861-.277-3.46-1.659-4.449l2.8.9a6.02,6.02,0,0,1,4.065,4.6Z" transform="translate(-197.789 -424.943)" fill="#1faaee"/>
                          </g>
                        </g>
                        <path id="Trazado_1089498" data-name="Trazado 1089498" d="M169.348,355.437a6.327,6.327,0,0,0-6.327,6.327v2.749a6.328,6.328,0,0,0,12.655,0v-2.749A6.328,6.328,0,0,0,169.348,355.437Z" transform="translate(-156.608 -355.436)" fill="#ffcec0"/>
                        <path id="Trazado_1089499" data-name="Trazado 1089499" d="M192.563,361.763v2.748a6.427,6.427,0,0,1-6.327,6.245,6.062,6.062,0,0,1-1.971-.33,6.439,6.439,0,0,0,4.356-5.915v-2.748a6.331,6.331,0,0,0-4.356-6.017,6.334,6.334,0,0,1,8.3,6.017Z" transform="translate(-173.495 -355.434)" fill="#fdb0a0"/>
                      </g>
                    </g>
                  </g>
                </g>
              </g>
            </g>
          </g>
          <g id="Grupo_1219251" data-name="Grupo 1219251" transform="translate(50.961)">
            <g id="Grupo_1219250" data-name="Grupo 1219250">
              <g id="Grupo_1219249" data-name="Grupo 1219249">
                <g id="Grupo_1219248" data-name="Grupo 1219248">
                  <g id="Grupo_1219247" data-name="Grupo 1219247">
                    <g id="Grupo_1219246" data-name="Grupo 1219246">
                      <g id="Grupo_1219245" data-name="Grupo 1219245">
                        <g id="Grupo_1219244" data-name="Grupo 1219244" transform="translate(0 13.155)">
                          <g id="Grupo_1219243" data-name="Grupo 1219243">
                            <path id="Trazado_1089500" data-name="Trazado 1089500" d="M281.48,434.715H256l1.581-8.253a6.019,6.019,0,0,1,4.066-4.6l7.093-2.285,7.093,2.285a6.019,6.019,0,0,1,4.066,4.6Z" transform="translate(-255.999 -419.58)" fill="#fc95bb"/>
                            <path id="Trazado_1089501" data-name="Trazado 1089501" d="M347.521,440.078h-5.2l-1.582-9.3c-.315-1.861-.276-3.46-1.658-4.449l2.8.9a6.026,6.026,0,0,1,4.065,4.6Z" transform="translate(-322.04 -424.943)" fill="#fc78a8"/>
                          </g>
                        </g>
                        <path id="Trazado_1089502" data-name="Trazado 1089502" d="M293.6,355.437a6.328,6.328,0,0,0-6.327,6.327v2.749a6.328,6.328,0,0,0,12.655,0v-2.749A6.328,6.328,0,0,0,293.6,355.437Z" transform="translate(-280.857 -355.436)" fill="#fdb0a0"/>
                        <path id="Trazado_1089503" data-name="Trazado 1089503" d="M316.812,361.763v2.748a6.427,6.427,0,0,1-6.327,6.245,6.062,6.062,0,0,1-1.971-.33,6.439,6.439,0,0,0,4.356-5.915v-2.748a6.331,6.331,0,0,0-4.356-6.017,6.334,6.334,0,0,1,8.3,6.017Z" transform="translate(-297.744 -355.434)" fill="#f69583"/>
                      </g>
                    </g>
                  </g>
                </g>
              </g>
            </g>
          </g>
          <g id="Grupo_1219260" data-name="Grupo 1219260" transform="translate(76.442)">
            <g id="Grupo_1219259" data-name="Grupo 1219259">
              <g id="Grupo_1219258" data-name="Grupo 1219258">
                <g id="Grupo_1219257" data-name="Grupo 1219257">
                  <g id="Grupo_1219256" data-name="Grupo 1219256">
                    <g id="Grupo_1219255" data-name="Grupo 1219255">
                      <g id="Grupo_1219254" data-name="Grupo 1219254">
                        <g id="Grupo_1219253" data-name="Grupo 1219253" transform="translate(0 13.155)">
                          <g id="Grupo_1219252" data-name="Grupo 1219252">
                            <path id="Trazado_1089504" data-name="Trazado 1089504" d="M405.73,434.715H380.249l1.581-8.253a6.019,6.019,0,0,1,4.066-4.6l7.093-2.285,7.093,2.285a6.019,6.019,0,0,1,4.066,4.6Z" transform="translate(-380.249 -419.58)" fill="#f3eae6"/>
                            <path id="Trazado_1089505" data-name="Trazado 1089505" d="M471.772,440.078h-5.2l-1.582-9.3c-.315-1.861-.276-3.46-1.658-4.449l2.8.9a6.026,6.026,0,0,1,4.065,4.6Z" transform="translate(-446.29 -424.943)" fill="#e0d3ce"/>
                          </g>
                        </g>
                        <path id="Trazado_1089506" data-name="Trazado 1089506" d="M417.847,355.437a6.327,6.327,0,0,0-6.327,6.327v2.749a6.328,6.328,0,0,0,12.655,0v-2.749A6.328,6.328,0,0,0,417.847,355.437Z" transform="translate(-405.107 -355.436)" fill="#fdb0a0"/>
                        <path id="Trazado_1089507" data-name="Trazado 1089507" d="M441.062,361.763v2.748a6.427,6.427,0,0,1-6.327,6.245,6.063,6.063,0,0,1-1.971-.33,6.439,6.439,0,0,0,4.356-5.915v-2.748a6.331,6.331,0,0,0-4.356-6.017,6.334,6.334,0,0,1,8.3,6.017Z" transform="translate(-421.994 -355.434)" fill="#f69583"/>
                      </g>
                    </g>
                  </g>
                </g>
              </g>
            </g>
          </g>
        </g>
        <g id="Grupo_1219262" data-name="Grupo 1219262" transform="translate(62.676 13.527)">
          <path id="Trazado_1089508" data-name="Trazado 1089508" d="M327.483,84.588a13.751,13.751,0,0,0-6.957,1.562H315.72a1.026,1.026,0,0,0-1.025,1.025v4.806a13.8,13.8,0,1,0,12.788-7.393Z" transform="translate(-313.122 -84.576)" fill="#fcb44d"/>
          <path id="Trazado_1089509" data-name="Trazado 1089509" d="M370.143,112.173a13.4,13.4,0,0,1-2.1-.23,13.8,13.8,0,0,0,0-27.134,13.8,13.8,0,1,1,2.1,27.363Z" transform="translate(-356.78 -84.574)" fill="#fb9927"/>
        </g>
      </g>
      <g id="Grupo_1219264" data-name="Grupo 1219264" transform="translate(-0.002 11.118)">
        <path id="Trazado_1089510" data-name="Trazado 1089510" d="M104.97,109.73l-1.581-8.253a7.555,7.555,0,0,0-5.105-5.771l-1.2-.388a7.618,7.618,0,0,0,1.5-4.511V88.058A7.863,7.863,0,0,0,87.945,80.7a8.708,8.708,0,0,0-3.577-2.222l-.029-.009a7.618,7.618,0,0,0,1.5-4.511V71.207a7.866,7.866,0,1,0-15.731,0v2.749a7.617,7.617,0,0,0,1.5,4.511l-.029.009a8.71,8.71,0,0,0-3.526,2.172V57.021h1.995a3.6,3.6,0,0,0,3.386-2.4,15.179,15.179,0,0,0,4.082.693q.249.008.5.008A15.318,15.318,0,0,0,91.571,32.832a1.538,1.538,0,1,0-2.716,1.443A12.253,12.253,0,0,1,77.622,52.242,12.263,12.263,0,0,1,67.148,34.3a1.538,1.538,0,0,0,.176-.714V29.294h4.293a1.536,1.536,0,0,0,.714-.176,12.21,12.21,0,0,1,12.112.438,1.538,1.538,0,0,0,1.623-2.614,15.285,15.285,0,0,0-14.817-.725H66.811a2.566,2.566,0,0,0-2.563,2.563v4.438c-.18.366-.344.74-.494,1.118a8.4,8.4,0,0,0-2.711-1.473l-4.291-1.382V30.5a8.734,8.734,0,0,0,4.486-7.512V19.857a8.739,8.739,0,0,0-17.479,0v3.129A8.734,8.734,0,0,0,48.245,30.5v.985l-4.29,1.382a8.386,8.386,0,0,0-5.667,6.406L36.9,46.519H34.938a3.6,3.6,0,0,0-3.6,3.6v3.309a3.6,3.6,0,0,0,3.6,3.6h1.995v8.363a1.538,1.538,0,1,0,3.076,0V57.021H55.325a1.538,1.538,0,1,0,0-3.076H34.939a.52.52,0,0,1-.52-.52V50.115a.52.52,0,0,1,.52-.52H66.08a15.5,15.5,0,0,0,4.5,3.8v.033a.521.521,0,0,1-.52.52H62.584a1.538,1.538,0,0,0,0,3.076h2.4V80.2a7.819,7.819,0,0,0-2.524.5,8.71,8.71,0,0,0-3.577-2.223l-.029-.009a7.618,7.618,0,0,0,1.5-4.511V71.207a7.866,7.866,0,0,0-15.731,0v2.749a7.618,7.618,0,0,0,1.5,4.511l-.029.009A8.712,8.712,0,0,0,42.532,80.7a7.816,7.816,0,0,0-2.523-.5V72.643a1.538,1.538,0,1,0-3.076,0v8a8.71,8.71,0,0,0-3.526-2.172l-.029-.009a7.618,7.618,0,0,0,1.5-4.511V71.207a7.866,7.866,0,0,0-15.731,0v2.749a7.618,7.618,0,0,0,1.5,4.511l-.029.009A8.7,8.7,0,0,0,17.051,80.7a7.863,7.863,0,0,0-10.64,7.359v2.749a7.618,7.618,0,0,0,1.5,4.511l-1.2.388a7.555,7.555,0,0,0-5.105,5.771L.025,109.73a1.538,1.538,0,1,0,3.021.579l1.581-8.253a4.48,4.48,0,0,1,3.027-3.422l2.981-.96a7.678,7.678,0,0,0,7.281,0l2.981.96a4.48,4.48,0,0,1,3.027,3.422l1.581,8.253a1.538,1.538,0,0,0,3.02.005l1.583-8.258a4.479,4.479,0,0,1,3.027-3.422l2.981-.96a7.678,7.678,0,0,0,7.281,0l2.981.96a4.48,4.48,0,0,1,3.027,3.422l1.581,8.253a1.538,1.538,0,0,0,3.02.005l1.583-8.258a4.48,4.48,0,0,1,3.027-3.422l2.981-.96a7.678,7.678,0,0,0,7.281,0l2.981.96a4.479,4.479,0,0,1,3.027,3.422l1.581,8.253a1.538,1.538,0,0,0,3.019.008l1.584-8.261A4.48,4.48,0,0,1,84.1,98.633l2.981-.96a7.678,7.678,0,0,0,7.281,0l2.981.96a4.479,4.479,0,0,1,3.027,3.422l1.581,8.253a1.538,1.538,0,0,0,3.022-.579ZM51.622,46.519,47.137,35.071l1.283-.413a4.25,4.25,0,0,0,8.156,0l1.283.413L53.375,46.519ZM46.835,19.857a5.663,5.663,0,0,1,11.326,0v3.129a5.664,5.664,0,0,1-11.326,0ZM52.5,31.633a8.473,8.473,0,0,0,1.177-.084v1.908a1.177,1.177,0,1,1-2.355,0V31.548A8.469,8.469,0,0,0,52.5,31.633ZM41.309,39.85a5.311,5.311,0,0,1,2.913-3.787l4.1,10.457H40.031Zm15.37,6.669,4.094-10.452a5.337,5.337,0,0,1,2.058,1.752,15.388,15.388,0,0,0-.143,2.786,15.177,15.177,0,0,0,1.459,5.914H56.678ZM73.19,71.207a4.789,4.789,0,0,1,9.579,0v2.749a4.79,4.79,0,0,1-9.579,0Zm-25.481,0a4.789,4.789,0,1,1,9.579,0v2.749a4.79,4.79,0,0,1-9.579,0Zm-25.48,0a4.789,4.789,0,0,1,9.579,0v2.749a4.79,4.79,0,0,1-9.579,0Zm-12.74,19.6V88.057a4.789,4.789,0,1,1,9.579,0v2.749a4.874,4.874,0,0,1-4.789,4.708,4.874,4.874,0,0,1-4.789-4.708Zm17.53,10.67a7.641,7.641,0,0,0-5.176-5.771l-1.2-.388a7.618,7.618,0,0,0,1.5-4.511V88.057A7.84,7.84,0,0,0,19.734,82.4a5.656,5.656,0,0,1,1.838-1l1.805-.582a7.678,7.678,0,0,0,7.281,0l1.805.582a5.657,5.657,0,0,1,1.837,1,7.841,7.841,0,0,0-2.409,5.657v2.749a7.618,7.618,0,0,0,1.5,4.511l-1.2.388A7.641,7.641,0,0,0,27.017,101.476Zm7.951-10.67V88.057a4.789,4.789,0,1,1,9.579,0v2.749a4.79,4.79,0,0,1-9.579,0Zm17.53,10.67a7.641,7.641,0,0,0-5.176-5.771l-1.2-.388a7.618,7.618,0,0,0,1.5-4.511V88.057A7.841,7.841,0,0,0,45.215,82.4a5.654,5.654,0,0,1,1.837-1l1.806-.582a7.678,7.678,0,0,0,7.281,0l1.805.582a5.651,5.651,0,0,1,1.837,1,7.841,7.841,0,0,0-2.409,5.657v2.749a7.619,7.619,0,0,0,1.5,4.511l-1.2.388a7.64,7.64,0,0,0-5.176,5.771Zm7.951-10.67V88.057a4.789,4.789,0,1,1,9.579,0v2.749a4.79,4.79,0,0,1-9.579,0Zm17.531,10.67A7.642,7.642,0,0,0,72.8,95.705l-1.2-.388a7.618,7.618,0,0,0,1.5-4.511V88.057A7.841,7.841,0,0,0,70.7,82.4a5.656,5.656,0,0,1,1.838-1l1.805-.582a7.678,7.678,0,0,0,7.281,0l1.805.582a5.654,5.654,0,0,1,1.837,1,7.842,7.842,0,0,0-2.409,5.657v2.749a7.618,7.618,0,0,0,1.5,4.511l-1.2.388a7.639,7.639,0,0,0-5.175,5.771Zm7.95-10.67V88.057a4.789,4.789,0,1,1,9.579,0v2.749a4.79,4.79,0,0,1-9.579,0Z" transform="translate(0.002 -11.118)"/>
        <path id="Trazado_1089511" data-name="Trazado 1089511" d="M355.266,121.706v-3.851a1.537,1.537,0,0,0-.894-2.788H349.4a1.537,1.537,0,0,0-3.073,0h-4.977a1.537,1.537,0,0,0-.893,2.788v3.851h-.015a1.538,1.538,0,1,0,0,3.076h3.107a1.538,1.538,0,1,0,0-3.076h-.015v-3.563h2.793V126.2h-1.707a1.538,1.538,0,0,0,0,3.076h6.49a1.538,1.538,0,1,0,0-3.076H349.4v-8.056h2.793v3.563h-.015a1.538,1.538,0,1,0,0,3.076h3.107a1.538,1.538,0,1,0,0-3.076h-.015Z" transform="translate(-269.398 -92.551)"/>
      </g>
    </g>
  </g>
</svg>
