<svg xmlns="http://www.w3.org/2000/svg" xmlns:xlink="http://www.w3.org/1999/xlink" width="108" height="108" viewBox="0 0 108 108">
  <defs>
    <filter id="Trazado_904820" x="0" y="0" width="108" height="108" filterUnits="userSpaceOnUse">
      <feOffset dy="3" input="SourceAlpha"/>
      <feGaussianBlur stdDeviation="3" result="blur"/>
      <feFlood flood-opacity="0.161"/>
      <feComposite operator="in" in2="blur"/>
      <feComposite in="SourceGraphic"/>
    </filter>
  </defs>
  <g id="Grupo_1218825" data-name="Grupo 1218825" transform="translate(-191 -925)">
    <g id="Grupo_1218002" data-name="Grupo 1218002" transform="translate(-14 587.5)">
      <g id="Grupo_1211578" data-name="Grupo 1211578" transform="translate(8 -2328.555)">
        <g id="Grupo_1207774" data-name="Grupo 1207774" transform="translate(206 2670.713)">
          <g id="Grupo_1206630" data-name="Grupo 1206630" transform="translate(0 1.342)">
            <g id="Grupo_1185091" data-name="Grupo 1185091" transform="translate(0 0)">
              <g id="Grupo_1179560" data-name="Grupo 1179560">
                <g id="Grupo_1173787" data-name="Grupo 1173787" transform="translate(0)">
                  <g id="Grupo_1171910" data-name="Grupo 1171910">
                    <g id="Grupo_1167341" data-name="Grupo 1167341">
                      <g id="Grupo_1166792" data-name="Grupo 1166792">
                        <g transform="matrix(1, 0, 0, 1, -9, -6)" filter="url(#Trazado_904820)">
                          <g id="Trazado_904820-2" data-name="Trazado 904820" transform="translate(9 6)" fill="#edeef2">
                            <path d="M 44.99999618530273 88.50006866455078 C 39.12687301635742 88.50006866455078 33.43022155761719 87.35014343261719 28.06829643249512 85.08222961425781 C 22.88852119445801 82.89136505126953 18.23629570007324 79.75465393066406 14.24084663391113 75.75919342041016 C 10.24540901184082 71.76374053955078 7.108683586120605 67.11151885986328 4.917821407318115 61.93174362182617 C 2.649921178817749 56.56980514526367 1.499996185302734 50.87315368652344 1.499996185302734 45.00003051757812 C 1.499996185302734 39.12690734863281 2.649921178817749 33.43025588989258 4.917821407318115 28.06831741333008 C 7.108683586120605 22.88854217529297 10.24540901184082 18.23631858825684 14.24084663391113 14.24086761474609 C 18.23629570007324 10.24541759490967 22.88852119445801 7.10869312286377 28.06829643249512 4.917842864990234 C 33.43022155761719 2.649930477142334 39.12687301635742 1.500005483627319 44.99999618530273 1.500005483627319 C 50.87311935424805 1.500005483627319 56.56977081298828 2.649930477142334 61.93169784545898 4.917842864990234 C 67.11147308349609 7.10869312286377 71.76369476318359 10.24541759490967 75.75914764404297 14.24086761474609 C 79.75458526611328 18.23631858825684 82.89131164550781 22.88854217529297 85.08216857910156 28.06831741333008 C 87.35007476806641 33.43025588989258 88.5 39.12690734863281 88.5 45.00003051757812 C 88.5 50.87315368652344 87.35007476806641 56.56980514526367 85.08216857910156 61.93174362182617 C 82.89131164550781 67.11151885986328 79.75458526611328 71.76374053955078 75.75914764404297 75.75919342041016 C 71.76369476318359 79.75465393066406 67.11147308349609 82.89136505126953 61.93169784545898 85.08222961425781 C 56.56977081298828 87.35014343261719 50.87311935424805 88.50006866455078 44.99999618530273 88.50006866455078 Z" stroke="none"/>
                            <path d="M 44.99999618530273 3 C 39.32870864868164 3 33.82865142822266 4.110061645507812 28.65262603759766 6.299346923828125 C 23.65165710449219 8.414573669433594 19.15968322753906 11.44334411621094 15.301513671875 15.30152893066406 C 11.44333648681641 19.15969848632812 8.414566040039062 23.65167236328125 6.299339294433594 28.65264511108398 C 4.110054016113281 33.82868576049805 2.999992370605469 39.32874298095703 2.999992370605469 45.00003051757812 C 2.999992370605469 50.67131805419922 4.110054016113281 56.1713752746582 6.299339294433594 61.34741592407227 C 8.414566040039062 66.348388671875 11.44333648681641 70.84036254882812 15.301513671875 74.69853210449219 C 19.15968322753906 78.55671691894531 23.65165710449219 81.58548736572266 28.65262603759766 83.70071411132812 C 33.82865142822266 85.88999938964844 39.32870864868164 87.00006103515625 44.99999618530273 87.00006103515625 C 50.67128372192383 87.00006103515625 56.17134094238281 85.88999938964844 61.34736633300781 83.70071411132812 C 66.34834289550781 81.58548736572266 70.84030914306641 78.55671691894531 74.69847869873047 74.69853210449219 C 78.55665588378906 70.84036254882812 81.58542633056641 66.348388671875 83.70065307617188 61.34741592407227 C 85.88993835449219 56.1713752746582 87 50.67131805419922 87 45.00003051757812 C 87 39.32874298095703 85.88993835449219 33.82868576049805 83.70065307617188 28.65264511108398 C 81.58542633056641 23.65167236328125 78.55665588378906 19.15969848632812 74.69847869873047 15.30152893066406 C 70.84030914306641 11.44334411621094 66.34834289550781 8.414573669433594 61.34736633300781 6.299346923828125 C 56.17134094238281 4.110061645507812 50.67128372192383 3 44.99999618530273 3 M 44.99999618530273 0 C 69.85281372070312 0 90 20.14720153808594 90 45.00003051757812 C 90 69.85285949707031 69.85281372070312 90.00006103515625 44.99999618530273 90.00006103515625 C 20.14717864990234 90.00006103515625 -7.62939453125e-06 69.85285949707031 -7.62939453125e-06 45.00003051757812 C -7.62939453125e-06 20.14720153808594 20.14717864990234 0 44.99999618530273 0 Z" stroke="none" fill="#56678d"/>
                          </g>
                        </g>
                      </g>
                    </g>
                  </g>
                </g>
              </g>
            </g>
          </g>
        </g>
      </g>
    </g>
    <g id="partido-politico_2_" data-name="partido-politico (2)" transform="translate(200 929.513)">
      <g id="Grupo_1218823" data-name="Grupo 1218823" transform="translate(1.34 28.386)">
        <g id="Grupo_1218821" data-name="Grupo 1218821">
          <g id="Grupo_1218813" data-name="Grupo 1218813" transform="translate(11.101)">
            <g id="Grupo_1218810" data-name="Grupo 1218810" transform="translate(44.404)">
              <circle id="Elipse_12067" data-name="Elipse 12067" cx="5.55" cy="5.55" r="5.55" transform="translate(5.551)" fill="#7a8c98"/>
              <path id="Trazado_1089092" data-name="Trazado 1089092" d="M340.327,248.08h-22.2V226.192a5.2,5.2,0,0,1,5.2-5.2h11.795a5.2,5.2,0,0,1,5.2,5.2Z" transform="translate(-318.125 -209.887)" fill="#7a8c98"/>
            </g>
            <g id="Grupo_1218811" data-name="Grupo 1218811" transform="translate(22.202)">
              <circle id="Elipse_12068" data-name="Elipse 12068" cx="5.55" cy="5.55" r="5.55" transform="translate(5.551)" fill="#7a8c98"/>
              <path id="Trazado_1089093" data-name="Trazado 1089093" d="M216.077,248.08h-22.2V226.192a5.2,5.2,0,0,1,5.2-5.2h11.795a5.2,5.2,0,0,1,5.2,5.2Z" transform="translate(-193.875 -209.887)" fill="#7a8c98"/>
            </g>
            <g id="Grupo_1218812" data-name="Grupo 1218812">
              <circle id="Elipse_12069" data-name="Elipse 12069" cx="5.55" cy="5.55" r="5.55" transform="translate(5.551)" fill="#7a8c98"/>
              <path id="Trazado_1089094" data-name="Trazado 1089094" d="M91.827,248.08h-22.2V226.192a5.2,5.2,0,0,1,5.2-5.2H86.623a5.2,5.2,0,0,1,5.2,5.2Z" transform="translate(-69.625 -209.887)" fill="#7a8c98"/>
            </g>
          </g>
          <g id="Grupo_1218815" data-name="Grupo 1218815" transform="translate(0 19.915)">
            <g id="Grupo_1218814" data-name="Grupo 1218814" transform="translate(5.551)">
              <circle id="Elipse_12070" data-name="Elipse 12070" cx="5.55" cy="5.55" r="5.55" fill="#b6c4cf"/>
            </g>
            <path id="Trazado_1089095" data-name="Trazado 1089095" d="M29.7,348.742H7.5v-11.1a5.2,5.2,0,0,1,5.2-5.2H24.5a5.2,5.2,0,0,1,5.2,5.2Z" transform="translate(-7.5 -321.336)" fill="#b6c4cf"/>
          </g>
          <g id="Grupo_1218817" data-name="Grupo 1218817" transform="translate(22.202 19.915)">
            <g id="Grupo_1218816" data-name="Grupo 1218816" transform="translate(5.551)">
              <circle id="Elipse_12071" data-name="Elipse 12071" cx="5.55" cy="5.55" r="5.55" fill="#b6c4cf"/>
            </g>
            <path id="Trazado_1089096" data-name="Trazado 1089096" d="M153.952,348.742h-22.2v-11.1a5.2,5.2,0,0,1,5.2-5.2h11.795a5.2,5.2,0,0,1,5.2,5.2Z" transform="translate(-131.75 -321.336)" fill="#b6c4cf"/>
          </g>
          <g id="Grupo_1218819" data-name="Grupo 1218819" transform="translate(44.404 19.915)">
            <g id="Grupo_1218818" data-name="Grupo 1218818" transform="translate(5.551)">
              <circle id="Elipse_12072" data-name="Elipse 12072" cx="5.55" cy="5.55" r="5.55" fill="#b6c4cf"/>
            </g>
            <path id="Trazado_1089097" data-name="Trazado 1089097" d="M256,348.742h22.2v-11.1a5.2,5.2,0,0,0-5.2-5.2H261.2a5.2,5.2,0,0,0-5.2,5.2Z" transform="translate(-256 -321.336)" fill="#b6c4cf"/>
          </g>
          <g id="Grupo_1218820" data-name="Grupo 1218820" transform="translate(66.606 19.915)">
            <circle id="Elipse_12073" data-name="Elipse 12073" cx="5.55" cy="5.55" r="5.55" transform="translate(5.551)" fill="#b6c4cf"/>
            <path id="Trazado_1089098" data-name="Trazado 1089098" d="M402.452,348.742h-22.2v-11.1a5.2,5.2,0,0,1,5.2-5.2h11.795a5.2,5.2,0,0,1,5.2,5.2Z" transform="translate(-380.25 -321.336)" fill="#b6c4cf"/>
          </g>
        </g>
        <g id="Grupo_1218822" data-name="Grupo 1218822" transform="translate(29.963 15.899)">
          <path id="Trazado_1089099" data-name="Trazado 1089099" d="M175.187,438.123v-8.664a5.776,5.776,0,0,1,5.776-5.776h17.328a5.776,5.776,0,0,1,5.776,5.776v8.664Z" transform="translate(-175.187 -392.262)" fill="#8ac9fe"/>
          <path id="Trazado_1089100" data-name="Trazado 1089100" d="M212.566,423.687l-5.054,5.775,1.3,3.971-.762,4.693h5.776Z" transform="translate(-201.736 -392.266)" fill="#26a6fe"/>
          <path id="Trazado_1089101" data-name="Trazado 1089101" d="M243.017,423.687l-1.263,14.44H237.06l-1.264-14.44Z" transform="translate(-224.967 -392.266)" fill="#eaf6ff"/>
          <path id="Trazado_1089102" data-name="Trazado 1089102" d="M270.4,423.687l5.054,5.775-1.3,3.971.762,4.693h-5.776Z" transform="translate(-252.345 -392.266)" fill="#26a6fe"/>
          <path id="Trazado_1089103" data-name="Trazado 1089103" d="M243.017,398.794l-3.61,3.609-3.61-3.609v-5.416h7.22Z" transform="translate(-224.967 -367.372)" fill="#f6a96c"/>
          <path id="Trazado_1089104" data-name="Trazado 1089104" d="M218.666,320.514a8.123,8.123,0,0,1-8.123-8.123v-9.928h16.245v9.928A8.123,8.123,0,0,1,218.666,320.514Z" transform="translate(-204.225 -292.704)" fill="#fed2a4"/>
          <path id="Trazado_1089105" data-name="Trazado 1089105" d="M248.644,302.464v9.928a8.125,8.125,0,0,1-5.776,7.777,8.125,8.125,0,0,0,10.469-7.777v-9.928Z" transform="translate(-230.774 -292.704)" fill="#ffbd86"/>
          <path id="Trazado_1089106" data-name="Trazado 1089106" d="M303.262,331.474h-1.805V325.7h1.805a2.888,2.888,0,1,1,0,5.776Z" transform="translate(-278.894 -311.786)" fill="#f6a96c"/>
          <path id="Trazado_1089107" data-name="Trazado 1089107" d="M187.166,331.474h1.805V325.7h-1.805a2.888,2.888,0,1,0,0,5.776Z" transform="translate(-182.654 -311.786)" fill="#f6a96c"/>
          <path id="Trazado_1089108" data-name="Trazado 1089108" d="M210.383,247.841a9.928,9.928,0,0,1,9.914,9.928v3.984h-1.805l-1.1.466a4.47,4.47,0,0,1-5.174-1.26l-1.288-1.549a.722.722,0,0,0-1.11,0l-1.288,1.549a4.47,4.47,0,0,1-5.174,1.26l-1.105-.466h-1.805v-3.984a9.928,9.928,0,0,1,9.914-9.928" transform="translate(-195.929 -247.841)" fill="#fe9738"/>
          <path id="Trazado_1089109" data-name="Trazado 1089109" d="M245.231,247.841H245.2a9.946,9.946,0,0,0-2.333.281,9.93,9.93,0,0,1,7.58,9.646v4.8a4.458,4.458,0,0,0,1.783-.351l1.1-.466h1.805v-3.984A9.928,9.928,0,0,0,245.231,247.841Z" transform="translate(-230.778 -247.841)" fill="#fe860a"/>
        </g>
      </g>
      <g id="Grupo_1218824" data-name="Grupo 1218824" transform="translate(27.016 1.331)">
        <path id="Trazado_1089110" data-name="Trazado 1089110" d="M230.185,25.594l-2.272,6.715,5.325,4.68-18.991,5.089-3.053-11.395Z" transform="translate(-200.473 -22.353)" fill="#60b7ff"/>
        <path id="Trazado_1089111" data-name="Trazado 1089111" d="M0,0H19.661V11.8H0Z" transform="translate(0 5.092) rotate(-15.009)" fill="#8ac9fe"/>
      </g>
      <path id="Trazado_1089112" data-name="Trazado 1089112" d="M84.944,58.062h-.449a6.884,6.884,0,0,0-4.108-10.97v-2.4a6.551,6.551,0,0,0-6.544-6.544h-.448a6.891,6.891,0,1,0-10.9,0h-.448a6.537,6.537,0,0,0-5.2,2.58,6.537,6.537,0,0,0-5.2-2.58h-.448a6.891,6.891,0,1,0-10.9,0h-.448a6.5,6.5,0,0,0-2.779.623l-5.359-20L38.317,17,39.5,21.4a1.339,1.339,0,0,0,1.641.948l7.344-1.967a1.34,1.34,0,0,0-.693-2.589l-6.049,1.62-.833-3.108,8.5-2.277a1.34,1.34,0,0,0,.948-1.641l-1.18-4.4,5.485-1.469-1.47,4.343a1.34,1.34,0,0,0,.385,1.436l3.444,3.027-3.187.854a1.34,1.34,0,1,0,.694,2.589l5.605-1.5a1.34,1.34,0,0,0,.537-2.3l-4.654-4.09L58,5a1.34,1.34,0,0,0-1.616-1.724l-7.9,2.117L47.3.993A1.34,1.34,0,0,0,45.658.045L26.667,5.134a1.34,1.34,0,0,0-.948,1.641l9.054,33.79c-.044.054-.088.106-.13.161a6.538,6.538,0,0,0-5.2-2.58h-.448a6.891,6.891,0,1,0-10.9,0h-.448A6.551,6.551,0,0,0,11.1,44.69v2.4a6.884,6.884,0,0,0-4.108,10.97H6.544A6.551,6.551,0,0,0,0,64.605v11.1a1.34,1.34,0,0,0,1.34,1.34H9.313a1.34,1.34,0,1,0,0-2.68H2.68v-9.76a3.868,3.868,0,0,1,3.863-3.863h11.8A3.868,3.868,0,0,1,22.2,64.605v9.76H15.567a1.34,1.34,0,1,0,0,2.68H31.522a7.08,7.08,0,0,0-1.558,4.437v8.664a1.34,1.34,0,0,0,1.34,1.34h28.88a1.34,1.34,0,0,0,1.34-1.34V81.483a7.08,7.08,0,0,0-1.558-4.437H75.92a1.34,1.34,0,0,0,0-2.68H69.286v-9.76a3.868,3.868,0,0,1,3.863-3.863h11.8a3.868,3.868,0,0,1,3.863,3.863v9.76H82.174a1.34,1.34,0,0,0,0,2.68h7.973a1.34,1.34,0,0,0,1.34-1.34v-11.1a6.551,6.551,0,0,0-6.544-6.543Zm-1.687-4.211a4.21,4.21,0,1,1-4.21-4.21A4.215,4.215,0,0,1,83.257,53.851ZM63.735,33.936a4.21,4.21,0,1,1,4.21,4.21A4.215,4.215,0,0,1,63.735,33.936Zm2.87,30.669v9.76H50.693V72.034a9.479,9.479,0,0,0,4.416-6.721h.561A4.233,4.233,0,0,0,59.9,61.085c0-.116-.006-.23-.015-.344h2.858A3.868,3.868,0,0,1,66.605,64.6h0ZM51.782,85.668l.51,3.139H49.553l.862-9.853L52.9,81.79l-1.065,3.245a1.34,1.34,0,0,0-.05.633Zm-7.156,3.139-.836-9.549L44.8,80.264a1.34,1.34,0,0,0,1.9,0L47.7,79.258l-.835,9.549Zm-4.969-3.772L38.591,81.79l2.481-2.836.862,9.852H39.2l.51-3.139A1.34,1.34,0,0,0,39.656,85.035ZM33.166,57.794a4.211,4.211,0,0,1,2.252-8.082,11.194,11.194,0,0,0-.942,4.5v2.863a4.229,4.229,0,0,0-1.31.718Zm22.041,1.743h.465a1.548,1.548,0,1,1,0,3.1h-.465Zm-.875-5.325v2.644h-.465a1.34,1.34,0,0,0-.529.109l-1.1.463a3.111,3.111,0,0,1-3.623-.882L47.329,55a2.062,2.062,0,0,0-3.171,0L42.87,56.547a3.112,3.112,0,0,1-3.623.882l-1.1-.463a1.339,1.339,0,0,0-.528-.108h-.465V54.213a8.6,8.6,0,0,1,8.576-8.588h.023a8.6,8.6,0,0,1,8.576,8.588ZM35.816,59.537h.465v3.1h-.465a1.548,1.548,0,1,1,0-3.1Zm3.145.617a5.769,5.769,0,0,0,5.97-1.894l.813-.977.813.977a5.761,5.761,0,0,0,5.97,1.9v3.816a6.782,6.782,0,1,1-13.565,0V60.155Zm6.782,13.281a9.447,9.447,0,0,0,2.269-.277v1.993l-2.269,2.269-2.269-2.269V73.159A9.447,9.447,0,0,0,45.744,73.436ZM58.322,57.794a4.224,4.224,0,0,0-1.31-.718V54.213a11.194,11.194,0,0,0-.942-4.5,4.211,4.211,0,0,1,2.252,8.082ZM41.534,33.936a4.21,4.21,0,1,1,4.21,4.21A4.215,4.215,0,0,1,41.534,33.936Zm10.108,6.891A3.868,3.868,0,0,1,55.5,44.69v2.4a6.95,6.95,0,0,0-.856.228,11.254,11.254,0,0,0-8.889-4.377h-.03a11.254,11.254,0,0,0-8.889,4.377,6.958,6.958,0,0,0-.856-.228v-2.4a3.868,3.868,0,0,1,3.863-3.863Zm-4.224-29.04-16.4,4.395-2.36-8.806,16.4-4.4ZM19.332,33.936a4.21,4.21,0,1,1,4.21,4.21A4.215,4.215,0,0,1,19.332,33.936Zm-6.891,15.7a4.21,4.21,0,1,1-4.21,4.21A4.215,4.215,0,0,1,12.441,49.641Zm5.9,8.421H17.89a6.884,6.884,0,0,0-4.108-10.97v-2.4a3.868,3.868,0,0,1,3.863-3.863H29.44A3.868,3.868,0,0,1,33.3,44.69v2.4a6.883,6.883,0,0,0-4.108,10.969h-.449a6.536,6.536,0,0,0-5.2,2.582,6.536,6.536,0,0,0-5.2-2.582Zm6.544,6.543h0a3.868,3.868,0,0,1,3.863-3.863H31.6c-.009.113-.015.228-.015.344a4.233,4.233,0,0,0,4.228,4.228h.561a9.479,9.479,0,0,0,4.417,6.721v2.332H24.882Zm7.762,16.877a4.441,4.441,0,0,1,4.436-4.436h2.1L36.071,80.6a1.34,1.34,0,0,0-.265,1.3l1.2,3.661-.527,3.246H32.644Zm26.2,7.324H55.007l-.527-3.246,1.2-3.661a1.34,1.34,0,0,0-.265-1.3l-3.109-3.553h2.1a4.441,4.441,0,0,1,4.436,4.436v7.324Zm9.1-28.163a6.536,6.536,0,0,0-5.2-2.582h-.449a6.883,6.883,0,0,0-4.108-10.969v-2.4a3.868,3.868,0,0,1,3.863-3.863H73.843a3.868,3.868,0,0,1,3.863,3.863v2.4A6.884,6.884,0,0,0,73.6,58.062h-.449a6.538,6.538,0,0,0-5.2,2.582Z" transform="translate(0 0)"/>
    </g>
  </g>
</svg>
