<svg xmlns="http://www.w3.org/2000/svg" width="75.125" height="79" viewBox="0 0 75.125 79">
  <g id="Grupo_1218842" data-name="Grupo 1218842" transform="translate(-504.875 -1490)">
    <rect id="Rectángulo_420657" data-name="Rectángulo 420657" width="57" height="79" transform="translate(523 1490)" fill="#f2d944"/>
    <g id="palacio-de-justicia_5_" data-name="palacio-de-justicia (5)" transform="translate(504.875 1493.875)">
      <g id="Grupo_1218840" data-name="Grupo 1218840" transform="translate(1.212 3.635)">
        <g id="Grupo_1218826" data-name="Grupo 1218826" transform="translate(19.387 36.351)">
          <path id="Trazado_1089113" data-name="Trazado 1089113" d="M17,33H50.927V62.081H17Z" transform="translate(-17 -33)" fill="#e6e9ed"/>
        </g>
        <g id="Grupo_1218827" data-name="Grupo 1218827" transform="translate(53.315 36.351)">
          <path id="Trazado_1089114" data-name="Trazado 1089114" d="M45,33H59.54V62.081H45Z" transform="translate(-45 -33)" fill="#ccd1d9"/>
        </g>
        <g id="Grupo_1218828" data-name="Grupo 1218828" transform="translate(4.847 36.351)">
          <path id="Trazado_1089115" data-name="Trazado 1089115" d="M5,33H19.54V62.081H5Z" transform="translate(-5 -33)" fill="#ccd1d9"/>
        </g>
        <g id="Grupo_1218829" data-name="Grupo 1218829" transform="translate(24.234 7.27)">
          <path id="Trazado_1089116" data-name="Trazado 1089116" d="M21,9V20.826l4.847-3.1,4.847-3.1.194-.121a4.126,4.126,0,0,1,4.459,0l.194.121,4.847,3.1,4.847,3.1V9Z" transform="translate(-21 -9)" fill="#e6e9ed"/>
        </g>
        <g id="Grupo_1218830" data-name="Grupo 1218830" transform="translate(24.234)">
          <path id="Trazado_1089117" data-name="Trazado 1089117" d="M45.234,10.27H21A10.633,10.633,0,0,1,31.081,3h4.071a10.636,10.636,0,0,1,10.081,7.27Z" transform="translate(-21 -3)" fill="#ccd1d9"/>
        </g>
        <g id="Grupo_1218831" data-name="Grupo 1218831" transform="translate(2.423 31.504)">
          <path id="Trazado_1089118" data-name="Trazado 1089118" d="M69.643,29a1.215,1.215,0,0,1,1.212,1.212v2.423a1.215,1.215,0,0,1-1.212,1.212H4.212A1.215,1.215,0,0,1,3,32.635V30.212A1.215,1.215,0,0,1,4.212,29H69.643Z" transform="translate(-3 -29)" fill="#969faa"/>
        </g>
        <g id="Grupo_1218832" data-name="Grupo 1218832" transform="translate(0 65.432)">
          <path id="Trazado_1089119" data-name="Trazado 1089119" d="M73.7,58.212v2.423a1.215,1.215,0,0,1-1.212,1.212H2.212A1.215,1.215,0,0,1,1,60.635V58.212A1.215,1.215,0,0,1,2.212,57H72.49A1.215,1.215,0,0,1,73.7,58.212Z" transform="translate(-1 -57)" fill="#969faa"/>
        </g>
        <g id="Grupo_1218833" data-name="Grupo 1218833" transform="translate(55.738 12.117)">
          <path id="Trazado_1089120" data-name="Trazado 1089120" d="M59.117,14.212V20.27H48.212A1.215,1.215,0,0,1,47,19.058V14.212A1.215,1.215,0,0,1,48.212,13h9.694A1.215,1.215,0,0,1,59.117,14.212Z" transform="translate(-47 -13)" fill="#fcd770"/>
        </g>
        <g id="Grupo_1218834" data-name="Grupo 1218834" transform="translate(2.423 12.117)">
          <path id="Trazado_1089121" data-name="Trazado 1089121" d="M15.117,14.212V20.27H4.212A1.215,1.215,0,0,1,3,19.058V14.212A1.215,1.215,0,0,1,4.212,13h9.694A1.215,1.215,0,0,1,15.117,14.212Z" transform="translate(-3 -13)" fill="#fcd770"/>
        </g>
        <g id="Grupo_1218835" data-name="Grupo 1218835" transform="translate(4.847 12.117)">
          <path id="Trazado_1089122" data-name="Trazado 1089122" d="M68.008,32.387H58.315L36.5,17.847,14.694,32.387H5l9.694-6.2,9.694-6.2,4.847-3.1,4.847-3.1.194-.121a4.126,4.126,0,0,1,4.459,0l.194.121,4.847,3.1,4.847,3.1Z" transform="translate(-5 -13)" fill="#ff826e"/>
        </g>
        <g id="Grupo_1218836" data-name="Grupo 1218836" transform="translate(14.54 16.964)">
          <path id="Trazado_1089123" data-name="Trazado 1089123" d="M56.621,31.54H13L34.811,17Z" transform="translate(-13 -17)" fill="#fc6e51"/>
        </g>
        <g id="Grupo_1218837" data-name="Grupo 1218837" transform="translate(34.204 23.195)">
          <ellipse id="Elipse_12074" data-name="Elipse 12074" cx="2.5" cy="2" rx="2.5" ry="2" transform="translate(-0.291 0.295)" fill="#75b1f2"/>
        </g>
        <g id="Grupo_1218838" data-name="Grupo 1218838" transform="translate(26.657 41.198)">
          <path id="Trazado_1089124" data-name="Trazado 1089124" d="M42.387,38.212v2.423a1.215,1.215,0,0,1-1.212,1.212H24.212A1.215,1.215,0,0,1,23,40.635V38.212A1.215,1.215,0,0,1,24.212,37H41.175A1.215,1.215,0,0,1,42.387,38.212Z" transform="translate(-23 -37)" fill="#75b1f2"/>
        </g>
        <g id="Grupo_1218839" data-name="Grupo 1218839" transform="translate(26.657 50.891)">
          <path id="Trazado_1089125" data-name="Trazado 1089125" d="M42.387,46.212V59.54H23V46.212A1.215,1.215,0,0,1,24.212,45H41.175A1.215,1.215,0,0,1,42.387,46.212Z" transform="translate(-23 -45)" fill="#aab2bd"/>
        </g>
      </g>
      <g id="Grupo_1218841" data-name="Grupo 1218841" transform="translate(0 0)">
        <path id="Trazado_1089126" data-name="Trazado 1089126" d="M72.7,67.855H70.278V41.2A2.426,2.426,0,0,0,72.7,38.774V36.351a2.426,2.426,0,0,0-2.423-2.423V16.964a2.426,2.426,0,0,0-2.423-2.423H58.161a2.426,2.426,0,0,0-2.423,2.423v4.847a2.426,2.426,0,0,0,2.423,2.423h9.694v8.691L50.891,22.069V10.709l-.063-.187a11.826,11.826,0,0,0-11.235-8.1h-.819V0H36.351V2.423h-.819a11.826,11.826,0,0,0-11.235,8.1l-.063.187v11.36l-7.27,4.653V16.964A2.426,2.426,0,0,0,14.54,14.54H4.847a2.426,2.426,0,0,0-2.423,2.423v4.847a2.426,2.426,0,0,0,2.423,2.423H14.54v4.039L5.7,33.927H4.847a2.426,2.426,0,0,0-2.423,2.423v2.423A2.426,2.426,0,0,0,4.847,41.2V67.855H2.423A2.426,2.426,0,0,0,0,70.278V72.7a2.426,2.426,0,0,0,2.423,2.423H72.7A2.426,2.426,0,0,0,75.125,72.7V70.278A2.426,2.426,0,0,0,72.7,67.855ZM4.847,21.811V16.964H14.54v4.847ZM67.855,67.855H65.432V41.2h2.423Zm-38.774,0V55.738h7.27V67.855Zm9.694-12.117h7.27V67.855h-7.27Zm7.27-2.423H29.081a2.426,2.426,0,0,0-2.423,2.423V67.855H21.811V41.2h31.5V67.855H48.468V55.738A2.426,2.426,0,0,0,46.044,53.315ZM14.54,41.2V67.855H12.117V41.2Zm2.423,0h2.423V67.855H16.964Zm38.774,0h2.423V67.855H55.738Zm4.847,0h2.423V67.855H60.585ZM58.161,21.811V16.964h9.694v4.847ZM46.044,18.967v-6.85h2.423v8.4Zm-12.117-6.85v3.748L31.5,17.416v-5.3Zm2.423,0h2.423V14.7a5.525,5.525,0,0,0-2.423,0Zm4.847,0h2.423v5.3L41.2,15.865Zm-5.666-7.27h4.062a9.4,9.4,0,0,1,8.23,4.847H27.3a9.4,9.4,0,0,1,8.23-4.847Zm-8.874,7.27h2.423v6.85l-2.423,1.551Zm9.326,5.308a2.973,2.973,0,0,1,3.156,0l25.785,16.5H59.739L37.563,19.142,15.385,33.927H10.2Zm19.387,16.5H19.754L37.563,22.055ZM4.847,36.351H70.278v2.423H4.847ZM7.27,41.2H9.694V67.855H7.27ZM2.423,72.7V70.278H72.7V72.7Z" transform="translate(0 0)"/>
        <path id="Trazado_1089127" data-name="Trazado 1089127" d="M43.811,38.423A2.426,2.426,0,0,0,41.387,36H24.423A2.426,2.426,0,0,0,22,38.423v2.423a2.426,2.426,0,0,0,2.423,2.423H41.387a2.426,2.426,0,0,0,2.423-2.423ZM24.423,40.847V38.423H41.387v2.423Z" transform="translate(4.657 7.621)"/>
        <path id="Trazado_1089128" data-name="Trazado 1089128" d="M26,50h2.423v2.423H26Z" transform="translate(5.504 10.585)"/>
        <path id="Trazado_1089129" data-name="Trazado 1089129" d="M34,50h2.423v2.423H34Z" transform="translate(7.198 10.585)"/>
        <path id="Trazado_1089130" data-name="Trazado 1089130" d="M28,24.635A3.635,3.635,0,1,0,31.635,21,3.64,3.64,0,0,0,28,24.635Zm4.847,0a1.212,1.212,0,1,1-1.212-1.212A1.213,1.213,0,0,1,32.847,24.635Z" transform="translate(5.927 4.446)"/>
      </g>
    </g>
  </g>
</svg>
