<svg xmlns="http://www.w3.org/2000/svg" xmlns:xlink="http://www.w3.org/1999/xlink" width="93.934" height="93.934" viewBox="0 0 93.934 93.934">
  <defs>
    <filter id="Trazado_982547" x="0" y="0" width="93.934" height="93.934" filterUnits="userSpaceOnUse">
      <feOffset dy="3" input="SourceAlpha"/>
      <feGaussianBlur stdDeviation="3" result="blur"/>
      <feFlood flood-opacity="0.161"/>
      <feComposite operator="in" in2="blur"/>
      <feComposite in="SourceGraphic"/>
    </filter>
  </defs>
  <g id="Grupo_1219189" data-name="Grupo 1219189" transform="translate(-821.066 -2797)">
    <g id="Grupo_1218005" data-name="Grupo 1218005" transform="translate(210 -4599.035)">
      <g id="Grupo_1216301" data-name="Grupo 1216301" transform="translate(0 6201.337)">
        <g id="Grupo_1215985" data-name="Grupo 1215985" transform="translate(-0.229 -2679.151)">
          <g id="Grupo_1214663" data-name="Grupo 1214663" transform="translate(0 -1254.151)">
            <g id="Grupo_1214433" data-name="Grupo 1214433" transform="translate(-0.771 -2738.674)">
              <g id="Grupo_1183190" data-name="Grupo 1183190" transform="translate(1 1016.674)">
                <g id="Grupo_1179611" data-name="Grupo 1179611" transform="translate(428 4723.467)">
                  <g id="Grupo_1175227" data-name="Grupo 1175227" transform="translate(-5.967 140.533)">
                    <g id="Grupo_1167337" data-name="Grupo 1167337" transform="translate(198.033 1992)">
                      <g id="Grupo_1166720" data-name="Grupo 1166720">
                        <g id="Grupo_1164305" data-name="Grupo 1164305">
                          <g id="Grupo_1163948" data-name="Grupo 1163948">
                            <g id="Grupo_1158168" data-name="Grupo 1158168">
                              <g id="Grupo_1152576" data-name="Grupo 1152576">
                                <g id="Grupo_1148633" data-name="Grupo 1148633">
                                  <g id="Grupo_1148525" data-name="Grupo 1148525">
                                    <g transform="matrix(1, 0, 0, 1, -9, -6)" filter="url(#Trazado_982547)">
                                      <g id="Trazado_982547-2" data-name="Trazado 982547" transform="translate(9 6)" fill="#f7f4ed">
                                        <path d="M 37.966796875 74.43359375 C 33.04315185546875 74.43359375 28.26757431030273 73.46962738037109 23.77274131774902 71.56847381591797 C 19.43047523498535 69.73184967041016 15.53040790557861 67.10224914550781 12.18087482452393 63.75271987915039 C 8.831341743469238 60.4031867980957 6.201741218566895 56.50312042236328 4.365118980407715 52.16086196899414 C 2.463963508605957 47.66601943969727 1.499996900558472 42.89044189453125 1.499996900558472 37.966796875 C 1.499996900558472 33.04315185546875 2.463963508605957 28.26757431030273 4.365118980407715 23.77274131774902 C 6.201741218566895 19.43047523498535 8.831341743469238 15.53040790557861 12.18087482452393 12.18087482452393 C 15.53040790557861 8.831341743469238 19.43047523498535 6.201741218566895 23.77274131774902 4.365118980407715 C 28.26757431030273 2.463963508605957 33.04315185546875 1.499996900558472 37.966796875 1.499996900558472 C 42.89044189453125 1.499996900558472 47.66601943969727 2.463963508605957 52.16086196899414 4.365118980407715 C 56.50312042236328 6.201741218566895 60.4031867980957 8.831341743469238 63.75271987915039 12.18087482452393 C 67.10224914550781 15.53040790557861 69.73184967041016 19.43047523498535 71.56847381591797 23.77274131774902 C 73.46962738037109 28.26757431030273 74.43359375 33.04315185546875 74.43359375 37.966796875 C 74.43359375 42.89044189453125 73.46962738037109 47.66601943969727 71.56847381591797 52.16086196899414 C 69.73184967041016 56.50313186645508 67.10224914550781 60.4031867980957 63.75271987915039 63.75271987915039 C 60.4031867980957 67.10224914550781 56.50313186645508 69.73184967041016 52.16086196899414 71.56847381591797 C 47.66601943969727 73.46962738037109 42.89044189453125 74.43359375 37.966796875 74.43359375 Z" stroke="none"/>
                                        <path d="M 37.966796875 3 C 33.2449836730957 3 28.66600799560547 3.924095153808594 24.35705947875977 5.746635437011719 C 20.19359588623047 7.507637023925781 16.45379638671875 10.02928161621094 13.24153518676758 13.24153518676758 C 10.02927398681641 16.45379638671875 7.507621765136719 20.19359588623047 5.746635437011719 24.35705947875977 C 3.924095153808594 28.66600799560547 3 33.2449836730957 3 37.966796875 C 3 42.6886100769043 3.924095153808594 47.26758575439453 5.746635437011719 51.57653427124023 C 7.507621765136719 55.73999786376953 10.02927398681641 59.47979736328125 13.24153518676758 62.69205856323242 C 16.45379638671875 65.90431976318359 20.19359588623047 68.42597198486328 24.35705947875977 70.18695831298828 C 28.66600799560547 72.00949859619141 33.2449836730957 72.93359375 37.966796875 72.93359375 C 42.6886100769043 72.93359375 47.26758575439453 72.00949859619141 51.57653427124023 70.18695831298828 C 55.73999786376953 68.42597198486328 59.47979736328125 65.90431976318359 62.69205856323242 62.69205856323242 C 65.90431976318359 59.47979736328125 68.42597198486328 55.73999786376953 70.18695831298828 51.57653427124023 C 72.00949859619141 47.26758575439453 72.93359375 42.6886100769043 72.93359375 37.966796875 C 72.93359375 33.2449836730957 72.00949859619141 28.66600799560547 70.18695831298828 24.35705947875977 C 68.42597198486328 20.19359588623047 65.90431976318359 16.45379638671875 62.69205856323242 13.24153518676758 C 59.47979736328125 10.02928161621094 55.73999786376953 7.507637023925781 51.57653427124023 5.746635437011719 C 47.26758575439453 3.924095153808594 42.6886100769043 3 37.966796875 3 M 37.966796875 0 C 58.93528366088867 0 75.93359375 16.99832153320312 75.93359375 37.966796875 C 75.93359375 58.93528366088867 58.93528366088867 75.93359375 37.966796875 75.93359375 C 16.99831008911133 75.93359375 0 58.93528366088867 0 37.966796875 C 0 16.99832153320312 16.99831008911133 0 37.966796875 0 Z" stroke="none" fill="#847625"/>
                                      </g>
                                    </g>
                                  </g>
                                </g>
                              </g>
                            </g>
                          </g>
                        </g>
                      </g>
                    </g>
                  </g>
                </g>
              </g>
            </g>
          </g>
        </g>
      </g>
    </g>
    <g id="inclusion-digital" transform="translate(803.062 2782.462)">
      <g id="Grupo_1219188" data-name="Grupo 1219188" transform="translate(38.755 30.695)">
        <path id="Trazado_1089424" data-name="Trazado 1089424" d="M188.55,189.863a20.989,20.989,0,0,0,13.731,0v-5.613c0-1.552-1.734-2.821-3.85-2.821H192.4c-2.12,0-3.85,1.268-3.85,2.821Z" transform="translate(-170.794 -163.558)" fill="#4d66d2" fill-rule="evenodd"/>
        <path id="Trazado_1089425" data-name="Trazado 1089425" d="M207.32,190.477a20.38,20.38,0,0,0,11.411-.624v-5.613c0-1.552-1.734-2.821-3.85-2.821h-5.868a3.432,3.432,0,0,0-1.692,2.9Z" transform="translate(-187.244 -163.549)" fill="#6b7ed9" fill-rule="evenodd"/>
        <path id="Trazado_1089426" data-name="Trazado 1089426" d="M217.376,127.62a3.766,3.766,0,1,1-3.766,3.766A3.764,3.764,0,0,1,217.376,127.62Z" transform="translate(-192.756 -116.398)" fill="#ffb09e" fill-rule="evenodd"/>
        <path id="Trazado_1089427" data-name="Trazado 1089427" d="M229.523,127.62a3.766,3.766,0,0,1,2.515,6.569,3.806,3.806,0,0,1-.8.088,3.769,3.769,0,0,1-2.515-6.573A3.807,3.807,0,0,1,229.523,127.62Z" transform="translate(-204.903 -116.398)" fill="#ffcebf" fill-rule="evenodd"/>
        <path id="Trazado_1089428" data-name="Trazado 1089428" d="M297.241,189.863a20.989,20.989,0,0,1-13.731,0v-5.613c0-1.552,1.734-2.821,3.85-2.821h6.029c2.116,0,3.85,1.268,3.85,2.821v5.613Z" transform="translate(-254.017 -163.558)" fill="#bd50b6" fill-rule="evenodd"/>
        <path id="Trazado_1089429" data-name="Trazado 1089429" d="M294.931,190.477a20.38,20.38,0,0,1-11.411-.624v-5.613c0-1.552,1.734-2.821,3.85-2.821h5.865a3.435,3.435,0,0,1,1.7,2.9Z" transform="translate(-254.026 -163.549)" fill="#e56ab9" fill-rule="evenodd"/>
        <path id="Trazado_1089430" data-name="Trazado 1089430" d="M312.34,127.62a3.766,3.766,0,1,0,3.766,3.766A3.767,3.767,0,0,0,312.34,127.62Z" transform="translate(-275.979 -116.398)" fill="#ffb09e" fill-rule="evenodd"/>
        <path id="Trazado_1089431" data-name="Trazado 1089431" d="M312.34,127.62a3.766,3.766,0,0,0-2.519,6.569,3.841,3.841,0,0,0,.806.088,3.769,3.769,0,0,0,2.515-6.573A3.833,3.833,0,0,0,312.34,127.62Z" transform="translate(-275.979 -116.398)" fill="#ffcebf" fill-rule="evenodd"/>
        <path id="Trazado_1089432" data-name="Trazado 1089432" d="M236.03,198.389a20.965,20.965,0,0,0,13.731,0v-5.609c0-1.552-1.734-2.821-3.85-2.821h-6.029c-2.12,0-3.85,1.268-3.85,2.821v5.609Z" transform="translate(-212.405 -171.033)" fill="#fbc700" fill-rule="evenodd"/>
        <path id="Trazado_1089433" data-name="Trazado 1089433" d="M254.8,199.016a20.359,20.359,0,0,0,11.411-.627v-5.609c0-1.552-1.734-2.821-3.85-2.821H256.5a3.434,3.434,0,0,0-1.7,2.9Z" transform="translate(-228.855 -171.033)" fill="#ffe559" fill-rule="evenodd"/>
        <path id="Trazado_1089434" data-name="Trazado 1089434" d="M264.856,136.13a3.768,3.768,0,1,1-3.766,3.77A3.771,3.771,0,0,1,264.856,136.13Z" transform="translate(-234.368 -123.857)" fill="#ffb1a0" fill-rule="evenodd"/>
        <path id="Trazado_1089435" data-name="Trazado 1089435" d="M277,136.13a2.053,2.053,0,1,1-.8.088A3.771,3.771,0,0,1,277,136.13Z" transform="translate(-246.515 -123.857)" fill="#ffcebf" fill-rule="evenodd"/>
        <path id="Trazado_1089436" data-name="Trazado 1089436" d="M151.526,230.449l-7.876-6.724,4.312-6.573a4.834,4.834,0,0,1,4.123-1.856q5.592-.152,11.18-.311c1.643.07,4.541-.357,4.4,1.325l5.689-5.055a1.911,1.911,0,0,1,2.786,2.6l-7.778,9.646c-1.541,1.91-5.059,2.9-7.484,2.54-2.989-.445-6.443-.407-7.851,1.919Z" transform="translate(-131.443 -189.25)" fill="#ffcebe" fill-rule="evenodd"/>
        <path id="Trazado_1089437" data-name="Trazado 1089437" d="M191.84,231.233l-2.19-1.868,2.3-2.933c1.675-2.141,4.862-2.368,7.849-1.923,2.427.365,5.945-.627,7.484-2.536l7.782-9.646a3.2,3.2,0,0,0,.512-.687,2.04,2.04,0,0,1,1.3,1.478,2.129,2.129,0,0,1-.522,1.654l-7.666,9.5c-1.541,1.91-5.059,2.9-7.484,2.54-2.989-.445-6.443-.407-7.851,1.919Z" transform="translate(-171.758 -190.034)" fill="#ffb1a0" fill-rule="evenodd"/>
        <path id="Trazado_1089438" data-name="Trazado 1089438" d="M102.452,297.491l2.393-2.964a.988.988,0,0,1,1.384-.147l11.73,9.466a.986.986,0,0,1,.151,1.384l-2.393,2.964a.988.988,0,0,1-1.384.147l-11.73-9.466A.985.985,0,0,1,102.452,297.491Z" transform="translate(-95.148 -262.357)" fill="#4d66d2" fill-rule="evenodd"/>
        <path id="Trazado_1089439" data-name="Trazado 1089439" d="M102.358,297.359l2.393-2.964a.953.953,0,0,1,1.324-.2l9.148,7.385a.949.949,0,0,1,.091,1.335l-2.393,2.964a.955.955,0,0,1-1.325.2l-9.148-7.383A.953.953,0,0,1,102.358,297.359Z" transform="translate(-95.053 -262.224)" fill="#6b7ed9" fill-rule="evenodd"/>
        <path id="Trazado_1089440" data-name="Trazado 1089440" d="M238.917,36.83a2.549,2.549,0,1,1-2.547,2.547A2.55,2.55,0,0,1,238.917,36.83Z" transform="translate(-212.703 -36.83)" fill="#00d391" fill-rule="evenodd"/>
        <path id="Trazado_1089441" data-name="Trazado 1089441" d="M248.356,36.83a2.548,2.548,0,0,1,2.271,3.71,2.516,2.516,0,0,1-.939.179,2.548,2.548,0,0,1-2.267-3.71A2.511,2.511,0,0,1,248.356,36.83Z" transform="translate(-222.142 -36.83)" fill="#00f4a8" fill-rule="evenodd"/>
        <path id="Trazado_1089442" data-name="Trazado 1089442" d="M238.917,445.59a2.549,2.549,0,1,1-2.547,2.551A2.551,2.551,0,0,1,238.917,445.59Z" transform="translate(-212.703 -395.068)" fill="#00d391" fill-rule="evenodd"/>
        <path id="Trazado_1089443" data-name="Trazado 1089443" d="M248.356,445.59a2.551,2.551,0,0,1,2.551,2.551.994.994,0,0,1-1.22,1.339,2.548,2.548,0,0,1-2.267-3.71A2.512,2.512,0,0,1,248.356,445.59Z" transform="translate(-222.142 -395.068)" fill="#00f4a8" fill-rule="evenodd"/>
        <path id="Trazado_1089444" data-name="Trazado 1089444" d="M47.441,343.54a2.549,2.549,0,1,1-2.551,2.551,2.55,2.55,0,0,1,2.551-2.551Z" transform="translate(-44.89 -305.631)" fill="#00d391" fill-rule="evenodd"/>
        <path id="Trazado_1089445" data-name="Trazado 1089445" d="M56.88,343.54a2.551,2.551,0,0,1,2.267,3.714,2.585,2.585,0,0,1-.936.175,2.548,2.548,0,0,1-2.271-3.71A2.517,2.517,0,0,1,56.88,343.54Z" transform="translate(-54.329 -305.631)" fill="#00f4a8" fill-rule="evenodd"/>
        <path id="Trazado_1089446" data-name="Trazado 1089446" d="M47.441,138.88a2.549,2.549,0,1,1-2.551,2.547A2.549,2.549,0,0,1,47.441,138.88Z" transform="translate(-44.89 -126.267)" fill="#00d391" fill-rule="evenodd"/>
        <path id="Trazado_1089447" data-name="Trazado 1089447" d="M56.88,138.88a2.548,2.548,0,0,1,2.267,3.71,2.511,2.511,0,0,1-.936.179,2.551,2.551,0,0,1-2.551-2.551,2.521,2.521,0,0,1,.281-1.159A2.516,2.516,0,0,1,56.88,138.88Z" transform="translate(-54.329 -126.267)" fill="#00f4a8" fill-rule="evenodd"/>
        <path id="Trazado_1089448" data-name="Trazado 1089448" d="M430.4,343.54a2.549,2.549,0,1,1-2.547,2.551,2.551,2.551,0,0,1,2.547-2.551Z" transform="translate(-380.517 -305.631)" fill="#00d391" fill-rule="evenodd"/>
        <path id="Trazado_1089449" data-name="Trazado 1089449" d="M439.836,343.54a2.551,2.551,0,0,1,2.271,3.714,2.591,2.591,0,0,1-.939.175,2.548,2.548,0,0,1-2.267-3.71A2.517,2.517,0,0,1,439.836,343.54Z" transform="translate(-389.955 -305.631)" fill="#00f4a8" fill-rule="evenodd"/>
        <path id="Trazado_1089450" data-name="Trazado 1089450" d="M430.4,138.88a2.549,2.549,0,1,1-2.547,2.547A2.55,2.55,0,0,1,430.4,138.88Z" transform="translate(-380.517 -126.267)" fill="#00d391" fill-rule="evenodd"/>
        <path id="Trazado_1089451" data-name="Trazado 1089451" d="M439.836,138.88a2.548,2.548,0,0,1,2.271,3.71,2.516,2.516,0,0,1-.939.179,2.55,2.55,0,0,1-2.547-2.551.993.993,0,0,1,1.216-1.339Z" transform="translate(-389.955 -126.267)" fill="#00f4a8" fill-rule="evenodd"/>
      </g>
      <path id="Trazado_1089452" data-name="Trazado 1089452" d="M88.636,42.443A3.416,3.416,0,0,1,91.05,48.27a3.335,3.335,0,0,1-.729.557V68.184a3.413,3.413,0,1,1-3.734,5.7L68.371,83.469a3.413,3.413,0,1,1-6.8,0L43.356,73.881a3.413,3.413,0,1,1-3.735-5.7V48.826a3.413,3.413,0,1,1,3.734-5.7L61.569,33.54a3.413,3.413,0,1,1,6.8,0l18.215,9.589a3.41,3.41,0,0,1,2.052-.686Zm-.046,6.828A3.419,3.419,0,0,1,85.5,44.51l-17.718-9.33a3.415,3.415,0,0,1-5.624,0L44.442,44.51a3.419,3.419,0,0,1-3.09,4.761V67.741a3.417,3.417,0,0,1,3.09,4.761L62.16,81.829a3.415,3.415,0,0,1,5.624,0L85.5,72.5a3.417,3.417,0,0,1,3.09-4.761V49.271Zm1.237-4.607a1.683,1.683,0,1,0,0,2.383A1.685,1.685,0,0,0,89.827,44.664Zm0,25.3a1.683,1.683,0,1,0,0,2.383,1.685,1.685,0,0,0,0-2.383Zm-47.333-25.3a1.683,1.683,0,1,0,0,2.383A1.685,1.685,0,0,0,42.494,44.664Zm0,25.3a1.683,1.683,0,1,0,0,2.383,1.684,1.684,0,0,0,0-2.383ZM66.161,82.576a1.683,1.683,0,1,0,0,2.379A1.684,1.684,0,0,0,66.161,82.576Zm0-50.521a1.683,1.683,0,1,0,0,2.379A1.684,1.684,0,0,0,66.161,32.055ZM45.388,65.289l2.393-2.964a1.85,1.85,0,0,1,2.6-.281l1.048.844,3.126-4.765a4.47,4.47,0,0,1,1.1-1.149V51.387c0-1.919,1.759-3.237,3.613-3.584a4.63,4.63,0,0,1,7.677-5.08,4.633,4.633,0,0,1,4.621,0,4.63,4.63,0,0,1,7.677,5.08c1.854.347,3.613,1.664,3.613,3.584v.1a2.746,2.746,0,0,1,1.285,4.352l-7.778,9.649c-1.766,2.183-5.605,3.252-8.282,2.851-2.165-.323-5.729-.564-6.986,1.514l-.34.564,1.367,1.1a1.85,1.85,0,0,1,.281,2.6L60,77.076a1.846,1.846,0,0,1-2.593.277L45.671,67.886a1.849,1.849,0,0,1-.283-2.6Zm7.389-1.31,6.611,5.336.218-.361c1.727-2.855,5.767-2.771,8.714-2.33,2.081.308,5.326-.536,6.688-2.225l7.778-9.646a1.046,1.046,0,0,0-1.538-1.409l-5.592,4.969A10.4,10.4,0,0,1,72.037,62.3a4.436,4.436,0,0,1-4.3.105,6.9,6.9,0,0,0-5.15.613.863.863,0,1,1-.831-1.514,8.616,8.616,0,0,1,6.506-.75.934.934,0,0,1,.168.067c2.406,1.2,4.281-.946,5.655-3.248-.256-.332-2-.29-2.463-.284-.378,0-.747.01-1.062,0L59.423,57.6A4.048,4.048,0,0,0,56,59.069Zm-3.65-.571-2.393,2.964a.125.125,0,0,0,.017.168l11.685,9.428c.126.1.154.1.256-.025l2.355-2.918a.124.124,0,0,0-.017-.168l-1.919-1.549c-.025-.017-.049-.038-.074-.059l-7.914-6.388a.778.778,0,0,1-.074-.059L49.3,63.391a.127.127,0,0,0-.173.017Zm8.25-7.245a8.246,8.246,0,0,1,2-.281l2.137-.063V52.441a3.174,3.174,0,0,1,.943-2.217,4.617,4.617,0,0,1-1.8-.792h-.294a3.776,3.776,0,0,0-2.211.659,1.671,1.671,0,0,0-.774,1.3v4.776Zm5.868-.392,7.308-.2h.063c1.367.059,3.542-.224,4.629.645v-3.77a1.668,1.668,0,0,0-.777-1.3,3.756,3.756,0,0,0-2.207-.659h-.294a4.636,4.636,0,0,1-5.442,0H66.23a3.776,3.776,0,0,0-2.211.659,1.668,1.668,0,0,0-.774,1.3Zm13.731-.943L80.1,52.053a2.934,2.934,0,0,1,1.016-.6c0-1.342-1.678-2.022-2.985-2.022h-.294a4.61,4.61,0,0,1-1.8.792,3.166,3.166,0,0,1,.946,2.217ZM72.862,43.844a4.632,4.632,0,0,1,.781,4.345,2.905,2.905,0,1,0-.035-4.993A3,3,0,0,0,72.862,43.844Zm-8.015,4.345a4.626,4.626,0,0,1,.781-4.345,2.9,2.9,0,1,0-2.253,4.74,2.852,2.852,0,0,0,1.472-.4Zm6.449-3.5a2.9,2.9,0,1,0,0,4.1A2.906,2.906,0,0,0,71.3,44.685Z" transform="translate(0 0)"/>
    </g>
  </g>
</svg>
