<svg xmlns="http://www.w3.org/2000/svg" xmlns:xlink="http://www.w3.org/1999/xlink" width="400" height="248" viewBox="0 0 400 248">
  <defs>
    <clipPath id="clip-path">
      <rect id="Rect치ngulo_420879" data-name="Rect치ngulo 420879" width="400" height="248" transform="translate(1020 4071)" fill="#fff" stroke="#707070" stroke-width="1"/>
    </clipPath>
    <linearGradient id="linear-gradient" y1="0.5" x2="1" y2="0.5" gradientUnits="objectBoundingBox">
      <stop offset="0" stop-color="#fff"/>
      <stop offset="1" stop-color="#e5e5e5" stop-opacity="0"/>
    </linearGradient>
  </defs>
  <g id="Enmascarar_grupo_1098934" data-name="Enmascarar grupo 1098934" transform="translate(-1020 -4071)" clip-path="url(#clip-path)">
    <g id="Grupo_1219660" data-name="Grupo 1219660" transform="translate(-8.954)">
      <rect id="Rect치ngulo_420878" data-name="Rect치ngulo 420878" width="170" height="248" transform="translate(1210 4071)" fill="#cbd0dc"/>
      <g id="Grupo_1219659" data-name="Grupo 1219659" transform="translate(1026.812 4031.41)">
        <g id="Grupo_1219594" data-name="Grupo 1219594" transform="translate(51.096 71.316)">
          <g id="Grupo_1219592" data-name="Grupo 1219592" opacity="0.5">
            <path id="Trazado_1090815" data-name="Trazado 1090815" d="M182.123,396.724a16.012,16.012,0,0,0-2.316.148c-.208.034-.423.071-.627.107s-.415.068-.632.1c-.424.08-.87.183-1.313.3a37.658,37.658,0,0,0-5.721,2.181c-1.924.845-3.863,1.8-5.6,2.692s-3.278,1.745-4.363,2.318-1.74.952-1.74.952.168.061.509.19c.332.109.807.3,1.414.466,1.221.348,2.936.8,4.876,1.193.49.1.978.206,1.5.281s1.054.135,1.585.195c1.072.112,2.164.2,3.259.223a20.592,20.592,0,0,0,6.236-.7,15.524,15.524,0,0,0,7.885-5.258,15.894,15.894,0,0,0,2.265-3.555,11.717,11.717,0,0,0-3.429-1.332A15.889,15.889,0,0,0,182.123,396.724Z" transform="translate(-82.201 -164.424)" fill="#c08329"/>
            <path id="Trazado_1090816" data-name="Trazado 1090816" d="M194.68,371.867a22.563,22.563,0,0,0-3.234-3.809,23.125,23.125,0,0,0-1.848-1.638c-.323-.256-.63-.5-.924-.728-.294-.248-.589-.487-.88-.713-1.158-.9-2.218-1.61-2.98-2.092-.765-.525-1.234-.812-1.234-.812s-.006.675.038,1.79a39.073,39.073,0,0,0,.389,4.36,40.909,40.909,0,0,0,1.171,5.534,21.883,21.883,0,0,0,2.24,5.07,10.96,10.96,0,0,0,.715,1.044,5.227,5.227,0,0,0,.383.468c.126.146.253.285.389.421a12.187,12.187,0,0,0,1.668,1.395,11.933,11.933,0,0,0,1.68.994,9.555,9.555,0,0,0,1.591.634,11.422,11.422,0,0,0,3.531.476,19.368,19.368,0,0,0-.009-4.148,20.751,20.751,0,0,0-.782-3.974c-.108-.348-.224-.706-.363-1.054A11.3,11.3,0,0,0,195.8,374,16.228,16.228,0,0,0,194.68,371.867Z" transform="translate(-89.003 -154.51)" fill="#c08329"/>
            <path id="Trazado_1090817" data-name="Trazado 1090817" d="M146.317,379.951c-.126-.121-.32-.28-.557-.492a13.489,13.489,0,0,0-3.749-2.287c-.589-.243-1.246-.455-1.927-.674a16.284,16.284,0,0,0-4.888-.619c-.952.024-1.927.073-2.952.173s-2.072.246-3.126.42c-1.069.169-2.145.373-3.186.574-1.019.208-2.035.41-2.993.606-1.911.407-3.614.8-4.825,1.091-1.231.3-1.962.5-1.962.5s.627.433,1.7,1.1c.519.334,1.167.722,1.9,1.141.354.211.747.429,1.151.649s.839.423,1.288.634c.9.421,1.851.841,2.835,1.244.5.191,1,.384,1.512.566.253.1.506.188.763.271s.522.151.787.226a23.817,23.817,0,0,0,6.183.949,17.174,17.174,0,0,0,11.434-5,11.871,11.871,0,0,0,.81-.881S146.443,380.07,146.317,379.951Z" transform="translate(-69.71 -158.459)" fill="#c08329"/>
            <path id="Trazado_1090818" data-name="Trazado 1090818" d="M150.466,358.573a12.123,12.123,0,0,0,2.11,4.02,8.072,8.072,0,0,0,1.345,1.381,12.977,12.977,0,0,0,1.38,1,12.526,12.526,0,0,0,2.282,1.137,5.27,5.27,0,0,0,.7.211l.266.059s.18-.407.4-1.1a22.985,22.985,0,0,0,.73-2.892,18.314,18.314,0,0,0-.288-8.644,17.628,17.628,0,0,0-2.054-4.52,32.021,32.021,0,0,0-2.671-3.912c-.458-.552-.857-1.111-1.243-1.586s-.731-.889-1.029-1.231c-.592-.685-.984-1.068-.984-1.068s-.2.645-.453,1.718-.576,2.585-.832,4.309c-.123.874-.25,1.808-.32,2.754s-.085,1.894-.069,2.855a26.682,26.682,0,0,0,.183,2.862A15.083,15.083,0,0,0,150.466,358.573Z" transform="translate(-79.321 -148.604)" fill="#c08329"/>
            <path id="Trazado_1090819" data-name="Trazado 1090819" d="M109.015,348.072a14.4,14.4,0,0,0-1.626-2.03,14.881,14.881,0,0,0-2.98-2.322,15.655,15.655,0,0,0-4.5-1.919c-.6-.161-1.256-.293-1.907-.427s-1.323-.248-2.019-.356c-3.43-.516-7.321-.71-10.248-.9-2.968-.164-5.084-.2-5.084-.2s.725.905,1.959,2.245a41.881,41.881,0,0,0,5.088,4.656c.319.246.639.484.955.729.168.121.326.237.5.361s.342.221.513.336c.693.441,1.4.868,2.117,1.256a21.824,21.824,0,0,0,2.155,1.039,12.953,12.953,0,0,0,2.154.75,16.66,16.66,0,0,0,9.571-.473,17.115,17.115,0,0,0,3.882-1.9A8.026,8.026,0,0,0,109.015,348.072Z" transform="translate(-59.552 -148.172)" fill="#c08329"/>
            <path id="Trazado_1090820" data-name="Trazado 1090820" d="M121.043,335.609a10.416,10.416,0,0,0,1.87,1.706,6.775,6.775,0,0,0,.855.509,19.92,19.92,0,0,0,2.247-3.51,18.566,18.566,0,0,0,2.221-8.389,17.537,17.537,0,0,0-.355-3.6c-.117-.59-.269-1.175-.436-1.755-.168-.561-.307-1.155-.49-1.707-.294-.965-.63-1.872-.962-2.683-.089-.2-.177-.4-.253-.6s-.148-.385-.228-.574c-.143-.373-.282-.715-.418-1.03-.538-1.258-.952-2.022-.952-2.022a44.552,44.552,0,0,0-2.272,3.988c-.31.6-.63,1.246-.943,1.941-.155.346-.313.706-.462,1.06s-.285.724-.433,1.094a32.91,32.91,0,0,0-1.363,4.635c-.136.6-.234,1.206-.313,1.79a13.56,13.56,0,0,0-.091,1.691,12.029,12.029,0,0,0,.845,4.445A11.486,11.486,0,0,0,121.043,335.609Z" transform="translate(-70.314 -140.169)" fill="#c08329"/>
            <path id="Trazado_1090821" data-name="Trazado 1090821" d="M77.123,308.524a18.529,18.529,0,0,0,2.092-.019,17.192,17.192,0,0,0,4.268-.777,8.563,8.563,0,0,0-.259-.968c-.092-.3-.234-.642-.4-1.044a11.688,11.688,0,0,0-.588-1.324,13.479,13.479,0,0,0-2.183-3.036c-.228-.237-.481-.493-.762-.787-.269-.266-.56-.524-.87-.785a16.783,16.783,0,0,0-2.117-1.493,27.684,27.684,0,0,0-2.636-1.356c-.9-.445-1.87-.866-2.85-1.278-1.962-.812-4.025-1.553-5.894-2.188-1.838-.651-3.458-1.2-4.651-1.585s-1.911-.6-1.911-.6.272.7.788,1.808c.256.559.566,1.236.959,1.957s.864,1.51,1.37,2.335,1.076,1.678,1.677,2.536c.152.207.3.422.468.631s.323.408.5.623c.338.411.693.815,1.051,1.208a27.419,27.419,0,0,0,2.259,2.229,15.142,15.142,0,0,0,1.186.967c.418.286.832.558,1.259.807a16.022,16.022,0,0,0,4.961,1.86A16.3,16.3,0,0,0,77.123,308.524Z" transform="translate(-53.175 -134.254)" fill="#c08329"/>
            <path id="Trazado_1090822" data-name="Trazado 1090822" d="M95.3,295.3a11.767,11.767,0,0,0,.968,3.407,11.625,11.625,0,0,0,.661,1.244,8.467,8.467,0,0,0,.655.889,6.832,6.832,0,0,0,.671.721,20.612,20.612,0,0,0,3.176-2.775c.421-.438.845-.929,1.279-1.469A21.4,21.4,0,0,0,104,295.551a16.4,16.4,0,0,0,2-4.211c.12-.388.2-.778.3-1.181s.177-.812.247-1.22a20.011,20.011,0,0,0,.241-2.471c.025-1.625.054-3.257-.066-4.668-.054-.71-.126-1.375-.206-1.966-.047-.6-.1-1.134-.161-1.571-.1-.889-.206-1.416-.206-1.416s-.525.441-1.348,1.216-1.952,1.878-3.151,3.219a38.785,38.785,0,0,0-3.42,4.512,27.528,27.528,0,0,0-1.465,2.517,16.5,16.5,0,0,0-.99,2.494,13.242,13.242,0,0,0-.478,2.349,10.389,10.389,0,0,0-.064,1.1c0,.179,0,.358.006.527S95.281,295.124,95.3,295.3Z" transform="translate(-63.727 -130.124)" fill="#c08329"/>
            <path id="Trazado_1090823" data-name="Trazado 1090823" d="M60.094,260.287a15.86,15.86,0,0,0,2.189,1.285,17.856,17.856,0,0,0,4.132,1.384,17.125,17.125,0,0,0,4.309.365,10.694,10.694,0,0,0-.259-3.544c-.1-.524-.3-1.073-.475-1.658a12.41,12.41,0,0,0-.737-1.832,13.448,13.448,0,0,0-1.167-1.936c-.234-.326-.484-.657-.765-.986-.139-.163-.285-.328-.437-.5-.136-.163-.285-.326-.443-.5-2.455-2.651-6.429-5.37-9.562-7.582-1.591-1.1-3.031-2.037-4.078-2.716s-1.705-1.068-1.705-1.068.089.734.3,1.94.525,2.876,1.012,4.72a42.853,42.853,0,0,0,2.18,5.769,14.067,14.067,0,0,0,.743,1.4c.269.447.548.9.835,1.321a17.3,17.3,0,0,0,1.855,2.334A13.413,13.413,0,0,0,60.094,260.287Z" transform="translate(-51.096 -119.869)" fill="#c08329"/>
            <path id="Trazado_1090824" data-name="Trazado 1090824" d="M84.591,262.305a21.345,21.345,0,0,0,3.856-1.851,22.458,22.458,0,0,0,3.373-2.449,17.853,17.853,0,0,0,1.613-1.63,16.192,16.192,0,0,0,1.5-1.913,16.386,16.386,0,0,0,1.2-2.178c.348-.753.6-1.525.9-2.313a29.464,29.464,0,0,0,1.218-4.525,35.291,35.291,0,0,0,.667-3.525c.118-.886.152-1.42.152-1.42s-.62.293-1.62.825-2.364,1.316-3.876,2.3a36.76,36.76,0,0,0-4.6,3.477,23.345,23.345,0,0,0-3.765,4.2,10.5,10.5,0,0,0-1.1,2.14,12.235,12.235,0,0,0-.57,2.057,10.926,10.926,0,0,0-.193,1.888,8.5,8.5,0,0,0,.148,1.653A10.242,10.242,0,0,0,84.591,262.305Z" transform="translate(-60.32 -119.725)" fill="#c08329"/>
            <path id="Trazado_1090825" data-name="Trazado 1090825" d="M58.082,200.429c.117.787.26,1.576.433,2.346a16.642,16.642,0,0,0,1.516,4.278,15.113,15.113,0,0,0,3.215,4.105A16.3,16.3,0,0,0,66.8,213.58a17.061,17.061,0,0,0,4.068,1.506,6.445,6.445,0,0,0,.3-.944,16.321,16.321,0,0,0,.468-2.523,12.856,12.856,0,0,0-.2-3.683,14.983,14.983,0,0,0-1.525-4.507c-.285-.535-.6-1.092-.956-1.649-.171-.271-.354-.554-.541-.839s-.361-.568-.544-.845c-.946-1.4-2.015-2.822-3.095-4.179s-2.157-2.654-3.066-3.759c-1.845-2.227-3.24-3.773-3.24-3.773s-.218,1.136-.44,2.906a27.515,27.515,0,0,0-.212,3.092c-.029,1.149-.029,2.4.025,3.671A22.115,22.115,0,0,0,58.082,200.429Z" transform="translate(-53.014 -104.813)" fill="#c08329"/>
            <path id="Trazado_1090826" data-name="Trazado 1090826" d="M94.776,214.751c.231-.19.446-.4.661-.608s.45-.434.658-.659a15.858,15.858,0,0,0,1.221-1.4c.373-.479.731-.974,1.067-1.478.351-.533.671-1.03.974-1.493.55-.853,1.032-1.7,1.443-2.479.209-.4.4-.775.567-1.129s.358-.683.513-.99c.623-1.216.937-2.019.937-2.019s-1.921.3-4.619,1.032c-.661.177-1.4.378-2.117.625s-1.484.509-2.243.806a35.976,35.976,0,0,0-4.521,2.106,17.288,17.288,0,0,0-2.94,2.057,11.91,11.91,0,0,0-2.863,3.576,11.609,11.609,0,0,0-1.032,3.4,9.236,9.236,0,0,0-.064,2.478,6.274,6.274,0,0,0,.183.959,21.382,21.382,0,0,0,4.215-.756A20.258,20.258,0,0,0,94.776,214.751Z" transform="translate(-60.041 -108.851)" fill="#c08329"/>
            <path id="Trazado_1090827" data-name="Trazado 1090827" d="M77.622,163.041a17.194,17.194,0,0,0,2.74,3.309,16.473,16.473,0,0,0,3.449,2.536,9.14,9.14,0,0,0,.579-.821,15.028,15.028,0,0,0,1.149-2.317,12.838,12.838,0,0,0,.927-3.571,20.128,20.128,0,0,0,.079-2.231,14.9,14.9,0,0,0-.241-2.507,27.344,27.344,0,0,0-.683-2.778c-.146-.476-.3-.969-.468-1.456s-.323-.967-.49-1.453c-.677-1.947-1.474-3.908-2.221-5.667-.38-.871-.734-1.7-1.06-2.453s-.614-1.4-.858-1.947c-.49-1.112-.8-1.775-.8-1.775s-.361.663-.886,1.775c-.282.543-.544,1.234-.845,1.995-.294.777-.6,1.631-.9,2.542-.143.451-.291.926-.443,1.4s-.282.969-.39,1.486c-.221,1.009-.411,2.062-.55,3.1a24.2,24.2,0,0,0-.231,3.089,17.2,17.2,0,0,0,.288,2.946A14.446,14.446,0,0,0,77.622,163.041Z" transform="translate(-58.072 -90.943)" fill="#c08329"/>
            <path id="Trazado_1090828" data-name="Trazado 1090828" d="M108.6,175.848a22.489,22.489,0,0,0,2.1-1.46c.665-.523,1.275-1.068,1.864-1.609s1.184-1.06,1.693-1.571.987-1.007,1.4-1.452c.206-.231.4-.446.576-.642s.351-.376.5-.542c.626-.67.964-1.09.964-1.09s-.692-.084-1.85-.156-2.778-.155-4.569-.09a45.768,45.768,0,0,0-5.8.552c-.506.087-1.006.176-1.493.28-.475.119-.942.241-1.4.376a18.588,18.588,0,0,0-2.6.955,12.913,12.913,0,0,0-2.155,1.22,10.364,10.364,0,0,0-1.623,1.436,12.607,12.607,0,0,0-2.022,2.971,9.6,9.6,0,0,0-.731,2.372,5.921,5.921,0,0,0-.121.962,21.119,21.119,0,0,0,4.268.422,22.868,22.868,0,0,0,4.183-.34,18.3,18.3,0,0,0,4.635-1.359A17.055,17.055,0,0,0,108.6,175.848Z" transform="translate(-63.179 -98.754)" fill="#c08329"/>
            <path id="Trazado_1090829" data-name="Trazado 1090829" d="M103.394,122.856a16.291,16.291,0,0,0,1.7,3.878,16.021,16.021,0,0,0,2.588,3.32,11.58,11.58,0,0,0,2.582-2.548,12.886,12.886,0,0,0,.959-1.457,15.256,15.256,0,0,0,.911-1.753,15.075,15.075,0,0,0,1.139-4.629,33.384,33.384,0,0,0,.016-5.882c-.158-2.094-.342-4.147-.566-6.029s-.465-3.541-.639-4.748c-.193-1.188-.3-1.92-.3-1.92a3.633,3.633,0,0,0-.37.389c-.221.262-.544.639-.943,1.118-.791.96-1.864,2.309-2.965,3.895a42.917,42.917,0,0,0-2.983,5.415,20.829,20.829,0,0,0-1.61,5.834,13.486,13.486,0,0,0-.067,1.373,12.75,12.75,0,0,0,.08,1.321A15.331,15.331,0,0,0,103.394,122.856Z" transform="translate(-65.9 -79.835)" fill="#c08329"/>
            <path id="Trazado_1090830" data-name="Trazado 1090830" d="M130.392,144.17c.408-.13.8-.277,1.206-.435.193-.076.386-.153.585-.236s.4-.158.6-.236A33.151,33.151,0,0,0,137.1,141.1c1.306-.688,2.382-1.376,3.145-1.875.38-.26.68-.474.879-.617.221-.143.336-.216.336-.216s-.164-.061-.465-.181-.737-.267-1.272-.44c-1.072-.351-2.6-.812-4.363-1.231-.886-.208-1.823-.411-2.8-.583-.484-.079-.981-.166-1.474-.236-.494-.055-.99-.109-1.481-.148a24.377,24.377,0,0,0-5.759.122,12.632,12.632,0,0,0-4.36,1.61,10.555,10.555,0,0,0-1.591,1.133,11.448,11.448,0,0,0-1.168,1.213,10.1,10.1,0,0,0-1.794,2.964,21.09,21.09,0,0,0,4.021,1.528,23.52,23.52,0,0,0,4.151.775,20.145,20.145,0,0,0,4.807-.152A16.833,16.833,0,0,0,130.392,144.17Z" transform="translate(-69.36 -89.671)" fill="#c08329"/>
            <path id="Trazado_1090831" data-name="Trazado 1090831" d="M142.46,96.99c.319.676.54,1.052.54,1.052a2.056,2.056,0,0,0,.256-.1c.168-.062.4-.158.7-.3a12.449,12.449,0,0,0,2.265-1.355,15.547,15.547,0,0,0,5.151-6.724,31.011,31.011,0,0,0,1.225-3.654c.449-1.628.816-3.365,1.139-5.05.338-1.647.632-3.256.87-4.674.472-2.827.727-4.865.727-4.868s-1.012.61-2.521,1.665c-.744.518-1.62,1.155-2.547,1.875-.905.758-1.857,1.6-2.791,2.511-.583.56-1.141,1.137-1.69,1.732-.133.149-.276.294-.408.45s-.253.311-.383.475c-.247.321-.487.64-.734.967a19.593,19.593,0,0,0-2.291,3.946,12.474,12.474,0,0,0-.76,2.6,14.941,14.941,0,0,0-.241,2.451,15.2,15.2,0,0,0,.5,4.169A17.052,17.052,0,0,0,142.46,96.99Z" transform="translate(-76.81 -71.316)" fill="#c08329"/>
            <path id="Trazado_1090832" data-name="Trazado 1090832" d="M167.072,117.173c1.025-.2,1.987-.437,2.87-.671.892-.2,1.7-.415,2.376-.61,1.341-.394,2.174-.72,2.174-.72s-1.528-1.161-3.876-2.574c-1.164-.706-2.544-1.475-4.05-2.192a33.965,33.965,0,0,0-4.629-1.789,20.555,20.555,0,0,0-3.576-.767,11.991,11.991,0,0,0-7.976,1.9,12.191,12.191,0,0,0-1.959,1.62c-.215.217-.373.4-.478.532s-.148.212-.148.212.313.308.9.778a24.645,24.645,0,0,0,6.278,3.621,19.05,19.05,0,0,0,2.24.7,21.305,21.305,0,0,0,2.424.438A26.683,26.683,0,0,0,167.072,117.173Z" transform="translate(-78.766 -81.753)" fill="#c08329"/>
            <path id="Trazado_1090833" data-name="Trazado 1090833" d="M183.479,308.69c-.67-.084-1.506-.183-2.443-.3-.478-.071-.984-.1-1.509-.2l-1.652-.291c-1.155-.2-2.4-.41-3.734-.637-1.313-.291-2.689-.6-4.116-.907-.722-.17-1.453-.306-2.177-.5l-2.2-.6c-1.478-.415-3-.78-4.47-1.294a120.013,120.013,0,0,1-15.928-6.235c-1.034-.515-2.005-.99-2.847-1.4-.43-.208-.82-.406-1.186-.588s-.69-.376-.987-.535c-1.19-.66-1.86-1.036-1.86-1.036s-.674-.37-1.87-1.03c-1.176-.677-2.806-1.725-4.78-2.933a118.586,118.586,0,0,1-25.486-22.1c-.4-.415-.727-.852-1.067-1.256s-.635-.785-.933-1.15c-.592-.715-1.108-1.348-1.532-1.87s-.722-.946-.933-1.229-.332-.441-.332-.441-.446-.609-1.244-1.688c-.389-.538-.9-1.175-1.414-1.947s-1.1-1.645-1.728-2.594c-.32-.472-.652-.967-.987-1.483s-.649-1.066-.991-1.623c-.677-1.125-1.376-2.311-2.1-3.534-.661-1.259-1.358-2.557-2.06-3.872-.181-.334-.354-.665-.535-.992-.155-.345-.31-.686-.478-1.025q-.48-1.025-.968-2.058a107.027,107.027,0,0,1-5.837-15.558c-.161-.543-.313-1.064-.462-1.559s-.291-.962-.383-1.407c-.212-.892-.414-1.678-.557-2.321-.307-1.284-.49-2.02-.49-2.02s-.041-.183-.13-.526-.161-.855-.288-1.506-.263-1.427-.424-2.335-.4-1.915-.516-3.044c-.148-1.12-.31-2.331-.478-3.616-.041-.318-.091-.645-.127-.972s-.06-.665-.091-1.007c-.044-.674-.111-1.371-.161-2.073-.294-2.813-.294-5.824-.386-8.835.092-3.013.092-6.026.386-8.84.051-.7.117-1.393.161-2.07.032-.342.047-.675.091-1s.086-.657.127-.979c.168-1.28.329-2.5.478-3.614.12-1.126.348-2.134.516-3.045s.3-1.686.424-2.335.211-1.163.288-1.5.13-.529.13-.529.183-.73.49-2.016c.143-.641.346-1.419.557-2.316.092-.445.238-.919.383-1.413s.3-1.014.462-1.56a107.631,107.631,0,0,1,5.837-15.56c.326-.68.648-1.373.968-2.055.168-.345.323-.676.478-1.022.181-.328.354-.66.535-1,.7-1.319,1.4-2.618,2.06-3.869.727-1.223,1.427-2.409,2.1-3.533.342-.552.642-1.112.991-1.625s.667-1.007.987-1.483c.63-.951,1.215-1.825,1.728-2.594s1.025-1.4,1.414-1.946c.8-1.076,1.244-1.685,1.244-1.685s.12-.155.332-.445.5-.72.933-1.226.939-1.149,1.532-1.871c.3-.363.6-.745.933-1.158.338-.4.671-.832,1.067-1.251a118.9,118.9,0,0,1,25.486-22.1c1.974-1.205,3.6-2.248,4.78-2.923,1.2-.658,1.87-1.037,1.87-1.037l1.86-1.031c.3-.161.623-.338.987-.541.367-.178.756-.373,1.186-.583.288-.142.579-.286.886-.435h.076a22.66,22.66,0,0,0,3.078.034,20.314,20.314,0,0,0,8.682-2.213,19.353,19.353,0,0,0,4.123-2.925c.595-.569,1.219-1.135,1.794-1.7s1.092-1.13,1.573-1.674c.917-1.1,1.775-2.051,2.335-2.761s.867-1.156.867-1.156-.693-.032-1.842-.038-2.759.024-4.575.166c-.458.041-.93.076-1.4.134s-.946.122-1.427.2c-.962.147-1.946.333-2.917.563a21.727,21.727,0,0,0-5.4,1.9,12.984,12.984,0,0,0-3.619,2.876,11.736,11.736,0,0,0-1.794,3.1,10.525,10.525,0,0,0-.63,2.4c-.019.119-.022.226-.031.331a3.569,3.569,0,0,1-.338.161c-.424.218-.826.413-1.2.6-.361.2-.693.383-1,.55-1.193.66-1.876,1.042-1.876,1.042s-.69.375-1.892,1.038c-1.177.685-2.826,1.737-4.831,2.965a127.174,127.174,0,0,0-13.7,10.268,129.183,129.183,0,0,0-12.042,12.048c-.4.423-.727.869-1.059,1.27s-.655.8-.949,1.165c-.6.726-1.12,1.362-1.544,1.887s-.731.957-.952,1.244-.332.443-.332.443-.455.621-1.259,1.7c-.393.553-.9,1.2-1.427,1.97s-1.107,1.665-1.743,2.621c-.329.481-.655.979-1,1.5s-.652,1.086-1,1.646c-.667,1.129-1.386,2.328-2.117,3.568-.677,1.266-1.376,2.577-2.082,3.912-.174.336-.358.67-.538,1-.158.34-.323.685-.481,1.029q-.489,1.04-.974,2.083a105.891,105.891,0,0,0-5.9,15.714c-.168.549-.32,1.072-.462,1.578s-.307.968-.4,1.424c-.215.9-.408,1.692-.553,2.341-.32,1.291-.5,2.035-.5,2.035l-.126.533c-.086.348-.168.865-.294,1.52s-.268,1.453-.433,2.363-.392,1.937-.519,3.073c-.149,1.132-.313,2.357-.48,3.651-.038.328-.092.656-.13.985s-.057.679-.092,1.018c-.051.683-.1,1.376-.161,2.1-.3,2.833-.3,5.874-.4,8.919.1,3.043.1,6.081.4,8.926.06.71.111,1.4.161,2.1.035.342.051.682.092,1.007s.092.671.13.992c.168,1.291.332,2.526.48,3.656.126,1.128.361,2.154.519,3.07s.319,1.7.433,2.36.208,1.171.294,1.523l.126.53s.177.74.5,2.034c.146.65.338,1.443.553,2.339.095.451.25.929.4,1.427s.294,1.029.462,1.581a106.466,106.466,0,0,0,5.9,15.719c.323.688.648,1.384.974,2.074.158.347.323.69.481,1.032.181.328.363.671.538,1.005.706,1.33,1.4,2.643,2.082,3.912.731,1.234,1.449,2.434,2.117,3.566.351.562.665,1.125,1,1.645s.674,1.022,1,1.5c.636.959,1.218,1.841,1.743,2.619s1.034,1.421,1.427,1.967c.8,1.082,1.259,1.7,1.259,1.7s.121.158.332.448.516.722.952,1.24.946,1.161,1.544,1.894c.294.362.6.75.949,1.158s.664.847,1.059,1.269a120,120,0,0,0,25.745,22.322c2.006,1.226,3.654,2.274,4.831,2.961,1.2.664,1.892,1.037,1.892,1.037s.683.388,1.876,1.044l1,.549c.373.185.775.38,1.2.588.857.423,1.823.9,2.879,1.423a122.127,122.127,0,0,0,16.092,6.3c1.487.52,3.022.885,4.521,1.306.74.206,1.487.411,2.221.611s1.465.338,2.189.509c1.443.316,2.841.623,4.164.919,1.335.226,2.6.441,3.771.645.582.1,1.136.2,1.664.29s1.05.139,1.525.207c.959.116,1.791.213,2.481.3,1.367.169,2.152.264,2.152.264l.127-1.166S184.837,308.859,183.479,308.69Z" transform="translate(-58.617 -73.778)" fill="#c08329"/>
          </g>
          <g id="Grupo_1219593" data-name="Grupo 1219593" transform="translate(157.188)" opacity="0.6">
            <path id="Trazado_1090834" data-name="Trazado 1090834" d="M306.325,396.724a16.21,16.21,0,0,1,2.329.148c.206.034.4.071.617.107s.42.068.642.1c.415.08.857.183,1.3.3a37.45,37.45,0,0,1,5.714,2.181c1.924.845,3.87,1.8,5.607,2.692s3.278,1.745,4.367,2.318,1.737.952,1.737.952-.171.061-.5.19c-.341.109-.8.3-1.417.466-1.227.348-2.936.8-4.876,1.193-.49.1-.981.206-1.5.281s-1.05.135-1.588.195c-1.069.112-2.161.2-3.252.223a20.634,20.634,0,0,1-6.239-.7,15.509,15.509,0,0,1-7.885-5.258,15.764,15.764,0,0,1-2.265-3.555,11.719,11.719,0,0,1,3.427-1.332A15.9,15.9,0,0,1,306.325,396.724Z" transform="translate(-279.25 -164.424)" fill="#c08329"/>
            <path id="Trazado_1090835" data-name="Trazado 1090835" d="M300.03,371.867a22.529,22.529,0,0,1,3.234-3.809c.6-.592,1.231-1.133,1.851-1.638.32-.256.636-.5.927-.728.294-.248.592-.487.883-.713a34.365,34.365,0,0,1,2.98-2.092c.75-.525,1.224-.812,1.224-.812s.009.675-.034,1.79a38.234,38.234,0,0,1-.389,4.36,40.051,40.051,0,0,1-1.171,5.534,22.239,22.239,0,0,1-2.234,5.07c-.231.37-.475.718-.718,1.044a5.955,5.955,0,0,1-.385.468c-.121.146-.259.285-.393.421a12.017,12.017,0,0,1-1.668,1.395,11.749,11.749,0,0,1-1.677.994,9.318,9.318,0,0,1-1.591.634,11.48,11.48,0,0,1-3.543.476,19.92,19.92,0,0,1,.022-4.148,21.491,21.491,0,0,1,.782-3.974c.1-.348.222-.706.358-1.054.13-.363.272-.73.427-1.09A16.024,16.024,0,0,1,300.03,371.867Z" transform="translate(-278.71 -154.51)" fill="#c08329"/>
            <path id="Trazado_1090836" data-name="Trazado 1090836" d="M341.8,379.951c.13-.121.323-.28.566-.492a13.227,13.227,0,0,1,2.152-1.517,13.681,13.681,0,0,1,1.608-.77c.579-.243,1.231-.455,1.917-.674a16.268,16.268,0,0,1,4.891-.619c.946.024,1.92.073,2.945.173s2.066.246,3.126.42,2.139.373,3.186.574c1.019.208,2.031.41,3,.606,1.907.407,3.61.8,4.828,1.091s1.958.5,1.958.5-.63.433-1.693,1.1c-.538.334-1.174.722-1.9,1.141-.367.211-.744.429-1.145.649s-.839.423-1.294.634c-.892.421-1.848.841-2.838,1.244-.493.191-1,.384-1.509.566-.253.1-.506.188-.762.271s-.519.151-.787.226a23.835,23.835,0,0,1-6.176.949,16.572,16.572,0,0,1-9.078-3.031,17.068,17.068,0,0,1-2.36-1.971,10.768,10.768,0,0,1-.81-.881S341.672,380.07,341.8,379.951Z" transform="translate(-291.408 -158.459)" fill="#c08329"/>
            <path id="Trazado_1090837" data-name="Trazado 1090837" d="M345.679,358.573a12.006,12.006,0,0,1-2.11,4.02,8.167,8.167,0,0,1-1.341,1.381,14.079,14.079,0,0,1-1.379,1,12.558,12.558,0,0,1-2.284,1.137,4.786,4.786,0,0,1-.7.211c-.173.04-.268.059-.268.059s-.177-.407-.4-1.1a22.41,22.41,0,0,1-.734-2.892,18.324,18.324,0,0,1,.288-8.644,17.923,17.923,0,0,1,2.054-4.52,33.181,33.181,0,0,1,2.67-3.912c.459-.552.86-1.111,1.241-1.586s.74-.889,1.034-1.231c.595-.685.987-1.068.987-1.068s.193.645.446,1.718.576,2.585.839,4.309c.13.874.247,1.808.31,2.754s.092,1.894.076,2.855a27.843,27.843,0,0,1-.183,2.862A15.349,15.349,0,0,1,345.679,358.573Z" transform="translate(-289.824 -148.604)" fill="#c08329"/>
            <path id="Trazado_1090838" data-name="Trazado 1090838" d="M379.692,348.072a15.047,15.047,0,0,1,1.623-2.03,14.881,14.881,0,0,1,2.98-2.322,15.615,15.615,0,0,1,4.5-1.919c.6-.161,1.253-.293,1.908-.427s1.329-.248,2.019-.356c3.43-.516,7.321-.71,10.248-.9,2.961-.164,5.088-.2,5.088-.2s-.728.905-1.962,2.245a41.873,41.873,0,0,1-5.084,4.656c-.323.246-.636.484-.962.729-.158.121-.323.237-.49.361s-.348.221-.513.336c-.7.441-1.4.868-2.123,1.256a22.819,22.819,0,0,1-2.152,1.039,13.144,13.144,0,0,1-2.155.75,16.666,16.666,0,0,1-9.574-.473,17.115,17.115,0,0,1-3.882-1.9A7.93,7.93,0,0,1,379.692,348.072Z" transform="translate(-302.152 -148.172)" fill="#c08329"/>
            <path id="Trazado_1090839" data-name="Trazado 1090839" d="M375.244,335.609a10.322,10.322,0,0,1-1.873,1.706,6.929,6.929,0,0,1-.851.509,19.374,19.374,0,0,1-2.237-3.51,18.586,18.586,0,0,1-2.234-8.389,16.973,16.973,0,0,1,.363-3.6q.171-.886.427-1.755c.177-.561.31-1.155.494-1.707.3-.965.63-1.872.959-2.683.091-.2.18-.4.256-.6s.151-.385.221-.574c.149-.373.292-.715.425-1.03.538-1.258.952-2.022.952-2.022a44.65,44.65,0,0,1,2.272,3.988c.31.6.623,1.246.946,1.941.149.346.311.706.463,1.06s.285.724.42,1.094a32.57,32.57,0,0,1,1.376,4.635c.126.6.231,1.206.3,1.79a12.462,12.462,0,0,1,.1,1.691,12.044,12.044,0,0,1-.845,4.445A11.543,11.543,0,0,1,375.244,335.609Z" transform="translate(-298.973 -140.169)" fill="#c08329"/>
            <path id="Trazado_1090840" data-name="Trazado 1090840" d="M413.1,308.524a18.381,18.381,0,0,1-2.085-.019,17.121,17.121,0,0,1-4.265-.777,7.258,7.258,0,0,1,.241-.968c.1-.3.246-.642.4-1.044a10.91,10.91,0,0,1,.6-1.324,13.237,13.237,0,0,1,2.164-3.036c.231-.237.487-.493.775-.787.268-.266.553-.524.864-.785a17.1,17.1,0,0,1,2.12-1.493,29.5,29.5,0,0,1,2.626-1.356c.914-.445,1.873-.866,2.86-1.278,1.968-.812,4.025-1.553,5.9-2.188,1.835-.651,3.458-1.2,4.648-1.585s1.914-.6,1.914-.6-.272.7-.788,1.808c-.266.559-.56,1.236-.965,1.957s-.857,1.51-1.374,2.335-1.069,1.678-1.677,2.536c-.152.207-.3.422-.456.631s-.329.408-.513.623c-.336.411-.69.815-1.044,1.208a27.8,27.8,0,0,1-2.262,2.229c-.389.348-.775.668-1.183.967s-.835.558-1.259.807a16.2,16.2,0,0,1-7.246,2.141Z" transform="translate(-310.045 -134.254)" fill="#c08329"/>
            <path id="Trazado_1090841" data-name="Trazado 1090841" d="M400.347,295.3a11.99,11.99,0,0,1-.974,3.407,10.681,10.681,0,0,1-.661,1.244,8.465,8.465,0,0,1-.655.889,8.32,8.32,0,0,1-.671.721,20.633,20.633,0,0,1-3.177-2.775c-.421-.438-.835-.929-1.279-1.469a20.559,20.559,0,0,1-1.284-1.763,16.519,16.519,0,0,1-2.012-4.211c-.111-.388-.2-.778-.3-1.181s-.177-.812-.243-1.22a20.606,20.606,0,0,1-.25-2.471c-.023-1.625-.041-3.257.07-4.668.054-.71.129-1.375.2-1.966.044-.6.1-1.134.164-1.571.108-.889.209-1.416.209-1.416s.525.441,1.344,1.216,1.956,1.878,3.161,3.219a39.935,39.935,0,0,1,3.42,4.512c.531.824,1.029,1.667,1.465,2.517a17.572,17.572,0,0,1,.984,2.494,13.181,13.181,0,0,1,.478,2.349c.038.38.064.748.066,1.1,0,.179,0,.358-.013.527S400.363,295.124,400.347,295.3Z" transform="translate(-304.917 -130.124)" fill="#c08329"/>
            <path id="Trazado_1090842" data-name="Trazado 1090842" d="M432.31,260.287a15.812,15.812,0,0,1-2.2,1.285,17.8,17.8,0,0,1-4.138,1.384,17.026,17.026,0,0,1-4.3.365,10.733,10.733,0,0,1,.256-3.544,16.782,16.782,0,0,1,.478-1.658,12.886,12.886,0,0,1,.737-1.832,13.72,13.72,0,0,1,1.168-1.936c.228-.326.487-.657.769-.986.136-.163.278-.328.433-.5.136-.163.291-.326.446-.5,2.455-2.651,6.433-5.37,9.558-7.582,1.592-1.1,3.031-2.037,4.078-2.716s1.7-1.068,1.7-1.068-.089.734-.294,1.94-.525,2.876-1.013,4.72a42.061,42.061,0,0,1-2.187,5.769,13.572,13.572,0,0,1-.737,1.4c-.276.447-.554.9-.835,1.321a17.625,17.625,0,0,1-1.85,2.334A13.4,13.4,0,0,1,432.31,260.287Z" transform="translate(-314.302 -119.869)" fill="#c08329"/>
            <path id="Trazado_1090843" data-name="Trazado 1090843" d="M409.385,262.305a21.737,21.737,0,0,1-3.863-1.851,22.843,22.843,0,0,1-3.363-2.449,17.8,17.8,0,0,1-1.617-1.63,16.57,16.57,0,0,1-1.5-1.913,14.21,14.21,0,0,1-1.186-2.178c-.351-.753-.6-1.525-.914-2.313a29.114,29.114,0,0,1-1.215-4.525,35.364,35.364,0,0,1-.665-3.525c-.113-.886-.155-1.42-.155-1.42s.623.293,1.617.825,2.369,1.316,3.879,2.3A36.043,36.043,0,0,1,405,247.1a23.229,23.229,0,0,1,3.768,4.2,10.346,10.346,0,0,1,1.1,2.14,12.547,12.547,0,0,1,.575,2.057,12.337,12.337,0,0,1,.19,1.888,8.277,8.277,0,0,1-.148,1.653A10.242,10.242,0,0,1,409.385,262.305Z" transform="translate(-306.657 -119.725)" fill="#c08329"/>
            <path id="Trazado_1090844" data-name="Trazado 1090844" d="M436.634,200.429c-.113.787-.253,1.576-.43,2.346a16.283,16.283,0,0,1-1.519,4.278,15.253,15.253,0,0,1-3.221,4.105,16.053,16.053,0,0,1-3.547,2.422,17.02,17.02,0,0,1-4.065,1.506,7.764,7.764,0,0,1-.3-.944,16.62,16.62,0,0,1-.471-2.523,12.766,12.766,0,0,1,.2-3.683,14.849,14.849,0,0,1,1.526-4.507c.275-.535.6-1.092.949-1.649.177-.271.354-.554.548-.839.177-.274.361-.568.545-.845.942-1.4,2.018-2.822,3.1-4.179,1.06-1.353,2.164-2.654,3.063-3.759,1.848-2.227,3.234-3.773,3.234-3.773s.221,1.136.443,2.906a28.563,28.563,0,0,1,.212,3.092c.031,1.149.031,2.4-.019,3.671A20.609,20.609,0,0,1,436.634,200.429Z" transform="translate(-314.703 -104.813)" fill="#c08329"/>
            <path id="Trazado_1090845" data-name="Trazado 1090845" d="M397.3,214.751c-.228-.19-.44-.4-.655-.608s-.446-.434-.667-.659c-.424-.443-.832-.912-1.215-1.4s-.73-.974-1.066-1.478q-.527-.8-.975-1.493c-.557-.853-1.038-1.7-1.449-2.479-.206-.4-.389-.775-.557-1.129s-.367-.683-.513-.99c-.627-1.216-.946-2.019-.946-2.019s1.93.3,4.629,1.032c.658.177,1.4.378,2.119.625s1.481.509,2.237.806a35.488,35.488,0,0,1,4.515,2.106,16.961,16.961,0,0,1,2.946,2.057,10.774,10.774,0,0,1,3.9,6.972,9.262,9.262,0,0,1,.051,2.478,7.214,7.214,0,0,1-.181.959,21.223,21.223,0,0,1-4.2-.756A20.263,20.263,0,0,1,397.3,214.751Z" transform="translate(-305.042 -108.851)" fill="#c08329"/>
            <path id="Trazado_1090846" data-name="Trazado 1090846" d="M418.225,163.041a17.106,17.106,0,0,1-2.746,3.309,16.545,16.545,0,0,1-3.442,2.536s-.238-.291-.582-.821a14.462,14.462,0,0,1-1.142-2.317,12.519,12.519,0,0,1-.93-3.571,16.347,16.347,0,0,1-.076-2.231,13.441,13.441,0,0,1,.243-2.507,25.012,25.012,0,0,1,.677-2.778c.139-.476.3-.969.468-1.456s.329-.967.5-1.453c.677-1.947,1.468-3.908,2.215-5.667.383-.871.734-1.7,1.063-2.453s.61-1.4.854-1.947c.49-1.112.8-1.775.8-1.775s.358.663.889,1.775c.272.543.535,1.234.835,1.995.294.777.6,1.631.9,2.542.155.451.3.926.44,1.4s.288.969.392,1.486c.225,1.009.418,2.062.554,3.1a26.051,26.051,0,0,1,.238,3.089,18.59,18.59,0,0,1-.288,2.946A14.718,14.718,0,0,1,418.225,163.041Z" transform="translate(-310.776 -90.943)" fill="#c08329"/>
            <path id="Trazado_1090847" data-name="Trazado 1090847" d="M381.915,175.848a22.35,22.35,0,0,1-2.092-1.46c-.661-.523-1.281-1.068-1.864-1.609s-1.181-1.06-1.7-1.571-.99-1.007-1.4-1.452c-.2-.231-.389-.446-.57-.642s-.361-.376-.51-.542c-.62-.67-.964-1.09-.964-1.09s.692-.084,1.85-.156c1.142-.073,2.788-.155,4.572-.09a46.094,46.094,0,0,1,5.806.552c.5.087.993.176,1.49.28.471.119.933.241,1.4.376a18.505,18.505,0,0,1,2.607.955,13.289,13.289,0,0,1,2.154,1.22,10.676,10.676,0,0,1,1.62,1.436,12.33,12.33,0,0,1,2.025,2.971,10.653,10.653,0,0,1,.744,2.372,8.084,8.084,0,0,1,.108.962,21.229,21.229,0,0,1-4.275.422,22.805,22.805,0,0,1-4.18-.34,18.134,18.134,0,0,1-4.626-1.359A16.471,16.471,0,0,1,381.915,175.848Z" transform="translate(-300.337 -98.754)" fill="#c08329"/>
            <path id="Trazado_1090848" data-name="Trazado 1090848" d="M392.656,122.856a16.779,16.779,0,0,1-4.29,7.2,11.5,11.5,0,0,1-2.576-2.548,12.79,12.79,0,0,1-.955-1.457,15.152,15.152,0,0,1-.917-1.753,14.879,14.879,0,0,1-1.133-4.629,33.909,33.909,0,0,1-.022-5.882c.168-2.094.338-4.147.57-6.029s.459-3.541.639-4.748c.187-1.188.3-1.92.3-1.92a4.668,4.668,0,0,1,.37.389c.218.262.544.639.946,1.118.8.96,1.86,2.309,2.955,3.895a42.251,42.251,0,0,1,3,5.415,20.7,20.7,0,0,1,1.6,5.834,12.183,12.183,0,0,1-.009,2.694A15.09,15.09,0,0,1,392.656,122.856Z" transform="translate(-303.149 -79.835)" fill="#c08329"/>
            <path id="Trazado_1090849" data-name="Trazado 1090849" d="M359.26,144.17c-.4-.13-.8-.277-1.2-.435-.2-.076-.4-.153-.592-.236-.209-.085-.408-.158-.6-.236a32.524,32.524,0,0,1-4.312-2.159,36.239,36.239,0,0,1-3.147-1.875c-.38-.26-.674-.474-.879-.617-.225-.143-.332-.216-.332-.216s.164-.061.462-.181.737-.267,1.272-.44c1.079-.351,2.6-.812,4.357-1.231.892-.208,1.833-.411,2.8-.583.487-.079.99-.166,1.486-.236.485-.055.984-.109,1.484-.148a24.326,24.326,0,0,1,5.752.122,12.648,12.648,0,0,1,4.36,1.61,10.786,10.786,0,0,1,1.592,1.133,12.8,12.8,0,0,1,1.167,1.213,10.174,10.174,0,0,1,1.794,2.964,21.091,21.091,0,0,1-4.021,1.528,23.52,23.52,0,0,1-4.151.775,20.219,20.219,0,0,1-4.812-.152A17.412,17.412,0,0,1,359.26,144.17Z" transform="translate(-293.293 -89.671)" fill="#c08329"/>
            <path id="Trazado_1090850" data-name="Trazado 1090850" d="M352.062,96.99c-.311.676-.535,1.052-.535,1.052a2.056,2.056,0,0,1-.256-.1c-.167-.062-.4-.158-.7-.3a12.407,12.407,0,0,1-2.259-1.355,15.439,15.439,0,0,1-5.154-6.724,30.619,30.619,0,0,1-1.228-3.654c-.449-1.628-.82-3.365-1.142-5.05-.336-1.647-.63-3.256-.867-4.674-.475-2.827-.725-4.865-.725-4.868s1.012.61,2.519,1.665c.756.518,1.62,1.155,2.547,1.875.908.758,1.86,1.6,2.8,2.511.573.56,1.139,1.137,1.677,1.732.142.149.275.294.411.45s.256.311.386.475c.253.321.493.64.734.967a19.527,19.527,0,0,1,2.291,3.946,12.691,12.691,0,0,1,.759,2.6,14.88,14.88,0,0,1,.244,2.451,15.421,15.421,0,0,1-.5,4.169A17.154,17.154,0,0,1,352.062,96.99Z" transform="translate(-290.718 -71.316)" fill="#c08329"/>
            <path id="Trazado_1090851" data-name="Trazado 1090851" d="M322.512,117.173c-1.022-.2-1.984-.437-2.86-.671-.9-.2-1.708-.415-2.376-.61-1.348-.394-2.18-.72-2.18-.72s1.528-1.161,3.876-2.574c1.167-.706,2.551-1.475,4.043-2.192a34.194,34.194,0,0,1,4.635-1.789,20.459,20.459,0,0,1,3.579-.767,12.024,12.024,0,0,1,7.98,1.9,12.453,12.453,0,0,1,1.952,1.62c.212.217.37.4.48.532s.152.212.152.212-.316.308-.908.778a23.371,23.371,0,0,1-2.509,1.753,23.12,23.12,0,0,1-3.771,1.868,19.036,19.036,0,0,1-2.237.7,21.228,21.228,0,0,1-2.427.438A26.7,26.7,0,0,1,322.512,117.173Z" transform="translate(-283.821 -81.753)" fill="#c08329"/>
            <path id="Trazado_1090852" data-name="Trazado 1090852" d="M273.423,308.69c.674-.084,1.506-.183,2.449-.3.468-.071.974-.1,1.506-.2l1.652-.291c1.155-.2,2.411-.41,3.731-.637,1.31-.291,2.693-.6,4.12-.907.715-.17,1.448-.306,2.173-.5s1.458-.4,2.205-.6c1.478-.415,3-.78,4.465-1.294a120.224,120.224,0,0,0,15.931-6.235c1.041-.515,2-.99,2.854-1.4.421-.208.813-.406,1.184-.588s.69-.376.981-.535l1.87-1.036s.68-.37,1.864-1.03c1.171-.677,2.8-1.725,4.777-2.933a125.436,125.436,0,0,0,13.576-10.168,127.585,127.585,0,0,0,11.919-11.93c.389-.415.725-.852,1.06-1.256s.642-.785.933-1.15c.592-.715,1.1-1.348,1.532-1.87s.715-.946.936-1.229.329-.441.329-.441.45-.609,1.244-1.688c.389-.538.905-1.175,1.418-1.947s1.1-1.645,1.724-2.594c.32-.472.652-.967.991-1.483s.648-1.066.987-1.623c.668-1.125,1.376-2.311,2.107-3.534.674-1.259,1.354-2.557,2.063-3.872.171-.334.351-.665.525-.992.158-.345.313-.686.487-1.025.31-.683.63-1.368.952-2.058a106.417,106.417,0,0,0,5.847-15.558c.161-.543.316-1.064.462-1.559s.294-.962.383-1.407c.218-.892.408-1.678.553-2.321.316-1.284.488-2.02.488-2.02s.048-.183.126-.526.165-.855.291-1.506.269-1.427.433-2.335.393-1.915.51-3.044c.152-1.12.316-2.331.481-3.616.051-.318.091-.645.129-.972s.057-.665.089-1.007c.051-.674.1-1.371.164-2.073.285-2.813.285-5.824.383-8.835-.1-3.013-.1-6.026-.383-8.84-.06-.7-.113-1.393-.164-2.07-.031-.342-.051-.675-.089-1s-.079-.657-.129-.979c-.165-1.28-.329-2.5-.481-3.614-.117-1.126-.345-2.134-.51-3.045s-.307-1.686-.433-2.335-.206-1.163-.291-1.5-.126-.529-.126-.529-.171-.73-.488-2.016c-.146-.641-.336-1.419-.553-2.316-.089-.445-.234-.919-.383-1.413s-.3-1.014-.462-1.56a107.1,107.1,0,0,0-5.847-15.56c-.323-.68-.642-1.373-.952-2.055-.174-.345-.329-.676-.487-1.022-.174-.328-.354-.66-.525-1-.709-1.319-1.389-2.618-2.063-3.869-.73-1.223-1.439-2.409-2.107-3.533-.338-.552-.652-1.112-.987-1.625s-.671-1.007-.991-1.483c-.627-.951-1.215-1.825-1.724-2.594s-1.029-1.4-1.418-1.946l-1.244-1.685s-.117-.155-.329-.445-.51-.72-.936-1.226-.94-1.149-1.532-1.871c-.291-.363-.61-.745-.933-1.158-.336-.4-.67-.832-1.06-1.251a118.65,118.65,0,0,0-25.5-22.1c-1.981-1.205-3.607-2.248-4.777-2.923l-1.864-1.037s-.68-.371-1.87-1.031c-.291-.161-.62-.338-.981-.541-.371-.178-.762-.373-1.184-.583l-.892-.435h-.079a22.555,22.555,0,0,1-3.072.034,20.316,20.316,0,0,1-8.686-2.213,19.3,19.3,0,0,1-4.129-2.925c-.589-.569-1.221-1.135-1.785-1.7s-1.1-1.13-1.576-1.674c-.912-1.1-1.781-2.051-2.329-2.761-.567-.711-.874-1.156-.874-1.156s.693-.032,1.841-.038,2.75.024,4.578.166c.455.041.927.076,1.4.134s.946.122,1.421.2c.962.147,1.946.333,2.924.563a21.706,21.706,0,0,1,5.4,1.9,12.912,12.912,0,0,1,3.614,2.876,11.153,11.153,0,0,1,1.794,3.1,10.117,10.117,0,0,1,.639,2.4c.013.119.023.226.029.331.114.057.225.117.333.161.436.218.835.413,1.2.6.363.2.7.383,1,.55,1.2.66,1.876,1.042,1.876,1.042s.69.375,1.889,1.038c1.18.685,2.835,1.737,4.837,2.965a127.88,127.88,0,0,1,13.7,10.268A129.835,129.835,0,0,1,351.6,120.263c.4.423.737.869,1.066,1.27s.649.8.956,1.165c.588.726,1.11,1.362,1.541,1.887s.725.957.946,1.244.332.443.332.443l1.266,1.7c.389.553.9,1.2,1.43,1.97s1.1,1.665,1.737,2.621c.329.481.658.979,1,1.5s.655,1.086,1,1.646c.677,1.129,1.389,2.328,2.12,3.568.677,1.266,1.373,2.577,2.085,3.912.173.336.354.67.532,1,.161.34.326.685.484,1.029.323.693.652,1.389.974,2.083a107.719,107.719,0,0,1,5.9,15.714c.161.549.313,1.072.462,1.578s.3.968.4,1.424c.215.9.4,1.692.563,2.341.31,1.291.484,2.035.484,2.035s.051.188.129.533.168.865.285,1.52.278,1.453.443,2.363.4,1.937.522,3.073c.146,1.132.307,2.357.484,3.651.034.328.079.656.124.985s.054.679.092,1.018c.051.683.1,1.376.161,2.1.291,2.833.291,5.874.393,8.919-.1,3.043-.1,6.081-.393,8.926-.063.71-.111,1.4-.161,2.1-.038.342-.051.682-.092,1.007s-.089.671-.124.992c-.177,1.291-.338,2.526-.484,3.656-.124,1.128-.364,2.154-.522,3.07s-.316,1.7-.443,2.36-.2,1.171-.285,1.523-.129.53-.129.53-.174.74-.484,2.034c-.161.65-.348,1.443-.563,2.339-.095.451-.243.929-.4,1.427s-.3,1.029-.462,1.581a108.4,108.4,0,0,1-5.9,15.719c-.323.688-.652,1.384-.974,2.074-.158.347-.323.69-.484,1.032-.177.328-.358.671-.532,1.005-.712,1.33-1.408,2.643-2.085,3.912-.731,1.234-1.443,2.434-2.12,3.566-.348.562-.658,1.125-1,1.645s-.67,1.022-1,1.5c-.639.959-1.221,1.841-1.737,2.619s-1.041,1.421-1.43,1.967l-1.266,1.7-.332.448c-.221.286-.513.722-.946,1.24s-.952,1.161-1.541,1.894c-.307.362-.614.75-.956,1.158s-.665.847-1.066,1.269a119.829,119.829,0,0,1-25.736,22.322c-2,1.226-3.657,2.274-4.837,2.961-1.2.664-1.889,1.037-1.889,1.037s-.68.388-1.876,1.044l-1,.549c-.367.185-.766.38-1.2.588-.848.423-1.825.9-2.885,1.423a121.229,121.229,0,0,1-16.079,6.3c-1.484.52-3.022.885-4.515,1.306-.744.206-1.491.411-2.227.611s-1.471.338-2.187.509c-1.449.316-2.841.623-4.167.919-1.335.226-2.6.441-3.771.645-.575.1-1.139.2-1.67.29s-1.05.139-1.522.207c-.956.116-1.788.213-2.471.3-1.367.169-2.158.264-2.158.264l-.124-1.166S272.063,308.859,273.423,308.69Z" transform="translate(-271.286 -73.778)" fill="#c08329"/>
          </g>
        </g>
        <g id="Grupo_1219608" data-name="Grupo 1219608" transform="translate(193.919 153.26)">
          <g id="Grupo_1219595" data-name="Grupo 1219595" transform="translate(15.157 17.723)">
            <path id="Trazado_1090853" data-name="Trazado 1090853" d="M406.285,210.93c-24.669,13.1-49.83,31.041-62.315,56.025A384.9,384.9,0,0,0,406.285,210.93Z" transform="translate(-292.875 -210.93)" fill="#006064"/>
            <path id="Trazado_1090854" data-name="Trazado 1090854" d="M272.4,326.231q4.57-5.6,9.2-11.082,3.742-4.432,7.542-8.778,4.586-5.266,9.246-10.42,3.661-4.061,7.373-8.05,4.009-4.307,8.074-8.549,4.79-5.008,9.675-9.9c17.174-17.288,35.2-33.758,54.336-49.772" transform="translate(-272.396 -213.432)" fill="none" stroke="#231f20" stroke-linecap="round" stroke-linejoin="round" stroke-miterlimit="10" stroke-width="1"/>
          </g>
          <g id="Grupo_1219601" data-name="Grupo 1219601">
            <g id="Grupo_1219596" data-name="Grupo 1219596" transform="translate(56.596)">
              <path id="Trazado_1090855" data-name="Trazado 1090855" d="M356.968,186.1c-14.615,23.8-27.195,52.029-25.28,79.892A384.954,384.954,0,0,0,356.968,186.1Z" transform="translate(-330.745 -186.104)" fill="#006064"/>
              <path id="Trazado_1090856" data-name="Trazado 1090856" d="M330.444,273.52q.472-1.911.967-3.812c6.041-23.595,13.207-46.91,21.57-70.413" transform="translate(-330.444 -189.878)" fill="none" stroke="#231f20" stroke-linecap="round" stroke-linejoin="round" stroke-miterlimit="10" stroke-width="1"/>
            </g>
            <g id="Grupo_1219597" data-name="Grupo 1219597" transform="translate(43.029 15.885)">
              <path id="Trazado_1090857" data-name="Trazado 1090857" d="M317.437,208.356c-6.119,23.651-9.4,50.484-.655,73.295A336.773,336.773,0,0,0,317.437,208.356Z" transform="translate(-311.44 -208.356)" fill="#006064"/>
              <path id="Trazado_1090858" data-name="Trazado 1090858" d="M318.774,288.2c-.051-1.013-.1-2.026-.149-3.023-1-21.293-.99-42.655-.016-64.461" transform="translate(-313.281 -211.892)" fill="none" stroke="#231f20" stroke-linecap="round" stroke-linejoin="round" stroke-miterlimit="10" stroke-width="1"/>
            </g>
            <g id="Grupo_1219598" data-name="Grupo 1219598" transform="translate(24.659 41.24)">
              <path id="Trazado_1090859" data-name="Trazado 1090859" d="M285.706,243.873c.478,19.23,3.791,40.255,15.343,55.636A265.145,265.145,0,0,0,285.706,243.873Z" transform="translate(-285.706 -243.873)" fill="#006064"/>
              <path id="Trazado_1090860" data-name="Trazado 1090860" d="M302.758,305.611c-.389-1.131-.778-2.262-1.156-3.4-5.365-15.9-9.969-32.055-13.934-48.77" transform="translate(-286.267 -246.609)" fill="none" stroke="#231f20" stroke-linecap="round" stroke-linejoin="round" stroke-miterlimit="10" stroke-width="1"/>
            </g>
            <g id="Grupo_1219599" data-name="Grupo 1219599" transform="translate(10.735 65.306)">
              <path id="Trazado_1090861" data-name="Trazado 1090861" d="M266.2,277.585c3.029,15.752,8.636,32.593,20.247,43.661A221.1,221.1,0,0,0,266.2,277.585Z" transform="translate(-266.202 -277.585)" fill="#006064"/>
              <path id="Trazado_1090862" data-name="Trazado 1090862" d="M288.206,325.113c-.315-.568-.625-1.131-.923-1.694,0-.011-.011-.021-.012-.033-6.585-12.338-12.591-25-18.144-38.208" transform="translate(-267.039 -279.758)" fill="none" stroke="#231f20" stroke-linecap="round" stroke-linejoin="round" stroke-miterlimit="10" stroke-width="1"/>
            </g>
            <g id="Grupo_1219600" data-name="Grupo 1219600" transform="translate(0 82.147)">
              <path id="Trazado_1090863" data-name="Trazado 1090863" d="M251.164,301.176c4.608,13.388,11.605,27.406,23.129,35.632A195.086,195.086,0,0,0,251.164,301.176Z" transform="translate(-251.164 -301.176)" fill="#006064"/>
              <path id="Trazado_1090864" data-name="Trazado 1090864" d="M276.525,340.264c-.419-.549-.822-1.1-1.23-1.665-7.3-9.969-14.123-20.293-20.633-31.147" transform="translate(-252.165 -302.972)" fill="none" stroke="#231f20" stroke-linecap="round" stroke-linejoin="round" stroke-miterlimit="10" stroke-width="1"/>
            </g>
          </g>
          <g id="Grupo_1219607" data-name="Grupo 1219607" transform="translate(22.867 62.789)">
            <g id="Grupo_1219602" data-name="Grupo 1219602" transform="translate(32.857)">
              <path id="Trazado_1090865" data-name="Trazado 1090865" d="M415.513,274.06c-24.454,13.491-53.238,24.744-80.982,21.535A384.994,384.994,0,0,1,415.513,274.06Z" transform="translate(-330.742 -274.06)" fill="#006064"/>
              <path id="Trazado_1090866" data-name="Trazado 1090866" d="M404.416,278.606c-23.866,7.259-47.49,13.333-71.34,18.269q-1.924.408-3.853.788" transform="translate(-329.223 -275.361)" fill="none" stroke="#231f20" stroke-linecap="round" stroke-linejoin="round" stroke-miterlimit="10" stroke-width="1"/>
            </g>
            <g id="Grupo_1219603" data-name="Grupo 1219603" transform="translate(24.511 30.344)">
              <path id="Trazado_1090867" data-name="Trazado 1090867" d="M394.981,320.185c-23.91,5.012-50.867,7.042-73.245-2.756A336.721,336.721,0,0,1,394.981,320.185Z" transform="translate(-318.735 -316.566)" fill="#006064"/>
              <path id="Trazado_1090868" data-name="Trazado 1090868" d="M384.936,320.672c-21.829-.042-43.167-1.022-64.391-3.015-.994-.092-2-.191-3.013-.29" transform="translate(-317.532 -316.795)" fill="none" stroke="#231f20" stroke-linecap="round" stroke-linejoin="round" stroke-miterlimit="10" stroke-width="1"/>
            </g>
            <g id="Grupo_1219604" data-name="Grupo 1219604" transform="translate(16.298 39.675)">
              <path id="Trazado_1090869" data-name="Trazado 1090869" d="M365.525,349.376c-19.187-1.372-40.035-5.661-54.862-17.915A265.143,265.143,0,0,1,365.525,349.376Z" transform="translate(-307.354 -330.159)" fill="#006064"/>
              <path id="Trazado_1090870" data-name="Trazado 1090870" d="M357.445,347.138c-16.513-4.738-32.438-10.089-48.069-16.188-1.124-.431-2.235-.872-3.347-1.314" transform="translate(-306.028 -329.637)" fill="none" stroke="#231f20" stroke-linecap="round" stroke-linejoin="round" stroke-miterlimit="10" stroke-width="1"/>
            </g>
            <g id="Grupo_1219605" data-name="Grupo 1219605" transform="translate(6.83 50.456)">
              <path id="Trazado_1090871" data-name="Trazado 1090871" d="M337.746,368.393c-15.595-3.759-32.156-10.144-42.672-22.256A221.06,221.06,0,0,1,337.746,368.393Z" transform="translate(-293.425 -345.139)" fill="#006064"/>
              <path id="Trazado_1090872" data-name="Trazado 1090872" d="M331.767,365.655c-12.934-6.161-25.3-12.75-37.322-19.9-.011,0-.021-.012-.032-.014-.548-.324-1.1-.66-1.649-1" transform="translate(-292.764 -344.739)" fill="none" stroke="#231f20" stroke-linecap="round" stroke-linejoin="round" stroke-miterlimit="10" stroke-width="1"/>
            </g>
            <g id="Grupo_1219606" data-name="Grupo 1219606" transform="translate(0 58.672)">
              <path id="Trazado_1090873" data-name="Trazado 1090873" d="M319.956,382.84c-13.159-5.226-26.836-12.868-34.517-24.762A195.094,195.094,0,0,1,319.956,382.84Z" transform="translate(-283.839 -356.772)" fill="#006064"/>
              <path id="Trazado_1090874" data-name="Trazado 1090874" d="M314.955,379.614c-10.539-7.009-20.535-14.3-30.153-22.06-.541-.434-1.077-.862-1.605-1.306" transform="translate(-283.197 -356.248)" fill="none" stroke="#231f20" stroke-linecap="round" stroke-linejoin="round" stroke-miterlimit="10" stroke-width="1"/>
            </g>
          </g>
        </g>
        <g id="Grupo_1219622" data-name="Grupo 1219622" transform="translate(53.52 142.987)">
          <g id="Grupo_1219609" data-name="Grupo 1219609" transform="translate(27.429 3.087)">
            <path id="Trazado_1090875" data-name="Trazado 1090875" d="M92.914,176.039c8.418,27.928,21.7,57.343,44.771,75.2A402.1,402.1,0,0,0,92.914,176.039Z" transform="translate(-92.914 -176.039)" fill="#006064"/>
            <path id="Trazado_1090876" data-name="Trazado 1090876" d="M187.413,318.866q-4.814-5.818-9.489-11.675-3.782-4.733-7.465-9.506-4.466-5.766-8.8-11.585-3.418-4.573-6.753-9.186-3.6-4.98-7.123-10-4.16-5.923-8.186-11.92c-14.232-21.1-27.453-42.9-39.98-65.757" transform="translate(-94.831 -179.814)" fill="none" stroke="#231f20" stroke-linecap="round" stroke-linejoin="round" stroke-miterlimit="10" stroke-width="1"/>
          </g>
          <g id="Grupo_1219615" data-name="Grupo 1219615" transform="translate(0 46.365)">
            <g id="Grupo_1219610" data-name="Grupo 1219610">
              <path id="Trazado_1090877" data-name="Trazado 1090877" d="M54.491,236.663c21.422,19.8,47.794,38.407,76.729,42.091A402.028,402.028,0,0,0,54.491,236.663Z" transform="translate(-54.491 -236.663)" fill="#006064"/>
              <path id="Trazado_1090878" data-name="Trazado 1090878" d="M138.437,282.759q-1.862-.872-3.709-1.763c-22.95-10.971-45.384-23.038-67.769-36.369" transform="translate(-58.058 -238.942)" fill="none" stroke="#231f20" stroke-linecap="round" stroke-linejoin="round" stroke-miterlimit="10" stroke-width="1"/>
            </g>
            <g id="Grupo_1219611" data-name="Grupo 1219611" transform="translate(9.426 37.842)">
              <path id="Trazado_1090879" data-name="Trazado 1090879" d="M67.695,289.672c22.991,11.063,49.817,19.864,74.959,15.526A351.62,351.62,0,0,0,67.695,289.672Z" transform="translate(-67.695 -289.672)" fill="#006064"/>
              <path id="Trazado_1090880" data-name="Trazado 1090880" d="M149.339,306.644c-1.049-.152-2.1-.3-3.127-.46-22.019-3.287-43.9-7.631-66.046-13.047" transform="translate(-71.263 -290.663)" fill="none" stroke="#231f20" stroke-linecap="round" stroke-linejoin="round" stroke-miterlimit="10" stroke-width="1"/>
            </g>
            <g id="Grupo_1219612" data-name="Grupo 1219612" transform="translate(30.464 63.009)">
              <path id="Trazado_1090881" data-name="Trazado 1090881" d="M97.165,329.989c19.8,3.407,42.011,4.274,60.11-4.444A276.9,276.9,0,0,0,97.165,329.989Z" transform="translate(-97.165 -325.052)" fill="#006064"/>
              <path id="Trazado_1090882" data-name="Trazado 1090882" d="M163.873,324.926c-1.238.169-2.475.338-3.722.495-17.375,2.275-34.862,3.717-52.791,4.392" transform="translate(-100.082 -324.926)" fill="none" stroke="#231f20" stroke-linecap="round" stroke-linejoin="round" stroke-miterlimit="10" stroke-width="1"/>
            </g>
            <g id="Grupo_1219613" data-name="Grupo 1219613" transform="translate(52.299 74.593)">
              <path id="Trazado_1090883" data-name="Trazado 1090883" d="M127.752,353.889c16.752.089,35.143-2.243,48.836-11.9A230.918,230.918,0,0,0,127.752,353.889Z" transform="translate(-127.752 -341.394)" fill="#006064"/>
              <path id="Trazado_1090884" data-name="Trazado 1090884" d="M180.906,341.154c-.646.208-1.285.411-1.922.6-.011,0-.024.007-.036.006-13.975,4.246-28.167,7.833-42.822,10.845" transform="translate(-130.148 -341.154)" fill="none" stroke="#231f20" stroke-linecap="round" stroke-linejoin="round" stroke-miterlimit="10" stroke-width="1"/>
            </g>
            <g id="Grupo_1219614" data-name="Grupo 1219614" transform="translate(67.377 84.1)">
              <path id="Trazado_1090885" data-name="Trazado 1090885" d="M148.873,372.241c14.65-2.008,30.43-6.336,41.193-16.475A203.8,203.8,0,0,0,148.873,372.241Z" transform="translate(-148.873 -354.842)" fill="#006064"/>
              <path id="Trazado_1090886" data-name="Trazado 1090886" d="M194.061,354.471c-.647.318-1.3.617-1.955.922-11.693,5.46-23.653,10.356-36.093,14.827" transform="translate(-150.916 -354.471)" fill="none" stroke="#231f20" stroke-linecap="round" stroke-linejoin="round" stroke-miterlimit="10" stroke-width="1"/>
            </g>
          </g>
          <g id="Grupo_1219621" data-name="Grupo 1219621" transform="translate(75.609 0)">
            <g id="Grupo_1219616" data-name="Grupo 1219616">
              <path id="Trazado_1090887" data-name="Trazado 1090887" d="M160.815,171.714c8.866,27.789,14.562,59.559,5.651,87.333A402.053,402.053,0,0,1,160.815,171.714Z" transform="translate(-160.405 -171.714)" fill="#006064"/>
              <path id="Trazado_1090888" data-name="Trazado 1090888" d="M162.917,186.381c2.6,25.923,4.036,51.357,4.26,76.793.019,1.37.026,2.736.027,4.107" transform="translate(-161.124 -175.911)" fill="none" stroke="#231f20" stroke-linecap="round" stroke-linejoin="round" stroke-miterlimit="10" stroke-width="1"/>
            </g>
            <g id="Grupo_1219617" data-name="Grupo 1219617" transform="translate(13.212 24.167)">
              <path id="Trazado_1090889" data-name="Trazado 1090889" d="M197.851,205.567c.29,25.512-3.094,53.542-17.668,74.484A351.626,351.626,0,0,1,197.851,205.567Z" transform="translate(-179.276 -205.567)" fill="#006064"/>
              <path id="Trazado_1090890" data-name="Trazado 1090890" d="M195.96,218.332c-4.467,22.356-9.8,44.02-16.139,65.359-.3,1-.6,2.014-.907,3.028" transform="translate(-178.913 -209.219)" fill="none" stroke="#231f20" stroke-linecap="round" stroke-linejoin="round" stroke-miterlimit="10" stroke-width="1"/>
            </g>
            <g id="Grupo_1219618" data-name="Grupo 1219618" transform="translate(20.522 56.152)">
              <path id="Trazado_1090891" data-name="Trazado 1090891" d="M221.435,250.373c-5.294,19.379-13.913,39.87-29.474,52.577A276.868,276.868,0,0,1,221.435,250.373Z" transform="translate(-189.956 -250.373)" fill="#006064"/>
              <path id="Trazado_1090892" data-name="Trazado 1090892" d="M217.5,259.579c-8.2,15.957-16.91,31.189-26.327,45.968-.67,1.064-1.346,2.113-2.024,3.163" transform="translate(-189.153 -253.007)" fill="none" stroke="#231f20" stroke-linecap="round" stroke-linejoin="round" stroke-miterlimit="10" stroke-width="1"/>
            </g>
            <g id="Grupo_1219619" data-name="Grupo 1219619" transform="translate(29.648 83.047)">
              <path id="Trazado_1090893" data-name="Trazado 1090893" d="M235.287,288.047c-7.011,15.215-16.91,30.889-31.451,39.208A230.9,230.9,0,0,1,235.287,288.047Z" transform="translate(-202.48 -288.047)" fill="#006064"/>
              <path id="Trazado_1090894" data-name="Trazado 1090894" d="M231.27,295.014c-8.934,12-18.191,23.341-27.954,34.2,0,.011-.017.019-.02.03-.443.5-.9.989-1.36,1.487" transform="translate(-201.936 -290.04)" fill="none" stroke="#231f20" stroke-linecap="round" stroke-linejoin="round" stroke-miterlimit="10" stroke-width="1"/>
            </g>
            <g id="Grupo_1219620" data-name="Grupo 1219620" transform="translate(36.68 100.683)">
              <path id="Trazado_1090895" data-name="Trazado 1090895" d="M246.483,312.752c-8.021,12.423-18.623,24.886-32.365,30.345A203.876,203.876,0,0,1,246.483,312.752Z" transform="translate(-212.454 -312.752)" fill="#006064"/>
              <path id="Trazado_1090896" data-name="Trazado 1090896" d="M242.163,318.243c-9.317,9.377-18.816,18.14-28.713,26.422-.554.466-1.1.928-1.663,1.381" transform="translate(-211.787 -314.323)" fill="none" stroke="#231f20" stroke-linecap="round" stroke-linejoin="round" stroke-miterlimit="10" stroke-width="1"/>
            </g>
          </g>
        </g>
        <g id="Grupo_1219625" data-name="Grupo 1219625" transform="translate(244.281 138.953)">
          <g id="Grupo_1219623" data-name="Grupo 1219623" transform="translate(0 0)">
            <path id="Trazado_1090897" data-name="Trazado 1090897" d="M358.586,236.28c0,12.745,26.418,28.694,26.418,50.367,0,8.929-5.917,11.6-5.917,11.6H329.335s-5.917-2.671-5.917-11.6c0-21.673,26.418-37.622,26.418-50.367s-26.418-28.694-26.418-50.367c0-8.928,5.917-11.6,5.917-11.6h49.752s5.917,2.671,5.917,11.6C385,207.586,358.586,223.535,358.586,236.28Z" transform="translate(-322.199 -168.423)" opacity="0.46" fill="url(#linear-gradient)"/>
            <path id="Trazado_1090898" data-name="Trazado 1090898" d="M358.586,236.28c0,12.745,26.418,28.694,26.418,50.367,0,8.929-5.917,11.6-5.917,11.6H329.335s-5.917-2.671-5.917-11.6c0-21.673,26.418-37.622,26.418-50.367s-26.418-28.694-26.418-50.367c0-8.928,5.917-11.6,5.917-11.6h49.752s5.917,2.671,5.917,11.6C385,207.586,358.586,223.535,358.586,236.28Z" transform="translate(-322.199 -168.423)" fill="none" stroke="#fff" stroke-miterlimit="10" stroke-width="1"/>
            <path id="Trazado_1090899" data-name="Trazado 1090899" d="M381.225,166.062H326.218a4.314,4.314,0,0,0-4.507,4.09h0a4.314,4.314,0,0,0,4.507,4.09h55.007a4.314,4.314,0,0,0,4.507-4.09h0A4.313,4.313,0,0,0,381.225,166.062Z" transform="translate(-321.711 -166.062)" fill="#6d3c2f"/>
            <path id="Trazado_1090900" data-name="Trazado 1090900" d="M400.482,343.662h-2.829a11.9,11.9,0,0,0,2.456-3.958A20.787,20.787,0,0,1,400.482,343.662Z" transform="translate(-343.44 -215.746)" fill="#ccb552"/>
            <path id="Trazado_1090901" data-name="Trazado 1090901" d="M373.943,166.062H346.237c-1.254,0-2.27,1.831-2.27,4.09h0c0,2.259,1.017,4.09,2.27,4.09h27.705c1.254,0,2.27-1.831,2.27-4.09h0C376.213,167.893,375.2,166.062,373.943,166.062Z" transform="translate(-328.079 -166.062)" fill="#a15946"/>
            <path id="Trazado_1090902" data-name="Trazado 1090902" d="M381.225,342.192H326.218a4.314,4.314,0,0,0-4.507,4.09h0a4.314,4.314,0,0,0,4.507,4.09h55.007a4.314,4.314,0,0,0,4.507-4.09h0A4.313,4.313,0,0,0,381.225,342.192Z" transform="translate(-321.711 -216.458)" fill="#6d3c2f"/>
            <path id="Trazado_1090903" data-name="Trazado 1090903" d="M373.943,342.192H346.237c-1.254,0-2.27,1.831-2.27,4.09h0c0,2.259,1.017,4.09,2.27,4.09h27.705c1.254,0,2.27-1.831,2.27-4.09h0C376.213,344.023,375.2,342.192,373.943,342.192Z" transform="translate(-328.079 -216.458)" fill="#a15946"/>
          </g>
          <path id="Trazado_1090904" data-name="Trazado 1090904" d="M335.933,215.089s10.061,4.327,16.219,0c9.462-6.648,23.157-7.429,27.58.135,0,0-10.437,9.949-20.975,9.949S335.933,215.089,335.933,215.089Z" transform="translate(-325.78 -178.584)" fill="#ba8436"/>
          <g id="Grupo_1219624" data-name="Grupo 1219624" transform="translate(7.592 36.505)">
            <path id="Trazado_1090905" data-name="Trazado 1090905" d="M381.421,304.65a11.867,11.867,0,0,1-2.451,3.956H332.346c0-18.174,22.511-24.106,22.511-42.654V247.791c0-6.871-3.236-12.044-7.347-16.734s-9.1-8.9-12.6-13.858a42.48,42.48,0,0,0,7.379,3.462,43.3,43.3,0,0,0,14.585,2.548h.051a43.466,43.466,0,0,0,21.784-5.874l.231-.135c-6.877,9.908-19.577,16.843-19.577,30.592v18.162C359.36,283.085,378.5,289.454,381.421,304.65Z" transform="translate(-332.346 -217.199)" fill="#ebaf59"/>
            <path id="Trazado_1090906" data-name="Trazado 1090906" d="M377.882,306.032a12.822,12.822,0,0,1-1.866,3.956h-35.4c0-18.174,17.094-24.106,17.094-42.654V249.173c0-6.871-2.458-12.044-5.577-16.734-2.374-3.564-5.128-6.852-7.482-10.4a43.3,43.3,0,0,0,14.585,2.548h.051a43.149,43.149,0,0,0,14.662-2.561c-5.353,8.215-12.822,15.041-12.822,27.143v18.162C361.129,284.467,375.669,290.837,377.882,306.032Z" transform="translate(-334.713 -218.581)" fill="#cc913b"/>
          </g>
        </g>
        <g id="Grupo_1219633" data-name="Grupo 1219633" transform="translate(61.717 158.703)">
          <g id="Grupo_1219631" data-name="Grupo 1219631" transform="translate(17.862)">
            <g id="Grupo_1219630" data-name="Grupo 1219630">
              <path id="Trazado_1090907" data-name="Trazado 1090907" d="M159.881,250.9l-4.72-2.224L149.8,260.057l4.719,2.224s2.549.95,6.528,2.456a61.627,61.627,0,0,0,5.187-10.2C162.365,252.334,159.881,250.9,159.881,250.9Z" transform="translate(-107.82 -209.45)" fill="#331508"/>
              <path id="Trazado_1090908" data-name="Trazado 1090908" d="M267.982,300.9a7.254,7.254,0,0,0-4.592-.545c-7.643-6.358-28.4-10.934-44.961-18.17-1.355-.593-2.723-1.209-4.093-1.84.1-1-.087-1.754-.583-1.986a1.085,1.085,0,0,0-.942.093c.129-1.059-.01-1.817-.464-2.03s-1.123.163-1.852.937a1.09,1.09,0,0,0-.536-.785c-.484-.233-1.166.089-1.865.78-9.829-4.866-27.811-15.021-37.358-20.469a61.571,61.571,0,0,1-5.187,10.2c10.2,3.861,29.778,11.375,39.89,15.906-.087.976.1,1.7.583,1.931a1.107,1.107,0,0,0,.949-.089c-.135,1.057.009,1.816.46,2.028s1.127-.162,1.857-.937a1.1,1.1,0,0,0,.53.787c.495.232,1.2-.1,1.9-.815,1.361.655,2.708,1.314,4.028,1.985,16.119,8.162,32.865,21.254,42.63,23.107a7.339,7.339,0,1,0,9.605-10.088Z" transform="translate(-112.327 -211.801)" fill="#662a10"/>
              <path id="Trazado_1090909" data-name="Trazado 1090909" d="M149.335,240.185l-.156.331-1.609,3.412L142.2,255.312l-1.567,3.328-.191.4-16.8-7.913-.871-.41-16.009-7.546.176-.373,8.536-18.127.171-.363,15.8,7.445.871.41Z" transform="translate(-95.509 -202.48)" fill="#89411d"/>
              <g id="Grupo_1219626" data-name="Grupo 1219626" transform="translate(0.131 46.949)">
                <path id="Trazado_1090910" data-name="Trazado 1090910" d="M131.857,286.919a7.085,7.085,0,0,1-4.084,3.011,12.283,12.283,0,0,1-8.928-.911c-7.469-3.521-9.662-4.552-10.186-4.8l-.144-.068s-.158-.07-.727-.343c-1.093-.509-3.7-1.739-9.6-4.522a12.279,12.279,0,0,1-6.387-6.3,7.131,7.131,0,0,1-.274-5.07,4.591,4.591,0,0,1,.877-1.509,4.413,4.413,0,0,1,2.756-1.443,4.133,4.133,0,0,1,.476-.05,7.489,7.489,0,0,0,2.426-.505,2.885,2.885,0,0,0,1.809-1.891,3.733,3.733,0,0,0-.142-2.265,1.655,1.655,0,0,0-.447-.755l16.345,7.182.881.387.05.022,16.855,8.49a1.665,1.665,0,0,0-.847.131,3.75,3.75,0,0,0-1.857,1.341,2.889,2.889,0,0,0-.306,2.6,7.439,7.439,0,0,0,1.156,2.187c.1.137.183.266.264.4a4.44,4.44,0,0,1,.642,3.049A4.681,4.681,0,0,1,131.857,286.919Z" transform="translate(-91.18 -259.496)" fill="#89411d"/>
              </g>
              <g id="Grupo_1219627" data-name="Grupo 1219627" transform="translate(22.743 0.507)">
                <path id="Trazado_1090911" data-name="Trazado 1090911" d="M163.863,218.435a4.4,4.4,0,0,1-2.761,1.439,3.608,3.608,0,0,1-.47.052,7.58,7.58,0,0,0-2.43.5,2.872,2.872,0,0,0-1.805,1.893,3.711,3.711,0,0,0,.139,2.263,1.651,1.651,0,0,0,.445.755L139.7,217.751l-.075-.04-.861-.433-15.914-8.016a1.694,1.694,0,0,0,.846-.131,3.744,3.744,0,0,0,1.853-1.342,2.877,2.877,0,0,0,.31-2.6A7.5,7.5,0,0,0,124.7,203c-.1-.137-.18-.263-.261-.4a4.39,4.39,0,0,1-.64-3.05,4.591,4.591,0,0,1,.605-1.633,7.1,7.1,0,0,1,4.085-3.013,12.271,12.271,0,0,1,8.923.911c5.261,2.483,7.9,3.724,9.19,4.329.42.2.695.329.872.409.2.1.268.129.268.129s1.347.632,10.329,4.866a12.29,12.29,0,0,1,6.388,6.3,7.157,7.157,0,0,1,.277,5.073A4.683,4.683,0,0,1,163.863,218.435Z" transform="translate(-122.854 -194.44)" fill="#89411d"/>
              </g>
              <path id="Trazado_1090912" data-name="Trazado 1090912" d="M141.229,236.469l-.156.331-1.6,3.417-5.339,11.4-1.559,3.332-.19.405-13.269-6.3-.688-.326-12.648-6.009.175-.373,8.494-18.147.171-.363L127.1,229.76l.688.326Z" transform="translate(-95.226 -202.343)" fill="#b35525"/>
              <g id="Grupo_1219628" data-name="Grupo 1219628" transform="translate(0 46.637)">
                <path id="Trazado_1090913" data-name="Trazado 1090913" d="M123.334,282.919a7.757,7.757,0,0,1-3.616,3.225,8.573,8.573,0,0,1-7.314-.173c-5.9-2.8-7.633-3.624-8.047-3.822l-.114-.054s-.125-.055-.575-.274c-.864-.4-2.92-1.384-7.586-3.6a8.664,8.664,0,0,1-4.786-5.569,7.9,7.9,0,0,1,.174-4.865,5.77,5.77,0,0,1,.845-1.524,4.427,4.427,0,0,1,2.394-1.608,3.1,3.1,0,0,1,.4-.086,6.262,6.262,0,0,0,2.047-.679,3.389,3.389,0,0,0,1.646-1.966,4.1,4.1,0,0,0,.061-2.172,1.33,1.33,0,0,0-.31-.692L111.5,264.69l.7.3.039.017,13.274,6.852a1.312,1.312,0,0,0-.711.193,4.058,4.058,0,0,0-1.642,1.439,3.418,3.418,0,0,0-.459,2.531,6.321,6.321,0,0,0,.784,2.016c.069.125.131.242.187.367a4.515,4.515,0,0,1,.291,2.888A5.961,5.961,0,0,1,123.334,282.919Z" transform="translate(-90.996 -259.059)" fill="#b35525"/>
              </g>
              <g id="Grupo_1219629" data-name="Grupo 1219629" transform="translate(22.057)">
                <path id="Trazado_1090914" data-name="Trazado 1090914" d="M155.095,214.347a4.415,4.415,0,0,1-2.4,1.605,2.837,2.837,0,0,1-.393.088,6.343,6.343,0,0,0-2.05.677,3.373,3.373,0,0,0-1.643,1.967,4.076,4.076,0,0,0-.064,2.17,1.315,1.315,0,0,0,.308.692L135.163,215.6l-.059-.032-.678-.349-12.532-6.469a1.344,1.344,0,0,0,.71-.193,4.065,4.065,0,0,0,1.639-1.44,3.4,3.4,0,0,0,.462-2.529,6.364,6.364,0,0,0-.787-2.02c-.069-.124-.128-.238-.184-.363a4.464,4.464,0,0,1-.288-2.889,5.762,5.762,0,0,1,.63-1.623,7.776,7.776,0,0,1,3.617-3.226,8.563,8.563,0,0,1,7.309.173c4.156,1.977,6.245,2.965,7.26,3.447.331.162.549.262.689.325.158.079.211.1.211.1s1.064.5,8.161,3.874a8.675,8.675,0,0,1,4.787,5.568,7.93,7.93,0,0,1-.171,4.868A5.89,5.89,0,0,1,155.095,214.347Z" transform="translate(-121.894 -193.729)" fill="#b35525"/>
              </g>
              <path id="Trazado_1090915" data-name="Trazado 1090915" d="M118.047,214.537" transform="translate(-98.736 -199.683)" fill="#894e34"/>
              <path id="Trazado_1090916" data-name="Trazado 1090916" d="M149.312,209.4" transform="translate(-107.682 -198.214)" fill="#b4711a"/>
              <path id="Trazado_1090917" data-name="Trazado 1090917" d="M140.084,270.97a3.969,3.969,0,0,1-4.942,2.041,3.2,3.2,0,0,1-.3-.123l-.04-.017-16.125-7.6-.873-.41-15.335-7.227c-.054-.025-.106-.054-.159-.079a3.972,3.972,0,0,1,2.758-7.379,3.743,3.743,0,0,1,.75.256l.041.019,15.25,7.189.871.41,16.207,7.638a4.7,4.7,0,0,1,.571.326A3.981,3.981,0,0,1,140.084,270.97Z" transform="translate(-93.626 -209.85)" fill="#662a10"/>
              <path id="Trazado_1090918" data-name="Trazado 1090918" d="M156.48,235.588a3.972,3.972,0,0,1-4.494,2.174,3.756,3.756,0,0,1-.75-.256l-.042-.019-16.251-7.658-.872-.41-15.209-7.17a4.694,4.694,0,0,1-.571-.326,3.972,3.972,0,0,1,3.616-7c.1.036.2.077.3.123l.04.018,15.124,7.131.872.41,16.332,7.695c.057.025.108.054.163.079A3.972,3.972,0,0,1,156.48,235.588Z" transform="translate(-98.317 -199.726)" fill="#662a10"/>
            </g>
          </g>
          <g id="Grupo_1219632" data-name="Grupo 1219632" transform="translate(0 76.961)">
            <path id="Trazado_1090919" data-name="Trazado 1090919" d="M137.123,304.515v1.316a2.983,2.983,0,0,1-.015.322,2.615,2.615,0,0,1-2.286,2.656H74.833a2.617,2.617,0,0,1-2.285-2.656,3.169,3.169,0,0,1-.015-.322v-1.316c0-1.641,1.032-2.978,2.3-2.978h59.99C136.1,301.537,137.123,302.873,137.123,304.515Z" transform="translate(-67.851 -301.537)" fill="#331508"/>
            <path id="Trazado_1090920" data-name="Trazado 1090920" d="M138.946,313.4v11.742H68.268V313.4a5.912,5.912,0,0,1,3.059-5.524,3.587,3.587,0,0,1,1.446-.308h61.669a3.589,3.589,0,0,1,1.446.308A5.912,5.912,0,0,1,138.946,313.4Z" transform="translate(-66.63 -303.264)" fill="#89411d"/>
            <path id="Trazado_1090921" data-name="Trazado 1090921" d="M151.282,316.28v9.944h-39.9V316.28c0-2.172.723-4.018,1.727-4.678a1.48,1.48,0,0,1,.816-.261h34.816a1.48,1.48,0,0,1,.816.261C150.558,312.263,151.282,314.109,151.282,316.28Z" transform="translate(-78.966 -304.342)" fill="#753819"/>
            <path id="Trazado_1090922" data-name="Trazado 1090922" d="M139.928,328.409v5.351a.886.886,0,0,1-.752.974H66.726a.886.886,0,0,1-.752-.974v-5.351a1.975,1.975,0,0,1,1.638-2.157H138.29A1.976,1.976,0,0,1,139.928,328.409Z" transform="translate(-65.974 -308.609)" fill="#662a10"/>
          </g>
          <path id="Trazado_1090923" data-name="Trazado 1090923" d="M100.95,266.382c7.331,4.256,21.379,11.288,28.71,15.545" transform="translate(-75.982 -214.517)" fill="none" stroke="#2a1510" stroke-linecap="round" stroke-linejoin="round" stroke-miterlimit="10" stroke-width="1"/>
          <path id="Trazado_1090924" data-name="Trazado 1090924" d="M126.047,206.723c2.633,1.42,20.19,9.776,22.824,11.2" transform="translate(-83.163 -197.447)" fill="none" stroke="#2a1510" stroke-linecap="round" stroke-linejoin="round" stroke-miterlimit="10" stroke-width="1"/>
          <path id="Trazado_1090925" data-name="Trazado 1090925" d="M72.865,318.858v-4.166c0-2.863,2-5.183,4.457-5.183h28.085" transform="translate(-67.946 -226.857)" fill="none" stroke="#b35525" stroke-linecap="round" stroke-linejoin="round" stroke-miterlimit="10" stroke-width="1"/>
        </g>
        <g id="Grupo_1219643" data-name="Grupo 1219643" transform="translate(113.267 216.92)">
          <g id="Grupo_1219636" data-name="Grupo 1219636" transform="translate(15.081)">
            <g id="Grupo_1219635" data-name="Grupo 1219635">
              <g id="Grupo_1219634" data-name="Grupo 1219634">
                <rect id="Rect치ngulo_420867" data-name="Rect치ngulo 420867" width="69.028" height="19.146" transform="translate(4.27 0.942)" fill="#4b4bbd"/>
                <rect id="Rect치ngulo_420868" data-name="Rect치ngulo 420868" width="100.761" height="21.031" transform="translate(28.92)" fill="#4b4bbd"/>
                <rect id="Rect치ngulo_420869" data-name="Rect치ngulo 420869" width="73.377" height="15.636" transform="translate(56.304 2.697)" fill="#fff3e0"/>
                <path id="Trazado_1090926" data-name="Trazado 1090926" d="M215.615,296.31H164.472a5.161,5.161,0,0,1-5.161-5.161V280.441a5.161,5.161,0,0,1,5.161-5.161h51.143v21.03Z" transform="translate(-159.311 -275.279)" fill="#17177d"/>
                <path id="Trazado_1090927" data-name="Trazado 1090927" d="M216.746,294.694H167.591a4.326,4.326,0,0,1-4.325-4.325v-6.986a4.326,4.326,0,0,1,4.325-4.325h49.155Z" transform="translate(-160.443 -276.36)" fill="#d1b890"/>
              </g>
            </g>
            <path id="Trazado_1090928" data-name="Trazado 1090928" d="M171.465,288.157v7.623l2.866-.9,3.291.9v-7.623Z" transform="translate(-162.789 -278.964)" fill="#d13a3a"/>
            <line id="L칤nea_774" data-name="L칤nea 774" x2="41.817" transform="translate(5.272 9.193)" fill="none" stroke="#2a1510" stroke-linecap="round" stroke-linejoin="round" stroke-miterlimit="10" stroke-width="1"/>
          </g>
          <g id="Grupo_1219639" data-name="Grupo 1219639" transform="translate(0 21.031)">
            <g id="Grupo_1219638" data-name="Grupo 1219638">
              <g id="Grupo_1219637" data-name="Grupo 1219637">
                <rect id="Rect치ngulo_420870" data-name="Rect치ngulo 420870" width="87.125" height="24.165" transform="translate(5.389 1.19)" fill="#4b4bbd"/>
                <rect id="Rect치ngulo_420871" data-name="Rect치ngulo 420871" width="127.178" height="26.545" transform="translate(36.502)" fill="#d13a3a"/>
                <rect id="Rect치ngulo_420872" data-name="Rect치ngulo 420872" width="92.615" height="19.736" transform="translate(71.065 3.404)" fill="#fff3e0"/>
                <path id="Trazado_1090929" data-name="Trazado 1090929" d="M209.251,331.284h-65.9a5.161,5.161,0,0,1-5.161-5.161V309.9a5.161,5.161,0,0,1,5.161-5.161h65.9v26.544Z" transform="translate(-138.186 -304.739)" fill="#852525"/>
                <path id="Trazado_1090930" data-name="Trazado 1090930" d="M210.68,329.244H147.5a4.326,4.326,0,0,1-4.325-4.325V313.833a4.326,4.326,0,0,1,4.325-4.325H210.68Z" transform="translate(-139.614 -306.104)" fill="#d1b890"/>
              </g>
            </g>
            <path id="Trazado_1090931" data-name="Trazado 1090931" d="M153.527,320.994v9.622l3.617-1.141,4.154,1.141v-9.622Z" transform="translate(-142.575 -309.39)" fill="#4b4bbd"/>
            <line id="L칤nea_775" data-name="L칤nea 775" x2="24.663" transform="translate(6.654 11.604)" fill="none" stroke="#2a1510" stroke-linecap="round" stroke-linejoin="round" stroke-miterlimit="10" stroke-width="1"/>
          </g>
          <g id="Grupo_1219642" data-name="Grupo 1219642" transform="translate(15.218 47.575)">
            <g id="Grupo_1219641" data-name="Grupo 1219641">
              <g id="Grupo_1219640" data-name="Grupo 1219640">
                <rect id="Rect치ngulo_420873" data-name="Rect치ngulo 420873" width="70.925" height="24.165" transform="translate(4.387 1.19)" fill="#4b4bbd"/>
                <rect id="Rect치ngulo_420874" data-name="Rect치ngulo 420874" width="103.53" height="26.545" transform="translate(29.715)" fill="#efbf00"/>
                <rect id="Rect치ngulo_420875" data-name="Rect치ngulo 420875" width="75.393" height="19.736" transform="translate(57.852 3.405)" fill="#fff3e0"/>
                <path id="Trazado_1090932" data-name="Trazado 1090932" d="M217.354,368.469h-52.69a5.161,5.161,0,0,1-5.161-5.161V347.086a5.161,5.161,0,0,1,5.161-5.161h52.69Z" transform="translate(-159.503 -341.924)" fill="#a38300"/>
                <path id="Trazado_1090933" data-name="Trazado 1090933" d="M218.517,366.429H167.892a4.326,4.326,0,0,1-4.325-4.325V351.018a4.326,4.326,0,0,1,4.325-4.325h50.625Z" transform="translate(-160.666 -343.288)" fill="#d1b890"/>
              </g>
            </g>
            <path id="Trazado_1090934" data-name="Trazado 1090934" d="M171.992,358.178V367.8l2.945-1.141,3.382,1.141v-9.622Z" transform="translate(-163.076 -346.574)" fill="#d13a3a"/>
            <line id="L칤nea_776" data-name="L칤nea 776" x2="20.077" transform="translate(5.417 11.604)" fill="none" stroke="#2a1510" stroke-linecap="round" stroke-linejoin="round" stroke-miterlimit="10" stroke-width="1"/>
          </g>
        </g>
        <g id="Grupo_1219658" data-name="Grupo 1219658" transform="translate(124.491 74.117)">
          <g id="Grupo_1219657" data-name="Grupo 1219657">
            <g id="Grupo_1219656" data-name="Grupo 1219656">
              <g id="Grupo_1219655" data-name="Grupo 1219655">
                <path id="Trazado_1090935" data-name="Trazado 1090935" d="M263.2,226.329H219.308s-4.293-3.342,4.772-6.68,12.881-6.679,13.835-13.355-6.68-7.159-2.388-15.744,1.433-17.651,1.433-20.99-1.909-2.387-2.863-6.2-.479-9.067.475-13.835,1.909-6.68,2.863-14.789,1.909-13.835,1.909-13.835-.954-.954,0-3.817a10.144,10.144,0,0,0,.545-2.884,12.8,12.8,0,0,0-.255-2.814c-.088-.472-.188-.954-.291-1.458a35.256,35.256,0,0,1-.475-5.547V104.2h4.771s0,.063,0,.175a34.612,34.612,0,0,1-.475,5.551c-.1.5-.2.986-.286,1.458a12.462,12.462,0,0,0-.255,2.814,10.083,10.083,0,0,0,.542,2.884c.954,2.863,0,3.817,0,3.817s.954,5.726,1.909,13.835,1.908,10.018,2.863,14.789,1.43,10.018.475,13.835-2.862,2.859-2.862,6.2-2.859,12.4,1.433,20.99-3.338,9.064-2.384,15.744,4.768,10.017,13.831,13.355S263.2,226.329,263.2,226.329Z" transform="translate(-172.331 -83.526)" fill="#6c301e"/>
                <path id="Trazado_1090936" data-name="Trazado 1090936" d="M252.03,91.932a3.5,3.5,0,0,1-.3,1.447,2.454,2.454,0,0,1-4.639,0,3.483,3.483,0,0,1-.3-1.447,2.66,2.66,0,1,1,5.247,0Z" transform="translate(-180.483 -79.129)" fill="#6c301e"/>
                <g id="Grupo_1219646" data-name="Grupo 1219646" transform="translate(23.725)">
                  <g id="Grupo_1219644" data-name="Grupo 1219644">
                    <path id="Trazado_1090937" data-name="Trazado 1090937" d="M230.592,94.9c-.361-.03-9.184-1.671-14.809-6.476-5.495-4.688-7.694-6.194-13.569-3.886-2.651,1.038-4.884,1.1-6.636.176a5.433,5.433,0,0,1-2.249-2.285,9.816,9.816,0,0,1-2.456.285,5.832,5.832,0,0,1-.709-.055,4.26,4.26,0,0,1-.989-.243,3.165,3.165,0,0,1-1.082-.672c-.974-.927-1.2-2.33-.666-4.179l.039-.143.074-.13a3.646,3.646,0,0,1,3.629-2.024,4.151,4.151,0,0,1,3.348,3.1l-2.292.66a1.839,1.839,0,0,0-1.354-1.393.988.988,0,0,0-.766.243,1.621,1.621,0,0,0-.541,1.042,1.313,1.313,0,0,0,.168,1.094,1.113,1.113,0,0,0,.559.248,3.687,3.687,0,0,0,.71.066,9.087,9.087,0,0,0,2.643-.465l1.251-.432.3,1.293a3.158,3.158,0,0,0,1.5,1.877c1.108.59,2.672.49,4.65-.283,7.166-2.817,10.411-.465,15.985,4.295,5.026,4.285,13.2,4.2,13.282,4.21Z" transform="translate(-187.143 -75.239)" fill="#6c301e"/>
                  </g>
                  <g id="Grupo_1219645" data-name="Grupo 1219645" transform="translate(45.66 17.445)">
                    <path id="Trazado_1090938" data-name="Trazado 1090938" d="M294.943,118.337l-.066.133c-.83,1.738-1.93,2.635-3.275,2.681a2.584,2.584,0,0,1-.326-.008,3.017,3.017,0,0,1-.718-.138c-.07-.023-.143-.047-.211-.073-.029-.011-.059-.022-.087-.036a2.567,2.567,0,0,1-.263-.115,2.957,2.957,0,0,1-.382-.216c-.059-.034-.112-.069-.169-.106a.653.653,0,0,1-.065-.047,5.18,5.18,0,0,1-.5-.382,9.8,9.8,0,0,1-1.645-1.849,5.435,5.435,0,0,1-3.2.215c-1.92-.476-3.549-2.005-4.843-4.542-2.854-5.63-5.5-5.967-12.718-6.118-5.568-.11-11.3-2.768-13.913-4.166-.861-.459-1.386-.782-1.456-.835l2.693-3.059c.018.014.421.377,1.121.917,2.055,1.578,6.675,4.663,11.6,4.765,7.33.148,11.313.55,14.8,7.417.963,1.892,2.066,3,3.288,3.3a3.153,3.153,0,0,0,2.368-.4l1.084-.765.645,1.154a9.141,9.141,0,0,0,1.665,2.1,3.524,3.524,0,0,0,.576.421,1.025,1.025,0,0,0,.179.09.9.9,0,0,0,.4.1.54.54,0,0,0,.064-.013c.243-.039.516-.286.785-.7a1.611,1.611,0,0,0,.289-1.135.99.99,0,0,0-.41-.691,1.839,1.839,0,0,0-1.937.138l-1.275-2.015a4.151,4.151,0,0,1,4.563-.092,3.647,3.647,0,0,1,1.364,3.926Z" transform="translate(-251.105 -99.676)" fill="#6c301e"/>
                  </g>
                  <path id="Trazado_1090939" data-name="Trazado 1090939" d="M253.026,99.749a4.027,4.027,0,0,1-2.161,2.268,3.65,3.65,0,0,1-.565.2,4.044,4.044,0,0,1-4.458-1.692,4.323,4.323,0,0,1-.29-.525,4.037,4.037,0,0,1-.106-3.134,4.179,4.179,0,0,1,.323-.662,4.056,4.056,0,0,1,7.456,2.836A4.192,4.192,0,0,1,253.026,99.749Z" transform="translate(-203.749 -80.679)" fill="#c08329"/>
                  <path id="Trazado_1090940" data-name="Trazado 1090940" d="M252.426,99.8a2.91,2.91,0,0,1-1.562,1.639,2.65,2.65,0,0,1-.408.144,2.922,2.922,0,0,1-3.222-1.222,3.222,3.222,0,0,1-.21-.38,2.918,2.918,0,0,1-.076-2.265,3,3,0,0,1,.233-.478,2.931,2.931,0,0,1,5.389,2.05A3.052,3.052,0,0,1,252.426,99.8Z" transform="translate(-204.2 -81.13)" fill="#ebc17d"/>
                </g>
                <g id="Grupo_1219650" data-name="Grupo 1219650" transform="translate(85.874 35.511)">
                  <g id="Grupo_1219647" data-name="Grupo 1219647" transform="translate(23.514 0.757)">
                    <path id="Trazado_1090941" data-name="Trazado 1090941" d="M333.1,196.117l-.671.241-.549-1.524-24.209-67.078-.168-.468-.262-.731-.1-.268.143-.053.532-.192.046.126.528,1.461,24.247,67.2Z" transform="translate(-307.14 -126.044)" fill="#6c301e"/>
                  </g>
                  <g id="Grupo_1219648" data-name="Grupo 1219648" transform="translate(12.524 0.34)">
                    <path id="Trazado_1090942" data-name="Trazado 1090942" d="M302.952,125.566l-.074.5-.045.321-.175,1.189-.245,1.668-9.532,65.421-.426,2.915-.71-.1.409-2.81,8.931-61.262.622-4.278.244-1.675.291-1.993.612.091Z" transform="translate(-291.746 -125.46)" fill="#6c301e"/>
                  </g>
                  <g id="Grupo_1219649" data-name="Grupo 1219649" transform="translate(1.092)">
                    <path id="Trazado_1090943" data-name="Trazado 1090943" d="M299.135,125.052l-.261.814-.361,1.119-.112.353-.039.118-.532,1.653-1.328,4.159-19.609,61.262-.485,1.513-.677-.221.412-1.293,20.984-65.54.517-1.615.077-.238.553-1.723.109-.343a.9.9,0,0,0,.413-.052.6.6,0,0,0,.056-.035A1.492,1.492,0,0,0,299.135,125.052Z" transform="translate(-275.731 -124.984)" fill="#6c301e"/>
                  </g>
                  <path id="Trazado_1090944" data-name="Trazado 1090944" d="M325.721,222.406v2.167a5.942,5.942,0,0,1-5.942,5.942H280.144a5.942,5.942,0,0,1-5.942-5.942v-2.167Z" transform="translate(-274.202 -152.859)" fill="#c08329"/>
                </g>
                <g id="Grupo_1219654" data-name="Grupo 1219654" transform="translate(0 3.96)">
                  <g id="Grupo_1219651" data-name="Grupo 1219651" transform="translate(2.06 0.884)">
                    <rect id="Rect치ngulo_420876" data-name="Rect치ngulo 420876" width="74.493" height="0.715" transform="translate(0 70.075) rotate(-70.172)" fill="#6c301e"/>
                  </g>
                  <g id="Grupo_1219652" data-name="Grupo 1219652" transform="translate(27.785 0.462)">
                    <rect id="Rect치ngulo_420877" data-name="Rect치ngulo 420877" width="0.715" height="72.776" transform="translate(0 0.103) rotate(-8.291)" fill="#6c301e"/>
                  </g>
                  <g id="Grupo_1219653" data-name="Grupo 1219653" transform="translate(27.026)">
                    <path id="Trazado_1090945" data-name="Trazado 1090945" d="M215.172,151.748l-.677.22L192.5,83.263l-.735-2.285a3.675,3.675,0,0,0,.687-.191l.73,2.275Z" transform="translate(-191.768 -80.787)" fill="#6c301e"/>
                  </g>
                  <path id="Trazado_1090946" data-name="Trazado 1090946" d="M201.489,186.489H157.85a3.941,3.941,0,0,1-3.941-3.941v-4.169h51.522v4.169A3.941,3.941,0,0,1,201.489,186.489Z" transform="translate(-153.909 -108.711)" fill="#c08329"/>
                  <path id="Trazado_1090947" data-name="Trazado 1090947" d="M323.163,222.406v1.452c0,2.2-2.219,3.981-4.958,3.981H285.138c-2.738,0-4.958-1.783-4.958-3.981v-1.452Z" transform="translate(-190.039 -121.308)" fill="#e89e32"/>
                  <path id="Trazado_1090948" data-name="Trazado 1090948" d="M199.137,183.467H163.348a3.941,3.941,0,0,1-3.941-3.941v-1.147h43.671v1.146A3.941,3.941,0,0,1,199.137,183.467Z" transform="translate(-155.482 -108.711)" fill="#e89e32"/>
                </g>
              </g>
            </g>
          </g>
          <path id="Trazado_1090949" data-name="Trazado 1090949" d="M254.171,175.214a11.951,11.951,0,0,0,2.69-7.251,35.58,35.58,0,0,0-.692-7.831q-1.86-11.383-3.721-22.766" transform="translate(-182.104 -93.016)" fill="none" stroke="#914128" stroke-linecap="round" stroke-linejoin="round" stroke-miterlimit="10" stroke-width="1"/>
          <path id="Trazado_1090950" data-name="Trazado 1090950" d="M253.221,207c.141,5.58-.926,7.594.667,11a17.714,17.714,0,0,1,1.763,4.148c.575,3.146-1.568,6.081-2.334,9.187a16.392,16.392,0,0,0,3.724,14.04c3.248,3.376,7.984,4.24,12.361,5.909" transform="translate(-182.25 -112.939)" fill="none" stroke="#914128" stroke-linecap="round" stroke-linejoin="round" stroke-miterlimit="10" stroke-width="1"/>
          <path id="Trazado_1090951" data-name="Trazado 1090951" d="M241.107,188.963a7.745,7.745,0,0,0,9.128,3.07" transform="translate(-178.859 -107.779)" fill="none" stroke="#2a1510" stroke-linecap="round" stroke-linejoin="round" stroke-miterlimit="10" stroke-width="1"/>
          <path id="Trazado_1090952" data-name="Trazado 1090952" d="M241.352,234.682a8.262,8.262,0,0,0,7.025,5.629" transform="translate(-178.929 -120.86)" fill="none" stroke="#2a1510" stroke-linecap="round" stroke-linejoin="round" stroke-miterlimit="10" stroke-width="1"/>
          <path id="Trazado_1090953" data-name="Trazado 1090953" d="M247.44,126.307a2.127,2.127,0,0,0,2.51,1.1" transform="translate(-180.671 -89.851)" fill="none" stroke="#2a1510" stroke-linecap="round" stroke-linejoin="round" stroke-miterlimit="10" stroke-width="1"/>
        </g>
      </g>
    </g>
  </g>
</svg>
