<svg xmlns="http://www.w3.org/2000/svg" xmlns:xlink="http://www.w3.org/1999/xlink" width="93.934" height="93.934" viewBox="0 0 93.934 93.934">
  <defs>
    <filter id="Trazado_982547" x="0" y="0" width="93.934" height="93.934" filterUnits="userSpaceOnUse">
      <feOffset dy="3" input="SourceAlpha"/>
      <feGaussianBlur stdDeviation="3" result="blur"/>
      <feFlood flood-opacity="0.161"/>
      <feComposite operator="in" in2="blur"/>
      <feComposite in="SourceGraphic"/>
    </filter>
  </defs>
  <g id="Grupo_1219663" data-name="Grupo 1219663" transform="translate(-191.066 -4413.594)">
    <g id="Grupo_1218015" data-name="Grupo 1218015" transform="translate(-0.229 691.594)">
      <g id="Grupo_1214594" data-name="Grupo 1214594" transform="translate(0 -1406)">
        <g id="Grupo_1214432" data-name="Grupo 1214432" transform="translate(-0.771 -2738.674)">
          <g id="Grupo_1183196" data-name="Grupo 1183196" transform="translate(1 1016.674)">
            <g id="Grupo_1179610" data-name="Grupo 1179610" transform="translate(8 4723.467)">
              <g id="Grupo_1175227" data-name="Grupo 1175227" transform="translate(-5.967 140.533)">
                <g id="Grupo_1167337" data-name="Grupo 1167337" transform="translate(198.033 1992)">
                  <g id="Grupo_1166720" data-name="Grupo 1166720">
                    <g id="Grupo_1164305" data-name="Grupo 1164305">
                      <g id="Grupo_1163948" data-name="Grupo 1163948">
                        <g id="Grupo_1158168" data-name="Grupo 1158168">
                          <g id="Grupo_1152576" data-name="Grupo 1152576">
                            <g id="Grupo_1148633" data-name="Grupo 1148633">
                              <g id="Grupo_1148525" data-name="Grupo 1148525">
                                <g transform="matrix(1, 0, 0, 1, -9, -6)" filter="url(#Trazado_982547)">
                                  <g id="Trazado_982547-2" data-name="Trazado 982547" transform="translate(9 6)" fill="#f7f4ed">
                                    <path d="M 37.966796875 74.43359375 C 33.04315185546875 74.43359375 28.26757431030273 73.46962738037109 23.77274131774902 71.56847381591797 C 19.43047523498535 69.73184967041016 15.53040790557861 67.10224914550781 12.18087482452393 63.75271987915039 C 8.831341743469238 60.4031867980957 6.201741218566895 56.50312042236328 4.365118980407715 52.16086196899414 C 2.463963508605957 47.66601943969727 1.499996900558472 42.89044189453125 1.499996900558472 37.966796875 C 1.499996900558472 33.04315185546875 2.463963508605957 28.26757431030273 4.365118980407715 23.77274131774902 C 6.201741218566895 19.43047523498535 8.831341743469238 15.53040790557861 12.18087482452393 12.18087482452393 C 15.53040790557861 8.831341743469238 19.43047523498535 6.201741218566895 23.77274131774902 4.365118980407715 C 28.26757431030273 2.463963508605957 33.04315185546875 1.499996900558472 37.966796875 1.499996900558472 C 42.89044189453125 1.499996900558472 47.66601943969727 2.463963508605957 52.16086196899414 4.365118980407715 C 56.50312042236328 6.201741218566895 60.4031867980957 8.831341743469238 63.75271987915039 12.18087482452393 C 67.10224914550781 15.53040790557861 69.73184967041016 19.43047523498535 71.56847381591797 23.77274131774902 C 73.46962738037109 28.26757431030273 74.43359375 33.04315185546875 74.43359375 37.966796875 C 74.43359375 42.89044189453125 73.46962738037109 47.66601943969727 71.56847381591797 52.16086196899414 C 69.73184967041016 56.50313186645508 67.10224914550781 60.4031867980957 63.75271987915039 63.75271987915039 C 60.4031867980957 67.10224914550781 56.50313186645508 69.73184967041016 52.16086196899414 71.56847381591797 C 47.66601943969727 73.46962738037109 42.89044189453125 74.43359375 37.966796875 74.43359375 Z" stroke="none"/>
                                    <path d="M 37.966796875 3 C 33.2449836730957 3 28.66600799560547 3.924095153808594 24.35705947875977 5.746635437011719 C 20.19359588623047 7.507637023925781 16.45379638671875 10.02928161621094 13.24153518676758 13.24153518676758 C 10.02927398681641 16.45379638671875 7.507621765136719 20.19359588623047 5.746635437011719 24.35705947875977 C 3.924095153808594 28.66600799560547 3 33.2449836730957 3 37.966796875 C 3 42.6886100769043 3.924095153808594 47.26758575439453 5.746635437011719 51.57653427124023 C 7.507621765136719 55.73999786376953 10.02927398681641 59.47979736328125 13.24153518676758 62.69205856323242 C 16.45379638671875 65.90431976318359 20.19359588623047 68.42597198486328 24.35705947875977 70.18695831298828 C 28.66600799560547 72.00949859619141 33.2449836730957 72.93359375 37.966796875 72.93359375 C 42.6886100769043 72.93359375 47.26758575439453 72.00949859619141 51.57653427124023 70.18695831298828 C 55.73999786376953 68.42597198486328 59.47979736328125 65.90431976318359 62.69205856323242 62.69205856323242 C 65.90431976318359 59.47979736328125 68.42597198486328 55.73999786376953 70.18695831298828 51.57653427124023 C 72.00949859619141 47.26758575439453 72.93359375 42.6886100769043 72.93359375 37.966796875 C 72.93359375 33.2449836730957 72.00949859619141 28.66600799560547 70.18695831298828 24.35705947875977 C 68.42597198486328 20.19359588623047 65.90431976318359 16.45379638671875 62.69205856323242 13.24153518676758 C 59.47979736328125 10.02928161621094 55.73999786376953 7.507637023925781 51.57653427124023 5.746635437011719 C 47.26758575439453 3.924095153808594 42.6886100769043 3 37.966796875 3 M 37.966796875 0 C 58.93528366088867 0 75.93359375 16.99832153320312 75.93359375 37.966796875 C 75.93359375 58.93528366088867 58.93528366088867 75.93359375 37.966796875 75.93359375 C 16.99831008911133 75.93359375 0 58.93528366088867 0 37.966796875 C 0 16.99832153320312 16.99831008911133 0 37.966796875 0 Z" stroke="none" fill="#847625"/>
                                  </g>
                                </g>
                              </g>
                            </g>
                          </g>
                        </g>
                      </g>
                    </g>
                  </g>
                </g>
              </g>
            </g>
          </g>
        </g>
      </g>
    </g>
    <g id="banco_3_" data-name="banco (3)" transform="translate(206.558 4430.308)">
      <g id="Grupo_1219661" data-name="Grupo 1219661" transform="translate(0.922 0.923)">
        <path id="Trazado_1090954" data-name="Trazado 1090954" d="M399.556,205.047h4.41V234.09h-4.41Z" transform="translate(-351.352 -180.758)" fill="#feb237"/>
        <path id="Trazado_1090955" data-name="Trazado 1090955" d="M428.453,205.047h2.459V234.09h-2.459Z" transform="translate(-376.696 -180.758)" fill="#eca026"/>
        <path id="Trazado_1090956" data-name="Trazado 1090956" d="M320.751,205.047h4.41V234.09h-4.41Z" transform="translate(-282.236 -180.758)" fill="#feb237"/>
        <path id="Trazado_1090957" data-name="Trazado 1090957" d="M349.649,205.047h2.459V234.09h-2.459Z" transform="translate(-307.581 -180.758)" fill="#eca026"/>
        <path id="Trazado_1090958" data-name="Trazado 1090958" d="M142.351,205.047h4.41V234.09h-4.41Z" transform="translate(-125.771 -180.758)" fill="#feb237"/>
        <path id="Trazado_1090959" data-name="Trazado 1090959" d="M171.249,205.047h2.459V234.09h-2.459Z" transform="translate(-151.116 -180.758)" fill="#eca026"/>
        <path id="Trazado_1090960" data-name="Trazado 1090960" d="M63.547,205.047h4.41V234.09h-4.41Z" transform="translate(-56.656 -180.758)" fill="#feb237"/>
        <path id="Trazado_1090961" data-name="Trazado 1090961" d="M92.444,205.047H94.9V234.09H92.444Z" transform="translate(-82 -180.758)" fill="#eca026"/>
        <path id="Trazado_1090962" data-name="Trazado 1090962" d="M199.074,255.461c0,5.015-2.836,8.958-7.851,8.958a9.218,9.218,0,0,1-1.66-.029,9.083,9.083,0,0,1,0-17.859,9.214,9.214,0,0,1,1.66-.029C196.238,246.5,199.074,250.446,199.074,255.461Z" transform="translate(-160.669 -217.096)" fill="#fff0ad"/>
        <path id="Trazado_1090963" data-name="Trazado 1090963" d="M244.16,245.678a9.125,9.125,0,0,0-1.66.154,9.08,9.08,0,0,1,0,17.854,9.08,9.08,0,1,0,1.66-18.008Z" transform="translate(-213.606 -216.393)" fill="#ffd15b"/>
        <path id="Trazado_1090964" data-name="Trazado 1090964" d="M89.157,164.661H40.873a1.229,1.229,0,0,1-1.23-1.23V159.62l50.744-2.459v6.271A1.229,1.229,0,0,1,89.157,164.661Z" transform="translate(-35.691 -138.76)" fill="#9b8e99"/>
        <path id="Trazado_1090965" data-name="Trazado 1090965" d="M433.587,157.161v6.271a1.229,1.229,0,0,1-1.23,1.23h3.689a1.23,1.23,0,0,0,1.23-1.23V159.62Z" transform="translate(-380.12 -138.76)" fill="#7b7179"/>
        <path id="Trazado_1090966" data-name="Trazado 1090966" d="M40.873,421.609H89.157a1.229,1.229,0,0,1,1.23,1.229v6.271L39.643,426.65v-3.812a1.229,1.229,0,0,1,1.23-1.229Z" transform="translate(-35.691 -370.693)" fill="#9b8e99"/>
        <path id="Trazado_1090967" data-name="Trazado 1090967" d="M14.614,31.212,41.208,13.94c.611-.4,2.952-.856,3.563-.459L71.757,31.212a1.23,1.23,0,0,1-.67,2.261h-55.8a1.23,1.23,0,0,1-.67-2.261Z" transform="translate(-13.247 -12.612)" fill="#fff0ad"/>
        <path id="Trazado_1090968" data-name="Trazado 1090968" d="M436.045,421.609h-3.689a1.229,1.229,0,0,1,1.23,1.229v6.271l3.689-2.459v-3.812A1.229,1.229,0,0,0,436.045,421.609Z" transform="translate(-380.119 -370.693)" fill="#7b7179"/>
        <path id="Trazado_1090969" data-name="Trazado 1090969" d="M266.7,26.1,238.516,7.8a1.844,1.844,0,0,0-2.009,0L234.92,8.826,261.534,26.1a1.23,1.23,0,0,1-.67,2.261h5.164a1.23,1.23,0,0,0,.67-2.261Z" transform="translate(-206.958 -7.498)" fill="#ffd15b"/>
        <circle id="Elipse_12111" data-name="Elipse 12111" cx="3.993" cy="3.993" r="3.993" transform="translate(26.561 7.887)" fill="#ffd15b"/>
        <path id="Trazado_1090970" data-name="Trazado 1090970" d="M8.73,462.609H64.918a1.229,1.229,0,0,1,1.23,1.229v3.306a.615.615,0,0,1-.615.615H8.115a.615.615,0,0,1-.615-.615v-3.306A1.229,1.229,0,0,1,8.73,462.609Z" transform="translate(-7.5 -406.652)" fill="#baafb9"/>
        <path id="Trazado_1090971" data-name="Trazado 1090971" d="M468.189,462.609H464.5a1.229,1.229,0,0,1,1.229,1.229v3.306a.615.615,0,0,1-.615.615H468.8a.615.615,0,0,0,.615-.615v-3.306A1.229,1.229,0,0,0,468.189,462.609Z" transform="translate(-408.311 -406.652)" fill="#9b8e99"/>
      </g>
      <g id="Grupo_1219662" data-name="Grupo 1219662" transform="translate(0 0.002)">
        <path id="Trazado_1090972" data-name="Trazado 1090972" d="M229.316,276.688a4.093,4.093,0,0,0,1.936.747v.415a.922.922,0,1,0,1.844,0v-.506a3.435,3.435,0,0,0,2.421-2.712,3.028,3.028,0,0,0-2.058-3.427,8.907,8.907,0,0,1-2.262-1.051.757.757,0,0,1-.173-.719,1.034,1.034,0,0,1,.681-.816,1.833,1.833,0,0,1,1.678.263l.085.079a.922.922,0,1,0,1.259-1.347l-.1-.094a3.4,3.4,0,0,0-1.531-.751V266.4a.922.922,0,0,0-1.844,0v.432c-.026.007-.052.012-.078.02a2.859,2.859,0,0,0-1.962,2.24,2.551,2.551,0,0,0,.847,2.512,9.7,9.7,0,0,0,2.786,1.339,1.179,1.179,0,0,1,.854,1.382,1.542,1.542,0,0,1-1.53,1.3,2.57,2.57,0,0,1-1.843-.483.922.922,0,0,0-1.01,1.543Z" transform="translate(-200.755 -232.839)"/>
        <path id="Trazado_1090973" data-name="Trazado 1090973" d="M225.856,69.063a4.915,4.915,0,1,0-4.915,4.915A4.92,4.92,0,0,0,225.856,69.063Zm-7.985,0a3.07,3.07,0,1,1,3.07,3.07A3.074,3.074,0,0,1,217.871,69.063Z" transform="translate(-189.466 -56.261)"/>
        <path id="Trazado_1090974" data-name="Trazado 1090974" d="M60.8,55.958H59V53.069a2.154,2.154,0,0,0-2.152-2.152H56.06V35.574a.922.922,0,1,0-1.844,0V50.917H50.048V27.747h4.168v3.808a.922.922,0,0,0,1.844,0V27.747h.787A2.154,2.154,0,0,0,59,25.6V22.706h.993a2.152,2.152,0,0,0,1.172-3.956L32.982.448a2.769,2.769,0,0,0-3.014,0L19.684,7.127a.922.922,0,1,0,1,1.547L30.973,1.994a.923.923,0,0,1,1,0L60.159,20.3a.307.307,0,0,1-.167.565H2.96a.307.307,0,0,1-.167-.565l14.381-9.34a.922.922,0,0,0-1-1.547L1.788,18.75A2.152,2.152,0,0,0,2.96,22.706h.993V25.6A2.154,2.154,0,0,0,6.1,27.747h.787v23.17H6.1a2.154,2.154,0,0,0-2.152,2.152v2.889h-1.8A2.154,2.154,0,0,0,0,58.11v3.306a1.539,1.539,0,0,0,1.537,1.537H61.414a1.539,1.539,0,0,0,1.537-1.537V58.11A2.154,2.154,0,0,0,60.8,55.958ZM48.2,50.917H46.371V27.747H48.2Zm-29.779,0V27.747h4.168v6.888c0,.02,0,.039,0,.058a9.967,9.967,0,0,0,0,9.19c0,.015,0,.03,0,.046v6.987H18.424ZM16.58,27.747v23.17H14.747V27.747ZM38.515,32.19a9.984,9.984,0,0,0-14.078,0V27.747H38.515Zm-15.2,7.1a8.159,8.159,0,1,1,8.159,8.159A8.168,8.168,0,0,1,23.317,39.289Zm17.036,4.6a9.968,9.968,0,0,0,0-9.2c0-.019,0-.038,0-.058V27.747h4.168v23.17H40.359V43.994a.889.889,0,0,0-.006-.1ZM5.8,25.6V22.706H57.155V25.6a.308.308,0,0,1-.307.307H6.1A.308.308,0,0,1,5.8,25.6Zm2.939,2.152H12.9v23.17H8.735ZM5.8,53.069a.308.308,0,0,1,.307-.307H25.6a.922.922,0,1,0,0-1.844h-1.16V46.388a9.984,9.984,0,0,0,14.078,0v4.529h-8.9a.922.922,0,1,0,0,1.844H56.848a.308.308,0,0,1,.307.307v2.889H5.8Zm55.311,8.04H1.844v-3a.308.308,0,0,1,.307-.307H60.8a.308.308,0,0,1,.307.307Z" transform="translate(0 -0.002)"/>
      </g>
    </g>
  </g>
</svg>
