<svg xmlns="http://www.w3.org/2000/svg" xmlns:xlink="http://www.w3.org/1999/xlink" width="93.934" height="93.934" viewBox="0 0 93.934 93.934">
  <defs>
    <filter id="Trazado_982547" x="0" y="0" width="93.934" height="93.934" filterUnits="userSpaceOnUse">
      <feOffset dy="3" input="SourceAlpha"/>
      <feGaussianBlur stdDeviation="3" result="blur"/>
      <feFlood flood-opacity="0.161"/>
      <feComposite operator="in" in2="blur"/>
      <feComposite in="SourceGraphic"/>
    </filter>
  </defs>
  <g id="Grupo_1219664" data-name="Grupo 1219664" transform="translate(-611.066 -4413.594)">
    <g id="Grupo_1218016" data-name="Grupo 1218016" transform="translate(0 -2823.441)">
      <g id="Grupo_1216284" data-name="Grupo 1216284" transform="translate(0 6194.186)">
        <g id="Grupo_1215982" data-name="Grupo 1215982" transform="translate(-0.229 -2679.151)">
          <g id="Grupo_1214640" data-name="Grupo 1214640" transform="translate(0 -1406)">
            <g id="Grupo_1214433" data-name="Grupo 1214433" transform="translate(-0.771 -2738.674)">
              <g id="Grupo_1183190" data-name="Grupo 1183190" transform="translate(1 1016.674)">
                <g id="Grupo_1179611" data-name="Grupo 1179611" transform="translate(428 4723.467)">
                  <g id="Grupo_1175227" data-name="Grupo 1175227" transform="translate(-5.967 140.533)">
                    <g id="Grupo_1167337" data-name="Grupo 1167337" transform="translate(198.033 1992)">
                      <g id="Grupo_1166720" data-name="Grupo 1166720">
                        <g id="Grupo_1164305" data-name="Grupo 1164305">
                          <g id="Grupo_1163948" data-name="Grupo 1163948">
                            <g id="Grupo_1158168" data-name="Grupo 1158168">
                              <g id="Grupo_1152576" data-name="Grupo 1152576">
                                <g id="Grupo_1148633" data-name="Grupo 1148633">
                                  <g id="Grupo_1148525" data-name="Grupo 1148525">
                                    <g transform="matrix(1, 0, 0, 1, -9, -6)" filter="url(#Trazado_982547)">
                                      <g id="Trazado_982547-2" data-name="Trazado 982547" transform="translate(9 6)" fill="#f7f4ed">
                                        <path d="M 37.966796875 74.43359375 C 33.04315185546875 74.43359375 28.26757431030273 73.46962738037109 23.77274131774902 71.56847381591797 C 19.43047523498535 69.73184967041016 15.53040790557861 67.10224914550781 12.18087482452393 63.75271987915039 C 8.831341743469238 60.4031867980957 6.201741218566895 56.50312042236328 4.365118980407715 52.16086196899414 C 2.463963508605957 47.66601943969727 1.499996900558472 42.89044189453125 1.499996900558472 37.966796875 C 1.499996900558472 33.04315185546875 2.463963508605957 28.26757431030273 4.365118980407715 23.77274131774902 C 6.201741218566895 19.43047523498535 8.831341743469238 15.53040790557861 12.18087482452393 12.18087482452393 C 15.53040790557861 8.831341743469238 19.43047523498535 6.201741218566895 23.77274131774902 4.365118980407715 C 28.26757431030273 2.463963508605957 33.04315185546875 1.499996900558472 37.966796875 1.499996900558472 C 42.89044189453125 1.499996900558472 47.66601943969727 2.463963508605957 52.16086196899414 4.365118980407715 C 56.50312042236328 6.201741218566895 60.4031867980957 8.831341743469238 63.75271987915039 12.18087482452393 C 67.10224914550781 15.53040790557861 69.73184967041016 19.43047523498535 71.56847381591797 23.77274131774902 C 73.46962738037109 28.26757431030273 74.43359375 33.04315185546875 74.43359375 37.966796875 C 74.43359375 42.89044189453125 73.46962738037109 47.66601943969727 71.56847381591797 52.16086196899414 C 69.73184967041016 56.50313186645508 67.10224914550781 60.4031867980957 63.75271987915039 63.75271987915039 C 60.4031867980957 67.10224914550781 56.50313186645508 69.73184967041016 52.16086196899414 71.56847381591797 C 47.66601943969727 73.46962738037109 42.89044189453125 74.43359375 37.966796875 74.43359375 Z" stroke="none"/>
                                        <path d="M 37.966796875 3 C 33.2449836730957 3 28.66600799560547 3.924095153808594 24.35705947875977 5.746635437011719 C 20.19359588623047 7.507637023925781 16.45379638671875 10.02928161621094 13.24153518676758 13.24153518676758 C 10.02927398681641 16.45379638671875 7.507621765136719 20.19359588623047 5.746635437011719 24.35705947875977 C 3.924095153808594 28.66600799560547 3 33.2449836730957 3 37.966796875 C 3 42.6886100769043 3.924095153808594 47.26758575439453 5.746635437011719 51.57653427124023 C 7.507621765136719 55.73999786376953 10.02927398681641 59.47979736328125 13.24153518676758 62.69205856323242 C 16.45379638671875 65.90431976318359 20.19359588623047 68.42597198486328 24.35705947875977 70.18695831298828 C 28.66600799560547 72.00949859619141 33.2449836730957 72.93359375 37.966796875 72.93359375 C 42.6886100769043 72.93359375 47.26758575439453 72.00949859619141 51.57653427124023 70.18695831298828 C 55.73999786376953 68.42597198486328 59.47979736328125 65.90431976318359 62.69205856323242 62.69205856323242 C 65.90431976318359 59.47979736328125 68.42597198486328 55.73999786376953 70.18695831298828 51.57653427124023 C 72.00949859619141 47.26758575439453 72.93359375 42.6886100769043 72.93359375 37.966796875 C 72.93359375 33.2449836730957 72.00949859619141 28.66600799560547 70.18695831298828 24.35705947875977 C 68.42597198486328 20.19359588623047 65.90431976318359 16.45379638671875 62.69205856323242 13.24153518676758 C 59.47979736328125 10.02928161621094 55.73999786376953 7.507637023925781 51.57653427124023 5.746635437011719 C 47.26758575439453 3.924095153808594 42.6886100769043 3 37.966796875 3 M 37.966796875 0 C 58.93528366088867 0 75.93359375 16.99832153320312 75.93359375 37.966796875 C 75.93359375 58.93528366088867 58.93528366088867 75.93359375 37.966796875 75.93359375 C 16.99831008911133 75.93359375 0 58.93528366088867 0 37.966796875 C 0 16.99832153320312 16.99831008911133 0 37.966796875 0 Z" stroke="none" fill="#847625"/>
                                      </g>
                                    </g>
                                  </g>
                                </g>
                              </g>
                            </g>
                          </g>
                        </g>
                      </g>
                    </g>
                  </g>
                </g>
              </g>
            </g>
          </g>
        </g>
      </g>
    </g>
    <g id="XMLID_340_" transform="translate(632.02 4431.548)">
      <g id="XMLID_169_" transform="translate(7.926 14.738)">
        <g id="XMLID_111_" transform="translate(17.195 8.194)">
          <g id="XMLID_114_" transform="translate(0)">
            <path id="XMLID_238_" d="M249.525,235.308h7.166l2.874-9.629,4.634,3.746a5.39,5.39,0,0,1,1.056,7.24l-2.528,3.686a5.39,5.39,0,0,1-4.445,2.342h-7.369A3.692,3.692,0,0,1,247.222,239v-1.389a2.3,2.3,0,0,1,2.3-2.3Z" transform="translate(-247.222 -225.679)" fill="#f2bb88"/>
          </g>
          <g id="XMLID_113_" transform="translate(0 12.408)">
            <path id="XMLID_115_" d="M255.5,352.216a4.424,4.424,0,0,0-4.424-4.424h-3.8l-.056.029v.884a3.692,3.692,0,0,0,3.692,3.692h4.479Z" transform="translate(-247.222 -347.792)" fill="#9593e6"/>
          </g>
        </g>
        <g id="XMLID_81_">
          <g id="XMLID_107_" transform="translate(7.385)">
            <g id="XMLID_110_">
              <path id="XMLID_213_" d="M150.675,161.951V148.733a3.692,3.692,0,0,1,7.385,0v13.217a3.692,3.692,0,0,1-7.385,0Z" transform="translate(-150.675 -145.041)" fill="#f2bb88"/>
            </g>
            <g id="XMLID_109_" transform="translate(7.385)">
              <path id="XMLID_211_" d="M223.351,161.951V148.733a3.692,3.692,0,0,1,7.385,0v13.217a3.692,3.692,0,1,1-7.385,0Z" transform="translate(-223.351 -145.041)" fill="#f2bb88"/>
            </g>
            <g id="XMLID_108_" transform="translate(14.769)">
              <path id="XMLID_182_" d="M296.026,161.951V148.733a3.692,3.692,0,1,1,7.385,0v13.217a3.692,3.692,0,1,1-7.385,0Z" transform="translate(-296.026 -145.041)" fill="#f2bb88"/>
            </g>
          </g>
          <g id="XMLID_105_" transform="translate(0 3.219)">
            <g id="XMLID_106_">
              <path id="XMLID_177_" d="M78,190.413v-10a3.692,3.692,0,0,1,7.385,0v10a3.692,3.692,0,1,1-7.385,0Z" transform="translate(-78 -176.723)" fill="#f2bb88"/>
            </g>
          </g>
        </g>
      </g>
      <g id="XMLID_209_">
        <path id="XMLID_220_" d="M106.139,151.264a6.389,6.389,0,0,0-2.311-4.057l-4.256-3.441V139.75a4.706,4.706,0,0,0-8.4-2.916,4.7,4.7,0,0,0-7.385,0,4.7,4.7,0,0,0-8.359,2.3A4.7,4.7,0,0,0,68,142.969v.426a1.016,1.016,0,1,0,2.032,0v-.426a2.676,2.676,0,0,1,5.353,0v10a2.676,2.676,0,0,1-5.353,0v-.427a1.016,1.016,0,1,0-2.032,0v.427a4.706,4.706,0,0,0,8.4,2.916,4.7,4.7,0,0,0,7.385,0,4.742,4.742,0,0,0,1.409,1.2v.489a4.714,4.714,0,0,0,4.709,4.709h7.369a6.4,6.4,0,0,0,5.283-2.783l2.528-3.686a6.389,6.389,0,0,0,1.056-4.548Zm-11.276-14.19a2.679,2.679,0,0,1,2.676,2.676v13.217a2.676,2.676,0,0,1-5.352,0V139.75A2.679,2.679,0,0,1,94.863,137.073Zm-14.769,18.57a2.679,2.679,0,0,1-2.676-2.676V139.75a2.676,2.676,0,1,1,5.352,0v13.217A2.679,2.679,0,0,1,80.093,155.643ZM84.8,139.75a2.676,2.676,0,0,1,5.353,0v13.217a2.676,2.676,0,0,1-5.353,0Zm2.428,17.926h2.833a3.414,3.414,0,0,1,3.3,2.573H89.9A2.679,2.679,0,0,1,87.23,157.675Zm16.177-3.013-2.528,3.686a4.372,4.372,0,0,1-3.607,1.9H95.439a5.419,5.419,0,0,0-1.171-2.612,4.7,4.7,0,0,0,5.3-4.67v-6.588l2.979,2.408A4.4,4.4,0,0,1,103.407,154.662Z" transform="translate(-61.09 -121.319)"/>
        <path id="XMLID_225_" d="M247.016,7.926a1.016,1.016,0,0,0,1.016-1.016V1.016a1.016,1.016,0,0,0-2.032,0V6.91A1.016,1.016,0,0,0,247.016,7.926Z" transform="translate(-221.003)"/>
        <path id="XMLID_226_" d="M247.016,443.949A1.016,1.016,0,0,0,246,444.965v4.883a1.016,1.016,0,0,0,2.032,0v-4.883A1.016,1.016,0,0,0,247.016,443.949Z" transform="translate(-221.003 -398.838)"/>
        <path id="XMLID_229_" d="M3.353,246H1.016a1.016,1.016,0,0,0,0,2.032H3.353a1.016,1.016,0,0,0,0-2.032Z" transform="translate(0 -221.003)"/>
        <path id="XMLID_230_" d="M41.019,42.457a1.016,1.016,0,0,0,1.437-1.437l-5.528-5.528a1.016,1.016,0,0,0-1.437,1.437Z" transform="translate(-31.617 -31.618)"/>
        <path id="XMLID_231_" d="M417.4,415.963a1.016,1.016,0,0,0-1.437,1.437l2.874,2.874a1.016,1.016,0,1,0,1.437-1.437Z" transform="translate(-373.428 -373.428)"/>
        <path id="XMLID_232_" d="M396.829,43.423a1.013,1.013,0,0,0,.719-.3l6.2-6.2a1.016,1.016,0,0,0-1.437-1.437l-6.2,6.2a1.016,1.016,0,0,0,.719,1.735Z" transform="translate(-355.594 -31.617)"/>
        <path id="XMLID_233_" d="M49.124,391.962,43.3,397.788a1.016,1.016,0,1,0,1.437,1.437l5.826-5.826a1.016,1.016,0,1,0-1.437-1.437Z" transform="translate(-38.631 -351.866)"/>
        <path id="XMLID_234_" d="M467.861,246h-2.845a1.016,1.016,0,0,0,0,2.032h2.845a1.016,1.016,0,0,0,0-2.032Z" transform="translate(-416.852 -221.003)"/>
        <path id="XMLID_237_" d="M69.016,254.292a1.016,1.016,0,1,0-.718-.3A1.023,1.023,0,0,0,69.016,254.292Z" transform="translate(-61.09 -226.627)"/>
      </g>
    </g>
  </g>
</svg>
