<svg xmlns="http://www.w3.org/2000/svg" xmlns:xlink="http://www.w3.org/1999/xlink" width="93.934" height="93.934" viewBox="0 0 93.934 93.934">
  <defs>
    <filter id="Trazado_982547" x="0" y="0" width="93.934" height="93.934" filterUnits="userSpaceOnUse">
      <feOffset dy="3" input="SourceAlpha"/>
      <feGaussianBlur stdDeviation="3" result="blur"/>
      <feFlood flood-opacity="0.161"/>
      <feComposite operator="in" in2="blur"/>
      <feComposite in="SourceGraphic"/>
    </filter>
  </defs>
  <g id="Grupo_1219665" data-name="Grupo 1219665" transform="translate(-1031.066 -4413.594)">
    <g id="Grupo_1218017" data-name="Grupo 1218017" transform="translate(0 -2823.441)">
      <g id="Grupo_1216282" data-name="Grupo 1216282" transform="translate(0 6194.186)">
        <g id="Grupo_1215983" data-name="Grupo 1215983" transform="translate(-0.229 -2679.151)">
          <g id="Grupo_1214661" data-name="Grupo 1214661" transform="translate(0 -1406)">
            <g id="Grupo_1214434" data-name="Grupo 1214434" transform="translate(-0.771 -2738.522)">
              <g id="Grupo_1183184" data-name="Grupo 1183184" transform="translate(1 1016.523)">
                <g id="Grupo_1179612" data-name="Grupo 1179612" transform="translate(848 4723.467)">
                  <g id="Grupo_1175227" data-name="Grupo 1175227" transform="translate(-5.967 140.533)">
                    <g id="Grupo_1167337" data-name="Grupo 1167337" transform="translate(198.033 1992)">
                      <g id="Grupo_1166720" data-name="Grupo 1166720">
                        <g id="Grupo_1164305" data-name="Grupo 1164305">
                          <g id="Grupo_1163948" data-name="Grupo 1163948">
                            <g id="Grupo_1158168" data-name="Grupo 1158168">
                              <g id="Grupo_1152576" data-name="Grupo 1152576">
                                <g id="Grupo_1148633" data-name="Grupo 1148633">
                                  <g id="Grupo_1148525" data-name="Grupo 1148525">
                                    <g transform="matrix(1, 0, 0, 1, -9, -6)" filter="url(#Trazado_982547)">
                                      <g id="Trazado_982547-2" data-name="Trazado 982547" transform="translate(9 6)" fill="#f7f4ed">
                                        <path d="M 37.966796875 74.43359375 C 33.04315185546875 74.43359375 28.26757431030273 73.46962738037109 23.77274131774902 71.56847381591797 C 19.43047523498535 69.73184967041016 15.53040790557861 67.10224914550781 12.18087482452393 63.75271987915039 C 8.831341743469238 60.4031867980957 6.201741218566895 56.50312042236328 4.365118980407715 52.16086196899414 C 2.463963508605957 47.66601943969727 1.499996900558472 42.89044189453125 1.499996900558472 37.966796875 C 1.499996900558472 33.04315185546875 2.463963508605957 28.26757431030273 4.365118980407715 23.77274131774902 C 6.201741218566895 19.43047523498535 8.831341743469238 15.53040790557861 12.18087482452393 12.18087482452393 C 15.53040790557861 8.831341743469238 19.43047523498535 6.201741218566895 23.77274131774902 4.365118980407715 C 28.26757431030273 2.463963508605957 33.04315185546875 1.499996900558472 37.966796875 1.499996900558472 C 42.89044189453125 1.499996900558472 47.66601943969727 2.463963508605957 52.16086196899414 4.365118980407715 C 56.50312042236328 6.201741218566895 60.4031867980957 8.831341743469238 63.75271987915039 12.18087482452393 C 67.10224914550781 15.53040790557861 69.73184967041016 19.43047523498535 71.56847381591797 23.77274131774902 C 73.46962738037109 28.26757431030273 74.43359375 33.04315185546875 74.43359375 37.966796875 C 74.43359375 42.89044189453125 73.46962738037109 47.66601943969727 71.56847381591797 52.16086196899414 C 69.73184967041016 56.50313186645508 67.10224914550781 60.4031867980957 63.75271987915039 63.75271987915039 C 60.4031867980957 67.10224914550781 56.50313186645508 69.73184967041016 52.16086196899414 71.56847381591797 C 47.66601943969727 73.46962738037109 42.89044189453125 74.43359375 37.966796875 74.43359375 Z" stroke="none"/>
                                        <path d="M 37.966796875 3 C 33.2449836730957 3 28.66600799560547 3.924095153808594 24.35705947875977 5.746635437011719 C 20.19359588623047 7.507637023925781 16.45379638671875 10.02928161621094 13.24153518676758 13.24153518676758 C 10.02927398681641 16.45379638671875 7.507621765136719 20.19359588623047 5.746635437011719 24.35705947875977 C 3.924095153808594 28.66600799560547 3 33.2449836730957 3 37.966796875 C 3 42.6886100769043 3.924095153808594 47.26758575439453 5.746635437011719 51.57653427124023 C 7.507621765136719 55.73999786376953 10.02927398681641 59.47979736328125 13.24153518676758 62.69205856323242 C 16.45379638671875 65.90431976318359 20.19359588623047 68.42597198486328 24.35705947875977 70.18695831298828 C 28.66600799560547 72.00949859619141 33.2449836730957 72.93359375 37.966796875 72.93359375 C 42.6886100769043 72.93359375 47.26758575439453 72.00949859619141 51.57653427124023 70.18695831298828 C 55.73999786376953 68.42597198486328 59.47979736328125 65.90431976318359 62.69205856323242 62.69205856323242 C 65.90431976318359 59.47979736328125 68.42597198486328 55.73999786376953 70.18695831298828 51.57653427124023 C 72.00949859619141 47.26758575439453 72.93359375 42.6886100769043 72.93359375 37.966796875 C 72.93359375 33.2449836730957 72.00949859619141 28.66600799560547 70.18695831298828 24.35705947875977 C 68.42597198486328 20.19359588623047 65.90431976318359 16.45379638671875 62.69205856323242 13.24153518676758 C 59.47979736328125 10.02928161621094 55.73999786376953 7.507637023925781 51.57653427124023 5.746635437011719 C 47.26758575439453 3.924095153808594 42.6886100769043 3 37.966796875 3 M 37.966796875 0 C 58.93528366088867 0 75.93359375 16.99832153320312 75.93359375 37.966796875 C 75.93359375 58.93528366088867 58.93528366088867 75.93359375 37.966796875 75.93359375 C 16.99831008911133 75.93359375 0 58.93528366088867 0 37.966796875 C 0 16.99832153320312 16.99831008911133 0 37.966796875 0 Z" stroke="none" fill="#847625"/>
                                      </g>
                                    </g>
                                  </g>
                                </g>
                              </g>
                            </g>
                          </g>
                        </g>
                      </g>
                    </g>
                  </g>
                </g>
              </g>
            </g>
          </g>
        </g>
      </g>
    </g>
    <g id="_09-group_chat" data-name="09-group chat" transform="translate(1046.032 4432.908)">
      <path id="Trazado_1090975" data-name="Trazado 1090975" d="M55,16c0-5.523-6.268-10-14-10S27,10.477,27,16c0,5.233,5.63,9.52,12.8,9.957L46,30l-.411-4.561C51.064,24.081,55,20.373,55,16Z" fill="#bfbfbf"/>
      <path id="Trazado_1090976" data-name="Trazado 1090976" d="M40.8,23.957C33.63,23.52,28,19.233,28,14a7.327,7.327,0,0,1,.4-2.338A7.7,7.7,0,0,0,27,16c0,5.233,5.63,9.52,12.8,9.957L46,30l-.254-2.817Z" fill="#8f8f8f"/>
      <path id="Trazado_1090977" data-name="Trazado 1090977" d="M41,12C41,5.925,33.837,1,25,1S9,5.925,9,12c0,5.2,5.263,9.554,12.326,10.7L20,28l6.307-5.045C34.53,22.5,41,17.772,41,12Z" fill="#4eacf2"/>
      <path id="Trazado_1090978" data-name="Trazado 1090978" d="M23.125,25.5l.81-3.242a1.535,1.535,0,0,0-1.141-1.865C16.516,18.908,12,14.821,12,10a9.092,9.092,0,0,1,3.452-6.812C11.543,5.194,9,8.389,9,12c0,5.2,5.263,9.554,12.326,10.7L20,28Z" fill="#1366a5"/>
      <path id="Trazado_1090979" data-name="Trazado 1090979" d="M61,60h0a36.218,36.218,0,0,1-26,0h0l1.2-6.017a8.923,8.923,0,0,1,4.324-6h0A15.059,15.059,0,0,1,48,46h0a15.059,15.059,0,0,1,7.473,1.985h0a8.923,8.923,0,0,1,4.324,6Z" fill="#e86a38"/>
      <path id="Trazado_1090980" data-name="Trazado 1090980" d="M40.2,55.241A10.38,10.38,0,0,1,44.527,48.3a13.734,13.734,0,0,1,5.537-2.152,15,15,0,0,0-9.537,1.84,8.923,8.923,0,0,0-4.324,6L35,60a36.349,36.349,0,0,0,4.155,1.308Z" fill="#8c3717"/>
      <path id="Trazado_1090981" data-name="Trazado 1090981" d="M29,60h0A36.218,36.218,0,0,1,3,60H3l1.2-6.017a8.923,8.923,0,0,1,4.324-6h0A15.059,15.059,0,0,1,16,46h0a15.059,15.059,0,0,1,7.473,1.985h0a8.923,8.923,0,0,1,4.324,6Z" fill="#e86a38"/>
      <path id="Trazado_1090982" data-name="Trazado 1090982" d="M8.2,55.241A10.38,10.38,0,0,1,12.527,48.3a13.734,13.734,0,0,1,5.537-2.152,15,15,0,0,0-9.537,1.84,8.923,8.923,0,0,0-4.324,6L3,60a36.35,36.35,0,0,0,4.155,1.308Z" fill="#8c3717"/>
      <path id="Trazado_1090983" data-name="Trazado 1090983" d="M45,60h0a36.218,36.218,0,0,1-26,0h0l1.2-6.017a8.923,8.923,0,0,1,4.324-6h0A15.059,15.059,0,0,1,32,46h0a15.059,15.059,0,0,1,7.473,1.985h0a8.923,8.923,0,0,1,4.324,6Z" fill="#f9b938"/>
      <circle id="Elipse_12112" data-name="Elipse 12112" cx="6" cy="6" r="6" transform="translate(26 34)" fill="#ffcab3"/>
      <path id="Trazado_1090984" data-name="Trazado 1090984" d="M24.2,55.241A10.38,10.38,0,0,1,28.527,48.3a13.734,13.734,0,0,1,5.537-2.152,15,15,0,0,0-9.537,1.84,8.923,8.923,0,0,0-4.324,6L19,60a36.349,36.349,0,0,0,4.155,1.308Z" fill="#f99c16"/>
      <path id="Trazado_1090985" data-name="Trazado 1090985" d="M29,40a6,6,0,0,1,4.5-5.8,6,6,0,1,0,0,11.606A6,6,0,0,1,29,40Z" fill="#f9aa8f"/>
      <circle id="Elipse_12113" data-name="Elipse 12113" cx="6" cy="6" r="6" transform="translate(10 34)" fill="#ffcab3"/>
      <path id="Trazado_1090986" data-name="Trazado 1090986" d="M13,40a6,6,0,0,1,4.5-5.8,6,6,0,1,0,0,11.606A6,6,0,0,1,13,40Z" fill="#f9aa8f"/>
      <circle id="Elipse_12114" data-name="Elipse 12114" cx="6" cy="6" r="6" transform="translate(42 34)" fill="#ffcab3"/>
      <path id="Trazado_1090987" data-name="Trazado 1090987" d="M45,40a6,6,0,0,1,4.5-5.8,6,6,0,1,0,0,11.606A6,6,0,0,1,45,40Z" fill="#f9aa8f"/>
      <path id="Trazado_1090988" data-name="Trazado 1090988" d="M61.98,59.8l-1.2-6.017a9.923,9.923,0,0,0-4.808-6.671A15.611,15.611,0,0,0,52.2,45.584a7,7,0,1,0-8.406,0,15.645,15.645,0,0,0-3.768,1.533l-.03.018c-.01,0-.019-.013-.03-.019A15.611,15.611,0,0,0,36.2,45.584a7,7,0,1,0-8.406,0,15.611,15.611,0,0,0-3.766,1.532c-.011.006-.02.014-.03.02l-.032-.02A15.611,15.611,0,0,0,20.2,45.584a7,7,0,1,0-8.406,0,15.611,15.611,0,0,0-3.766,1.532A9.923,9.923,0,0,0,3.22,53.787L2.02,59.8a1,1,0,0,0,.621,1.13,36.948,36.948,0,0,0,13.324,2.481q1.043,0,2.09-.058A37.276,37.276,0,0,0,24,62.539a36.815,36.815,0,0,0,16,0,36.994,36.994,0,0,0,21.358-1.6A1,1,0,0,0,61.98,59.8ZM43,40a5,5,0,1,1,5,5,5,5,0,0,1-5-5ZM27,40a5,5,0,1,1,5,5,5,5,0,0,1-5-5ZM11,40a5,5,0,1,1,5,5,5,5,0,0,1-5-5Zm6.945,21.36a35.011,35.011,0,0,1-13.8-2l1.039-5.18a7.921,7.921,0,0,1,3.839-5.327,14.322,14.322,0,0,1,13.2-.4,9.91,9.91,0,0,0-3,5.334L18.02,59.8a1,1,0,0,0,.621,1.129c.282.109.567.2.851.3Q18.72,61.316,17.945,61.36Zm2.2-2,1.036-5.179a7.921,7.921,0,0,1,3.839-5.327,14.3,14.3,0,0,1,13.954,0,7.921,7.921,0,0,1,3.839,5.327l1.036,5.179a35.145,35.145,0,0,1-23.7,0Zm24.387,1.87c.275-.1.551-.191.824-.3a1,1,0,0,0,.624-1.13l-1.2-6.017a9.91,9.91,0,0,0-3-5.334,14.322,14.322,0,0,1,13.2.4,7.921,7.921,0,0,1,3.839,5.327l1.036,5.179a35.043,35.043,0,0,1-15.32,1.874Z"/>
      <path id="Trazado_1090989" data-name="Trazado 1090989" d="M20,29a1,1,0,0,1-.97-1.243l1.07-4.271C12.921,21.98,8,17.363,8,12,8,5.383,15.626,0,25,0S42,5.383,42,12c0,6.242-6.562,11.332-15.315,11.933l-6.06,4.848A1,1,0,0,1,20,29ZM25,2C16.729,2,10,6.486,10,12c0,4.549,4.831,8.633,11.485,9.71a1,1,0,0,1,.811,1.23l-.608,2.428,3.994-3.194a1,1,0,0,1,.569-.218C33.961,21.527,40,17.153,40,12,40,6.486,33.271,2,25,2Z"/>
      <path id="Trazado_1090990" data-name="Trazado 1090990" d="M46,31a1,1,0,0,1-.546-.162l-5.984-3.9a18.94,18.94,0,0,1-5.852-1.357,1,1,0,0,1,.764-1.849,17,17,0,0,0,5.476,1.227,1,1,0,0,1,.485.161l4.476,2.917-.226-2.507a1,1,0,0,1,.755-1.061C50.523,23.185,54,19.782,54,16c0-4.429-4.772-8.257-11.1-8.9a1,1,0,0,1-.9-1.1.989.989,0,0,1,1.1-.894C50.455,5.858,56,10.541,56,16c0,4.5-3.718,8.513-9.34,10.184L47,29.91A1,1,0,0,1,46,31Z"/>
    </g>
  </g>
</svg>
