<svg xmlns="http://www.w3.org/2000/svg" xmlns:xlink="http://www.w3.org/1999/xlink" width="103" height="103" viewBox="0 0 103 103">
  <defs>
    <filter id="Trazado_978624" x="0" y="0" width="103" height="103" filterUnits="userSpaceOnUse">
      <feOffset dy="3" input="SourceAlpha"/>
      <feGaussianBlur stdDeviation="3" result="blur"/>
      <feFlood flood-opacity="0.161"/>
      <feComposite operator="in" in2="blur"/>
      <feComposite in="SourceGraphic"/>
    </filter>
  </defs>
  <g id="Grupo_1219808" data-name="Grupo 1219808" transform="translate(-190.895 -11586.701)">
    <g id="Grupo_1218100" data-name="Grupo 1218100" transform="translate(0.355 2865.516)">
      <g id="Grupo_1216304" data-name="Grupo 1216304" transform="translate(25.039 7949.186)">
        <g id="Grupo_1177896" data-name="Grupo 1177896" transform="translate(-5.5 -2094)">
          <g id="Grupo_1176881" data-name="Grupo 1176881">
            <g id="Grupo_1175148" data-name="Grupo 1175148" transform="translate(0 1580)">
              <g id="Grupo_1173798" data-name="Grupo 1173798" transform="translate(-3 -3520)">
                <g id="Grupo_1171925" data-name="Grupo 1171925" transform="translate(-22 -2246)">
                  <g id="Grupo_1164524" data-name="Grupo 1164524" transform="translate(205 7058)">
                    <g id="Grupo_1144123" data-name="Grupo 1144123">
                      <g transform="matrix(1, 0, 0, 1, -9, -6)" filter="url(#Trazado_978624)">
                        <g id="Trazado_978624-2" data-name="Trazado 978624" transform="translate(9 6)" fill="#f7f4ed">
                          <path d="M 42.5 83.5 C 36.96437835693359 83.5 31.59512901306152 82.41617584228516 26.54141235351562 80.27863311767578 C 21.65934181213379 78.21369171142578 17.27447128295898 75.25723266601562 13.50862312316895 71.49137878417969 C 9.742764472961426 67.72553253173828 6.786305904388428 63.34066009521484 4.721364498138428 58.45858764648438 C 2.583823442459106 53.40486907958984 1.5 48.03562164306641 1.5 42.5 C 1.5 36.96437835693359 2.583823442459106 31.59512901306152 4.721364498138428 26.54141235351562 C 6.786305904388428 21.65934181213379 9.742764472961426 17.27447128295898 13.50862312316895 13.50862312316895 C 17.27447128295898 9.742764472961426 21.65934181213379 6.786305904388428 26.54141235351562 4.721364498138428 C 31.59512901306152 2.583823442459106 36.96437835693359 1.5 42.5 1.5 C 48.03562164306641 1.5 53.40486907958984 2.583823442459106 58.45858764648438 4.721364498138428 C 63.34066009521484 6.786305904388428 67.72553253173828 9.742764472961426 71.49137878417969 13.50862312316895 C 75.25723266601562 17.27447128295898 78.21369171142578 21.65934181213379 80.27863311767578 26.54141235351562 C 82.41617584228516 31.59512901306152 83.5 36.96437835693359 83.5 42.5 C 83.5 48.03562164306641 82.41617584228516 53.40486907958984 80.27863311767578 58.45858764648438 C 78.21369171142578 63.34066009521484 75.25723266601562 67.72553253173828 71.49137878417969 71.49137878417969 C 67.72553253173828 75.25723266601562 63.34066009521484 78.21369171142578 58.45858764648438 80.27863311767578 C 53.40486907958984 82.41617584228516 48.03562164306641 83.5 42.5 83.5 Z" stroke="none"/>
                          <path d="M 42.5 3 C 37.16621398925781 3 31.99356079101562 4.043960571289062 27.125732421875 6.102882385253906 C 22.42246627807617 8.092185974121094 18.19785308837891 10.94070434570312 14.56928253173828 14.56928253173828 C 10.94070434570312 18.19785308837891 8.092185974121094 22.42246627807617 6.102882385253906 27.125732421875 C 4.043960571289062 31.99356079101562 3 37.16621398925781 3 42.5 C 3 47.83378601074219 4.043960571289062 53.00643920898438 6.102882385253906 57.87425231933594 C 8.092185974121094 62.57753372192383 10.94070434570312 66.80213165283203 14.56928253173828 70.43071746826172 C 18.19786834716797 74.05929565429688 22.42246627807617 76.90781402587891 27.125732421875 78.89711761474609 C 31.99356079101562 80.95603942871094 37.16621398925781 82 42.5 82 C 47.83378601074219 82 53.00642395019531 80.95603942871094 57.87425231933594 78.89711761474609 C 62.57753372192383 76.90781402587891 66.80213165283203 74.05929565429688 70.43071746826172 70.43071746826172 C 74.05929565429688 66.80213165283203 76.90781402587891 62.57753372192383 78.89711761474609 57.87425231933594 C 80.95603942871094 53.00642395019531 82 47.83378601074219 82 42.5 C 82 37.16621398925781 80.95603942871094 31.99356079101562 78.89711761474609 27.125732421875 C 76.90781402587891 22.42246627807617 74.05929565429688 18.19786834716797 70.43071746826172 14.56928253173828 C 66.80213165283203 10.94070434570312 62.57753372192383 8.092185974121094 57.87425231933594 6.102882385253906 C 53.00643920898438 4.043960571289062 47.83378601074219 3 42.5 3 M 42.5 0 C 65.97209167480469 0 85 19.02789306640625 85 42.5 C 85 65.97209167480469 65.97209167480469 85 42.5 85 C 19.02789306640625 85 0 65.97209167480469 0 42.5 C 0 19.02789306640625 19.02789306640625 0 42.5 0 Z" stroke="none" fill="#ba9c5a"/>
                        </g>
                      </g>
                    </g>
                  </g>
                </g>
              </g>
            </g>
          </g>
        </g>
      </g>
    </g>
    <g id="la-politica-monetaria_1_" data-name="la-politica-monetaria (1)" transform="translate(199.895 11584.049)">
      <g id="Grupo_1219807" data-name="Grupo 1219807" transform="translate(0 6.061)">
        <g id="Grupo_1219802" data-name="Grupo 1219802" transform="translate(46.416 1.151)">
          <path id="Trazado_1091353" data-name="Trazado 1091353" d="M333.471,31.475V26.652l-3.933-.983a11.97,11.97,0,0,0-.987-2.387l2.085-3.475-3.41-3.41-3.475,2.085a11.987,11.987,0,0,0-2.387-.987l-.983-3.933h-4.823l-.983,3.933a11.978,11.978,0,0,0-2.387.987L308.712,16.4l-3.41,3.41,2.085,3.475a11.987,11.987,0,0,0-.987,2.387l-3.933.983v4.823l3.933.983a11.969,11.969,0,0,0,.987,2.387L305.3,38.32l3.41,3.41,3.475-2.085a11.987,11.987,0,0,0,2.387.987l.983,3.933h4.823l.983-3.933a11.978,11.978,0,0,0,2.387-.987l3.475,2.085,3.41-3.41-2.085-3.475a11.987,11.987,0,0,0,.987-2.387Zm-15.5-5.512a3.1,3.1,0,1,1-3.1,3.1A3.1,3.1,0,0,1,317.969,25.963Z" transform="translate(-302.467 -13.562)" fill="#528fd8"/>
          <path id="Trazado_1091354" data-name="Trazado 1091354" d="M317.349,109.037h-.6l-14.279-8.329v4.54l3.933.983a11.969,11.969,0,0,0,.987,2.387l-2.085,3.475,3.41,3.41,3.475-2.085a11.987,11.987,0,0,0,2.387.987l.983,3.933h4.823l.983-3.933a12.042,12.042,0,0,0,1.755-.667A5.9,5.9,0,0,0,317.349,109.037Z" transform="translate(-302.467 -87.335)" fill="#0573ce"/>
        </g>
        <g id="Grupo_1219805" data-name="Grupo 1219805" transform="translate(1.151 16.653)">
          <g id="Grupo_1219803" data-name="Grupo 1219803" transform="translate(14.882)">
            <path id="Trazado_1091355" data-name="Trazado 1091355" d="M187.309,215.594h21.082v21.082H187.309Z" transform="translate(-174.598 -200.092)" fill="#ffd15b"/>
            <path id="Trazado_1091356" data-name="Trazado 1091356" d="M208.392,297.776a8.385,8.385,0,0,0-1.24-.093H197.019l-1.109-.9a16.859,16.859,0,0,0-8.6-3.63v9.18h21.082v-4.558Z" transform="translate(-174.598 -265.75)" fill="#ffc344"/>
            <path id="Trazado_1091357" data-name="Trazado 1091357" d="M149.741,189.94H105.716a1.24,1.24,0,0,1-1.24-1.24v-2.17a1.24,1.24,0,0,1,1.24-1.24h44.025a1.24,1.24,0,0,1,1.24,1.24v2.17A1.24,1.24,0,0,1,149.741,189.94Z" transform="translate(-104.476 -174.439)" fill="#c5d3dd"/>
            <path id="Trazado_1091358" data-name="Trazado 1091358" d="M373.789,185.289h-4.651a1.24,1.24,0,0,1,1.24,1.24v2.17a1.24,1.24,0,0,1-1.24,1.24h4.651a1.24,1.24,0,0,0,1.24-1.24v-2.17A1.24,1.24,0,0,0,373.789,185.289Z" transform="translate(-328.523 -174.438)" fill="#b6c4cf"/>
            <path id="Trazado_1091359" data-name="Trazado 1091359" d="M174.925,360.416H132.76v-7.441h40.3a1.86,1.86,0,0,1,1.86,1.86Z" transform="translate(-128.42 -316.391)" fill="#c5d3dd"/>
            <path id="Trazado_1091360" data-name="Trazado 1091360" d="M169.293,355.765a8.306,8.306,0,0,0-.824-2.79H132.76v7.441h36.533Z" transform="translate(-128.42 -316.391)" fill="#b6c4cf"/>
            <path id="Trazado_1091361" data-name="Trazado 1091361" d="M324.691,215.594h8.371v21.082h-8.371Z" transform="translate(-290.897 -200.092)" fill="#8d9ca8"/>
            <path id="Trazado_1091362" data-name="Trazado 1091362" d="M324.691,215.594h8.371v21.082h-8.371Z" transform="translate(-290.897 -200.092)" fill="#8d9ca8"/>
            <path id="Trazado_1091363" data-name="Trazado 1091363" d="M324.691,323.274v4.558h6.255A8.392,8.392,0,0,0,324.691,323.274Z" transform="translate(-290.897 -291.248)" fill="#7a8c98"/>
            <path id="Trazado_1091364" data-name="Trazado 1091364" d="M0,0H8.371V21.082H0Z" transform="translate(12.711 36.584) rotate(180)" fill="#8d9ca8"/>
            <path id="Trazado_1091365" data-name="Trazado 1091365" d="M141.131,292.486a16.608,16.608,0,0,0-8.371,1.149v8.032h8.371Z" transform="translate(-128.42 -265.082)" fill="#7a8c98"/>
            <path id="Trazado_1091366" data-name="Trazado 1091366" d="M164.984,125.429h-40.3l18.24-10.64a1.55,1.55,0,0,1,.781-.211h2.262a1.55,1.55,0,0,1,.781.211Z" transform="translate(-121.579 -114.578)" fill="#8d9ca8"/>
            <path id="Trazado_1091367" data-name="Trazado 1091367" d="M245.5,157.31a2.325,2.325,0,1,0-4.65,0v2.325H245.5V157.31Z" transform="translate(-219.921 -148.784)" fill="#596c76"/>
            <path id="Trazado_1091368" data-name="Trazado 1091368" d="M240.81,114.789a1.55,1.55,0,0,0-.781-.211h-2.262a1.55,1.55,0,0,0-.781.211l-1.188.693,17.052,9.947h6.2Z" transform="translate(-215.645 -114.578)" fill="#7a8c98"/>
          </g>
          <g id="Grupo_1219804" data-name="Grupo 1219804" transform="translate(0 31.24)">
            <path id="Trazado_1091369" data-name="Trazado 1091369" d="M72.15,352.975h5.581v19.842H72.15Z" transform="translate(-62.229 -347.631)" fill="#dff6fd"/>
            <path id="Trazado_1091370" data-name="Trazado 1091370" d="M168.2,319.244a3.72,3.72,0,0,0-5.261,0l-11.695,11.695H140.451a3.72,3.72,0,1,0,0-7.441H128.67l-2.39-1.938a12.152,12.152,0,0,0-15.183-.1l-2.579,2.037V343.34l22.455,1.408a12.4,12.4,0,0,0,4.435-.528l17.445-5.387a6.2,6.2,0,0,0,2.555-1.54L168.2,324.505a3.721,3.721,0,0,0,0-5.262Z" transform="translate(-93.016 -318.154)" fill="#fed2a4"/>
            <path id="Trazado_1091371" data-name="Trazado 1091371" d="M291.146,319.244a3.72,3.72,0,0,0-5.261,0L274.19,330.939h-2.219a45.535,45.535,0,0,1-3.729,4.219,41.646,41.646,0,0,1-14.484,9.58l.166.01a12.4,12.4,0,0,0,4.435-.528l17.445-5.387a6.2,6.2,0,0,0,2.555-1.54l12.788-12.788A3.72,3.72,0,0,0,291.146,319.244Z" transform="translate(-215.967 -318.154)" fill="#ffbd86"/>
            <path id="Trazado_1091372" data-name="Trazado 1091372" d="M7.5,336.812h9.921v24.8H7.5Z" transform="translate(-7.5 -333.949)" fill="#62dbfb"/>
            <path id="Trazado_1091373" data-name="Trazado 1091373" d="M45.886,336.812h4.03v24.8h-4.03Z" transform="translate(-39.995 -333.949)" fill="#01d0fb"/>
          </g>
        </g>
        <g id="Grupo_1219806" data-name="Grupo 1219806" transform="translate(0 0)">
          <path id="Trazado_1091374" data-name="Trazado 1091374" d="M77.7,26.242a1.151,1.151,0,0,0,.872-1.117V20.3a1.151,1.151,0,0,0-.871-1.116l-3.312-.829a13.238,13.238,0,0,0-.571-1.382l1.756-2.926a1.151,1.151,0,0,0-.173-1.406l-3.41-3.41a1.151,1.151,0,0,0-1.406-.173l-2.925,1.756a13.14,13.14,0,0,0-1.382-.571l-.828-3.312a1.151,1.151,0,0,0-1.117-.872H59.506a1.151,1.151,0,0,0-1.117.872l-.828,3.312a13.142,13.142,0,0,0-1.382.571L53.254,9.06a1.151,1.151,0,0,0-1.406.173l-3.411,3.41a1.151,1.151,0,0,0-.173,1.406l1.756,2.926a13.275,13.275,0,0,0-.572,1.382l-3.312.829a1.151,1.151,0,0,0-.871,1.116v3.662l-3.488-2.034a2.7,2.7,0,0,0-1.361-.368H38.154a2.7,2.7,0,0,0-1.361.368L18.822,32.414H17.273a2.394,2.394,0,0,0-2.391,2.391v2.17a2.394,2.394,0,0,0,2.391,2.391h1.949V55.844c-.239.164-.475.334-.7.515l-2.266,1.789h-4.03v-1.33a1.151,1.151,0,0,0-1.151-1.151H1.151A1.151,1.151,0,0,0,0,56.817v7.236a1.151,1.151,0,1,0,2.3,0V57.968H9.921v22.5H2.3V69.424a1.151,1.151,0,1,0-2.3,0v12.2a1.151,1.151,0,0,0,1.151,1.151h9.921a1.151,1.151,0,0,0,1.151-1.151v-1.33h4.394L39.036,81.7q.428.027.855.027a13.5,13.5,0,0,0,3.992-.6l17.445-5.387a7.38,7.38,0,0,0,3.029-1.826L77.144,61.119a4.871,4.871,0,1,0-6.889-6.889l-6.586,6.586a3.014,3.014,0,0,0-2.99-2.67H59.349v-6.7a1.151,1.151,0,0,0-2.3,0V53.5H50.978V44.017h6.069v2.055a1.151,1.151,0,1,0,2.3,0V39.366H64.33a1.151,1.151,0,0,0,1.117-.872l.828-3.312a13.13,13.13,0,0,0,1.382-.572l2.925,1.756a1.151,1.151,0,0,0,1.406-.173l3.41-3.41a1.151,1.151,0,0,0,.173-1.406l-1.756-2.925a13.15,13.15,0,0,0,.571-1.382ZM15.5,77.989H12.223V60.449H15.5ZM71.882,55.858a2.569,2.569,0,0,1,3.634,3.634L62.729,72.279a5.069,5.069,0,0,1-2.081,1.254L43.2,78.921a11.216,11.216,0,0,1-4.024.479L17.8,78.059v-18.2l2.142-1.691a11.047,11.047,0,0,1,6.81-2.366h.014a11.034,11.034,0,0,1,6.921,2.456l2.39,1.938a1.151,1.151,0,0,0,.725.257H48.586a2.57,2.57,0,0,1,0,5.139H35.255a1.15,1.15,0,0,0-.814.337l-1.628,1.628a1.151,1.151,0,1,0,1.628,1.628l1.291-1.291H59.374a1.15,1.15,0,0,0,.814-.337ZM27.593,44.017V53.5H21.524V44.017Zm-6.069-2.3V39.366h6.069v2.349ZM29.9,53.876V39.366h18.78V58.149l-.089,0H37.213L35.14,56.466a13.336,13.336,0,0,0-5.245-2.59Zm30.783,6.573a.71.71,0,0,1,.709.709V63.1l-2.49,2.49H52.723a4.86,4.86,0,0,0,0-5.139ZM57.047,55.8v2.349H50.978V55.8Zm0-14.083H50.978V39.366h6.069Zm4.34-4.74a.087.087,0,0,1-.089.089H17.273a.087.087,0,0,1-.089-.089v-2.17a.088.088,0,0,1,.089-.089h10.05a1.151,1.151,0,1,0,0-2.3H23.39l14.563-8.5a.4.4,0,0,1,.2-.054h2.262a.4.4,0,0,1,.2.054l14.563,8.5H42.762V31.24a3.476,3.476,0,1,0-6.952,0v1.174H32.694a1.151,1.151,0,0,0,0,2.3H61.3a.088.088,0,0,1,.089.089ZM40.46,31.24v1.174H38.111V31.24a1.174,1.174,0,1,1,2.349,0Zm32.748-6.248a1.151,1.151,0,0,0-.826.793,10.844,10.844,0,0,1-.892,2.158,1.151,1.151,0,0,0,.023,1.145l1.623,2.7L71,33.931l-2.7-1.623a1.151,1.151,0,0,0-1.145-.023,10.831,10.831,0,0,1-2.158.892A1.151,1.151,0,0,0,64.2,34l-.508,2.032V34.805A2.394,2.394,0,0,0,61.3,32.414H59.749L52.43,28.145a1.148,1.148,0,0,0-.084-.2,10.835,10.835,0,0,1-.892-2.158,1.151,1.151,0,0,0-.826-.793l-3.061-.765V21.2l3.061-.766a1.151,1.151,0,0,0,.825-.793,10.919,10.919,0,0,1,.893-2.159,1.151,1.151,0,0,0-.023-1.144l-1.623-2.7L52.84,11.5l2.7,1.623a1.151,1.151,0,0,0,1.145.023,10.836,10.836,0,0,1,2.158-.892,1.151,1.151,0,0,0,.794-.826L60.4,8.363h3.027l.765,3.061a1.151,1.151,0,0,0,.793.826,10.836,10.836,0,0,1,2.158.892,1.151,1.151,0,0,0,1.145-.023L71,11.5l2.139,2.139-1.623,2.7a1.151,1.151,0,0,0-.023,1.144,10.915,10.915,0,0,1,.893,2.159,1.151,1.151,0,0,0,.825.793l3.062.766v3.026Z" transform="translate(0 -6.061)"/>
          <path id="Trazado_1091375" data-name="Trazado 1091375" d="M380.031,86.875a4.251,4.251,0,1,0,4.251,4.251A4.256,4.256,0,0,0,380.031,86.875Zm0,6.2a1.949,1.949,0,1,1,1.949-1.949A1.952,1.952,0,0,1,380.031,93.076Z" transform="translate(-318.113 -74.473)"/>
          <circle id="Elipse_12123" data-name="Elipse 12123" cx="1.151" cy="1.151" r="1.151" transform="translate(4.96 54.566)"/>
          <circle id="Elipse_12124" data-name="Elipse 12124" cx="1.151" cy="1.151" r="1.151" transform="translate(4.96 59.527)"/>
        </g>
      </g>
      <path id="Trazado_1091376" data-name="Trazado 1091376" d="M235.12,240.332c-.174-.084-.341-.16-.5-.234v-2.589a4.433,4.433,0,0,1,.765.43,1.151,1.151,0,0,0,1.4-1.828,6.641,6.641,0,0,0-2.164-1.03v-.423a1.151,1.151,0,0,0-2.3,0v.36c-.058.014-.117.027-.176.044a3.353,3.353,0,0,0-2.448,2.656,3.181,3.181,0,0,0,1.282,3.179,7.551,7.551,0,0,0,1.342.715v3.824a3.088,3.088,0,0,1-1-.484,1.151,1.151,0,0,0-1.26,1.926,4.91,4.91,0,0,0,2.264.888v.438a1.151,1.151,0,0,0,2.3,0v-.54a3.993,3.993,0,0,0,2.951-2.944A3.874,3.874,0,0,0,235.12,240.332Zm-2.821-1.317a.906.906,0,0,1-.341-.905,1.015,1.015,0,0,1,.356-.609v1.524Zm3.022,5.2a1.616,1.616,0,0,1-.705.97V242.7A1.457,1.457,0,0,1,235.321,244.214Z" transform="translate(-194.305 -192.542)"/>
    </g>
  </g>
</svg>
