<svg xmlns="http://www.w3.org/2000/svg" xmlns:xlink="http://www.w3.org/1999/xlink" width="93.934" height="93.934" viewBox="0 0 93.934 93.934">
  <defs>
    <filter id="Trazado_982547" x="0" y="0" width="93.934" height="93.934" filterUnits="userSpaceOnUse">
      <feOffset dy="3" input="SourceAlpha"/>
      <feGaussianBlur stdDeviation="3" result="blur"/>
      <feFlood flood-opacity="0.161"/>
      <feComposite operator="in" in2="blur"/>
      <feComposite in="SourceGraphic"/>
    </filter>
  </defs>
  <g id="Grupo_1219369" data-name="Grupo 1219369" transform="translate(-611.066 -1676.416)">
    <g id="Grupo_1218013" data-name="Grupo 1218013" transform="translate(0 -5560.619)">
      <g id="Grupo_1216284" data-name="Grupo 1216284" transform="translate(0 6194.186)">
        <g id="Grupo_1215982" data-name="Grupo 1215982" transform="translate(-0.229 -2679.151)">
          <g id="Grupo_1214640" data-name="Grupo 1214640" transform="translate(0 -1406)">
            <g id="Grupo_1214433" data-name="Grupo 1214433" transform="translate(-0.771 -2738.674)">
              <g id="Grupo_1183190" data-name="Grupo 1183190" transform="translate(1 1016.674)">
                <g id="Grupo_1179611" data-name="Grupo 1179611" transform="translate(428 4723.467)">
                  <g id="Grupo_1175227" data-name="Grupo 1175227" transform="translate(-5.967 140.533)">
                    <g id="Grupo_1167337" data-name="Grupo 1167337" transform="translate(198.033 1992)">
                      <g id="Grupo_1166720" data-name="Grupo 1166720">
                        <g id="Grupo_1164305" data-name="Grupo 1164305">
                          <g id="Grupo_1163948" data-name="Grupo 1163948">
                            <g id="Grupo_1158168" data-name="Grupo 1158168">
                              <g id="Grupo_1152576" data-name="Grupo 1152576">
                                <g id="Grupo_1148633" data-name="Grupo 1148633">
                                  <g id="Grupo_1148525" data-name="Grupo 1148525">
                                    <g transform="matrix(1, 0, 0, 1, -9, -6)" filter="url(#Trazado_982547)">
                                      <g id="Trazado_982547-2" data-name="Trazado 982547" transform="translate(9 6)" fill="#f7f4ed">
                                        <path d="M 37.966796875 74.43359375 C 33.04315185546875 74.43359375 28.26757431030273 73.46962738037109 23.77274131774902 71.56847381591797 C 19.43047523498535 69.73184967041016 15.53040790557861 67.10224914550781 12.18087482452393 63.75271987915039 C 8.831341743469238 60.4031867980957 6.201741218566895 56.50312042236328 4.365118980407715 52.16086196899414 C 2.463963508605957 47.66601943969727 1.499996900558472 42.89044189453125 1.499996900558472 37.966796875 C 1.499996900558472 33.04315185546875 2.463963508605957 28.26757431030273 4.365118980407715 23.77274131774902 C 6.201741218566895 19.43047523498535 8.831341743469238 15.53040790557861 12.18087482452393 12.18087482452393 C 15.53040790557861 8.831341743469238 19.43047523498535 6.201741218566895 23.77274131774902 4.365118980407715 C 28.26757431030273 2.463963508605957 33.04315185546875 1.499996900558472 37.966796875 1.499996900558472 C 42.89044189453125 1.499996900558472 47.66601943969727 2.463963508605957 52.16086196899414 4.365118980407715 C 56.50312042236328 6.201741218566895 60.4031867980957 8.831341743469238 63.75271987915039 12.18087482452393 C 67.10224914550781 15.53040790557861 69.73184967041016 19.43047523498535 71.56847381591797 23.77274131774902 C 73.46962738037109 28.26757431030273 74.43359375 33.04315185546875 74.43359375 37.966796875 C 74.43359375 42.89044189453125 73.46962738037109 47.66601943969727 71.56847381591797 52.16086196899414 C 69.73184967041016 56.50313186645508 67.10224914550781 60.4031867980957 63.75271987915039 63.75271987915039 C 60.4031867980957 67.10224914550781 56.50313186645508 69.73184967041016 52.16086196899414 71.56847381591797 C 47.66601943969727 73.46962738037109 42.89044189453125 74.43359375 37.966796875 74.43359375 Z" stroke="none"/>
                                        <path d="M 37.966796875 3 C 33.2449836730957 3 28.66600799560547 3.924095153808594 24.35705947875977 5.746635437011719 C 20.19359588623047 7.507637023925781 16.45379638671875 10.02928161621094 13.24153518676758 13.24153518676758 C 10.02927398681641 16.45379638671875 7.507621765136719 20.19359588623047 5.746635437011719 24.35705947875977 C 3.924095153808594 28.66600799560547 3 33.2449836730957 3 37.966796875 C 3 42.6886100769043 3.924095153808594 47.26758575439453 5.746635437011719 51.57653427124023 C 7.507621765136719 55.73999786376953 10.02927398681641 59.47979736328125 13.24153518676758 62.69205856323242 C 16.45379638671875 65.90431976318359 20.19359588623047 68.42597198486328 24.35705947875977 70.18695831298828 C 28.66600799560547 72.00949859619141 33.2449836730957 72.93359375 37.966796875 72.93359375 C 42.6886100769043 72.93359375 47.26758575439453 72.00949859619141 51.57653427124023 70.18695831298828 C 55.73999786376953 68.42597198486328 59.47979736328125 65.90431976318359 62.69205856323242 62.69205856323242 C 65.90431976318359 59.47979736328125 68.42597198486328 55.73999786376953 70.18695831298828 51.57653427124023 C 72.00949859619141 47.26758575439453 72.93359375 42.6886100769043 72.93359375 37.966796875 C 72.93359375 33.2449836730957 72.00949859619141 28.66600799560547 70.18695831298828 24.35705947875977 C 68.42597198486328 20.19359588623047 65.90431976318359 16.45379638671875 62.69205856323242 13.24153518676758 C 59.47979736328125 10.02928161621094 55.73999786376953 7.507637023925781 51.57653427124023 5.746635437011719 C 47.26758575439453 3.924095153808594 42.6886100769043 3 37.966796875 3 M 37.966796875 0 C 58.93528366088867 0 75.93359375 16.99832153320312 75.93359375 37.966796875 C 75.93359375 58.93528366088867 58.93528366088867 75.93359375 37.966796875 75.93359375 C 16.99831008911133 75.93359375 0 58.93528366088867 0 37.966796875 C 0 16.99832153320312 16.99831008911133 0 37.966796875 0 Z" stroke="none" fill="#847625"/>
                                      </g>
                                    </g>
                                  </g>
                                </g>
                              </g>
                            </g>
                          </g>
                        </g>
                      </g>
                    </g>
                  </g>
                </g>
              </g>
            </g>
          </g>
        </g>
      </g>
    </g>
    <g id="banco_2_" data-name="banco (2)" transform="translate(635.636 1698.307)">
      <path id="Trazado_1089830" data-name="Trazado 1089830" d="M42.123,14.825V53.213H8V8H36.152v6.825Zm0,0" transform="translate(-7.147 -7.147)" fill="#ffbcab"/>
      <path id="Trazado_1089831" data-name="Trazado 1089831" d="M61.649,54.825A6.825,6.825,0,1,1,54.825,48,6.824,6.824,0,0,1,61.649,54.825Zm0,0" transform="translate(-42.882 -42.882)" fill="#ddfffb"/>
      <path id="Trazado_1089832" data-name="Trazado 1089832" d="M240.853,291.412V288h3.412v3.412h.853v8.531h-.853v3.412h-3.412v-3.412H240v-8.531Zm0,0" transform="translate(-214.408 -257.29)" fill="#ffbcab"/>
      <path id="Trazado_1089833" data-name="Trazado 1089833" d="M169.032,264h29.679v2.559H168V264Zm0,0" transform="translate(-150.085 -235.849)" fill="#898890"/>
      <path id="Trazado_1089834" data-name="Trazado 1089834" d="M384,320h5.118v8.531H384Zm0,0" transform="translate(-343.052 -285.877)" fill="#898890"/>
      <path id="Trazado_1089835" data-name="Trazado 1089835" d="M288,320h5.118v8.531H288Zm0,0" transform="translate(-257.289 -285.877)" fill="#898890"/>
      <path id="Trazado_1089836" data-name="Trazado 1089836" d="M192,320h5.118v8.531H192Zm0,0" transform="translate(-171.526 -285.877)" fill="#898890"/>
      <path id="Trazado_1089837" data-name="Trazado 1089837" d="M198.711,432v2.559A1.712,1.712,0,0,1,197,436.265h-27.3A1.711,1.711,0,0,1,168,434.559V432Zm0,0" transform="translate(-150.085 -385.934)" fill="#898890"/>
      <g id="Grupo_1219368" data-name="Grupo 1219368" transform="translate(16.208 18.767)">
        <path id="Trazado_1089838" data-name="Trazado 1089838" d="M190.825,400v3.412H184V400Zm0,0" transform="translate(-180.588 -376.114)" fill="#e0e0e2"/>
        <path id="Trazado_1089839" data-name="Trazado 1089839" d="M190.825,288v3.412H184V288Zm0,0" transform="translate(-180.588 -276.057)" fill="#e0e0e2"/>
        <path id="Trazado_1089840" data-name="Trazado 1089840" d="M286.825,400v3.412H280V400Zm0,0" transform="translate(-266.351 -376.114)" fill="#e0e0e2"/>
        <path id="Trazado_1089841" data-name="Trazado 1089841" d="M286.825,288v3.412H280V288Zm0,0" transform="translate(-266.351 -276.057)" fill="#e0e0e2"/>
        <path id="Trazado_1089842" data-name="Trazado 1089842" d="M382.825,288v3.412H376V288Zm0,0" transform="translate(-352.114 -276.057)" fill="#e0e0e2"/>
        <path id="Trazado_1089843" data-name="Trazado 1089843" d="M382.825,400v3.412H376V400Zm0,0" transform="translate(-352.114 -376.114)" fill="#e0e0e2"/>
        <path id="Trazado_1089844" data-name="Trazado 1089844" d="M186.123,181.972v3.412H152v-3.412L169.062,176Zm0,0" transform="translate(-152 -176)" fill="#e0e0e2"/>
      </g>
      <path id="Trazado_1089845" data-name="Trazado 1089845" d="M74.615,130.858v.008a6.818,6.818,0,0,1-10.134-.008A3.4,3.4,0,0,1,67.842,128h3.412a3.4,3.4,0,0,1,3.361,2.858Zm0,0" transform="translate(-57.605 -114.351)" fill="#ffdaaa"/>
      <path id="Trazado_1089846" data-name="Trazado 1089846" d="M93.118,82.559A2.559,2.559,0,1,1,90.559,80,2.559,2.559,0,0,1,93.118,82.559Zm0,0" transform="translate(-78.616 -71.47)" fill="#ffdaaa"/>
      <path id="Trazado_1089847" data-name="Trazado 1089847" d="M272,8l5.971,6.825H272Zm0,0" transform="translate(-242.995 -7.147)" fill="#ff9478"/>
      <path id="Trazado_1089848" data-name="Trazado 1089848" d="M299.412,209.706A1.706,1.706,0,1,1,297.706,208,1.706,1.706,0,0,1,299.412,209.706Zm0,0" transform="translate(-264.436 -185.82)" fill="#d80027"/>
      <path id="Trazado_1089849" data-name="Trazado 1089849" d="M50.613,23.934,35.829,18.759V7.677a.854.854,0,0,0-.211-.561L29.647.291A.853.853,0,0,0,29,0H.853A.853.853,0,0,0,0,.853V46.066a.853.853,0,0,0,.853.853H17.062v1.706a2.559,2.559,0,0,0,2.559,2.559h27.3a2.559,2.559,0,0,0,2.559-2.559V46.066a.853.853,0,0,0-.853-.853h-.853V42.654a.853.853,0,0,0-.853-.853V34.976a.853.853,0,0,0,.853-.853V31.564h.853a.853.853,0,0,0,.853-.853V29h.853a.853.853,0,0,0,.853-.853V24.739a.852.852,0,0,0-.571-.805ZM29.858,3.124l3.242,3.7H29.858ZM1.706,45.213V1.706H28.152V7.677A.853.853,0,0,0,29,8.53h5.118v9.631l-.571-.2a.853.853,0,0,0-.563,0L15.927,23.934a.852.852,0,0,0-.571.805v3.412a.853.853,0,0,0,.853.853h.853V30.71a.853.853,0,0,0,.853.853h.853v2.559a.853.853,0,0,0,.853.853V41.8a.853.853,0,0,0-.853.853v2.559ZM29,31.564v2.559a.853.853,0,0,0,.853.853V41.8a.853.853,0,0,0-.853.853v2.559H27.3V42.654a.853.853,0,0,0-.853-.853V34.976a.853.853,0,0,0,.853-.853V31.564Zm10.237,0v2.559a.853.853,0,0,0,.853.853V41.8a.853.853,0,0,0-.853.853v2.559H37.535V42.654a.853.853,0,0,0-.853-.853V34.976a.853.853,0,0,0,.853-.853V31.564Zm-7.678,3.412h3.412V41.8H31.564Zm-.853,8.531h5.118v1.706H30.711ZM35.829,33.27H30.711V31.564h5.118Zm-14.5,1.706h3.412V41.8H21.327Zm-.853,8.531h5.118v1.706H20.474ZM25.592,33.27H20.474V31.564h5.118Zm22.18,15.355a.853.853,0,0,1-.853.853h-27.3a.853.853,0,0,1-.853-.853V46.919h29Zm-6.825-3.412V43.507h5.118v1.706ZM45.213,41.8H41.8V34.976h3.412Zm.853-8.531H40.948V31.564h5.118Zm1.706-3.412h-29V29h29ZM49.478,27.3H17.062V25.345L33.27,19.672l16.208,5.673Zm0,0" transform="translate(0 0)"/>
      <path id="Trazado_1089850" data-name="Trazado 1089850" d="M288,202.559A2.559,2.559,0,1,0,290.559,200,2.559,2.559,0,0,0,288,202.559Zm3.412,0a.853.853,0,1,1-.853-.853A.853.853,0,0,1,291.412,202.559Zm0,0" transform="translate(-257.289 -178.673)"/>
      <path id="Trazado_1089851" data-name="Trazado 1089851" d="M47.678,55.355A7.678,7.678,0,1,0,40,47.678,7.678,7.678,0,0,0,47.678,55.355Zm-4.125-3.371a2.538,2.538,0,0,1,2.418-1.748h3.412A2.538,2.538,0,0,1,51.8,51.985,5.943,5.943,0,0,1,43.553,51.985Zm2.418-5.16a1.706,1.706,0,1,1,1.706,1.706A1.706,1.706,0,0,1,45.972,46.825Zm1.706-5.118a5.966,5.966,0,0,1,5.27,8.772A4.217,4.217,0,0,0,50.523,48.7a3.412,3.412,0,1,0-5.69,0,4.219,4.219,0,0,0-2.426,1.778,5.966,5.966,0,0,1,5.27-8.773Zm0,0" transform="translate(-35.735 -35.735)"/>
      <path id="Trazado_1089852" data-name="Trazado 1089852" d="M240,96h1.706v1.706H240Zm0,0" transform="translate(-214.408 -85.763)"/>
      <path id="Trazado_1089853" data-name="Trazado 1089853" d="M272,96h3.412v1.706H272Zm0,0" transform="translate(-242.995 -85.763)"/>
      <path id="Trazado_1089854" data-name="Trazado 1089854" d="M240,128h6.825v1.706H240Zm0,0" transform="translate(-214.408 -114.351)"/>
      <path id="Trazado_1089855" data-name="Trazado 1089855" d="M32,200h2.559v1.706H32Zm0,0" transform="translate(-28.588 -178.673)"/>
      <path id="Trazado_1089856" data-name="Trazado 1089856" d="M72,200h5.972v1.706H72Zm0,0" transform="translate(-64.322 -178.673)"/>
      <path id="Trazado_1089857" data-name="Trazado 1089857" d="M32,232H42.237v1.706H32Zm0,0" transform="translate(-28.588 -207.261)"/>
      <path id="Trazado_1089858" data-name="Trazado 1089858" d="M32,264H42.237v1.706H32Zm0,0" transform="translate(-28.588 -235.849)"/>
      <path id="Trazado_1089859" data-name="Trazado 1089859" d="M32,296h1.706v1.706H32Zm0,0" transform="translate(-28.588 -264.436)"/>
      <path id="Trazado_1089860" data-name="Trazado 1089860" d="M64,296h6.825v1.706H64Zm0,0" transform="translate(-57.175 -264.436)"/>
      <path id="Trazado_1089861" data-name="Trazado 1089861" d="M32,328h3.412v1.706H32Zm0,0" transform="translate(-28.588 -293.024)"/>
      <path id="Trazado_1089862" data-name="Trazado 1089862" d="M80,328h5.118v1.706H80Zm0,0" transform="translate(-71.469 -293.024)"/>
    </g>
  </g>
</svg>
