<svg xmlns="http://www.w3.org/2000/svg" xmlns:xlink="http://www.w3.org/1999/xlink" width="400" height="274" viewBox="0 0 400 274">
  <defs>
    <clipPath id="clip-path">
      <rect id="Rectángulo_420816" data-name="Rectángulo 420816" width="400" height="274" transform="translate(180 5784)" fill="#fff" stroke="#707070" stroke-width="1"/>
    </clipPath>
  </defs>
  <g id="Enmascarar_grupo_1098932" data-name="Enmascarar grupo 1098932" transform="translate(-180 -5784)" clip-path="url(#clip-path)">
    <g id="Grupo_1219330" data-name="Grupo 1219330">
      <rect id="Rectángulo_420815" data-name="Rectángulo 420815" width="210" height="275" transform="translate(180 5784)" fill="#f2d944"/>
      <g id="OBJECTS" transform="translate(91.935 5776.849)">
        <g id="Grupo_1219329" data-name="Grupo 1219329" transform="translate(113.065 23.08)">
          <g id="Grupo_1219302" data-name="Grupo 1219302" transform="translate(26.759 6.126)">
            <g id="Grupo_1219287" data-name="Grupo 1219287" transform="translate(33.626 104.106)">
              <path id="Trazado_1089585" data-name="Trazado 1089585" d="M129.04,176.467h19.293c2.058,0,3.741,3.089,3.741,6.867v.006c0,3.777-1.683,6.867-3.741,6.867H129.04c-2.057,0-3.741-3.09-3.741-6.867v-.006C125.3,179.555,126.982,176.467,129.04,176.467Z" transform="translate(-125.299 -175.556)" fill="#c08329" fill-rule="evenodd"/>
              <rect id="Rectángulo_420804" data-name="Rectángulo 420804" width="12.882" height="102.213" transform="translate(6.945)" fill="#c08329"/>
              <g id="Grupo_1219286" data-name="Grupo 1219286" transform="translate(6.945 14.649)">
                <g id="Grupo_1219285" data-name="Grupo 1219285">
                  <rect id="Rectángulo_420805" data-name="Rectángulo 420805" width="12.882" height="1.547" fill="#a16733"/>
                </g>
              </g>
              <path id="Trazado_1089586" data-name="Trazado 1089586" d="M125.3,282.314h26.773v-.1a5.014,5.014,0,0,0-5.165-4.847H130.464a5.014,5.014,0,0,0-5.165,4.847v.1Z" transform="translate(-125.299 -180.102)" fill="#c08329" fill-rule="evenodd"/>
              <line id="Línea_707" data-name="Línea 707" y2="79.685" transform="translate(8.882 17.577)" fill="none" stroke="#2a1510" stroke-linecap="round" stroke-linejoin="round" stroke-miterlimit="10" stroke-width="1"/>
              <line id="Línea_708" data-name="Línea 708" y2="79.685" transform="translate(11.757 17.577)" fill="none" stroke="#2a1510" stroke-linecap="round" stroke-linejoin="round" stroke-miterlimit="10" stroke-width="1"/>
              <line id="Línea_709" data-name="Línea 709" y2="79.685" transform="translate(14.634 17.577)" fill="none" stroke="#2a1510" stroke-linecap="round" stroke-linejoin="round" stroke-miterlimit="10" stroke-width="1"/>
              <line id="Línea_710" data-name="Línea 710" y2="79.685" transform="translate(17.51 17.577)" fill="none" stroke="#2a1510" stroke-linecap="round" stroke-linejoin="round" stroke-miterlimit="10" stroke-width="1"/>
            </g>
            <g id="Grupo_1219290" data-name="Grupo 1219290" transform="translate(85.702 104.106)">
              <path id="Trazado_1089587" data-name="Trazado 1089587" d="M183.573,176.467h19.293c2.058,0,3.741,3.089,3.741,6.867v.006c0,3.777-1.683,6.867-3.741,6.867H183.573c-2.057,0-3.741-3.09-3.741-6.867v-.006C179.831,179.555,181.515,176.467,183.573,176.467Z" transform="translate(-179.832 -175.556)" fill="#c08329" fill-rule="evenodd"/>
              <rect id="Rectángulo_420806" data-name="Rectángulo 420806" width="12.882" height="102.213" transform="translate(6.945)" fill="#c08329"/>
              <g id="Grupo_1219289" data-name="Grupo 1219289" transform="translate(6.945 14.649)">
                <g id="Grupo_1219288" data-name="Grupo 1219288">
                  <rect id="Rectángulo_420807" data-name="Rectángulo 420807" width="12.882" height="1.547" fill="#a16733"/>
                </g>
              </g>
              <path id="Trazado_1089588" data-name="Trazado 1089588" d="M179.832,282.314h26.774v-.1a5.014,5.014,0,0,0-5.165-4.847H185a5.014,5.014,0,0,0-5.166,4.847Z" transform="translate(-179.832 -180.102)" fill="#c08329" fill-rule="evenodd"/>
              <line id="Línea_711" data-name="Línea 711" y2="79.685" transform="translate(8.881 17.577)" fill="none" stroke="#2a1510" stroke-linecap="round" stroke-linejoin="round" stroke-miterlimit="10" stroke-width="1"/>
              <line id="Línea_712" data-name="Línea 712" y2="79.685" transform="translate(11.758 17.577)" fill="none" stroke="#2a1510" stroke-linecap="round" stroke-linejoin="round" stroke-miterlimit="10" stroke-width="1"/>
              <line id="Línea_713" data-name="Línea 713" y2="79.685" transform="translate(14.634 17.577)" fill="none" stroke="#2a1510" stroke-linecap="round" stroke-linejoin="round" stroke-miterlimit="10" stroke-width="1"/>
              <line id="Línea_714" data-name="Línea 714" y2="79.685" transform="translate(17.51 17.577)" fill="none" stroke="#2a1510" stroke-linecap="round" stroke-linejoin="round" stroke-miterlimit="10" stroke-width="1"/>
            </g>
            <g id="Grupo_1219293" data-name="Grupo 1219293" transform="translate(137.778 104.106)">
              <path id="Trazado_1089589" data-name="Trazado 1089589" d="M238.106,176.467H257.4c2.058,0,3.741,3.089,3.741,6.867v.006c0,3.777-1.683,6.867-3.741,6.867H238.105c-2.057,0-3.741-3.09-3.741-6.867v-.006C234.364,179.555,236.048,176.467,238.106,176.467Z" transform="translate(-234.365 -175.556)" fill="#c08329" fill-rule="evenodd"/>
              <rect id="Rectángulo_420808" data-name="Rectángulo 420808" width="12.882" height="102.213" transform="translate(6.945)" fill="#c08329"/>
              <g id="Grupo_1219292" data-name="Grupo 1219292" transform="translate(6.945 14.649)">
                <g id="Grupo_1219291" data-name="Grupo 1219291">
                  <rect id="Rectángulo_420809" data-name="Rectángulo 420809" width="12.882" height="1.547" fill="#a16733"/>
                </g>
              </g>
              <path id="Trazado_1089590" data-name="Trazado 1089590" d="M234.365,282.314h26.774v-.1a5.014,5.014,0,0,0-5.165-4.847H239.531a5.014,5.014,0,0,0-5.166,4.847Z" transform="translate(-234.365 -180.102)" fill="#c08329" fill-rule="evenodd"/>
              <line id="Línea_715" data-name="Línea 715" y2="79.685" transform="translate(8.882 17.577)" fill="none" stroke="#2a1510" stroke-linecap="round" stroke-linejoin="round" stroke-miterlimit="10" stroke-width="1"/>
              <line id="Línea_716" data-name="Línea 716" y2="79.685" transform="translate(11.757 17.577)" fill="none" stroke="#2a1510" stroke-linecap="round" stroke-linejoin="round" stroke-miterlimit="10" stroke-width="1"/>
              <line id="Línea_717" data-name="Línea 717" y2="79.685" transform="translate(14.634 17.577)" fill="none" stroke="#2a1510" stroke-linecap="round" stroke-linejoin="round" stroke-miterlimit="10" stroke-width="1"/>
              <line id="Línea_718" data-name="Línea 718" y2="79.685" transform="translate(17.51 17.577)" fill="none" stroke="#2a1510" stroke-linecap="round" stroke-linejoin="round" stroke-miterlimit="10" stroke-width="1"/>
            </g>
            <g id="Grupo_1219296" data-name="Grupo 1219296" transform="translate(189.854 104.106)">
              <path id="Trazado_1089591" data-name="Trazado 1089591" d="M292.639,176.467h19.293c2.058,0,3.741,3.089,3.741,6.867v.006c0,3.777-1.683,6.867-3.741,6.867H292.639c-2.057,0-3.741-3.09-3.741-6.867v-.006C288.9,179.555,290.581,176.467,292.639,176.467Z" transform="translate(-288.898 -175.556)" fill="#c08329" fill-rule="evenodd"/>
              <rect id="Rectángulo_420810" data-name="Rectángulo 420810" width="12.882" height="102.213" transform="translate(6.945)" fill="#c08329"/>
              <g id="Grupo_1219295" data-name="Grupo 1219295" transform="translate(6.945 14.649)">
                <g id="Grupo_1219294" data-name="Grupo 1219294">
                  <rect id="Rectángulo_420811" data-name="Rectángulo 420811" width="12.882" height="1.547" fill="#a16733"/>
                </g>
              </g>
              <path id="Trazado_1089592" data-name="Trazado 1089592" d="M288.9,282.314h26.773v-.1a5.014,5.014,0,0,0-5.165-4.847H294.063a5.013,5.013,0,0,0-5.165,4.847v.1Z" transform="translate(-288.898 -180.102)" fill="#c08329" fill-rule="evenodd"/>
              <line id="Línea_719" data-name="Línea 719" y2="79.685" transform="translate(8.881 17.577)" fill="none" stroke="#2a1510" stroke-linecap="round" stroke-linejoin="round" stroke-miterlimit="10" stroke-width="1"/>
              <line id="Línea_720" data-name="Línea 720" y2="79.685" transform="translate(11.757 17.577)" fill="none" stroke="#2a1510" stroke-linecap="round" stroke-linejoin="round" stroke-miterlimit="10" stroke-width="1"/>
              <line id="Línea_721" data-name="Línea 721" y2="79.685" transform="translate(14.635 17.577)" fill="none" stroke="#2a1510" stroke-linecap="round" stroke-linejoin="round" stroke-miterlimit="10" stroke-width="1"/>
              <line id="Línea_722" data-name="Línea 722" y2="79.685" transform="translate(17.51 17.577)" fill="none" stroke="#2a1510" stroke-linecap="round" stroke-linejoin="round" stroke-miterlimit="10" stroke-width="1"/>
            </g>
            <g id="Grupo_1219299" data-name="Grupo 1219299" transform="translate(241.929 104.106)">
              <path id="Trazado_1089593" data-name="Trazado 1089593" d="M347.172,176.467h19.293c2.058,0,3.741,3.089,3.741,6.867v.006c0,3.777-1.683,6.867-3.741,6.867H347.172c-2.057,0-3.741-3.09-3.741-6.867v-.006C343.43,179.555,345.114,176.467,347.172,176.467Z" transform="translate(-343.43 -175.556)" fill="#c08329" fill-rule="evenodd"/>
              <rect id="Rectángulo_420812" data-name="Rectángulo 420812" width="12.882" height="102.213" transform="translate(6.946)" fill="#c08329"/>
              <g id="Grupo_1219298" data-name="Grupo 1219298" transform="translate(6.946 14.649)">
                <g id="Grupo_1219297" data-name="Grupo 1219297">
                  <rect id="Rectángulo_420813" data-name="Rectángulo 420813" width="12.882" height="1.547" fill="#a16733"/>
                </g>
              </g>
              <path id="Trazado_1089594" data-name="Trazado 1089594" d="M343.431,282.314H370.2v-.1a5.014,5.014,0,0,0-5.165-4.847H348.6a5.014,5.014,0,0,0-5.166,4.847v.1Z" transform="translate(-343.43 -180.102)" fill="#c08329" fill-rule="evenodd"/>
              <line id="Línea_723" data-name="Línea 723" y2="79.685" transform="translate(8.882 17.577)" fill="none" stroke="#2a1510" stroke-linecap="round" stroke-linejoin="round" stroke-miterlimit="10" stroke-width="1"/>
              <line id="Línea_724" data-name="Línea 724" y2="79.685" transform="translate(11.758 17.577)" fill="none" stroke="#2a1510" stroke-linecap="round" stroke-linejoin="round" stroke-miterlimit="10" stroke-width="1"/>
              <line id="Línea_725" data-name="Línea 725" y2="79.685" transform="translate(14.635 17.577)" fill="none" stroke="#2a1510" stroke-linecap="round" stroke-linejoin="round" stroke-miterlimit="10" stroke-width="1"/>
              <line id="Línea_726" data-name="Línea 726" y2="79.685" transform="translate(17.511 17.577)" fill="none" stroke="#2a1510" stroke-linecap="round" stroke-linejoin="round" stroke-miterlimit="10" stroke-width="1"/>
            </g>
            <path id="Trazado_1089595" data-name="Trazado 1089595" d="M125.605,182.781H364.986V167.526H121.1v10.746A4.509,4.509,0,0,0,125.605,182.781Z" transform="translate(-91.484 -71.047)" fill="#a16733" fill-rule="evenodd"/>
            <path id="Trazado_1089596" data-name="Trazado 1089596" d="M122.213,172.255H370.255V147.722H117.837v20.159A4.375,4.375,0,0,0,122.213,172.255Z" transform="translate(-91.337 -70.155)" fill="#c08329" fill-rule="evenodd"/>
            <path id="Trazado_1089597" data-name="Trazado 1089597" d="M114.77,306.935H364.7V282.548H122.139a7.369,7.369,0,0,0-7.369,7.369Z" transform="translate(-91.199 -76.229)" fill="#a16733" fill-rule="evenodd"/>
            <path id="Trazado_1089598" data-name="Trazado 1089598" d="M106.282,321.4H380.77v-22.88H114.037a7.754,7.754,0,0,0-7.754,7.755V321.4Z" transform="translate(-90.817 -76.949)" fill="#c08329" fill-rule="evenodd"/>
            <rect id="Rectángulo_420814" data-name="Rectángulo 420814" width="305.415" height="15.253" transform="translate(0 236.826)" fill="#a16733"/>
            <path id="Trazado_1089599" data-name="Trazado 1089599" d="M370.255,144.089,252.641,74.173h-17.19L117.837,144.089v10.217H370.255Z" transform="translate(-91.337 -66.841)" fill="#a16733" fill-rule="evenodd"/>
            <g id="Grupo_1219300" data-name="Grupo 1219300" transform="translate(21.154)">
              <path id="Trazado_1089600" data-name="Trazado 1089600" d="M243.793,66.5,114.477,143.366a4.578,4.578,0,0,0-2.238,3.934h0a4.577,4.577,0,0,0,6.917,3.934L243.793,77.146l131.554,78.2V144.7Z" transform="translate(-112.239 -66.495)" fill="#c08329" fill-rule="evenodd"/>
            </g>
            <g id="Grupo_1219301" data-name="Grupo 1219301" transform="translate(47.632 18.541)">
              <path id="Trazado_1089601" data-name="Trazado 1089601" d="M350.13,149.867l-210.164-1.494L245.048,85.911l.466.283ZM174.922,138.545l140.228,1L245.039,96.864Z" transform="translate(-139.966 -85.911)" fill="#c08329"/>
            </g>
          </g>
          <g id="Grupo_1219309" data-name="Grupo 1219309" transform="translate(103.915 60.215)">
            <g id="Grupo_1219307" data-name="Grupo 1219307">
              <g id="Grupo_1219303" data-name="Grupo 1219303">
                <path id="Trazado_1089602" data-name="Trazado 1089602" d="M288.89,123.136H170.883V314.042h151.1V156.233Z" transform="translate(-170.883 -123.136)" fill="#f0e4cc"/>
                <path id="Trazado_1089603" data-name="Trazado 1089603" d="M294.458,156.233h33.1l-33.1-33.1Z" transform="translate(-176.451 -123.136)" fill="#fffdf8"/>
              </g>
              <g id="Grupo_1219306" data-name="Grupo 1219306" transform="translate(15.026 8.213)">
                <g id="Grupo_1219304" data-name="Grupo 1219304" transform="translate(0 13.858)">
                  <path id="Trazado_1089604" data-name="Trazado 1089604" d="M196.377,146.249l-9.759,19.014,4.9-.332,3.145,4.463,9.759-19.015Z" transform="translate(-186.618 -146.249)" fill="#4747b3"/>
                  <path id="Trazado_1089605" data-name="Trazado 1089605" d="M205.641,146.249l9.758,19.014-4.9-.332-3.146,4.463-9.758-19.015Z" transform="translate(-187.112 -146.249)" fill="#4747b3"/>
                </g>
                <g id="Grupo_1219305" data-name="Grupo 1219305" transform="translate(3.406)">
                  <circle id="Elipse_12075" data-name="Elipse 12075" cx="10.737" cy="10.737" r="10.737" fill="#4b4bbd"/>
                  <path id="Trazado_1089606" data-name="Trazado 1089606" d="M210.257,142.565l-2.851,2.085,1.081,3.362-3.532.009-1.1,3.358-2.863-2.071-2.864,2.071-1.1-3.359-3.532-.009,1.081-3.362-2.851-2.084,2.851-2.085-1.082-3.362,3.533-.009,1.1-3.358,2.864,2.071,2.864-2.071,1.1,3.358,3.533.009-1.082,3.362Z" transform="translate(-190.254 -131.828)" fill="#d13a3a"/>
                </g>
              </g>
            </g>
            <g id="Grupo_1219308" data-name="Grupo 1219308" transform="translate(12.115 53.268)">
              <line id="Línea_727" data-name="Línea 727" x2="126.874" fill="none" stroke="#2a1510" stroke-linecap="round" stroke-linejoin="round" stroke-miterlimit="10" stroke-width="1"/>
              <line id="Línea_728" data-name="Línea 728" x2="126.874" transform="translate(0 4.953)" fill="none" stroke="#2a1510" stroke-linecap="round" stroke-linejoin="round" stroke-miterlimit="10" stroke-width="1"/>
              <line id="Línea_729" data-name="Línea 729" x2="126.874" transform="translate(0 9.907)" fill="none" stroke="#2a1510" stroke-linecap="round" stroke-linejoin="round" stroke-miterlimit="10" stroke-width="1"/>
              <line id="Línea_730" data-name="Línea 730" x2="126.874" transform="translate(0 14.86)" fill="none" stroke="#2a1510" stroke-linecap="round" stroke-linejoin="round" stroke-miterlimit="10" stroke-width="1"/>
              <line id="Línea_731" data-name="Línea 731" x2="126.874" transform="translate(0 19.813)" fill="none" stroke="#2a1510" stroke-linecap="round" stroke-linejoin="round" stroke-miterlimit="10" stroke-width="1"/>
              <line id="Línea_732" data-name="Línea 732" x2="126.874" transform="translate(0 24.766)" fill="none" stroke="#2a1510" stroke-linecap="round" stroke-linejoin="round" stroke-miterlimit="10" stroke-width="1"/>
              <line id="Línea_733" data-name="Línea 733" x2="126.874" transform="translate(0 29.72)" fill="none" stroke="#2a1510" stroke-linecap="round" stroke-linejoin="round" stroke-miterlimit="10" stroke-width="1"/>
              <line id="Línea_734" data-name="Línea 734" x2="126.874" transform="translate(0 34.673)" fill="none" stroke="#2a1510" stroke-linecap="round" stroke-linejoin="round" stroke-miterlimit="10" stroke-width="1"/>
              <line id="Línea_735" data-name="Línea 735" x2="126.874" transform="translate(0 39.626)" fill="none" stroke="#2a1510" stroke-linecap="round" stroke-linejoin="round" stroke-miterlimit="10" stroke-width="1"/>
              <line id="Línea_736" data-name="Línea 736" x2="126.874" transform="translate(0 44.58)" fill="none" stroke="#2a1510" stroke-linecap="round" stroke-linejoin="round" stroke-miterlimit="10" stroke-width="1"/>
              <line id="Línea_737" data-name="Línea 737" x2="126.874" transform="translate(0 49.534)" fill="none" stroke="#2a1510" stroke-linecap="round" stroke-linejoin="round" stroke-miterlimit="10" stroke-width="1"/>
              <line id="Línea_738" data-name="Línea 738" x2="126.874" transform="translate(0 54.487)" fill="none" stroke="#2a1510" stroke-linecap="round" stroke-linejoin="round" stroke-miterlimit="10" stroke-width="1"/>
              <line id="Línea_739" data-name="Línea 739" x2="126.874" transform="translate(0 59.441)" fill="none" stroke="#2a1510" stroke-linecap="round" stroke-linejoin="round" stroke-miterlimit="10" stroke-width="1"/>
              <line id="Línea_740" data-name="Línea 740" x2="126.874" transform="translate(0 64.394)" fill="none" stroke="#2a1510" stroke-linecap="round" stroke-linejoin="round" stroke-miterlimit="10" stroke-width="1"/>
              <line id="Línea_741" data-name="Línea 741" x2="126.874" transform="translate(0 69.347)" fill="none" stroke="#2a1510" stroke-linecap="round" stroke-linejoin="round" stroke-miterlimit="10" stroke-width="1"/>
              <line id="Línea_742" data-name="Línea 742" x2="126.874" transform="translate(0 74.3)" fill="none" stroke="#2a1510" stroke-linecap="round" stroke-linejoin="round" stroke-miterlimit="10" stroke-width="1"/>
              <line id="Línea_743" data-name="Línea 743" x2="126.874" transform="translate(0 79.254)" fill="none" stroke="#2a1510" stroke-linecap="round" stroke-linejoin="round" stroke-miterlimit="10" stroke-width="1"/>
              <line id="Línea_744" data-name="Línea 744" x2="126.874" transform="translate(0 84.207)" fill="none" stroke="#2a1510" stroke-linecap="round" stroke-linejoin="round" stroke-miterlimit="10" stroke-width="1"/>
              <line id="Línea_745" data-name="Línea 745" x2="126.874" transform="translate(0 89.16)" fill="none" stroke="#2a1510" stroke-linecap="round" stroke-linejoin="round" stroke-miterlimit="10" stroke-width="1"/>
              <line id="Línea_746" data-name="Línea 746" x2="126.874" transform="translate(0 94.114)" fill="none" stroke="#2a1510" stroke-linecap="round" stroke-linejoin="round" stroke-miterlimit="10" stroke-width="1"/>
              <line id="Línea_747" data-name="Línea 747" x2="126.874" transform="translate(0 99.067)" fill="none" stroke="#2a1510" stroke-linecap="round" stroke-linejoin="round" stroke-miterlimit="10" stroke-width="1"/>
              <line id="Línea_748" data-name="Línea 748" x2="126.874" transform="translate(0 104.02)" fill="none" stroke="#2a1510" stroke-linecap="round" stroke-linejoin="round" stroke-miterlimit="10" stroke-width="1"/>
            </g>
          </g>
          <g id="Grupo_1219316" data-name="Grupo 1219316" transform="translate(0)">
            <g id="Grupo_1219312" data-name="Grupo 1219312">
              <g id="Grupo_1219310" data-name="Grupo 1219310" transform="translate(8.399 153.083)" opacity="0.5">
                <path id="Trazado_1089607" data-name="Trazado 1089607" d="M237.521,319.109a120.33,120.33,0,0,1-22.639,5.807,128.578,128.578,0,0,1-23.389,1.384,123.068,123.068,0,0,1-84.128-36.693,128.714,128.714,0,0,1-14.9-18.085,120.354,120.354,0,0,1-11.143-20.545,129.71,129.71,0,0,0,156.2,68.131Z" transform="translate(-71.332 -237.043)" fill="#6c301e"/>
                <path id="Trazado_1089608" data-name="Trazado 1089608" d="M89.05,265.085a20.389,20.389,0,0,1-13.241-23.729c.755,1.814,1.326,3.744,2.082,5.559a17.115,17.115,0,0,1-.143-10.528q2.331,4.065,4.662,8.13l-.782-5.579C87.994,246.113,90.2,255.562,89.05,265.085Z" transform="translate(-71.062 -236.386)" fill="#c08329"/>
                <path id="Trazado_1089609" data-name="Trazado 1089609" d="M99.408,280.777a20.389,20.389,0,0,1-26.3-6.846c1.833.71,3.622,1.631,5.455,2.341a17.114,17.114,0,0,1-7.7-7.178l9.1,2.256-4.57-3.293C84.974,268.419,93.327,273.358,99.408,280.777Z" transform="translate(-70.861 -237.813)" fill="#c08329"/>
                <path id="Trazado_1089610" data-name="Trazado 1089610" d="M100.137,280.372a20.388,20.388,0,0,1-.348-27.171c-.2,1.956-.616,3.924-.816,5.88a17.111,17.111,0,0,1,4.886-9.327l.229,9.369q.984-2.639,1.967-5.278C108.241,263.185,105.685,272.547,100.137,280.372Z" transform="translate(-71.938 -236.988)" fill="#c08329"/>
                <path id="Trazado_1089611" data-name="Trazado 1089611" d="M114.512,296.171a20.388,20.388,0,0,1-27.147-1.2c1.94.311,3.883.839,5.823,1.15a17.108,17.108,0,0,1-9.033-5.411l9.367.307-5.158-2.266C97.815,287.1,107.015,290.185,114.512,296.171Z" transform="translate(-71.46 -238.725)" fill="#c08329"/>
                <path id="Trazado_1089612" data-name="Trazado 1089612" d="M115.21,295.558a20.389,20.389,0,0,1-6.013-26.5c.213,1.954.217,3.967.43,5.921a17.106,17.106,0,0,1,2.831-10.142l2.18,9.115.822-5.572C119.547,277.057,119,286.745,115.21,295.558Z" transform="translate(-72.473 -237.668)" fill="#c08329"/>
                <path id="Trazado_1089613" data-name="Trazado 1089613" d="M131.688,309.416a20.389,20.389,0,0,1-26.99,3.158c1.965,0,3.967.206,5.932.2a17.109,17.109,0,0,1-9.782-3.9l9.3-1.2-5.454-1.41C113.754,303.135,123.329,304.708,131.688,309.416Z" transform="translate(-72.212 -239.461)" fill="#c08329"/>
                <path id="Trazado_1089614" data-name="Trazado 1089614" d="M132.306,308.708a20.391,20.391,0,0,1-10.179-25.2c.523,1.895.849,3.881,1.372,5.775a17.108,17.108,0,0,1,1.171-10.464q1.806,4.324,3.612,8.648-.04-2.816-.081-5.632C133.624,289.752,134.639,299.4,132.306,308.708Z" transform="translate(-73.117 -238.298)" fill="#c08329"/>
                <path id="Trazado_1089615" data-name="Trazado 1089615" d="M150.821,319.072a20.39,20.39,0,0,1-26.28,6.913c1.945-.279,3.957-.351,5.9-.631a17.114,17.114,0,0,1-10.232-2.484l9.036-2.49-5.6-.632C132.184,315.368,141.885,315.582,150.821,319.072Z" transform="translate(-73.084 -239.994)" fill="#c08329"/>
                <path id="Trazado_1089616" data-name="Trazado 1089616" d="M151.331,318.333a20.388,20.388,0,0,1-13.612-23.518c.783,1.8,1.385,3.723,2.169,5.525a17.119,17.119,0,0,1-.308-10.525l4.789,8.056q-.435-2.783-.87-5.565C149.977,299.381,152.335,308.794,151.331,318.333Z" transform="translate(-73.855 -238.793)" fill="#c08329"/>
                <path id="Trazado_1089617" data-name="Trazado 1089617" d="M170.327,324.565a20.39,20.39,0,0,1-24.472,11.812c1.856-.646,3.816-1.1,5.672-1.748a17.115,17.115,0,0,1-10.519-.481l8.393-4.171-5.615.451C151.325,324.494,160.889,322.849,170.327,324.565Z" transform="translate(-74.021 -240.33)" fill="#c08329"/>
                <path id="Trazado_1089618" data-name="Trazado 1089618" d="M170.634,323.868a20.389,20.389,0,0,1-17.859-20.481c1.113,1.62,2.071,3.389,3.186,5.009a17.114,17.114,0,0,1-2.316-10.272l6.242,6.992-1.918-5.3C165.68,305.523,169.795,314.312,170.634,323.868Z" transform="translate(-74.552 -239.168)" fill="#c08329"/>
                <path id="Trazado_1089619" data-name="Trazado 1089619" d="M188.47,328.054a20.39,20.39,0,0,1-23.2,14.153c1.784-.825,3.69-1.471,5.474-2.3a17.109,17.109,0,0,1-10.515.552l7.943-4.974-5.543,1C169.553,329.846,178.909,327.271,188.47,328.054Z" transform="translate(-74.888 -240.51)" fill="#c08329"/>
                <path id="Trazado_1089620" data-name="Trazado 1089620" d="M188.656,327.416a20.39,20.39,0,0,1-19.781-18.632c1.267,1.5,2.394,3.17,3.661,4.673a17.107,17.107,0,0,1-3.312-10l6.9,6.347-2.428-5.083C181.927,309.645,186.883,317.989,188.656,327.416Z" transform="translate(-75.277 -239.408)" fill="#c08329"/>
                <path id="Trazado_1089621" data-name="Trazado 1089621" d="M206.44,328.648a18.727,18.727,0,0,1-19.416,15.684c1.525-.966,3.183-1.784,4.708-2.75a15.718,15.718,0,0,1-9.508,1.77l6.633-5.487-4.928,1.578C189.432,332.56,197.641,329.087,206.44,328.648Z" transform="translate(-75.878 -240.543)" fill="#c08329"/>
                <path id="Trazado_1089622" data-name="Trazado 1089622" d="M206.421,328.194a18.728,18.728,0,0,1-20.257-14.582c1.335,1.216,2.562,2.6,3.9,3.813a15.715,15.715,0,0,1-4.22-8.7l7.045,4.948-2.824-4.335C198.152,312.824,203.671,319.823,206.421,328.194Z" transform="translate(-76.041 -239.645)" fill="#c08329"/>
                <path id="Trazado_1089623" data-name="Trazado 1089623" d="M221.845,327.16a15.627,15.627,0,0,1-14.322,15.12c1.155-.968,2.434-1.828,3.589-2.8A13.112,13.112,0,0,1,203.444,342l4.879-5.272-3.9,1.85C208.211,332.278,214.616,328.5,221.845,327.16Z" transform="translate(-76.835 -240.476)" fill="#c08329"/>
                <path id="Trazado_1089624" data-name="Trazado 1089624" d="M221.63,326.938a15.627,15.627,0,0,1-18.367-9.817c1.239.858,2.406,1.865,3.645,2.723a13.121,13.121,0,0,1-4.454-6.73l6.374,3.312-2.815-3.273C213.09,315.14,218.429,320.319,221.63,326.938Z" transform="translate(-76.79 -239.843)" fill="#c08329"/>
              </g>
              <g id="Grupo_1219311" data-name="Grupo 1219311" opacity="0.5">
                <path id="Trazado_1089625" data-name="Trazado 1089625" d="M77.412,218.451a120.3,120.3,0,0,1-2.692-23.217,128.6,128.6,0,0,1,1.792-23.362,123.072,123.072,0,0,1,47.734-78.393A128.7,128.7,0,0,1,144.18,81.164,120.269,120.269,0,0,1,166.044,72.9,129.721,129.721,0,0,0,77.412,218.451Z" transform="translate(-62.635 -60.658)" fill="#6c301e"/>
                <path id="Trazado_1089626" data-name="Trazado 1089626" d="M153.9,78.582a20.39,20.39,0,0,1,25.3-9.909c-1.9.5-3.889.808-5.79,1.31a17.108,17.108,0,0,1,10.451,1.282l-8.686,3.519,5.633-.021C172.841,80.1,163.18,81.013,153.9,78.582Z" transform="translate(-66.203 -60.41)" fill="#c08329"/>
                <path id="Trazado_1089627" data-name="Trazado 1089627" d="M137.55,86.785a20.389,20.389,0,0,1,10.34-25.13c-.951,1.72-2.107,3.368-3.057,5.088a17.113,17.113,0,0,1,8.153-6.663q-1.733,4.355-3.465,8.708L153.4,64.7C151.747,74.155,145.723,81.764,137.55,86.785Z" transform="translate(-65.415 -60.08)" fill="#c08329"/>
                <path id="Trazado_1089628" data-name="Trazado 1089628" d="M137.217,87.452a20.389,20.389,0,0,1,26.969,3.33c-1.91-.462-3.8-1.141-5.715-1.6a17.108,17.108,0,0,1,8.58,6.1l-9.315-1.041L162.7,96.9C153.15,97.805,144.221,94.007,137.217,87.452Z" transform="translate(-65.451 -61.15)" fill="#c08329"/>
                <path id="Trazado_1089629" data-name="Trazado 1089629" d="M120.383,99.659a20.388,20.388,0,0,1,4.864-26.735c-.571,1.881-1.357,3.734-1.927,5.614A17.109,17.109,0,0,1,129.9,70.32q-.785,4.62-1.571,9.24l2.942-4.8C131.629,84.342,127.327,93.041,120.383,99.659Z" transform="translate(-64.558 -60.541)" fill="#c08329"/>
                <path id="Trazado_1089630" data-name="Trazado 1089630" d="M120.109,100.35a20.388,20.388,0,0,1,27.07-2.374c-1.964-.053-3.959-.322-5.924-.375a17.118,17.118,0,0,1,9.666,4.177l-9.326.927,5.41,1.568C137.853,107.148,128.326,105.3,120.109,100.35Z" transform="translate(-64.68 -61.605)" fill="#c08329"/>
                <path id="Trazado_1089631" data-name="Trazado 1089631" d="M104.987,114.874a20.389,20.389,0,0,1,.52-27.169c-.263,1.948-.741,3.9-1,5.85a17.108,17.108,0,0,1,5.182-9.167q-.036,4.685-.071,9.372l2.135-5.212C113.635,97.955,110.782,107.229,104.987,114.874Z" transform="translate(-63.777 -61.175)" fill="#c08329"/>
                <path id="Trazado_1089632" data-name="Trazado 1089632" d="M104.788,115.526a20.39,20.39,0,0,1,26.34-6.678c-1.948.262-3.96.317-5.907.579A17.107,17.107,0,0,1,135.43,112l-9.058,2.408,5.591.682C123.391,119.4,113.692,119.1,104.788,115.526Z" transform="translate(-63.99 -62.174)" fill="#c08329"/>
                <path id="Trazado_1089633" data-name="Trazado 1089633" d="M92.839,132.512a20.39,20.39,0,0,1-3.3-26.974c.013,1.965-.186,3.968-.173,5.933a17.1,17.1,0,0,1,3.846-9.8q.623,4.645,1.244,9.29.692-2.73,1.383-5.46C99.029,114.547,97.505,124.13,92.839,132.512Z" transform="translate(-63.139 -61.954)" fill="#c08329"/>
                <path id="Trazado_1089634" data-name="Trazado 1089634" d="M92.724,133.091a20.39,20.39,0,0,1,25.144-10.307c-1.892.533-3.876.869-5.768,1.4a17.11,17.11,0,0,1,10.47,1.118l-8.63,3.656,5.632-.11C111.686,134.314,102.041,135.376,92.724,133.091Z" transform="translate(-63.447 -62.853)" fill="#c08329"/>
                <path id="Trazado_1089635" data-name="Trazado 1089635" d="M84.71,151.071a20.391,20.391,0,0,1-8.393-25.846c.39,1.927.576,3.931.965,5.857a17.108,17.108,0,0,1,1.9-10.356q1.5,4.439,3,8.88.156-2.812.313-5.625C87.349,132.254,87.686,141.953,84.71,151.071Z" transform="translate(-62.63 -62.812)" fill="#c08329"/>
                <path id="Trazado_1089636" data-name="Trazado 1089636" d="M84.735,151.492a20.391,20.391,0,0,1,22.709-14.925c-1.755.884-3.638,1.594-5.394,2.479a17.115,17.115,0,0,1,10.491-.905l-7.771,5.238,5.507-1.184C103.582,149.064,94.317,151.952,84.735,151.492Z" transform="translate(-63.087 -63.516)" fill="#c08329"/>
                <path id="Trazado_1089637" data-name="Trazado 1089637" d="M78.746,168.562a20.39,20.39,0,0,1-10.885-24.9c.576,1.879.959,3.855,1.535,5.734A17.11,17.11,0,0,1,70.27,138.9l3.854,8.543q-.12-2.813-.24-5.628C79.528,149.576,80.815,159.194,78.746,168.562Z" transform="translate(-62.281 -63.631)" fill="#c08329"/>
                <path id="Trazado_1089638" data-name="Trazado 1089638" d="M78.854,168.876A20.39,20.39,0,0,1,99.99,151.8c-1.66,1.052-3.465,1.943-5.124,3a17.11,17.11,0,0,1,10.352-1.929L98,158.839l5.365-1.719C97.371,164.613,88.435,168.4,78.854,168.876Z" transform="translate(-62.822 -64.211)" fill="#c08329"/>
                <path id="Trazado_1089639" data-name="Trazado 1089639" d="M75.7,186.273a18.726,18.726,0,0,1-12.914-21.358c.752,1.642,1.337,3.395,2.088,5.036a15.714,15.714,0,0,1-.468-9.66l4.539,7.314-.9-5.1C74.12,168.891,76.45,177.494,75.7,186.273Z" transform="translate(-62.083 -64.595)" fill="#c08329"/>
                <path id="Trazado_1089640" data-name="Trazado 1089640" d="M75.885,186.392a18.728,18.728,0,0,1,17.187-18.1c-1.385,1.158-2.92,2.187-4.3,3.345a15.714,15.714,0,0,1,9.193-3l-5.855,6.311,4.677-2.212C92.232,180.278,84.551,184.8,75.885,186.392Z" transform="translate(-62.688 -64.955)" fill="#c08329"/>
                <path id="Trazado_1089641" data-name="Trazado 1089641" d="M75.131,201.736A15.628,15.628,0,0,1,62.086,185.5c.8,1.275,1.482,2.66,2.285,3.934a13.117,13.117,0,0,1-1.456-7.937l4.564,5.547q-.653-2.057-1.305-4.115C71.9,187.535,74.783,194.393,75.131,201.736Z" transform="translate(-62.065 -65.55)" fill="#c08329"/>
                <path id="Trazado_1089642" data-name="Trazado 1089642" d="M75.342,201.648a15.626,15.626,0,0,1,12.211-16.871c-1.017,1.112-2.173,2.131-3.19,3.243a13.112,13.112,0,0,1,7.271-3.5l-4.144,5.867,3.624-2.346C88.186,194.782,82.333,199.371,75.342,201.648Z" transform="translate(-62.66 -65.687)" fill="#c08329"/>
              </g>
            </g>
            <g id="Grupo_1219315" data-name="Grupo 1219315" transform="translate(184.347)">
              <g id="Grupo_1219313" data-name="Grupo 1219313" transform="translate(0 154.993)" opacity="0.59">
                <path id="Trazado_1089643" data-name="Trazado 1089643" d="M255.11,319.109a120.33,120.33,0,0,0,22.639,5.807,128.579,128.579,0,0,0,23.389,1.384,123.068,123.068,0,0,0,84.128-36.693,128.718,128.718,0,0,0,14.9-18.085,120.354,120.354,0,0,0,11.143-20.545,129.71,129.71,0,0,1-156.2,68.131Z" transform="translate(-255.11 -237.043)" fill="#6c301e"/>
                <path id="Trazado_1089644" data-name="Trazado 1089644" d="M410.289,265.085a20.389,20.389,0,0,0,13.241-23.729c-.755,1.814-1.326,3.744-2.082,5.559a17.115,17.115,0,0,0,.143-10.528q-2.331,4.065-4.662,8.13l.782-5.579C411.344,246.113,409.136,255.562,410.289,265.085Z" transform="translate(-262.088 -236.386)" fill="#c08329"/>
                <path id="Trazado_1089645" data-name="Trazado 1089645" d="M399.244,280.777a20.389,20.389,0,0,0,26.3-6.846c-1.833.71-3.622,1.631-5.455,2.341a17.113,17.113,0,0,0,7.7-7.178l-9.1,2.256,4.57-3.293C413.679,268.419,405.325,273.358,399.244,280.777Z" transform="translate(-261.604 -237.813)" fill="#c08329"/>
                <path id="Trazado_1089646" data-name="Trazado 1089646" d="M399.294,280.372a20.388,20.388,0,0,0,.348-27.171c.2,1.956.616,3.924.816,5.88a17.111,17.111,0,0,0-4.886-9.327q-.115,4.685-.229,9.369-.984-2.639-1.967-5.278C391.19,263.185,393.746,272.547,399.294,280.372Z" transform="translate(-261.304 -236.988)" fill="#c08329"/>
                <path id="Trazado_1089647" data-name="Trazado 1089647" d="M384.056,296.171a20.388,20.388,0,0,0,27.147-1.2c-1.94.311-3.883.839-5.823,1.15a17.108,17.108,0,0,0,9.033-5.411l-9.367.307,5.158-2.266C400.752,287.1,391.552,290.185,384.056,296.171Z" transform="translate(-260.92 -238.725)" fill="#c08329"/>
                <path id="Trazado_1089648" data-name="Trazado 1089648" d="M384.24,295.558a20.389,20.389,0,0,0,6.013-26.5c-.213,1.954-.217,3.967-.43,5.921a17.106,17.106,0,0,0-2.831-10.142l-2.18,9.115-.822-5.572C379.9,277.057,380.448,286.745,384.24,295.558Z" transform="translate(-260.789 -237.668)" fill="#c08329"/>
                <path id="Trazado_1089649" data-name="Trazado 1089649" d="M366.857,309.416a20.389,20.389,0,0,0,26.99,3.158c-1.965,0-3.967.206-5.932.2a17.109,17.109,0,0,0,9.782-3.9l-9.3-1.2,5.454-1.41C384.791,303.135,375.216,304.708,366.857,309.416Z" transform="translate(-260.145 -239.461)" fill="#c08329"/>
                <path id="Trazado_1089650" data-name="Trazado 1089650" d="M367.1,308.708a20.391,20.391,0,0,0,10.18-25.2c-.523,1.895-.849,3.881-1.372,5.775a17.108,17.108,0,0,0-1.171-10.464q-1.806,4.324-3.612,8.648.04-2.816.081-5.632C365.784,289.752,364.77,299.4,367.1,308.708Z" transform="translate(-260.103 -238.298)" fill="#c08329"/>
                <path id="Trazado_1089651" data-name="Trazado 1089651" d="M347.734,319.072a20.39,20.39,0,0,0,26.28,6.913c-1.945-.279-3.956-.351-5.9-.631a17.114,17.114,0,0,0,10.232-2.484l-9.036-2.49,5.6-.632C366.372,315.368,356.67,315.582,347.734,319.072Z" transform="translate(-259.283 -239.994)" fill="#c08329"/>
                <path id="Trazado_1089652" data-name="Trazado 1089652" d="M348,318.333a20.388,20.388,0,0,0,13.612-23.518c-.783,1.8-1.385,3.723-2.169,5.525a17.119,17.119,0,0,0,.308-10.525l-4.789,8.056q.435-2.783.87-5.565C349.351,299.381,346.993,308.794,348,318.333Z" transform="translate(-259.285 -238.793)" fill="#c08329"/>
                <path id="Trazado_1089653" data-name="Trazado 1089653" d="M328.29,324.565a20.39,20.39,0,0,0,24.472,11.812c-1.856-.646-3.816-1.1-5.672-1.748a17.116,17.116,0,0,0,10.519-.481l-8.393-4.171,5.615.451C347.292,324.494,337.728,322.849,328.29,324.565Z" transform="translate(-258.407 -240.33)" fill="#c08329"/>
                <path id="Trazado_1089654" data-name="Trazado 1089654" d="M328.523,323.868a20.389,20.389,0,0,0,17.859-20.481c-1.113,1.62-2.071,3.389-3.186,5.009a17.114,17.114,0,0,0,2.316-10.272l-6.242,6.992,1.918-5.3C333.477,305.523,329.362,314.312,328.523,323.868Z" transform="translate(-258.418 -239.168)" fill="#c08329"/>
                <path id="Trazado_1089655" data-name="Trazado 1089655" d="M310.2,328.054a20.39,20.39,0,0,0,23.2,14.153c-1.784-.825-3.69-1.471-5.474-2.3a17.109,17.109,0,0,0,10.515.552l-7.943-4.974,5.543,1C329.114,329.846,319.759,327.271,310.2,328.054Z" transform="translate(-257.592 -240.51)" fill="#c08329"/>
                <path id="Trazado_1089656" data-name="Trazado 1089656" d="M310.411,327.416a20.39,20.39,0,0,0,19.781-18.632c-1.267,1.5-2.394,3.17-3.661,4.673a17.107,17.107,0,0,0,3.312-10l-6.9,6.347,2.428-5.083C317.14,309.645,312.183,317.989,310.411,327.416Z" transform="translate(-257.602 -239.408)" fill="#c08329"/>
                <path id="Trazado_1089657" data-name="Trazado 1089657" d="M292.417,328.648a18.727,18.727,0,0,0,19.416,15.684c-1.525-.966-3.183-1.784-4.708-2.75a15.718,15.718,0,0,0,9.508,1.77L310,337.865l4.928,1.578C309.426,332.56,301.217,329.087,292.417,328.648Z" transform="translate(-256.791 -240.543)" fill="#c08329"/>
                <path id="Trazado_1089658" data-name="Trazado 1089658" d="M292.608,328.194a18.728,18.728,0,0,0,20.257-14.582c-1.335,1.216-2.562,2.6-3.9,3.813a15.715,15.715,0,0,0,4.22-8.7l-7.045,4.948,2.824-4.335C300.877,312.824,295.358,319.823,292.608,328.194Z" transform="translate(-256.799 -239.645)" fill="#c08329"/>
                <path id="Trazado_1089659" data-name="Trazado 1089659" d="M277.286,327.16a15.627,15.627,0,0,0,14.322,15.12c-1.155-.968-2.434-1.828-3.589-2.8A13.113,13.113,0,0,0,295.687,342l-4.879-5.272,3.9,1.85C290.921,332.278,284.516,328.5,277.286,327.16Z" transform="translate(-256.109 -240.476)" fill="#c08329"/>
                <path id="Trazado_1089660" data-name="Trazado 1089660" d="M277.465,326.938a15.627,15.627,0,0,0,18.367-9.817c-1.239.858-2.406,1.865-3.645,2.723a13.121,13.121,0,0,0,4.454-6.73l-6.374,3.312,2.815-3.273C286.005,315.14,280.666,320.319,277.465,326.938Z" transform="translate(-256.117 -239.843)" fill="#c08329"/>
              </g>
              <g id="Grupo_1219314" data-name="Grupo 1219314" transform="translate(56.926)" opacity="0.69">
                <path id="Trazado_1089661" data-name="Trazado 1089661" d="M418.278,218.451a120.305,120.305,0,0,0,2.692-23.217,128.6,128.6,0,0,0-1.792-23.362,123.072,123.072,0,0,0-47.734-78.393A128.7,128.7,0,0,0,351.51,81.164,120.27,120.27,0,0,0,329.647,72.9a129.721,129.721,0,0,1,88.631,145.549Z" transform="translate(-315.394 -60.658)" fill="#6c301e"/>
                <path id="Trazado_1089662" data-name="Trazado 1089662" d="M344.686,78.582a20.39,20.39,0,0,0-25.3-9.909c1.9.5,3.889.808,5.79,1.31a17.108,17.108,0,0,0-10.451,1.282l8.686,3.519-5.633-.021C325.745,80.1,335.406,81.013,344.686,78.582Z" transform="translate(-314.722 -60.41)" fill="#c08329"/>
                <path id="Trazado_1089663" data-name="Trazado 1089663" d="M361.647,86.785a20.389,20.389,0,0,0-10.34-25.13c.951,1.72,2.107,3.368,3.057,5.088a17.113,17.113,0,0,0-8.153-6.663q1.733,4.355,3.465,8.708l-3.88-4.083C347.451,74.155,353.475,81.764,361.647,86.785Z" transform="translate(-316.122 -60.08)" fill="#c08329"/>
                <path id="Trazado_1089664" data-name="Trazado 1089664" d="M361.375,87.452a20.389,20.389,0,0,0-26.969,3.33c1.91-.462,3.8-1.141,5.715-1.6a17.114,17.114,0,0,0-8.581,6.1l9.315-1.041L335.892,96.9C345.442,97.805,354.372,94.007,361.375,87.452Z" transform="translate(-315.48 -61.15)" fill="#c08329"/>
                <path id="Trazado_1089665" data-name="Trazado 1089665" d="M378.961,99.659A20.388,20.388,0,0,0,374.1,72.924c.571,1.881,1.357,3.734,1.927,5.614a17.11,17.11,0,0,0-6.583-8.218q.785,4.62,1.571,9.24l-2.942-4.8C367.715,84.342,372.017,93.041,378.961,99.659Z" transform="translate(-317.125 -60.541)" fill="#c08329"/>
                <path id="Trazado_1089666" data-name="Trazado 1089666" d="M378.437,100.35a20.388,20.388,0,0,0-27.07-2.374c1.964-.053,3.959-.322,5.924-.375a17.119,17.119,0,0,0-9.666,4.177l9.326.927-5.41,1.568C360.693,107.148,370.22,105.3,378.437,100.35Z" transform="translate(-316.204 -61.605)" fill="#c08329"/>
                <path id="Trazado_1089667" data-name="Trazado 1089667" d="M394.434,114.874a20.389,20.389,0,0,0-.52-27.169c.263,1.948.741,3.9,1,5.85a17.114,17.114,0,0,0-5.182-9.167q.036,4.685.071,9.372l-2.135-5.212C385.786,97.955,388.638,107.229,394.434,114.874Z" transform="translate(-317.983 -61.175)" fill="#c08329"/>
                <path id="Trazado_1089668" data-name="Trazado 1089668" d="M393.766,115.526a20.39,20.39,0,0,0-26.34-6.678c1.948.262,3.96.317,5.907.579A17.107,17.107,0,0,0,363.124,112l9.058,2.408-5.591.682C375.163,119.4,384.862,119.1,393.766,115.526Z" transform="translate(-316.903 -62.174)" fill="#c08329"/>
                <path id="Trazado_1089669" data-name="Trazado 1089669" d="M406.612,132.512a20.39,20.39,0,0,0,3.3-26.974c-.013,1.965.186,3.968.173,5.933a17.11,17.11,0,0,0-3.846-9.8q-.623,4.645-1.244,9.29-.692-2.73-1.383-5.46C400.422,114.547,401.946,124.13,406.612,132.512Z" transform="translate(-318.651 -61.954)" fill="#c08329"/>
                <path id="Trazado_1089670" data-name="Trazado 1089670" d="M405.868,133.091a20.39,20.39,0,0,0-25.144-10.307c1.892.533,3.876.869,5.768,1.4a17.109,17.109,0,0,0-10.47,1.118l8.63,3.656-5.632-.11C386.9,134.314,396.55,135.376,405.868,133.091Z" transform="translate(-317.484 -62.853)" fill="#c08329"/>
                <path id="Trazado_1089671" data-name="Trazado 1089671" d="M414.723,151.071a20.391,20.391,0,0,0,8.393-25.846c-.39,1.927-.576,3.931-.965,5.857a17.108,17.108,0,0,0-1.9-10.356q-1.5,4.439-3,8.88-.156-2.812-.313-5.625C412.084,132.254,411.746,141.953,414.723,151.071Z" transform="translate(-319.142 -62.812)" fill="#c08329"/>
                <path id="Trazado_1089672" data-name="Trazado 1089672" d="M413.952,151.492a20.391,20.391,0,0,0-22.709-14.925c1.755.884,3.638,1.594,5.394,2.479a17.115,17.115,0,0,0-10.491-.905l7.771,5.238-5.507-1.184C395.106,149.064,404.371,151.952,413.952,151.492Z" transform="translate(-317.94 -63.516)" fill="#c08329"/>
                <path id="Trazado_1089673" data-name="Trazado 1089673" d="M420.649,168.562a20.39,20.39,0,0,0,10.885-24.9c-.576,1.879-.959,3.855-1.535,5.734a17.11,17.11,0,0,0-.875-10.493l-3.854,8.543q.12-2.813.24-5.628C419.866,149.576,418.581,159.194,420.649,168.562Z" transform="translate(-319.453 -63.631)" fill="#c08329"/>
                <path id="Trazado_1089674" data-name="Trazado 1089674" d="M419.9,168.876A20.39,20.39,0,0,0,398.766,151.8c1.66,1.052,3.465,1.943,5.125,3a17.11,17.11,0,0,0-10.352-1.929l7.22,5.975L395.4,157.12C401.385,164.613,410.321,168.4,419.9,168.876Z" transform="translate(-318.273 -64.211)" fill="#c08329"/>
                <path id="Trazado_1089675" data-name="Trazado 1089675" d="M423.674,186.273a18.726,18.726,0,0,0,12.914-21.358c-.752,1.642-1.337,3.395-2.088,5.036a15.714,15.714,0,0,0,.468-9.66l-4.54,7.314.9-5.1C425.249,168.891,422.919,177.494,423.674,186.273Z" transform="translate(-319.625 -64.595)" fill="#c08329"/>
                <path id="Trazado_1089676" data-name="Trazado 1089676" d="M423.073,186.392a18.728,18.728,0,0,0-17.187-18.1c1.385,1.158,2.92,2.187,4.306,3.345a15.714,15.714,0,0,0-9.193-3l5.855,6.311-4.677-2.212C406.726,180.278,414.407,184.8,423.073,186.392Z" transform="translate(-318.609 -64.955)" fill="#c08329"/>
                <path id="Trazado_1089677" data-name="Trazado 1089677" d="M424.253,201.736A15.628,15.628,0,0,0,437.3,185.5c-.8,1.275-1.482,2.66-2.284,3.934a13.117,13.117,0,0,0,1.456-7.937l-4.564,5.547q.653-2.057,1.305-4.115C427.48,187.535,424.6,194.393,424.253,201.736Z" transform="translate(-319.657 -65.55)" fill="#c08329"/>
                <path id="Trazado_1089678" data-name="Trazado 1089678" d="M423.885,201.648a15.626,15.626,0,0,0-12.211-16.871c1.017,1.112,2.173,2.131,3.19,3.243a13.112,13.112,0,0,0-7.27-3.5l4.143,5.867-3.624-2.346C411.041,194.782,416.894,199.371,423.885,201.648Z" transform="translate(-318.906 -65.687)" fill="#c08329"/>
              </g>
            </g>
          </g>
          <g id="Grupo_1219325" data-name="Grupo 1219325" transform="translate(54.201 52.662)">
            <path id="Trazado_1089679" data-name="Trazado 1089679" d="M262.784,299.621c.984-3.717-2.914-9.014-6.252-8.843q2.189-26.5,4.377-53c.588-7.129-.885-13.292-1.831-20.369,2.574-.394,4.7-3.222,4.7-6.243s-2.569-5.968-5.143-6.352c4.27-1.793,6.4-7.65,6.167-12.925s-2.286-10.17-4.074-15.026A165.8,165.8,0,0,1,250.7,118.914a2.278,2.278,0,0,0-.44-1.364l-1.014-1.383a2.3,2.3,0,0,0-1.857-.941h0a2.3,2.3,0,0,0-1.857.941l-1.014,1.383a2.278,2.278,0,0,0-.44,1.364,165.791,165.791,0,0,1-10.026,57.951c-1.787,4.856-3.837,9.751-4.074,15.026s1.9,11.132,6.167,12.925c-2.575.384-5.139,3.332-5.143,6.352s2.123,5.849,4.7,6.243c-.945,7.077-2.419,13.24-1.831,20.369q2.187,26.5,4.377,53c-3.338-.171-7.237,5.126-6.253,8.843-2.486.782-5.452,5.314-4.14,7.893h39.074C268.235,304.935,265.269,300.4,262.784,299.621Z" transform="translate(-123.721 -115.227)" fill="#6c301e"/>
            <g id="Grupo_1219319" data-name="Grupo 1219319" transform="translate(24.317 8.326)">
              <g id="Grupo_1219317" data-name="Grupo 1219317">
                <path id="Trazado_1089680" data-name="Trazado 1089680" d="M244.957,145.217a284.757,284.757,0,0,1-29.754-2.7c-9.951-1.626-19.947-4.246-29.277-9.146a64.186,64.186,0,0,0-6.539-3.21,12.985,12.985,0,0,0-6.3-1,13.336,13.336,0,0,0-6.051,2.649c-1.948,1.435-3.81,3.27-5.843,5.029a33.823,33.823,0,0,1-3.2,2.485l-.868.529a7.287,7.287,0,0,1-.886.489l-.905.446c-.308.13-.625.238-.938.356a8.326,8.326,0,0,1-3.989.561,6.856,6.856,0,0,1-3.805-1.642,6.973,6.973,0,0,1-2.179-3.988,6.525,6.525,0,0,1,.68-4.552,3.581,3.581,0,0,1,3.462-1.767,3.463,3.463,0,0,1,1.787.7,3.214,3.214,0,0,1,1.133,1.7,2.984,2.984,0,0,0-1.221-1.522,3.149,3.149,0,0,0-1.711-.465,3.2,3.2,0,0,0-2.87,1.808,5.411,5.411,0,0,0-.255,3.787,5.032,5.032,0,0,0,5.069,3.909,6.81,6.81,0,0,0,3.21-.833c.263-.134.527-.255.786-.4l.757-.478a6.174,6.174,0,0,0,.741-.515l.726-.549a32.781,32.781,0,0,0,2.745-2.6c1.783-1.862,3.532-3.96,5.606-5.839a17.459,17.459,0,0,1,7.347-4.128,16.64,16.64,0,0,1,8.244.317,65.048,65.048,0,0,1,7.29,2.644c8.953,3.559,18.471,4.983,28.007,5.471a276.634,276.634,0,0,0,29-.6c3.059-.17,5.655,2.617,5.8,6.223s-2.218,6.67-5.277,6.84C245.307,145.227,245.126,145.226,244.957,145.217Z" transform="translate(-144.287 -123.946)" fill="#6c301e"/>
                <path id="Trazado_1089681" data-name="Trazado 1089681" d="M150.58,130.758a3.968,3.968,0,0,1,1.23,2.066,3.424,3.424,0,0,1-.332,2.458,1.934,1.934,0,0,1-1.886,1.015,2.149,2.149,0,0,1-1.569-2.2,2.084,2.084,0,0,1,1.706-2.059,1.307,1.307,0,0,1,.944.294,1.325,1.325,0,0,1,.455,1,3.37,3.37,0,0,0-2.9-3.089A2.468,2.468,0,0,1,150.58,130.758Z" transform="translate(-144.455 -124.225)" fill="#6c301e"/>
              </g>
              <g id="Grupo_1219318" data-name="Grupo 1219318" transform="translate(92.95)">
                <path id="Trazado_1089682" data-name="Trazado 1089682" d="M247.428,145.217a284.757,284.757,0,0,0,29.754-2.7c9.951-1.626,19.947-4.246,29.277-9.146a64.1,64.1,0,0,1,6.539-3.21,12.985,12.985,0,0,1,6.3-1,13.336,13.336,0,0,1,6.051,2.649c1.948,1.435,3.81,3.27,5.843,5.029a34.064,34.064,0,0,0,3.2,2.485l.868.529a7.145,7.145,0,0,0,.886.489l.905.446c.308.13.625.238.937.356a8.325,8.325,0,0,0,3.989.561,6.853,6.853,0,0,0,3.805-1.642,6.974,6.974,0,0,0,2.179-3.988,6.525,6.525,0,0,0-.68-4.552,3.581,3.581,0,0,0-3.462-1.767,3.463,3.463,0,0,0-1.787.7,3.213,3.213,0,0,0-1.133,1.7,2.984,2.984,0,0,1,1.221-1.522,3.149,3.149,0,0,1,1.711-.465,3.2,3.2,0,0,1,2.87,1.808,5.411,5.411,0,0,1,.255,3.787,5.032,5.032,0,0,1-5.069,3.909,6.81,6.81,0,0,1-3.21-.833c-.263-.134-.527-.255-.786-.4l-.757-.478a6.176,6.176,0,0,1-.741-.515l-.726-.549a32.781,32.781,0,0,1-2.745-2.6c-1.783-1.862-3.532-3.96-5.606-5.839a17.46,17.46,0,0,0-7.347-4.128,16.64,16.64,0,0,0-8.244.317,65.047,65.047,0,0,0-7.29,2.644c-8.953,3.559-18.471,4.983-28.007,5.471a276.634,276.634,0,0,1-29-.6c-3.059-.17-5.655,2.617-5.8,6.223s2.218,6.67,5.277,6.84C247.078,145.227,247.258,145.226,247.428,145.217Z" transform="translate(-241.622 -123.946)" fill="#6c301e"/>
                <path id="Trazado_1089683" data-name="Trazado 1089683" d="M346.645,130.758a3.968,3.968,0,0,0-1.23,2.066,3.424,3.424,0,0,0,.332,2.458,1.934,1.934,0,0,0,1.886,1.015,2.15,2.15,0,0,0,1.569-2.2,2.084,2.084,0,0,0-1.706-2.059,1.307,1.307,0,0,0-.944.294,1.329,1.329,0,0,0-.455,1,3.37,3.37,0,0,1,2.9-3.089A2.469,2.469,0,0,0,346.645,130.758Z" transform="translate(-246.295 -124.225)" fill="#6c301e"/>
              </g>
            </g>
            <g id="Grupo_1219320" data-name="Grupo 1219320" transform="translate(108.927 7.553)">
              <circle id="Elipse_12076" data-name="Elipse 12076" cx="14.739" cy="14.739" r="14.739" fill="#6c301e"/>
              <circle id="Elipse_12077" data-name="Elipse 12077" cx="8.478" cy="8.478" r="8.478" transform="translate(6.261 6.261)" fill="#fbcc34"/>
            </g>
            <path id="Trazado_1089684" data-name="Trazado 1089684" d="M230.929,201.07a12.313,12.313,0,0,0,4.372,6.589,9.294,9.294,0,0,0,6.944,1.776" transform="translate(-123.874 -119.095)" fill="none" stroke="#2a1510" stroke-linecap="round" stroke-linejoin="round" stroke-miterlimit="10" stroke-width="1"/>
            <line id="Línea_749" data-name="Línea 749" x2="19.98" transform="translate(111.514 101.731)" fill="none" stroke="#2a1510" stroke-linecap="round" stroke-linejoin="round" stroke-miterlimit="10" stroke-width="1"/>
            <line id="Línea_750" data-name="Línea 750" x2="25.306" transform="translate(108.559 184.853)" fill="none" stroke="#2a1510" stroke-linecap="round" stroke-linejoin="round" stroke-miterlimit="10" stroke-width="1"/>
            <line id="Línea_751" data-name="Línea 751" x2="10.923" transform="translate(114.655 175.432)" fill="none" stroke="#2a1510" stroke-linecap="round" stroke-linejoin="round" stroke-miterlimit="10" stroke-width="1"/>
            <path id="Trazado_1089685" data-name="Trazado 1089685" d="M247.628,152.614a14.739,14.739,0,1,1,0-29.477" transform="translate(-123.962 -115.583)" fill="none" stroke="#2a1510" stroke-linecap="round" stroke-linejoin="round" stroke-miterlimit="10" stroke-width="1"/>
            <g id="Grupo_1219322" data-name="Grupo 1219322" transform="translate(0 23.392)">
              <line id="Línea_752" data-name="Línea 752" y2="66.185" transform="translate(31.763)" fill="none" stroke="#2a1510" stroke-linecap="round" stroke-linejoin="round" stroke-miterlimit="10" stroke-width="1"/>
              <g id="Grupo_1219321" data-name="Grupo 1219321">
                <path id="Trazado_1089686" data-name="Trazado 1089686" d="M150.751,139.723l-28.278,68.663h56.556Z" transform="translate(-118.987 -139.723)" fill="none" stroke="#2a1510" stroke-linecap="round" stroke-linejoin="round" stroke-miterlimit="10" stroke-width="1"/>
                <path id="Trazado_1089687" data-name="Trazado 1089687" d="M118.823,209.031c1.291,11.714,15,13.293,31.763,13.293s30.471-1.579,31.763-13.293Z" transform="translate(-118.823 -142.846)" fill="#e3ae00"/>
                <path id="Trazado_1089688" data-name="Trazado 1089688" d="M126.8,209.8c.982,6.608,11.407,7.5,24.15,7.5s23.168-.89,24.15-7.5Z" transform="translate(-119.182 -142.881)" fill="#fbcc34"/>
              </g>
            </g>
            <g id="Grupo_1219324" data-name="Grupo 1219324" transform="translate(187.007 23.392)">
              <line id="Línea_753" data-name="Línea 753" y2="66.185" transform="translate(31.763)" fill="none" stroke="#2a1510" stroke-linecap="round" stroke-linejoin="round" stroke-miterlimit="10" stroke-width="1"/>
              <g id="Grupo_1219323" data-name="Grupo 1219323">
                <path id="Trazado_1089689" data-name="Trazado 1089689" d="M346.581,139.723,318.3,208.386h56.557Z" transform="translate(-314.817 -139.723)" fill="none" stroke="#2a1510" stroke-linecap="round" stroke-linejoin="round" stroke-miterlimit="10" stroke-width="1"/>
                <path id="Trazado_1089690" data-name="Trazado 1089690" d="M314.653,209.031c1.291,11.714,15,13.293,31.763,13.293s30.471-1.579,31.763-13.293Z" transform="translate(-314.653 -142.846)" fill="#e3ae00"/>
                <path id="Trazado_1089691" data-name="Trazado 1089691" d="M322.626,209.8c.982,6.608,11.407,7.5,24.15,7.5s23.168-.89,24.15-7.5Z" transform="translate(-315.012 -142.881)" fill="#fbcc34"/>
              </g>
            </g>
          </g>
        </g>
      </g>
    </g>
  </g>
</svg>
