<svg xmlns="http://www.w3.org/2000/svg" xmlns:xlink="http://www.w3.org/1999/xlink" width="479.8" height="411.043" viewBox="0 0 479.8 411.043">
  <defs>
    <clipPath id="clip-path">
      <rect id="Rectángulo_420588" data-name="Rectángulo 420588" width="321.887" height="321.893"/>
    </clipPath>
    <clipPath id="clip-path-2">
      <rect id="Rectángulo_420589" data-name="Rectángulo 420589" width="307.039" height="307.045"/>
    </clipPath>
    <linearGradient id="linear-gradient" x1="0.519" y1="0.206" x2="0.496" y2="0.935" gradientUnits="objectBoundingBox">
      <stop offset="0.047" stop-color="#f28d67" stop-opacity="0"/>
      <stop offset="0.682" stop-color="#f28d67"/>
      <stop offset="1" stop-color="#f26f3d"/>
    </linearGradient>
  </defs>
  <g id="Grupo_1219813" data-name="Grupo 1219813" transform="translate(-560.1 -5366.081)">
    <g id="Grupo_1218175" data-name="Grupo 1218175" transform="translate(639.057 5469.72)">
      <g id="Grupo_1218164" data-name="Grupo 1218164" transform="translate(0 -14.848)" clip-path="url(#clip-path)">
        <g id="Grupo_1218149" data-name="Grupo 1218149" transform="translate(30.655 164.526)">
          <path id="Trazado_1086914" data-name="Trazado 1086914" d="M51.71,257.107H72.819c2.252,0,4.092,3.38,4.092,7.513v.006c0,4.132-1.841,7.513-4.092,7.513H51.71c-2.251,0-4.092-3.38-4.092-7.513v-.006C47.617,260.487,49.459,257.107,51.71,257.107Z" transform="translate(-47.618 -256.111)" fill="#c08329" fill-rule="evenodd"/>
          <rect id="Rectángulo_420577" data-name="Rectángulo 420577" width="14.094" height="111.831" transform="translate(7.599)" fill="#c08329"/>
          <g id="Grupo_1218148" data-name="Grupo 1218148" transform="translate(7.599 16.027)">
            <g id="Grupo_1218147" data-name="Grupo 1218147">
              <rect id="Rectángulo_420578" data-name="Rectángulo 420578" width="14.094" height="1.692" fill="#a16733"/>
            </g>
          </g>
          <path id="Trazado_1086915" data-name="Trazado 1086915" d="M47.618,426.274H76.911v-.114a5.486,5.486,0,0,0-5.652-5.3H53.27a5.485,5.485,0,0,0-5.652,5.3Z" transform="translate(-47.618 -314.443)" fill="#c08329" fill-rule="evenodd"/>
          <line id="Línea_682" data-name="Línea 682" y2="87.184" transform="translate(9.717 19.23)" fill="none" stroke="#2a1510" stroke-linecap="round" stroke-linejoin="round" stroke-miterlimit="10" stroke-width="1"/>
          <line id="Línea_683" data-name="Línea 683" y2="87.184" transform="translate(12.865 19.23)" fill="none" stroke="#2a1510" stroke-linecap="round" stroke-linejoin="round" stroke-miterlimit="10" stroke-width="1"/>
          <line id="Línea_684" data-name="Línea 684" y2="87.184" transform="translate(16.011 19.23)" fill="none" stroke="#2a1510" stroke-linecap="round" stroke-linejoin="round" stroke-miterlimit="10" stroke-width="1"/>
          <line id="Línea_685" data-name="Línea 685" y2="87.184" transform="translate(19.158 19.23)" fill="none" stroke="#2a1510" stroke-linecap="round" stroke-linejoin="round" stroke-miterlimit="10" stroke-width="1"/>
        </g>
        <g id="Grupo_1218152" data-name="Grupo 1218152" transform="translate(87.631 164.526)">
          <path id="Trazado_1086916" data-name="Trazado 1086916" d="M140.213,257.107h21.108c2.252,0,4.092,3.38,4.092,7.513v.006c0,4.132-1.841,7.513-4.092,7.513H140.213c-2.251,0-4.092-3.38-4.092-7.513v-.006C136.121,260.487,137.963,257.107,140.213,257.107Z" transform="translate(-136.121 -256.111)" fill="#c08329" fill-rule="evenodd"/>
          <rect id="Rectángulo_420579" data-name="Rectángulo 420579" width="14.094" height="111.831" transform="translate(7.6)" fill="#c08329"/>
          <g id="Grupo_1218151" data-name="Grupo 1218151" transform="translate(7.6 16.027)">
            <g id="Grupo_1218150" data-name="Grupo 1218150">
              <rect id="Rectángulo_420580" data-name="Rectángulo 420580" width="14.094" height="1.692" fill="#a16733"/>
            </g>
          </g>
          <path id="Trazado_1086917" data-name="Trazado 1086917" d="M136.122,426.274h29.293v-.114a5.486,5.486,0,0,0-5.652-5.3H141.774a5.485,5.485,0,0,0-5.652,5.3v.114Z" transform="translate(-136.121 -314.443)" fill="#c08329" fill-rule="evenodd"/>
          <line id="Línea_686" data-name="Línea 686" y2="87.184" transform="translate(9.718 19.23)" fill="none" stroke="#2a1510" stroke-linecap="round" stroke-linejoin="round" stroke-miterlimit="10" stroke-width="1"/>
          <line id="Línea_687" data-name="Línea 687" y2="87.184" transform="translate(12.865 19.23)" fill="none" stroke="#2a1510" stroke-linecap="round" stroke-linejoin="round" stroke-miterlimit="10" stroke-width="1"/>
          <line id="Línea_688" data-name="Línea 688" y2="87.184" transform="translate(16.011 19.23)" fill="none" stroke="#2a1510" stroke-linecap="round" stroke-linejoin="round" stroke-miterlimit="10" stroke-width="1"/>
          <line id="Línea_689" data-name="Línea 689" y2="87.184" transform="translate(19.159 19.23)" fill="none" stroke="#2a1510" stroke-linecap="round" stroke-linejoin="round" stroke-miterlimit="10" stroke-width="1"/>
        </g>
        <g id="Grupo_1218155" data-name="Grupo 1218155" transform="translate(144.608 164.526)">
          <path id="Trazado_1086918" data-name="Trazado 1086918" d="M228.717,257.107h21.108c2.252,0,4.092,3.38,4.092,7.513v.006c0,4.132-1.841,7.513-4.092,7.513H228.717c-2.251,0-4.092-3.38-4.092-7.513v-.006C224.625,260.487,226.466,257.107,228.717,257.107Z" transform="translate(-224.625 -256.111)" fill="#c08329" fill-rule="evenodd"/>
          <rect id="Rectángulo_420581" data-name="Rectángulo 420581" width="14.094" height="111.831" transform="translate(7.599)" fill="#c08329"/>
          <g id="Grupo_1218154" data-name="Grupo 1218154" transform="translate(7.599 16.027)">
            <g id="Grupo_1218153" data-name="Grupo 1218153">
              <rect id="Rectángulo_420582" data-name="Rectángulo 420582" width="14.094" height="1.692" fill="#a16733"/>
            </g>
          </g>
          <path id="Trazado_1086919" data-name="Trazado 1086919" d="M224.625,426.274h29.293v-.114a5.486,5.486,0,0,0-5.652-5.3H230.277a5.485,5.485,0,0,0-5.652,5.3v.114Z" transform="translate(-224.625 -314.443)" fill="#c08329" fill-rule="evenodd"/>
          <line id="Línea_690" data-name="Línea 690" y2="87.184" transform="translate(9.718 19.23)" fill="none" stroke="#2a1510" stroke-linecap="round" stroke-linejoin="round" stroke-miterlimit="10" stroke-width="1"/>
          <line id="Línea_691" data-name="Línea 691" y2="87.184" transform="translate(12.865 19.23)" fill="none" stroke="#2a1510" stroke-linecap="round" stroke-linejoin="round" stroke-miterlimit="10" stroke-width="1"/>
          <line id="Línea_692" data-name="Línea 692" y2="87.184" transform="translate(16.011 19.23)" fill="none" stroke="#2a1510" stroke-linecap="round" stroke-linejoin="round" stroke-miterlimit="10" stroke-width="1"/>
          <line id="Línea_693" data-name="Línea 693" y2="87.184" transform="translate(19.158 19.23)" fill="none" stroke="#2a1510" stroke-linecap="round" stroke-linejoin="round" stroke-miterlimit="10" stroke-width="1"/>
        </g>
        <g id="Grupo_1218158" data-name="Grupo 1218158" transform="translate(201.584 164.526)">
          <path id="Trazado_1086920" data-name="Trazado 1086920" d="M317.221,257.107h21.108c2.252,0,4.092,3.38,4.092,7.513v.006c0,4.132-1.841,7.513-4.092,7.513H317.221c-2.251,0-4.092-3.38-4.092-7.513v-.006C313.128,260.487,314.97,257.107,317.221,257.107Z" transform="translate(-313.129 -256.111)" fill="#c08329" fill-rule="evenodd"/>
          <rect id="Rectángulo_420583" data-name="Rectángulo 420583" width="14.094" height="111.831" transform="translate(7.599)" fill="#c08329"/>
          <g id="Grupo_1218157" data-name="Grupo 1218157" transform="translate(7.599 16.027)">
            <g id="Grupo_1218156" data-name="Grupo 1218156">
              <rect id="Rectángulo_420584" data-name="Rectángulo 420584" width="14.094" height="1.692" fill="#a16733"/>
            </g>
          </g>
          <path id="Trazado_1086921" data-name="Trazado 1086921" d="M313.129,426.274h29.293v-.114a5.486,5.486,0,0,0-5.652-5.3H318.781a5.485,5.485,0,0,0-5.652,5.3v.114Z" transform="translate(-313.129 -314.443)" fill="#c08329" fill-rule="evenodd"/>
          <line id="Línea_694" data-name="Línea 694" y2="87.184" transform="translate(9.717 19.23)" fill="none" stroke="#2a1510" stroke-linecap="round" stroke-linejoin="round" stroke-miterlimit="10" stroke-width="1"/>
          <line id="Línea_695" data-name="Línea 695" y2="87.184" transform="translate(12.864 19.23)" fill="none" stroke="#2a1510" stroke-linecap="round" stroke-linejoin="round" stroke-miterlimit="10" stroke-width="1"/>
          <line id="Línea_696" data-name="Línea 696" y2="87.184" transform="translate(16.011 19.23)" fill="none" stroke="#2a1510" stroke-linecap="round" stroke-linejoin="round" stroke-miterlimit="10" stroke-width="1"/>
          <line id="Línea_697" data-name="Línea 697" y2="87.184" transform="translate(19.158 19.23)" fill="none" stroke="#2a1510" stroke-linecap="round" stroke-linejoin="round" stroke-miterlimit="10" stroke-width="1"/>
        </g>
        <g id="Grupo_1218161" data-name="Grupo 1218161" transform="translate(258.56 164.526)">
          <path id="Trazado_1086922" data-name="Trazado 1086922" d="M405.724,257.107h21.108c2.252,0,4.092,3.38,4.092,7.513v.006c0,4.132-1.841,7.513-4.092,7.513H405.724c-2.251,0-4.092-3.38-4.092-7.513v-.006C401.632,260.487,403.474,257.107,405.724,257.107Z" transform="translate(-401.632 -256.111)" fill="#c08329" fill-rule="evenodd"/>
          <rect id="Rectángulo_420585" data-name="Rectángulo 420585" width="14.094" height="111.831" transform="translate(7.599)" fill="#c08329"/>
          <g id="Grupo_1218160" data-name="Grupo 1218160" transform="translate(7.599 16.027)">
            <g id="Grupo_1218159" data-name="Grupo 1218159">
              <rect id="Rectángulo_420586" data-name="Rectángulo 420586" width="14.094" height="1.692" fill="#a16733"/>
            </g>
          </g>
          <path id="Trazado_1086923" data-name="Trazado 1086923" d="M401.632,426.274h29.293v-.114a5.486,5.486,0,0,0-5.652-5.3H407.284a5.485,5.485,0,0,0-5.652,5.3v.114Z" transform="translate(-401.632 -314.443)" fill="#c08329" fill-rule="evenodd"/>
          <line id="Línea_698" data-name="Línea 698" y2="87.184" transform="translate(9.718 19.23)" fill="none" stroke="#2a1510" stroke-linecap="round" stroke-linejoin="round" stroke-miterlimit="10" stroke-width="1"/>
          <line id="Línea_699" data-name="Línea 699" y2="87.184" transform="translate(12.865 19.23)" fill="none" stroke="#2a1510" stroke-linecap="round" stroke-linejoin="round" stroke-miterlimit="10" stroke-width="1"/>
          <line id="Línea_700" data-name="Línea 700" y2="87.184" transform="translate(16.011 19.23)" fill="none" stroke="#2a1510" stroke-linecap="round" stroke-linejoin="round" stroke-miterlimit="10" stroke-width="1"/>
          <line id="Línea_701" data-name="Línea 701" y2="87.184" transform="translate(19.158 19.23)" fill="none" stroke="#2a1510" stroke-linecap="round" stroke-linejoin="round" stroke-miterlimit="10" stroke-width="1"/>
        </g>
        <path id="Trazado_1086924" data-name="Trazado 1086924" d="M45.73,259.288H307.636V242.6H40.8v11.757A4.933,4.933,0,0,0,45.73,259.288Z" transform="translate(-14.533 -86.417)" fill="#a16733" fill-rule="evenodd"/>
        <path id="Trazado_1086925" data-name="Trazado 1086925" d="M40.3,237.3H311.678V210.455H35.508v22.056A4.787,4.787,0,0,0,40.3,237.3Z" transform="translate(-12.649 -74.966)" fill="#c08329" fill-rule="evenodd"/>
        <path id="Trazado_1086926" data-name="Trazado 1086926" d="M30.53,455.953H303.979V429.271H38.593a8.062,8.062,0,0,0-8.063,8.063Z" transform="translate(-10.876 -152.915)" fill="#a16733" fill-rule="evenodd"/>
        <path id="Trazado_1086927" data-name="Trazado 1086927" d="M16.755,480.228H317.071V455.2H25.239a8.484,8.484,0,0,0-8.484,8.484v16.549Z" transform="translate(-5.969 -162.149)" fill="#c08329" fill-rule="evenodd"/>
        <rect id="Rectángulo_420587" data-name="Rectángulo 420587" width="334.154" height="16.689" transform="translate(-6.134 309.734)" fill="#a16733"/>
        <path id="Trazado_1086928" data-name="Trazado 1086928" d="M311.678,167.587,183,91.091H164.189l-128.681,76.5v11.178h276.17Z" transform="translate(-12.649 -32.446)" fill="#a16733" fill-rule="evenodd"/>
        <g id="Grupo_1218162" data-name="Grupo 1218162" transform="translate(17.011 50.623)">
          <path id="Trazado_1086929" data-name="Trazado 1086929" d="M170.357,78.63,28.873,162.735a5.007,5.007,0,0,0-2.449,4.3h0a5.008,5.008,0,0,0,7.568,4.3L170.357,90.283l143.934,85.56V164.19Z" transform="translate(-26.424 -78.63)" fill="#c08329" fill-rule="evenodd"/>
        </g>
        <g id="Grupo_1218163" data-name="Grupo 1218163" transform="translate(45.98 70.909)">
          <path id="Trazado_1086930" data-name="Trazado 1086930" d="M301.362,180.115l-229.94-1.635,114.97-68.34.51.31ZM109.667,167.728l153.423,1.091-76.709-46.693Z" transform="translate(-71.422 -110.141)" fill="#c08329"/>
        </g>
      </g>
      <g id="Grupo_1218169" data-name="Grupo 1218169" clip-path="url(#clip-path-2)">
        <path id="Trazado_1086937" data-name="Trazado 1086937" d="M407.336,492.494a50.478,50.478,0,0,1,11.1-11.263" transform="translate(-157.2 -185.715)" fill="none" stroke="#2a1510" stroke-linecap="round" stroke-linejoin="round" stroke-miterlimit="10" stroke-width="1"/>
        <path id="Trazado_1086938" data-name="Trazado 1086938" d="M393.007,489.853a20.466,20.466,0,0,1,5.98-8.043" transform="translate(-151.67 -185.938)" fill="none" stroke="#2a1510" stroke-linecap="round" stroke-linejoin="round" stroke-miterlimit="10" stroke-width="1"/>
        <path id="Trazado_1086939" data-name="Trazado 1086939" d="M442.674,503.824a75.007,75.007,0,0,1,4.86-17.029" transform="translate(-170.838 -187.862)" fill="none" stroke="#2a1510" stroke-linecap="round" stroke-linejoin="round" stroke-miterlimit="10" stroke-width="1"/>
        <path id="Trazado_1086940" data-name="Trazado 1086940" d="M462.611,511.351l6.3-11.817" transform="translate(-178.532 -192.778)" fill="none" stroke="#2a1510" stroke-linecap="round" stroke-linejoin="round" stroke-miterlimit="10" stroke-width="1"/>
        <path id="Trazado_1086941" data-name="Trazado 1086941" d="M488.31,529.777a33.713,33.713,0,0,0,4.491-4.741" transform="translate(-188.45 -202.62)" fill="none" stroke="#2a1510" stroke-linecap="round" stroke-linejoin="round" stroke-miterlimit="10" stroke-width="1"/>
        <path id="Trazado_1086942" data-name="Trazado 1086942" d="M443.178,430.92l7.584-12" transform="translate(-171.032 -161.666)" fill="none" stroke="#2a1510" stroke-linecap="round" stroke-linejoin="round" stroke-miterlimit="10" stroke-width="1"/>
        <path id="Trazado_1086943" data-name="Trazado 1086943" d="M454.3,440.8l10.8-9.631" transform="translate(-175.326 -166.397)" fill="none" stroke="#2a1510" stroke-linecap="round" stroke-linejoin="round" stroke-miterlimit="10" stroke-width="1"/>
        <path id="Trazado_1086944" data-name="Trazado 1086944" d="M416.336,402.039a122.149,122.149,0,0,1,10.091-7.238" transform="translate(-160.673 -152.359)" fill="none" stroke="#2a1510" stroke-linecap="round" stroke-linejoin="round" stroke-miterlimit="10" stroke-width="1"/>
        <path id="Trazado_1086945" data-name="Trazado 1086945" d="M406.785,394.061a39.931,39.931,0,0,1,6.443-4.739" transform="translate(-156.987 -150.245)" fill="none" stroke="#2a1510" stroke-linecap="round" stroke-linejoin="round" stroke-miterlimit="10" stroke-width="1"/>
        <path id="Trazado_1086946" data-name="Trazado 1086946" d="M470.962,319.444l7.846-3.033" transform="translate(-181.755 -122.107)" fill="none" stroke="#2a1510" stroke-linecap="round" stroke-linejoin="round" stroke-miterlimit="10" stroke-width="1"/>
        <path id="Trazado_1086947" data-name="Trazado 1086947" d="M477.42,326.079a61.2,61.2,0,0,0,10.585-3.764" transform="translate(-184.247 -124.385)" fill="none" stroke="#2a1510" stroke-linecap="round" stroke-linejoin="round" stroke-miterlimit="10" stroke-width="1"/>
        <path id="Trazado_1086948" data-name="Trazado 1086948" d="M489.8,361.794a91.738,91.738,0,0,0,15.555-9.425" transform="translate(-189.025 -135.984)" fill="none" stroke="#2a1510" stroke-linecap="round" stroke-linejoin="round" stroke-miterlimit="10" stroke-width="1"/>
        <path id="Trazado_1086949" data-name="Trazado 1086949" d="M496.522,378.83l14.8-2.343" transform="translate(-191.619 -145.292)" fill="none" stroke="#2a1510" stroke-linecap="round" stroke-linejoin="round" stroke-miterlimit="10" stroke-width="1"/>
        <path id="Trazado_1086950" data-name="Trazado 1086950" d="M505.614,408.962a35.71,35.71,0,0,1,8.669-.559" transform="translate(-195.128 -157.586)" fill="none" stroke="#2a1510" stroke-linecap="round" stroke-linejoin="round" stroke-miterlimit="10" stroke-width="1"/>
        <path id="Trazado_1086951" data-name="Trazado 1086951" d="M503.338,420.731a30.572,30.572,0,0,1,7.839,1.088" transform="translate(-194.249 -162.366)" fill="none" stroke="#2a1510" stroke-linecap="round" stroke-linejoin="round" stroke-miterlimit="10" stroke-width="1"/>
        <path id="Trazado_1086952" data-name="Trazado 1086952" d="M512.461,454.18l10.6-1.332" transform="translate(-197.77 -174.761)" fill="none" stroke="#2a1510" stroke-linecap="round" stroke-linejoin="round" stroke-miterlimit="10" stroke-width="1"/>
        <path id="Trazado_1086953" data-name="Trazado 1086953" d="M515.177,464.822a40.938,40.938,0,0,0,9.5-.881" transform="translate(-198.818 -179.042)" fill="none" stroke="#2a1510" stroke-linecap="round" stroke-linejoin="round" stroke-miterlimit="10" stroke-width="1"/>
      </g>
      <g id="Grupo_1218174" data-name="Grupo 1218174" clip-path="url(#clip-path-2)">
        <path id="Trazado_1086960" data-name="Trazado 1086960" d="M56.679,503.568a50.472,50.472,0,0,0-4.922-15.031" transform="translate(-19.974 -188.534)" fill="none" stroke="#2a1510" stroke-linecap="round" stroke-linejoin="round" stroke-miterlimit="10" stroke-width="1"/>
        <path id="Trazado_1086961" data-name="Trazado 1086961" d="M73.567,509.024a20.463,20.463,0,0,0-1.77-9.865" transform="translate(-27.708 -192.634)" fill="none" stroke="#2a1510" stroke-linecap="round" stroke-linejoin="round" stroke-miterlimit="10" stroke-width="1"/>
        <path id="Trazado_1086962" data-name="Trazado 1086962" d="M21.474,499.712a74.973,74.973,0,0,0,3.237-17.41" transform="translate(-8.287 -186.128)" fill="none" stroke="#2a1510" stroke-linecap="round" stroke-linejoin="round" stroke-miterlimit="10" stroke-width="1"/>
        <path id="Trazado_1086963" data-name="Trazado 1086963" d="M1.5,497.163q-.185-6.692-.371-13.384" transform="translate(-0.435 -186.698)" fill="none" stroke="#2a1510" stroke-linecap="round" stroke-linejoin="round" stroke-miterlimit="10" stroke-width="1"/>
        <path id="Trazado_1086964" data-name="Trazado 1086964" d="M-28.7,502.713a33.721,33.721,0,0,1-1.907-6.245" transform="translate(11.813 -191.595)" fill="none" stroke="#2a1510" stroke-linecap="round" stroke-linejoin="round" stroke-miterlimit="10" stroke-width="1"/>
        <path id="Trazado_1086965" data-name="Trazado 1086965" d="M54.012,433.459l-1.441-14.124" transform="translate(-20.288 -161.828)" fill="none" stroke="#2a1510" stroke-linecap="round" stroke-linejoin="round" stroke-miterlimit="10" stroke-width="1"/>
        <path id="Trazado_1086966" data-name="Trazado 1086966" d="M37.838,436.45l-5.373-13.432" transform="translate(-12.529 -163.249)" fill="none" stroke="#2a1510" stroke-linecap="round" stroke-linejoin="round" stroke-miterlimit="10" stroke-width="1"/>
        <path id="Trazado_1086967" data-name="Trazado 1086967" d="M89.5,418.863a122.223,122.223,0,0,0-5.809-10.976" transform="translate(-32.299 -157.41)" fill="none" stroke="#2a1510" stroke-linecap="round" stroke-linejoin="round" stroke-miterlimit="10" stroke-width="1"/>
        <path id="Trazado_1086968" data-name="Trazado 1086968" d="M103.658,417A39.9,39.9,0,0,0,100,409.886" transform="translate(-38.593 -158.181)" fill="none" stroke="#2a1510" stroke-linecap="round" stroke-linejoin="round" stroke-miterlimit="10" stroke-width="1"/>
        <path id="Trazado_1086969" data-name="Trazado 1086969" d="M78.667,321.208,73,315" transform="translate(-28.17 -121.561)" fill="none" stroke="#2a1510" stroke-linecap="round" stroke-linejoin="round" stroke-miterlimit="10" stroke-width="1"/>
        <path id="Trazado_1086970" data-name="Trazado 1086970" d="M68.388,323.5a61.173,61.173,0,0,1-7.8-8.087" transform="translate(-23.383 -121.724)" fill="none" stroke="#2a1510" stroke-linecap="round" stroke-linejoin="round" stroke-miterlimit="10" stroke-width="1"/>
        <path id="Trazado_1086971" data-name="Trazado 1086971" d="M38.593,348.568A91.742,91.742,0,0,1,28.867,333.2" transform="translate(-11.14 -128.586)" fill="none" stroke="#2a1510" stroke-linecap="round" stroke-linejoin="round" stroke-miterlimit="10" stroke-width="1"/>
        <path id="Trazado_1086972" data-name="Trazado 1086972" d="M25.406,361.035,13.2,352.34" transform="translate(-5.093 -135.973)" fill="none" stroke="#2a1510" stroke-linecap="round" stroke-linejoin="round" stroke-miterlimit="10" stroke-width="1"/>
        <path id="Trazado_1086973" data-name="Trazado 1086973" d="M7.274,385.71a35.685,35.685,0,0,0-7.511-4.364" transform="translate(0.091 -147.167)" fill="none" stroke="#2a1510" stroke-linecap="round" stroke-linejoin="round" stroke-miterlimit="10" stroke-width="1"/>
        <path id="Trazado_1086974" data-name="Trazado 1086974" d="M4.248,398.071a30.531,30.531,0,0,0-7.5-2.52" transform="translate(1.256 -152.649)" fill="none" stroke="#2a1510" stroke-linecap="round" stroke-linejoin="round" stroke-miterlimit="10" stroke-width="1"/>
        <path id="Trazado_1086975" data-name="Trazado 1086975" d="M-20.074,422.564l-8.895-5.915" transform="translate(11.18 -160.791)" fill="none" stroke="#2a1510" stroke-linecap="round" stroke-linejoin="round" stroke-miterlimit="10" stroke-width="1"/>
        <path id="Trazado_1086976" data-name="Trazado 1086976" d="M-26.628,431.188a40.912,40.912,0,0,1-8.113-5.022" transform="translate(13.407 -164.464)" fill="none" stroke="#2a1510" stroke-linecap="round" stroke-linejoin="round" stroke-miterlimit="10" stroke-width="1"/>
      </g>
    </g>
    <g id="OBJECTS" transform="translate(533.23 5340.138)">
      <g id="Grupo_1218144" data-name="Grupo 1218144" transform="translate(26.87 25.943)">
        <g id="Grupo_1218143" data-name="Grupo 1218143">
          <path id="Trazado_1086887" data-name="Trazado 1086887" d="M483.56,260.142a238.979,238.979,0,0,1-54.629,152.425,16.375,16.375,0,0,1-24.2,1.107L339.145,348.09a16.422,16.422,0,0,1-1.71-21.17,115.144,115.144,0,0,0,0-133.556,16.422,16.422,0,0,1,1.71-21.17l46.673-46.673,18.912-18.912a16.375,16.375,0,0,1,24.2,1.107A238.979,238.979,0,0,1,483.56,260.142Z" transform="translate(-3.76 -20.242)" fill="#275e92"/>
          <path id="Trazado_1086888" data-name="Trazado 1086888" d="M172.995,326.92a16.422,16.422,0,0,1-1.71,21.17L105.7,413.675a16.375,16.375,0,0,1-24.2-1.107,239.963,239.963,0,0,1,0-304.85,16.375,16.375,0,0,1,24.2-1.107l18.912,18.912,46.673,46.673a16.422,16.422,0,0,1,1.71,21.17,115.144,115.144,0,0,0,0,133.556Z" transform="translate(-26.87 -20.242)" fill="#fcb82f"/>
          <path id="Trazado_1086889" data-name="Trazado 1086889" d="M169.756,191.705a115.144,115.144,0,0,0,0,133.556,16.422,16.422,0,0,1-1.71,21.17l-43.533,43.533a193.6,193.6,0,0,1-3.139-266.1l46.673,46.673A16.422,16.422,0,0,1,169.756,191.705Z" transform="translate(-23.631 -18.583)" fill="#f09d23"/>
          <path id="Trazado_1086890" data-name="Trazado 1086890" d="M414.6,104.774l-65.585,65.585a16.422,16.422,0,0,1-21.17,1.71,115.144,115.144,0,0,0-133.556,0,16.422,16.422,0,0,1-21.17-1.71l-65.585-65.585a16.375,16.375,0,0,1,1.107-24.2,239.963,239.963,0,0,1,304.85,0A16.375,16.375,0,0,1,414.6,104.774Z" transform="translate(-21.169 -25.943)" fill="#f85757"/>
          <path id="Trazado_1086893" data-name="Trazado 1086893" d="M394.123,120.587l-46.759,46.759a16.422,16.422,0,0,1-21.17,1.71,115.144,115.144,0,0,0-133.556,0,16.422,16.422,0,0,1-21.17-1.71L124.71,120.587a193.589,193.589,0,0,1,269.413,0Z" transform="translate(-19.517 -22.93)" fill="#e04f4f"/>
          <path id="Trazado_1086894" data-name="Trazado 1086894" d="M437.231,255.258a192.932,192.932,0,0,1-54.554,134.707l-43.533-43.533a16.422,16.422,0,0,1-1.71-21.17,115.144,115.144,0,0,0,0-133.556,16.422,16.422,0,0,1,1.71-21.17l46.673-46.673A192.937,192.937,0,0,1,437.231,255.258Z" transform="translate(-3.76 -18.583)" fill="#235482"/>
        </g>
      </g>
    </g>
    <path id="Trazado_1091438" data-name="Trazado 1091438" d="M31.788,18.517V15.7a5.4,5.4,0,0,0,1.661.962,5.34,5.34,0,0,0,1.811.321,4.015,4.015,0,0,0,.936-.1,2.193,2.193,0,0,0,.668-.268,1.169,1.169,0,0,0,.4-.4,1.009,1.009,0,0,0,.132-.505,1.092,1.092,0,0,0-.211-.659,2.27,2.27,0,0,0-.576-.536,6.015,6.015,0,0,0-.866-.475q-.5-.229-1.081-.466a5.517,5.517,0,0,1-2.2-1.5,3.281,3.281,0,0,1-.725-2.145,3.416,3.416,0,0,1,.4-1.692,3.359,3.359,0,0,1,1.077-1.165A4.828,4.828,0,0,1,34.785,6.4a8.106,8.106,0,0,1,1.9-.215,11.418,11.418,0,0,1,1.745.119,6.861,6.861,0,0,1,1.4.365V9.3a4.239,4.239,0,0,0-.69-.387,5.466,5.466,0,0,0-.769-.277,5.866,5.866,0,0,0-.787-.163,5.567,5.567,0,0,0-.743-.053,3.873,3.873,0,0,0-.879.092,2.254,2.254,0,0,0-.668.259,1.29,1.29,0,0,0-.422.4.948.948,0,0,0-.149.523,1,1,0,0,0,.167.567,1.916,1.916,0,0,0,.475.475,5.037,5.037,0,0,0,.747.439q.439.215.993.444a11.067,11.067,0,0,1,1.358.672,4.827,4.827,0,0,1,1.033.8,3.133,3.133,0,0,1,.659,1.024,3.618,3.618,0,0,1,.229,1.34,3.59,3.59,0,0,1-.4,1.771,3.247,3.247,0,0,1-1.085,1.16,4.707,4.707,0,0,1-1.6.637,9.219,9.219,0,0,1-1.92.193,10.678,10.678,0,0,1-1.973-.176A5.956,5.956,0,0,1,31.788,18.517Zm18.485-3.226H44.4q.141,1.96,2.47,1.96a4.822,4.822,0,0,0,2.61-.7v2a6.858,6.858,0,0,1-3.243.668,4.565,4.565,0,0,1-3.384-1.208,4.566,4.566,0,0,1-1.2-3.371,4.816,4.816,0,0,1,1.3-3.551,4.334,4.334,0,0,1,3.2-1.31A3.933,3.933,0,0,1,49.2,10.949a4.5,4.5,0,0,1,1.077,3.173ZM47.7,13.586q0-1.934-1.564-1.934a1.494,1.494,0,0,0-1.156.554,2.513,2.513,0,0,0-.593,1.38Zm11.05,5.089a5.492,5.492,0,0,1-2.716.545,4.593,4.593,0,0,1-3.357-1.257,4.341,4.341,0,0,1-1.283-3.243A4.782,4.782,0,0,1,52.767,11.1,5.083,5.083,0,0,1,56.445,9.78a4.72,4.72,0,0,1,2.3.422v2.355a3.166,3.166,0,0,0-1.942-.65,2.559,2.559,0,0,0-1.894.7,2.607,2.607,0,0,0-.7,1.929,2.565,2.565,0,0,0,.668,1.876,2.455,2.455,0,0,0,1.837.681,3.666,3.666,0,0,0,2.03-.65Zm7.262.22a4.105,4.105,0,0,1-1.854.325q-2.936,0-2.936-3.05V12.048H59.76V10h1.459V8.058l2.769-.791V10h2.021v2.048H63.988v3.639q0,1.406,1.116,1.406a1.882,1.882,0,0,0,.905-.255Zm5.785.325a4.838,4.838,0,0,1-3.538-1.261,4.573,4.573,0,0,1-1.288-3.423,4.573,4.573,0,0,1,1.336-3.494A5.048,5.048,0,0,1,71.917,9.78a4.78,4.78,0,0,1,3.516,1.261,4.483,4.483,0,0,1,1.274,3.335,4.759,4.759,0,0,1-1.314,3.542A4.892,4.892,0,0,1,71.794,19.22Zm.07-7.312a1.852,1.852,0,0,0-1.529.677A2.984,2.984,0,0,0,69.79,14.5q0,2.593,2.092,2.593,2,0,2-2.663Q73.877,11.907,71.865,11.907Zm12.517.6a2.409,2.409,0,0,0-1.169-.272A1.684,1.684,0,0,0,81.8,12.9a2.9,2.9,0,0,0-.51,1.806V19H78.511V10h2.777v1.67h.035A2.4,2.4,0,0,1,83.7,9.842a1.788,1.788,0,0,1,.686.105Zm9.074,5.449h-.035V23.14H90.643V10h2.777v1.354h.035a3.534,3.534,0,0,1,5.594-.374A5.108,5.108,0,0,1,100,14.245a5.537,5.537,0,0,1-1.112,3.612,3.625,3.625,0,0,1-2.958,1.362A2.8,2.8,0,0,1,93.456,17.954Zm-.079-3.691v.721a2.291,2.291,0,0,0,.492,1.521,1.6,1.6,0,0,0,1.292.589,1.7,1.7,0,0,0,1.472-.734,3.543,3.543,0,0,0,.523-2.079q0-2.373-1.846-2.373a1.733,1.733,0,0,0-1.393.646A2.576,2.576,0,0,0,93.377,14.263ZM110.359,19h-2.769V17.629h-.044A3.141,3.141,0,0,1,104.8,19.22q-3.129,0-3.129-3.788V10h2.769v5.186q0,1.907,1.512,1.907a1.5,1.5,0,0,0,1.2-.523,2.109,2.109,0,0,0,.448-1.419V10h2.769ZM109.225,5.737l-2.751,2.839h-2l2.285-2.839Zm6.286,12.217h-.035V19H112.7V5.676h2.777v5.678h.035a3.3,3.3,0,0,1,2.927-1.573,3.211,3.211,0,0,1,2.681,1.2,5.155,5.155,0,0,1,.94,3.27,5.582,5.582,0,0,1-1.1,3.612,3.579,3.579,0,0,1-2.936,1.362A2.836,2.836,0,0,1,115.511,17.954Zm-.079-3.8v.923a2.107,2.107,0,0,0,.5,1.441,1.63,1.63,0,0,0,1.283.571,1.7,1.7,0,0,0,1.472-.734,3.543,3.543,0,0,0,.523-2.079,2.819,2.819,0,0,0-.479-1.745,1.616,1.616,0,0,0-1.367-.628,1.766,1.766,0,0,0-1.384.624A2.37,2.37,0,0,0,115.432,14.157ZM126.64,19h-2.777V5.676h2.777Zm3.746-10.424a1.622,1.622,0,0,1-1.151-.417,1.345,1.345,0,0,1-.448-1.024,1.3,1.3,0,0,1,.448-1.02,1.88,1.88,0,0,1,2.307,0,1.3,1.3,0,0,1,.444,1.02,1.34,1.34,0,0,1-.444,1.037A1.65,1.65,0,0,1,130.386,8.576ZM131.757,19H128.98V10h2.777Zm9.16-.325a5.492,5.492,0,0,1-2.716.545,4.593,4.593,0,0,1-3.357-1.257,4.341,4.341,0,0,1-1.283-3.243,4.782,4.782,0,0,1,1.375-3.617,5.083,5.083,0,0,1,3.678-1.323,4.72,4.72,0,0,1,2.3.422v2.355a3.166,3.166,0,0,0-1.942-.65,2.559,2.559,0,0,0-1.894.7,2.607,2.607,0,0,0-.7,1.929,2.565,2.565,0,0,0,.668,1.876,2.455,2.455,0,0,0,1.837.681,3.666,3.666,0,0,0,2.03-.65Zm6.11.545a4.838,4.838,0,0,1-3.538-1.261,4.573,4.573,0,0,1-1.288-3.423,4.573,4.573,0,0,1,1.336-3.494A5.048,5.048,0,0,1,147.15,9.78a4.78,4.78,0,0,1,3.516,1.261,4.483,4.483,0,0,1,1.274,3.335,4.759,4.759,0,0,1-1.314,3.542A4.892,4.892,0,0,1,147.027,19.22Zm.07-7.312a1.852,1.852,0,0,0-1.529.677,2.984,2.984,0,0,0-.545,1.916q0,2.593,2.092,2.593,2,0,2-2.663Q149.11,11.907,147.1,11.907Z" transform="translate(710.566 5415.819)" fill="#212429"/>
    <path id="Trazado_1091439" data-name="Trazado 1091439" d="M4.215,18.517V15.7a5.4,5.4,0,0,0,1.661.962,5.34,5.34,0,0,0,1.811.321,4.015,4.015,0,0,0,.936-.1,2.193,2.193,0,0,0,.668-.268,1.169,1.169,0,0,0,.4-.4,1.009,1.009,0,0,0,.132-.505,1.092,1.092,0,0,0-.211-.659,2.27,2.27,0,0,0-.576-.536,6.015,6.015,0,0,0-.866-.475q-.5-.229-1.081-.466a5.517,5.517,0,0,1-2.2-1.5A3.281,3.281,0,0,1,4.163,9.93a3.416,3.416,0,0,1,.4-1.692A3.359,3.359,0,0,1,5.635,7.073,4.828,4.828,0,0,1,7.212,6.4a8.106,8.106,0,0,1,1.9-.215,11.418,11.418,0,0,1,1.745.119,6.861,6.861,0,0,1,1.4.365V9.3a4.239,4.239,0,0,0-.69-.387,5.466,5.466,0,0,0-.769-.277,5.866,5.866,0,0,0-.787-.163,5.567,5.567,0,0,0-.743-.053,3.873,3.873,0,0,0-.879.092,2.254,2.254,0,0,0-.668.259,1.29,1.29,0,0,0-.422.4.948.948,0,0,0-.149.523,1,1,0,0,0,.167.567,1.916,1.916,0,0,0,.475.475,5.037,5.037,0,0,0,.747.439q.439.215.993.444a11.067,11.067,0,0,1,1.358.672,4.827,4.827,0,0,1,1.033.8,3.133,3.133,0,0,1,.659,1.024,3.618,3.618,0,0,1,.229,1.34,3.59,3.59,0,0,1-.4,1.771,3.247,3.247,0,0,1-1.085,1.16,4.707,4.707,0,0,1-1.6.637,9.219,9.219,0,0,1-1.92.193,10.678,10.678,0,0,1-1.973-.176A5.956,5.956,0,0,1,4.215,18.517Zm14.688.7a4.838,4.838,0,0,1-3.538-1.261,4.573,4.573,0,0,1-1.288-3.423,4.573,4.573,0,0,1,1.336-3.494A5.048,5.048,0,0,1,19.027,9.78a4.78,4.78,0,0,1,3.516,1.261,4.483,4.483,0,0,1,1.274,3.335A4.759,4.759,0,0,1,22.5,17.919,4.892,4.892,0,0,1,18.9,19.22Zm.07-7.312a1.852,1.852,0,0,0-1.529.677A2.984,2.984,0,0,0,16.9,14.5q0,2.593,2.092,2.593,2,0,2-2.663Q20.987,11.907,18.974,11.907Zm13.467,6.768a5.492,5.492,0,0,1-2.716.545,4.593,4.593,0,0,1-3.357-1.257,4.341,4.341,0,0,1-1.283-3.243A4.782,4.782,0,0,1,26.46,11.1,5.083,5.083,0,0,1,30.138,9.78a4.72,4.72,0,0,1,2.3.422v2.355a3.166,3.166,0,0,0-1.942-.65,2.559,2.559,0,0,0-1.894.7,2.607,2.607,0,0,0-.7,1.929,2.565,2.565,0,0,0,.668,1.876,2.455,2.455,0,0,0,1.837.681,3.666,3.666,0,0,0,2.03-.65Zm3.227-10.1a1.622,1.622,0,0,1-1.151-.417,1.345,1.345,0,0,1-.448-1.024,1.3,1.3,0,0,1,.448-1.02,1.88,1.88,0,0,1,2.307,0,1.3,1.3,0,0,1,.444,1.02,1.34,1.34,0,0,1-.444,1.037A1.65,1.65,0,0,1,35.668,8.576ZM37.039,19H34.262V10h2.777Zm10.426-3.709H41.594q.141,1.96,2.47,1.96a4.822,4.822,0,0,0,2.61-.7v2a6.858,6.858,0,0,1-3.243.668,4.565,4.565,0,0,1-3.384-1.208,4.566,4.566,0,0,1-1.2-3.371,4.816,4.816,0,0,1,1.3-3.551,4.334,4.334,0,0,1,3.2-1.31,3.933,3.933,0,0,1,3.045,1.169,4.5,4.5,0,0,1,1.077,3.173ZM44.89,13.586q0-1.934-1.564-1.934a1.494,1.494,0,0,0-1.156.554,2.513,2.513,0,0,0-.593,1.38ZM57.926,19H55.148V17.761h-.035a3.114,3.114,0,0,1-2.786,1.459,3.412,3.412,0,0,1-2.716-1.191A4.93,4.93,0,0,1,48.583,14.7a5.366,5.366,0,0,1,1.134-3.577A3.7,3.7,0,0,1,52.687,9.78a2.527,2.527,0,0,1,2.426,1.248h.035V5.676h2.777ZM55.2,14.623v-.677a2.13,2.13,0,0,0-.51-1.459,1.8,1.8,0,0,0-2.769.145,3.367,3.367,0,0,0-.519,1.991,2.914,2.914,0,0,0,.5,1.828,1.779,1.779,0,0,0,2.764-.035A2.821,2.821,0,0,0,55.2,14.623ZM67.753,19H65.126V17.708H65.09A2.933,2.933,0,0,1,62.41,19.22a2.8,2.8,0,0,1-2.061-.743A2.661,2.661,0,0,1,59.6,16.5q0-2.619,3.1-3.023l2.443-.325q0-1.477-1.6-1.477a5.46,5.46,0,0,0-3.059.958V10.536a6.881,6.881,0,0,1,1.586-.527A8.339,8.339,0,0,1,63.9,9.78q3.85,0,3.85,3.841Zm-2.61-3.656v-.606l-1.635.211q-1.354.176-1.354,1.222a1.01,1.01,0,0,0,.33.778,1.266,1.266,0,0,0,.892.3,1.644,1.644,0,0,0,1.274-.541A1.952,1.952,0,0,0,65.143,15.344ZM78.759,19H75.982V17.761h-.035a3.114,3.114,0,0,1-2.786,1.459,3.412,3.412,0,0,1-2.716-1.191A4.93,4.93,0,0,1,69.416,14.7a5.366,5.366,0,0,1,1.134-3.577A3.7,3.7,0,0,1,73.521,9.78a2.527,2.527,0,0,1,2.426,1.248h.035V5.676h2.777Zm-2.725-4.377v-.677a2.13,2.13,0,0,0-.51-1.459,1.8,1.8,0,0,0-2.769.145,3.367,3.367,0,0,0-.519,1.991,2.914,2.914,0,0,0,.5,1.828,1.779,1.779,0,0,0,2.764-.035A2.821,2.821,0,0,0,76.035,14.623Zm16.852,4.052a5.492,5.492,0,0,1-2.716.545,4.593,4.593,0,0,1-3.357-1.257A4.341,4.341,0,0,1,85.53,14.72,4.782,4.782,0,0,1,86.906,11.1,5.083,5.083,0,0,1,90.584,9.78a4.72,4.72,0,0,1,2.3.422v2.355a3.166,3.166,0,0,0-1.942-.65,2.559,2.559,0,0,0-1.894.7,2.607,2.607,0,0,0-.7,1.929,2.565,2.565,0,0,0,.668,1.876,2.455,2.455,0,0,0,1.837.681,3.666,3.666,0,0,0,2.03-.65Zm3.227-10.1a1.622,1.622,0,0,1-1.151-.417,1.345,1.345,0,0,1-.448-1.024,1.3,1.3,0,0,1,.448-1.02,1.88,1.88,0,0,1,2.307,0,1.3,1.3,0,0,1,.444,1.02,1.34,1.34,0,0,1-.444,1.037A1.65,1.65,0,0,1,96.114,8.576ZM97.485,19H94.708V10h2.777Zm10.909-9-3.349,9h-3.164l-3.19-9h2.971l1.564,5.546a8.1,8.1,0,0,1,.308,1.6h.035a9.078,9.078,0,0,1,.325-1.547l1.6-5.6Zm2.595-1.424a1.622,1.622,0,0,1-1.151-.417,1.345,1.345,0,0,1-.448-1.024,1.3,1.3,0,0,1,.448-1.02,1.88,1.88,0,0,1,2.307,0,1.3,1.3,0,0,1,.444,1.02,1.34,1.34,0,0,1-.444,1.037A1.65,1.65,0,0,1,110.989,8.576ZM112.36,19h-2.777V10h2.777Zm5.117,0H114.7V5.676h2.777Z" transform="translate(914.493 5569.285)" fill="#fff"/>
    <path id="Trazado_1091440" data-name="Trazado 1091440" d="M7.311,12.766V17H6V5.8H9.076a4.063,4.063,0,0,1,2.785.875,3.124,3.124,0,0,1,.988,2.469,3.4,3.4,0,0,1-1.1,2.609,4.194,4.194,0,0,1-2.965,1.016Zm0-5.781v4.594H8.686a3.074,3.074,0,0,0,2.074-.621A2.2,2.2,0,0,0,11.475,9.2q0-2.219-2.625-2.219ZM19.969,17H18.687V15.75h-.031A2.682,2.682,0,0,1,16.2,17.188a2.63,2.63,0,0,1-1.871-.633,2.192,2.192,0,0,1-.676-1.68q0-2.242,2.641-2.609l2.4-.336q0-2.039-1.648-2.039a3.938,3.938,0,0,0-2.609.984V9.563a4.958,4.958,0,0,1,2.719-.75q2.82,0,2.82,2.984Zm-1.281-4.047-1.93.266a3.133,3.133,0,0,0-1.344.441,1.273,1.273,0,0,0-.453,1.121,1.221,1.221,0,0,0,.418.957,1.615,1.615,0,0,0,1.113.371,2.056,2.056,0,0,0,1.574-.668,2.387,2.387,0,0,0,.621-1.691ZM26.556,10.3a1.567,1.567,0,0,0-.969-.258,1.635,1.635,0,0,0-1.371.773,3.576,3.576,0,0,0-.551,2.109V17H22.384V9h1.281v1.648H23.7a2.793,2.793,0,0,1,.836-1.316,1.906,1.906,0,0,1,1.258-.473,2.092,2.092,0,0,1,.766.109Zm5.1,6.625a2.47,2.47,0,0,1-1.2.25q-2.1,0-2.1-2.344V10.094H26.987V9h1.375V7.047l1.281-.414V9h2.016v1.094H29.644V14.6a1.869,1.869,0,0,0,.273,1.148,1.091,1.091,0,0,0,.906.344,1.347,1.347,0,0,0,.836-.266Zm2.369-9.953a.812.812,0,0,1-.586-.234.791.791,0,0,1-.242-.594.821.821,0,0,1,.828-.836.827.827,0,0,1,.6.238.835.835,0,0,1,0,1.184A.82.82,0,0,1,34.028,6.969ZM34.653,17H33.372V9h1.281Zm8.048-.367a4.163,4.163,0,0,1-2.187.555,3.622,3.622,0,0,1-2.762-1.113A4.035,4.035,0,0,1,36.7,13.188a4.435,4.435,0,0,1,1.133-3.176,3.963,3.963,0,0,1,3.023-1.2,4.209,4.209,0,0,1,1.859.391v1.313a3.258,3.258,0,0,0-1.906-.625,2.576,2.576,0,0,0-2.012.879,3.335,3.335,0,0,0-.785,2.309,3.176,3.176,0,0,0,.738,2.219,2.545,2.545,0,0,0,1.98.813,3.211,3.211,0,0,0,1.969-.7Zm2.6-9.664a.812.812,0,0,1-.586-.234.791.791,0,0,1-.242-.594A.821.821,0,0,1,45.3,5.3a.827.827,0,0,1,.6.238.835.835,0,0,1,0,1.184A.82.82,0,0,1,45.3,6.969ZM45.922,17H44.641V9h1.281Zm3.908-1.156H49.8V20.68H48.517V9H49.8v1.406h.031A3.03,3.03,0,0,1,52.6,8.813a2.93,2.93,0,0,1,2.414,1.074,4.449,4.449,0,0,1,.867,2.879A4.959,4.959,0,0,1,54.9,15.98a3.251,3.251,0,0,1-2.672,1.207A2.676,2.676,0,0,1,49.83,15.844ZM49.8,12.617v1.117a2.379,2.379,0,0,0,.645,1.684,2.3,2.3,0,0,0,3.461-.2,4.086,4.086,0,0,0,.66-2.477,3.225,3.225,0,0,0-.617-2.094,2.043,2.043,0,0,0-1.672-.758,2.27,2.27,0,0,0-1.8.777A2.854,2.854,0,0,0,49.8,12.617ZM63.652,17H62.37V15.75h-.031a2.682,2.682,0,0,1-2.461,1.438,2.63,2.63,0,0,1-1.871-.633,2.192,2.192,0,0,1-.676-1.68q0-2.242,2.641-2.609l2.4-.336q0-2.039-1.648-2.039a3.938,3.938,0,0,0-2.609.984V9.563a4.958,4.958,0,0,1,2.719-.75q2.82,0,2.82,2.984ZM62.37,12.953l-1.93.266a3.133,3.133,0,0,0-1.344.441,1.273,1.273,0,0,0-.453,1.121,1.221,1.221,0,0,0,.418.957,1.615,1.615,0,0,0,1.113.371,2.056,2.056,0,0,0,1.574-.668,2.387,2.387,0,0,0,.621-1.691Zm9.15,3.68a4.163,4.163,0,0,1-2.187.555,3.622,3.622,0,0,1-2.762-1.113,4.035,4.035,0,0,1-1.051-2.887,4.435,4.435,0,0,1,1.133-3.176,3.963,3.963,0,0,1,3.023-1.2,4.209,4.209,0,0,1,1.859.391v1.313a3.258,3.258,0,0,0-1.906-.625,2.576,2.576,0,0,0-2.012.879,3.335,3.335,0,0,0-.785,2.309,3.176,3.176,0,0,0,.738,2.219,2.545,2.545,0,0,0,1.98.813,3.211,3.211,0,0,0,1.969-.7Zm2.6-9.664a.812.812,0,0,1-.586-.234.791.791,0,0,1-.242-.594.821.821,0,0,1,.828-.836.827.827,0,0,1,.6.238.835.835,0,0,1,0,1.184A.82.82,0,0,1,74.116,6.969ZM74.741,17H73.46V9h1.281Zm5.939.188a3.711,3.711,0,0,1-2.832-1.121,4.153,4.153,0,0,1-1.059-2.973,4.326,4.326,0,0,1,1.1-3.148,3.96,3.96,0,0,1,2.977-1.133,3.588,3.588,0,0,1,2.793,1.1,4.368,4.368,0,0,1,1,3.055,4.3,4.3,0,0,1-1.082,3.066A3.791,3.791,0,0,1,80.68,17.188Zm.094-7.3a2.437,2.437,0,0,0-1.953.84,3.449,3.449,0,0,0-.719,2.316,3.262,3.262,0,0,0,.727,2.242,2.469,2.469,0,0,0,1.945.82,2.342,2.342,0,0,0,1.91-.8,3.492,3.492,0,0,0,.668-2.289,3.552,3.552,0,0,0-.668-2.312A2.332,2.332,0,0,0,80.774,9.891Zm1.875-4.969L80.6,7.484H79.61l1.742-2.562ZM93.353,17H92.072V12.438q0-2.547-1.859-2.547a2.017,2.017,0,0,0-1.59.723,2.679,2.679,0,0,0-.629,1.824V17H86.713V9h1.281v1.328h.031A2.887,2.887,0,0,1,90.65,8.813a2.448,2.448,0,0,1,2.008.848,3.776,3.776,0,0,1,.7,2.449ZM14.183,41H12.9V39.641h-.031a2.958,2.958,0,0,1-2.75,1.547,2.988,2.988,0,0,1-2.41-1.074,4.407,4.407,0,0,1-.9-2.926,4.794,4.794,0,0,1,1-3.18,3.3,3.3,0,0,1,2.664-1.2,2.564,2.564,0,0,1,2.4,1.3H12.9V29.156h1.281ZM12.9,37.383V36.2a2.289,2.289,0,0,0-.641-1.641,2.149,2.149,0,0,0-1.625-.672,2.212,2.212,0,0,0-1.844.859,3.766,3.766,0,0,0-.672,2.375,3.387,3.387,0,0,0,.645,2.184,2.107,2.107,0,0,0,1.73.8,2.188,2.188,0,0,0,1.738-.773A2.882,2.882,0,0,0,12.9,37.383Zm10.306-.062H17.56a2.992,2.992,0,0,0,.719,2.063,2.478,2.478,0,0,0,1.891.727,3.931,3.931,0,0,0,2.484-.891v1.2a4.643,4.643,0,0,1-2.789.766A3.381,3.381,0,0,1,17.2,40.1a4.461,4.461,0,0,1-.969-3.066,4.375,4.375,0,0,1,1.059-3.043,3.394,3.394,0,0,1,2.629-1.176,3.008,3.008,0,0,1,2.43,1.016,4.234,4.234,0,0,1,.859,2.82ZM21.9,36.234a2.607,2.607,0,0,0-.535-1.727,1.823,1.823,0,0,0-1.465-.617,2.07,2.07,0,0,0-1.539.648,2.943,2.943,0,0,0-.781,1.7ZM36.507,41H35.226V36.406a3.466,3.466,0,0,0-.41-1.922,1.555,1.555,0,0,0-1.379-.594,1.708,1.708,0,0,0-1.395.75,2.869,2.869,0,0,0-.574,1.8V41H30.187V36.25q0-2.359-1.82-2.359a1.686,1.686,0,0,0-1.391.707,2.923,2.923,0,0,0-.547,1.84V41H25.148V33h1.281v1.266h.031a2.718,2.718,0,0,1,2.484-1.453,2.311,2.311,0,0,1,2.266,1.656,2.855,2.855,0,0,1,2.656-1.656q2.641,0,2.641,3.258Zm5.767.188a3.711,3.711,0,0,1-2.832-1.121,4.153,4.153,0,0,1-1.059-2.973,4.326,4.326,0,0,1,1.1-3.148,3.96,3.96,0,0,1,2.977-1.133,3.588,3.588,0,0,1,2.793,1.1,4.368,4.368,0,0,1,1,3.055,4.3,4.3,0,0,1-1.082,3.066A3.791,3.791,0,0,1,42.274,41.188Zm.094-7.3a2.437,2.437,0,0,0-1.953.84,3.449,3.449,0,0,0-.719,2.316,3.262,3.262,0,0,0,.727,2.242,2.469,2.469,0,0,0,1.945.82,2.342,2.342,0,0,0,1.91-.8,3.492,3.492,0,0,0,.668-2.289,3.552,3.552,0,0,0-.668-2.312A2.332,2.332,0,0,0,42.368,33.891ZM53.76,40.633a4.163,4.163,0,0,1-2.187.555,3.622,3.622,0,0,1-2.762-1.113,4.035,4.035,0,0,1-1.051-2.887,4.435,4.435,0,0,1,1.133-3.176,3.963,3.963,0,0,1,3.023-1.2,4.209,4.209,0,0,1,1.859.391v1.313a3.258,3.258,0,0,0-1.906-.625,2.576,2.576,0,0,0-2.012.879,3.335,3.335,0,0,0-.785,2.309,3.176,3.176,0,0,0,.738,2.219,2.545,2.545,0,0,0,1.98.813,3.211,3.211,0,0,0,1.969-.7ZM59.871,34.3a1.567,1.567,0,0,0-.969-.258,1.635,1.635,0,0,0-1.371.773,3.576,3.576,0,0,0-.551,2.109V41H55.7V33H56.98v1.648h.031a2.794,2.794,0,0,1,.836-1.316,1.906,1.906,0,0,1,1.258-.473,2.092,2.092,0,0,1,.766.109ZM66.99,41H65.709V39.75h-.031a2.682,2.682,0,0,1-2.461,1.438,2.63,2.63,0,0,1-1.871-.633,2.192,2.192,0,0,1-.676-1.68q0-2.242,2.641-2.609l2.4-.336q0-2.039-1.648-2.039a3.938,3.938,0,0,0-2.609.984V33.563a4.958,4.958,0,0,1,2.719-.75q2.82,0,2.82,2.984Zm-1.281-4.047-1.93.266a3.133,3.133,0,0,0-1.344.441,1.273,1.273,0,0,0-.453,1.121,1.221,1.221,0,0,0,.418.957,1.615,1.615,0,0,0,1.113.371,2.056,2.056,0,0,0,1.574-.668,2.387,2.387,0,0,0,.621-1.691Zm.172-8.031-2.047,2.563h-.992l1.742-2.562Zm7.236,12a2.47,2.47,0,0,1-1.2.25q-2.1,0-2.1-2.344V34.094H68.445V33H69.82V31.047l1.281-.414V33h2.016v1.094H71.1V38.6a1.869,1.869,0,0,0,.273,1.148,1.091,1.091,0,0,0,.906.344,1.347,1.347,0,0,0,.836-.266Zm2.369-9.953a.812.812,0,0,1-.586-.234.791.791,0,0,1-.242-.594.821.821,0,0,1,.828-.836.827.827,0,0,1,.6.238.835.835,0,0,1,0,1.184A.82.82,0,0,1,75.485,30.969ZM76.11,41H74.829V33H76.11Zm8.048-.367a4.163,4.163,0,0,1-2.187.555,3.622,3.622,0,0,1-2.762-1.113,4.035,4.035,0,0,1-1.051-2.887,4.435,4.435,0,0,1,1.133-3.176,3.963,3.963,0,0,1,3.023-1.2,4.209,4.209,0,0,1,1.859.391v1.313a3.258,3.258,0,0,0-1.906-.625,2.576,2.576,0,0,0-2.012.879,3.335,3.335,0,0,0-.785,2.309A3.176,3.176,0,0,0,80.21,39.3a2.545,2.545,0,0,0,1.98.813,3.211,3.211,0,0,0,1.969-.7ZM91.824,41H90.543V39.75h-.031a2.682,2.682,0,0,1-2.461,1.438,2.63,2.63,0,0,1-1.871-.633,2.192,2.192,0,0,1-.676-1.68q0-2.242,2.641-2.609l2.4-.336q0-2.039-1.648-2.039a3.938,3.938,0,0,0-2.609.984V33.563A4.958,4.958,0,0,1,89,32.813q2.82,0,2.82,2.984Zm-1.281-4.047-1.93.266a3.133,3.133,0,0,0-1.344.441,1.273,1.273,0,0,0-.453,1.121,1.221,1.221,0,0,0,.418.957,1.615,1.615,0,0,0,1.113.371,2.056,2.056,0,0,0,1.574-.668,2.387,2.387,0,0,0,.621-1.691Z" transform="translate(925.993 5592.285)" fill="#fff"/>
    <path id="Trazado_1091441" data-name="Trazado 1091441" d="M2.668,18.517V15.7a5.4,5.4,0,0,0,1.661.962,5.34,5.34,0,0,0,1.811.321,4.015,4.015,0,0,0,.936-.1,2.193,2.193,0,0,0,.668-.268,1.169,1.169,0,0,0,.4-.4,1.009,1.009,0,0,0,.132-.505,1.092,1.092,0,0,0-.211-.659,2.27,2.27,0,0,0-.576-.536,6.015,6.015,0,0,0-.866-.475q-.5-.229-1.081-.466a5.517,5.517,0,0,1-2.2-1.5A3.281,3.281,0,0,1,2.615,9.93a3.416,3.416,0,0,1,.4-1.692A3.359,3.359,0,0,1,4.087,7.073,4.828,4.828,0,0,1,5.665,6.4a8.106,8.106,0,0,1,1.9-.215A11.418,11.418,0,0,1,9.308,6.3a6.861,6.861,0,0,1,1.4.365V9.3a4.239,4.239,0,0,0-.69-.387,5.466,5.466,0,0,0-.769-.277,5.866,5.866,0,0,0-.787-.163,5.567,5.567,0,0,0-.743-.053,3.873,3.873,0,0,0-.879.092,2.254,2.254,0,0,0-.668.259,1.29,1.29,0,0,0-.422.4.948.948,0,0,0-.149.523,1,1,0,0,0,.167.567,1.916,1.916,0,0,0,.475.475,5.037,5.037,0,0,0,.747.439q.439.215.993.444a11.067,11.067,0,0,1,1.358.672,4.827,4.827,0,0,1,1.033.8,3.133,3.133,0,0,1,.659,1.024,3.618,3.618,0,0,1,.229,1.34,3.59,3.59,0,0,1-.4,1.771,3.247,3.247,0,0,1-1.085,1.16,4.707,4.707,0,0,1-1.6.637,9.219,9.219,0,0,1-1.92.193,10.678,10.678,0,0,1-1.973-.176A5.956,5.956,0,0,1,2.668,18.517Zm18.485-3.226H15.282q.141,1.96,2.47,1.96a4.822,4.822,0,0,0,2.61-.7v2a6.858,6.858,0,0,1-3.243.668,4.565,4.565,0,0,1-3.384-1.208,4.566,4.566,0,0,1-1.2-3.371,4.816,4.816,0,0,1,1.3-3.551,4.334,4.334,0,0,1,3.2-1.31,3.933,3.933,0,0,1,3.045,1.169,4.5,4.5,0,0,1,1.077,3.173Zm-2.575-1.705q0-1.934-1.564-1.934a1.494,1.494,0,0,0-1.156.554,2.513,2.513,0,0,0-.593,1.38Zm11.05,5.089a5.492,5.492,0,0,1-2.716.545,4.593,4.593,0,0,1-3.357-1.257,4.341,4.341,0,0,1-1.283-3.243A4.782,4.782,0,0,1,23.647,11.1,5.083,5.083,0,0,1,27.325,9.78a4.72,4.72,0,0,1,2.3.422v2.355a3.166,3.166,0,0,0-1.942-.65,2.559,2.559,0,0,0-1.894.7,2.607,2.607,0,0,0-.7,1.929,2.565,2.565,0,0,0,.668,1.876,2.455,2.455,0,0,0,1.837.681,3.666,3.666,0,0,0,2.03-.65Zm7.262.22a4.105,4.105,0,0,1-1.854.325q-2.936,0-2.936-3.05V12.048H30.64V10H32.1V8.058l2.769-.791V10h2.021v2.048H34.868v3.639q0,1.406,1.116,1.406a1.882,1.882,0,0,0,.905-.255Zm5.785.325a4.838,4.838,0,0,1-3.538-1.261,4.573,4.573,0,0,1-1.288-3.423,4.573,4.573,0,0,1,1.336-3.494A5.048,5.048,0,0,1,42.8,9.78a4.78,4.78,0,0,1,3.516,1.261,4.483,4.483,0,0,1,1.274,3.335,4.759,4.759,0,0,1-1.314,3.542A4.892,4.892,0,0,1,42.674,19.22Zm.07-7.312a1.852,1.852,0,0,0-1.529.677A2.984,2.984,0,0,0,40.67,14.5q0,2.593,2.092,2.593,2,0,2-2.663Q44.757,11.907,42.745,11.907Zm12.517.6a2.409,2.409,0,0,0-1.169-.272,1.684,1.684,0,0,0-1.415.664,2.9,2.9,0,0,0-.51,1.806V19H49.391V10h2.777v1.67H52.2a2.4,2.4,0,0,1,2.373-1.828,1.788,1.788,0,0,1,.686.105Zm9.074,5.449H64.3V23.14H61.523V10H64.3v1.354h.035a3.534,3.534,0,0,1,5.594-.374,5.108,5.108,0,0,1,.954,3.265,5.537,5.537,0,0,1-1.112,3.612,3.625,3.625,0,0,1-2.958,1.362A2.8,2.8,0,0,1,64.336,17.954Zm-.079-3.691v.721a2.291,2.291,0,0,0,.492,1.521,1.6,1.6,0,0,0,1.292.589,1.7,1.7,0,0,0,1.472-.734,3.543,3.543,0,0,0,.523-2.079q0-2.373-1.846-2.373a1.733,1.733,0,0,0-1.393.646A2.576,2.576,0,0,0,64.257,14.263Zm14.3-1.758a2.409,2.409,0,0,0-1.169-.272,1.684,1.684,0,0,0-1.415.664,2.9,2.9,0,0,0-.51,1.806V19H72.687V10h2.777v1.67H75.5a2.4,2.4,0,0,1,2.373-1.828,1.788,1.788,0,0,1,.686.105Zm2.77-3.929a1.622,1.622,0,0,1-1.151-.417,1.345,1.345,0,0,1-.448-1.024,1.3,1.3,0,0,1,.448-1.02,1.88,1.88,0,0,1,2.307,0,1.3,1.3,0,0,1,.444,1.02,1.34,1.34,0,0,1-.444,1.037A1.65,1.65,0,0,1,81.329,8.576ZM82.7,19H79.922V10H82.7Zm10.909-9L90.26,19H87.1l-3.19-9h2.971l1.564,5.546a8.1,8.1,0,0,1,.308,1.6h.035a9.078,9.078,0,0,1,.325-1.547l1.6-5.6Zm8.4,9H99.385V17.708H99.35a2.933,2.933,0,0,1-2.681,1.512,2.8,2.8,0,0,1-2.061-.743,2.661,2.661,0,0,1-.751-1.982q0-2.619,3.1-3.023l2.443-.325q0-1.477-1.6-1.477a5.46,5.46,0,0,0-3.059.958V10.536a6.881,6.881,0,0,1,1.586-.527,8.339,8.339,0,0,1,1.833-.229q3.85,0,3.85,3.841ZM99.4,15.344v-.606l-1.635.211q-1.354.176-1.354,1.222a1.01,1.01,0,0,0,.33.778,1.266,1.266,0,0,0,.892.3,1.644,1.644,0,0,0,1.274-.541A1.952,1.952,0,0,0,99.4,15.344ZM113.019,19h-2.777V17.761h-.035a3.114,3.114,0,0,1-2.786,1.459,3.412,3.412,0,0,1-2.716-1.191,4.93,4.93,0,0,1-1.028-3.327,5.366,5.366,0,0,1,1.134-3.577A3.7,3.7,0,0,1,107.78,9.78a2.527,2.527,0,0,1,2.426,1.248h.035V5.676h2.777Zm-2.725-4.377v-.677a2.13,2.13,0,0,0-.51-1.459,1.8,1.8,0,0,0-2.769.145,3.367,3.367,0,0,0-.519,1.991,2.914,2.914,0,0,0,.5,1.828,1.779,1.779,0,0,0,2.764-.035A2.821,2.821,0,0,0,110.294,14.623Zm9.353,4.6a4.838,4.838,0,0,1-3.538-1.261,4.573,4.573,0,0,1-1.288-3.423,4.573,4.573,0,0,1,1.336-3.494A5.048,5.048,0,0,1,119.77,9.78a4.78,4.78,0,0,1,3.516,1.261,4.483,4.483,0,0,1,1.274,3.335,4.759,4.759,0,0,1-1.314,3.542A4.892,4.892,0,0,1,119.647,19.22Zm.07-7.312a1.852,1.852,0,0,0-1.529.677,2.984,2.984,0,0,0-.545,1.916q0,2.593,2.092,2.593,2,0,2-2.663Q121.73,11.907,119.718,11.907Z" transform="translate(560.233 5569.285)" fill="#fff"/>
    <path id="Trazado_1091442" data-name="Trazado 1091442" d="M21.4,17H19.84l-1.875-3.141a6.84,6.84,0,0,0-.5-.746,2.85,2.85,0,0,0-.5-.5,1.718,1.718,0,0,0-.547-.285,2.249,2.249,0,0,0-.66-.09H14.684V17H13.372V5.8h3.344a4.765,4.765,0,0,1,1.355.184,3.033,3.033,0,0,1,1.078.559,2.6,2.6,0,0,1,.715.934,3.1,3.1,0,0,1,.258,1.309,3.151,3.151,0,0,1-.176,1.074,2.805,2.805,0,0,1-.5.871,3.031,3.031,0,0,1-.781.652,3.988,3.988,0,0,1-1.027.418v.031a2.363,2.363,0,0,1,.488.285,2.687,2.687,0,0,1,.395.379,5.019,5.019,0,0,1,.371.5q.184.277.41.645ZM14.684,6.984v4.063h1.781a2.7,2.7,0,0,0,.91-.148,2.107,2.107,0,0,0,.723-.426,1.931,1.931,0,0,0,.477-.68,2.275,2.275,0,0,0,.172-.9,1.756,1.756,0,0,0-.582-1.4,2.5,2.5,0,0,0-1.684-.5ZM28.733,13.32H23.084a2.992,2.992,0,0,0,.719,2.063,2.478,2.478,0,0,0,1.891.727,3.931,3.931,0,0,0,2.484-.891v1.2a4.643,4.643,0,0,1-2.789.766,3.381,3.381,0,0,1-2.664-1.09,4.461,4.461,0,0,1-.969-3.066,4.375,4.375,0,0,1,1.059-3.043,3.394,3.394,0,0,1,2.629-1.176,3.008,3.008,0,0,1,2.43,1.016,4.234,4.234,0,0,1,.859,2.82ZM27.42,12.234a2.607,2.607,0,0,0-.535-1.727,1.823,1.823,0,0,0-1.465-.617,2.07,2.07,0,0,0-1.539.648,2.943,2.943,0,0,0-.781,1.7Zm8.7,4.4a4.163,4.163,0,0,1-2.187.555,3.622,3.622,0,0,1-2.762-1.113,4.035,4.035,0,0,1-1.051-2.887,4.435,4.435,0,0,1,1.133-3.176,3.963,3.963,0,0,1,3.023-1.2,4.209,4.209,0,0,1,1.859.391v1.313a3.258,3.258,0,0,0-1.906-.625,2.576,2.576,0,0,0-2.012.879,3.335,3.335,0,0,0-.785,2.309,3.176,3.176,0,0,0,.738,2.219,2.545,2.545,0,0,0,1.98.813,3.211,3.211,0,0,0,1.969-.7ZM44.533,17H43.252V15.734H43.22a2.631,2.631,0,0,1-2.469,1.453q-2.859,0-2.859-3.406V9h1.273v4.578q0,2.531,1.938,2.531a1.96,1.96,0,0,0,1.543-.691,2.645,2.645,0,0,0,.605-1.809V9h1.281Zm6.759-6.7a1.567,1.567,0,0,0-.969-.258,1.635,1.635,0,0,0-1.371.773,3.576,3.576,0,0,0-.551,2.109V17H47.12V9H48.4v1.648h.031a2.794,2.794,0,0,1,.836-1.316,1.906,1.906,0,0,1,1.258-.473,2.092,2.092,0,0,1,.766.109Zm.908,6.414V15.336a3.792,3.792,0,0,0,2.3.773q1.688,0,1.688-1.125a.976.976,0,0,0-.145-.543,1.44,1.44,0,0,0-.391-.395,3.007,3.007,0,0,0-.578-.309q-.332-.137-.715-.285a9.207,9.207,0,0,1-.934-.426,2.82,2.82,0,0,1-.672-.484,1.8,1.8,0,0,1-.406-.613,2.17,2.17,0,0,1-.137-.8,1.912,1.912,0,0,1,.258-1,2.286,2.286,0,0,1,.688-.727,3.206,3.206,0,0,1,.98-.441,4.349,4.349,0,0,1,1.137-.148,4.59,4.59,0,0,1,1.859.359v1.3a3.624,3.624,0,0,0-2.031-.578,2.374,2.374,0,0,0-.648.082,1.587,1.587,0,0,0-.5.23,1.065,1.065,0,0,0-.32.355.936.936,0,0,0-.113.457,1.1,1.1,0,0,0,.113.523,1.152,1.152,0,0,0,.332.375,2.538,2.538,0,0,0,.531.3q.312.133.711.289a9.894,9.894,0,0,1,.953.418,3.269,3.269,0,0,1,.719.484,1.893,1.893,0,0,1,.457.621,2,2,0,0,1,.16.836,1.971,1.971,0,0,1-.262,1.031,2.243,2.243,0,0,1-.7.727,3.2,3.2,0,0,1-1.008.43,4.976,4.976,0,0,1-1.2.141A4.539,4.539,0,0,1,52.2,16.711Zm10.619.477a3.711,3.711,0,0,1-2.832-1.121,4.153,4.153,0,0,1-1.059-2.973,4.326,4.326,0,0,1,1.1-3.148,3.96,3.96,0,0,1,2.977-1.133,3.588,3.588,0,0,1,2.793,1.1,4.368,4.368,0,0,1,1,3.055,4.3,4.3,0,0,1-1.082,3.066A3.791,3.791,0,0,1,62.819,17.188Zm.094-7.3a2.437,2.437,0,0,0-1.953.84,3.449,3.449,0,0,0-.719,2.316,3.262,3.262,0,0,0,.727,2.242,2.469,2.469,0,0,0,1.945.82,2.342,2.342,0,0,0,1.91-.8,3.492,3.492,0,0,0,.668-2.289,3.552,3.552,0,0,0-.668-2.312A2.332,2.332,0,0,0,62.913,9.891Zm5.455,6.82V15.336a3.792,3.792,0,0,0,2.3.773q1.688,0,1.688-1.125a.976.976,0,0,0-.145-.543,1.44,1.44,0,0,0-.391-.395,3.007,3.007,0,0,0-.578-.309q-.332-.137-.715-.285a9.207,9.207,0,0,1-.934-.426,2.82,2.82,0,0,1-.672-.484,1.8,1.8,0,0,1-.406-.613,2.17,2.17,0,0,1-.137-.8,1.912,1.912,0,0,1,.258-1,2.286,2.286,0,0,1,.688-.727,3.206,3.206,0,0,1,.98-.441,4.349,4.349,0,0,1,1.137-.148,4.59,4.59,0,0,1,1.859.359v1.3a3.624,3.624,0,0,0-2.031-.578,2.374,2.374,0,0,0-.648.082,1.587,1.587,0,0,0-.5.23,1.065,1.065,0,0,0-.32.355.936.936,0,0,0-.113.457,1.1,1.1,0,0,0,.113.523,1.152,1.152,0,0,0,.332.375,2.538,2.538,0,0,0,.531.3q.313.133.711.289a9.9,9.9,0,0,1,.953.418,3.269,3.269,0,0,1,.719.484,1.893,1.893,0,0,1,.457.621,2,2,0,0,1,.16.836,1.971,1.971,0,0,1-.262,1.031,2.243,2.243,0,0,1-.7.727,3.2,3.2,0,0,1-1.008.43,4.976,4.976,0,0,1-1.2.141A4.539,4.539,0,0,1,68.367,16.711ZM86.456,13.32H80.808a2.992,2.992,0,0,0,.719,2.063,2.478,2.478,0,0,0,1.891.727,3.931,3.931,0,0,0,2.484-.891v1.2a4.643,4.643,0,0,1-2.789.766,3.381,3.381,0,0,1-2.664-1.09,4.461,4.461,0,0,1-.969-3.066,4.375,4.375,0,0,1,1.059-3.043,3.394,3.394,0,0,1,2.629-1.176A3.008,3.008,0,0,1,85.6,9.828a4.234,4.234,0,0,1,.859,2.82Zm-1.312-1.086a2.607,2.607,0,0,0-.535-1.727,1.823,1.823,0,0,0-1.465-.617,2.07,2.07,0,0,0-1.539.648,2.943,2.943,0,0,0-.781,1.7ZM13.653,41H12.34V29.8h1.313Zm9.416,0H21.787V36.438q0-2.547-1.859-2.547a2.017,2.017,0,0,0-1.59.723,2.679,2.679,0,0,0-.629,1.824V41H16.428V33h1.281v1.328h.031a2.887,2.887,0,0,1,2.625-1.516,2.448,2.448,0,0,1,2.008.848,3.776,3.776,0,0,1,.7,2.449Zm9.056,0H30.844V36.438q0-2.547-1.859-2.547a2.017,2.017,0,0,0-1.59.723,2.679,2.679,0,0,0-.629,1.824V41H25.484V33h1.281v1.328H26.8a2.887,2.887,0,0,1,2.625-1.516,2.448,2.448,0,0,1,2.008.848,3.776,3.776,0,0,1,.7,2.449Zm5.759.188a3.711,3.711,0,0,1-2.832-1.121,4.153,4.153,0,0,1-1.059-2.973,4.326,4.326,0,0,1,1.1-3.148,3.96,3.96,0,0,1,2.977-1.133,3.588,3.588,0,0,1,2.793,1.1,4.368,4.368,0,0,1,1,3.055,4.3,4.3,0,0,1-1.082,3.066A3.791,3.791,0,0,1,37.884,41.188Zm.094-7.3a2.437,2.437,0,0,0-1.953.84,3.449,3.449,0,0,0-.719,2.316,3.262,3.262,0,0,0,.727,2.242,2.469,2.469,0,0,0,1.945.82,2.342,2.342,0,0,0,1.91-.8,3.492,3.492,0,0,0,.668-2.289,3.552,3.552,0,0,0-.668-2.312A2.332,2.332,0,0,0,37.978,33.891ZM50.206,33l-3.187,8H45.761L42.73,33h1.406l2.031,5.813a5.217,5.217,0,0,1,.281,1.117h.031a5.283,5.283,0,0,1,.25-1.086L48.855,33Zm7.1,8H56.028V39.75H56a2.682,2.682,0,0,1-2.461,1.438,2.63,2.63,0,0,1-1.871-.633,2.192,2.192,0,0,1-.676-1.68q0-2.242,2.641-2.609l2.4-.336q0-2.039-1.648-2.039a3.938,3.938,0,0,0-2.609.984V33.563a4.958,4.958,0,0,1,2.719-.75q2.82,0,2.82,2.984Zm-1.281-4.047-1.93.266a3.133,3.133,0,0,0-1.344.441,1.273,1.273,0,0,0-.453,1.121,1.221,1.221,0,0,0,.418.957,1.615,1.615,0,0,0,1.113.371,2.056,2.056,0,0,0,1.574-.668,2.387,2.387,0,0,0,.621-1.691Zm9.15,3.68a4.163,4.163,0,0,1-2.187.555,3.622,3.622,0,0,1-2.762-1.113,4.035,4.035,0,0,1-1.051-2.887,4.435,4.435,0,0,1,1.133-3.176,3.963,3.963,0,0,1,3.023-1.2,4.209,4.209,0,0,1,1.859.391v1.313a3.258,3.258,0,0,0-1.906-.625,2.576,2.576,0,0,0-2.012.879,3.335,3.335,0,0,0-.785,2.309,3.176,3.176,0,0,0,.738,2.219,2.545,2.545,0,0,0,1.98.813,3.211,3.211,0,0,0,1.969-.7Zm2.6-9.664a.812.812,0,0,1-.586-.234.791.791,0,0,1-.242-.594.821.821,0,0,1,.828-.836.827.827,0,0,1,.6.238.835.835,0,0,1,0,1.184A.82.82,0,0,1,67.774,30.969ZM68.4,41H67.117V33H68.4Zm5.939.188a3.711,3.711,0,0,1-2.832-1.121,4.153,4.153,0,0,1-1.059-2.973,4.326,4.326,0,0,1,1.1-3.148,3.96,3.96,0,0,1,2.977-1.133,3.588,3.588,0,0,1,2.793,1.1,4.368,4.368,0,0,1,1,3.055,4.3,4.3,0,0,1-1.082,3.066A3.791,3.791,0,0,1,74.338,41.188Zm.094-7.3a2.437,2.437,0,0,0-1.953.84,3.449,3.449,0,0,0-.719,2.316,3.262,3.262,0,0,0,.727,2.242,2.469,2.469,0,0,0,1.945.82,2.342,2.342,0,0,0,1.91-.8,3.492,3.492,0,0,0,.668-2.289,3.552,3.552,0,0,0-.668-2.312A2.332,2.332,0,0,0,74.431,33.891Zm1.875-4.969L74.26,31.484h-.992l1.742-2.562ZM87.011,41H85.73V36.438q0-2.547-1.859-2.547a2.017,2.017,0,0,0-1.59.723,2.679,2.679,0,0,0-.629,1.824V41H80.37V33h1.281v1.328h.031a2.887,2.887,0,0,1,2.625-1.516,2.448,2.448,0,0,1,2.008.848,3.776,3.776,0,0,1,.7,2.449Z" transform="translate(574.733 5592.285)" fill="#fff"/>
    <path id="Trazado_1091443" data-name="Trazado 1091443" d="M23.278,16.531a6.571,6.571,0,0,1-3.094.656,4.989,4.989,0,0,1-3.828-1.539,5.679,5.679,0,0,1-1.438-4.039,5.952,5.952,0,0,1,1.617-4.344,5.489,5.489,0,0,1,4.1-1.656,6.576,6.576,0,0,1,2.641.461v1.4A5.355,5.355,0,0,0,20.622,6.8a4.076,4.076,0,0,0-3.129,1.289,4.856,4.856,0,0,0-1.2,3.445,4.621,4.621,0,0,0,1.121,3.262,3.815,3.815,0,0,0,2.941,1.215,5.518,5.518,0,0,0,2.922-.75Zm5.455.656A3.711,3.711,0,0,1,25.9,16.066a4.153,4.153,0,0,1-1.059-2.973,4.326,4.326,0,0,1,1.1-3.148A3.96,3.96,0,0,1,28.92,8.813a3.588,3.588,0,0,1,2.793,1.1,4.368,4.368,0,0,1,1,3.055,4.3,4.3,0,0,1-1.082,3.066A3.791,3.791,0,0,1,28.732,17.188Zm.094-7.3a2.437,2.437,0,0,0-1.953.84,3.449,3.449,0,0,0-.719,2.316,3.262,3.262,0,0,0,.727,2.242,2.469,2.469,0,0,0,1.945.82,2.342,2.342,0,0,0,1.91-.8,3.492,3.492,0,0,0,.668-2.289,3.552,3.552,0,0,0-.668-2.312A2.332,2.332,0,0,0,28.826,9.891Zm9.283,7.3a3.711,3.711,0,0,1-2.832-1.121,4.153,4.153,0,0,1-1.059-2.973,4.326,4.326,0,0,1,1.1-3.148A3.96,3.96,0,0,1,38.3,8.813a3.588,3.588,0,0,1,2.793,1.1,4.368,4.368,0,0,1,1,3.055,4.3,4.3,0,0,1-1.082,3.066A3.791,3.791,0,0,1,38.109,17.188Zm.094-7.3a2.437,2.437,0,0,0-1.953.84,3.449,3.449,0,0,0-.719,2.316,3.262,3.262,0,0,0,.727,2.242,2.469,2.469,0,0,0,1.945.82,2.342,2.342,0,0,0,1.91-.8,3.492,3.492,0,0,0,.668-2.289,3.552,3.552,0,0,0-.668-2.312A2.332,2.332,0,0,0,38.2,9.891Zm10.111.406a1.567,1.567,0,0,0-.969-.258,1.635,1.635,0,0,0-1.371.773,3.576,3.576,0,0,0-.551,2.109V17H44.142V9h1.281v1.648h.031a2.794,2.794,0,0,1,.836-1.316,1.906,1.906,0,0,1,1.258-.473,2.092,2.092,0,0,1,.766.109Zm8.22,6.7H55.253V15.641h-.031a2.958,2.958,0,0,1-2.75,1.547,2.988,2.988,0,0,1-2.41-1.074,4.407,4.407,0,0,1-.9-2.926,4.794,4.794,0,0,1,1-3.18,3.3,3.3,0,0,1,2.664-1.2,2.564,2.564,0,0,1,2.4,1.3h.031V5.156h1.281Zm-1.281-3.617V12.2a2.289,2.289,0,0,0-.641-1.641,2.149,2.149,0,0,0-1.625-.672,2.212,2.212,0,0,0-1.844.859,3.766,3.766,0,0,0-.672,2.375,3.387,3.387,0,0,0,.645,2.184,2.107,2.107,0,0,0,1.73.8,2.188,2.188,0,0,0,1.738-.773A2.882,2.882,0,0,0,55.253,13.383Zm4.533-6.414a.812.812,0,0,1-.586-.234.791.791,0,0,1-.242-.594.821.821,0,0,1,.828-.836.827.827,0,0,1,.6.238.835.835,0,0,1,0,1.184A.82.82,0,0,1,59.786,6.969ZM60.411,17H59.13V9h1.281Zm9.236,0H68.365V12.438q0-2.547-1.859-2.547a2.017,2.017,0,0,0-1.59.723,2.679,2.679,0,0,0-.629,1.824V17H63.006V9h1.281v1.328h.031a2.887,2.887,0,0,1,2.625-1.516,2.448,2.448,0,0,1,2.008.848,3.776,3.776,0,0,1,.7,2.449Zm8.142,0H76.508V15.75h-.031a2.682,2.682,0,0,1-2.461,1.438,2.63,2.63,0,0,1-1.871-.633,2.192,2.192,0,0,1-.676-1.68q0-2.242,2.641-2.609l2.4-.336q0-2.039-1.648-2.039a3.938,3.938,0,0,0-2.609.984V9.563a4.958,4.958,0,0,1,2.719-.75q2.82,0,2.82,2.984Zm-1.281-4.047-1.93.266a3.133,3.133,0,0,0-1.344.441,1.273,1.273,0,0,0-.453,1.121,1.221,1.221,0,0,0,.418.957,1.615,1.615,0,0,0,1.113.371,2.056,2.056,0,0,0,1.574-.668,2.387,2.387,0,0,0,.621-1.691ZM87.033,17H85.751V15.641H85.72a2.958,2.958,0,0,1-2.75,1.547,2.988,2.988,0,0,1-2.41-1.074,4.407,4.407,0,0,1-.9-2.926,4.794,4.794,0,0,1,1-3.18,3.3,3.3,0,0,1,2.664-1.2,2.564,2.564,0,0,1,2.4,1.3h.031V5.156h1.281Zm-1.281-3.617V12.2a2.289,2.289,0,0,0-.641-1.641,2.149,2.149,0,0,0-1.625-.672,2.212,2.212,0,0,0-1.844.859,3.766,3.766,0,0,0-.672,2.375,3.387,3.387,0,0,0,.645,2.184,2.107,2.107,0,0,0,1.73.8,2.188,2.188,0,0,0,1.738-.773A2.882,2.882,0,0,0,85.751,13.383Zm7.22,3.8a3.711,3.711,0,0,1-2.832-1.121,4.153,4.153,0,0,1-1.059-2.973,4.326,4.326,0,0,1,1.1-3.148,3.96,3.96,0,0,1,2.977-1.133,3.588,3.588,0,0,1,2.793,1.1,4.368,4.368,0,0,1,1,3.055,4.3,4.3,0,0,1-1.082,3.066A3.791,3.791,0,0,1,92.972,17.188Zm.094-7.3a2.437,2.437,0,0,0-1.953.84,3.449,3.449,0,0,0-.719,2.316,3.262,3.262,0,0,0,.727,2.242,2.469,2.469,0,0,0,1.945.82,2.342,2.342,0,0,0,1.91-.8,3.492,3.492,0,0,0,.668-2.289,3.552,3.552,0,0,0-.668-2.312A2.332,2.332,0,0,0,93.066,9.891Zm10.111.406a1.567,1.567,0,0,0-.969-.258,1.635,1.635,0,0,0-1.371.773,3.576,3.576,0,0,0-.551,2.109V17H99V9h1.281v1.648h.031a2.793,2.793,0,0,1,.836-1.316,1.906,1.906,0,0,1,1.258-.473,2.092,2.092,0,0,1,.766.109ZM114.938,17h-5.812V5.8h1.313V15.813h4.5Zm7.978-3.68h-5.648a2.992,2.992,0,0,0,.719,2.063,2.478,2.478,0,0,0,1.891.727,3.931,3.931,0,0,0,2.484-.891v1.2a4.643,4.643,0,0,1-2.789.766,3.381,3.381,0,0,1-2.664-1.09,4.461,4.461,0,0,1-.969-3.066A4.375,4.375,0,0,1,117,9.988a3.394,3.394,0,0,1,2.629-1.176,3.008,3.008,0,0,1,2.43,1.016,4.234,4.234,0,0,1,.859,2.82ZM121.6,12.234a2.607,2.607,0,0,0-.535-1.727,1.823,1.823,0,0,0-1.465-.617,2.07,2.07,0,0,0-1.539.648,2.943,2.943,0,0,0-.781,1.7Zm10.08,4.125q0,4.406-4.219,4.406a5.664,5.664,0,0,1-2.594-.562V18.922a5.327,5.327,0,0,0,2.578.75q2.953,0,2.953-3.141v-.875h-.031a3.237,3.237,0,0,1-5.152.465,4.263,4.263,0,0,1-.91-2.863,4.981,4.981,0,0,1,.98-3.242,3.275,3.275,0,0,1,2.684-1.2,2.608,2.608,0,0,1,2.4,1.3h.031V9h1.281ZM130.4,13.383V12.2a2.289,2.289,0,0,0-.645-1.633,2.122,2.122,0,0,0-1.605-.68,2.225,2.225,0,0,0-1.859.863,3.853,3.853,0,0,0-.672,2.418,3.308,3.308,0,0,0,.645,2.137,2.082,2.082,0,0,0,1.707.8,2.23,2.23,0,0,0,1.754-.766A2.854,2.854,0,0,0,130.4,13.383ZM135.56,17h-1.281V9h1.281Zm1.148-12.078-2.047,2.563h-.992l1.742-2.562Zm5.158,12a2.47,2.47,0,0,1-1.2.25q-2.1,0-2.1-2.344V10.094h-1.375V9h1.375V7.047l1.281-.414V9h2.016v1.094H139.85V14.6a1.869,1.869,0,0,0,.273,1.148,1.091,1.091,0,0,0,.906.344,1.347,1.347,0,0,0,.836-.266Zm2.369-9.953a.812.812,0,0,1-.586-.234.791.791,0,0,1-.242-.594.821.821,0,0,1,.828-.836.827.827,0,0,1,.6.238.835.835,0,0,1,0,1.184A.82.82,0,0,1,144.235,6.969ZM144.86,17h-1.281V9h1.281Zm13.955,0h-1.281V12.406a3.466,3.466,0,0,0-.41-1.922,1.555,1.555,0,0,0-1.379-.594,1.708,1.708,0,0,0-1.395.75,2.869,2.869,0,0,0-.574,1.8V17h-1.281V12.25q0-2.359-1.82-2.359a1.686,1.686,0,0,0-1.391.707,2.923,2.923,0,0,0-.547,1.84V17h-1.281V9h1.281v1.266h.031a2.718,2.718,0,0,1,2.484-1.453,2.311,2.311,0,0,1,2.266,1.656,2.855,2.855,0,0,1,2.656-1.656q2.641,0,2.641,3.258Zm5.767.188a3.711,3.711,0,0,1-2.832-1.121,4.153,4.153,0,0,1-1.059-2.973,4.326,4.326,0,0,1,1.1-3.148,3.96,3.96,0,0,1,2.977-1.133,3.588,3.588,0,0,1,2.793,1.1,4.368,4.368,0,0,1,1,3.055,4.3,4.3,0,0,1-1.082,3.066A3.791,3.791,0,0,1,164.582,17.188Zm.094-7.3a2.437,2.437,0,0,0-1.953.84A3.449,3.449,0,0,0,162,13.047a3.262,3.262,0,0,0,.727,2.242,2.469,2.469,0,0,0,1.945.82,2.342,2.342,0,0,0,1.91-.8,3.492,3.492,0,0,0,.668-2.289,3.552,3.552,0,0,0-.668-2.312A2.332,2.332,0,0,0,164.675,9.891Z" transform="translate(710.566 5438.819)" fill="#212429"/>
    <g id="Grupo_1218195" data-name="Grupo 1218195" transform="translate(712.631 5478.088)">
      <g id="Grupo_1218177" data-name="Grupo 1218177" transform="translate(0 62.41)">
        <path id="Trazado_1086977" data-name="Trazado 1086977" d="M277.272,357.2a436.2,436.2,0,0,1,3.465,104.765H171.282a265.755,265.755,0,0,1,33.731-93.894C227.494,359.162,252.752,356.333,277.272,357.2Z" transform="translate(-156.673 -225.704)" fill="#f4e6d0"/>
        <path id="Trazado_1086978" data-name="Trazado 1086978" d="M276.377,262.6c2.618,14.145,2.512,30-.992,43.951,1.809,5.3.091,11.352-3.33,15.791s-8.334,7.488-13.388,9.91c-19.973,9.572-43.694,8.674-64.292.532-9.158,1.69-18.547,3.384-27.725,1.808a20.362,20.362,0,0,1-9.248-3.668c-4.775-3.756-6.518-10.388-5.909-16.432s3.242-12.113,5.8-17.621a4.421,4.421,0,0,1-1.45-3.794,11.09,11.09,0,0,1,1.292-4c1.985-4.059,5.91-7.767,8.942-11.118a11.946,11.946,0,0,1-2.418-11.554,13.051,13.051,0,0,1,9.324-8.137c1.852-9.351,5.809-18.365,10.531-26.646l42.421-15.471c8.056-2.938,15.046-5.88,23.621-5.927,6.36-6.16,15.658-7.858,24.178-5.449a20.049,20.049,0,0,1,15.591-9.455,21.235,21.235,0,0,1,17.336,7.263c4.636,5.423,6.208,12.992,5.464,20.088s-3.6,13.806-6.961,20.1a123.7,123.7,0,0,1-43.32,46.321" transform="translate(-151.378 -182.661)" fill="#f4e6d0"/>
        <path id="Trazado_1086979" data-name="Trazado 1086979" d="M332.743,244.686a53.614,53.614,0,0,0,15.15-26.734,23.168,23.168,0,0,1-2.815.958,23,23,0,0,0-2.823,1.415,23.693,23.693,0,0,0-4.954,3.905,23.169,23.169,0,0,0-3.737,5.077c-1.109,2.046-.71,3.77-.732,6.045Q332.787,240.02,332.743,244.686Z" transform="translate(-199.632 -188.695)" fill="#d9c29e"/>
        <path id="Trazado_1086980" data-name="Trazado 1086980" d="M369.73,180.487c-2.393-1.252-7.114-2.839-9.9-2.284-3.851.767-8.373,5.511-11.529,7.744l-11.78,8.338c-3.2,9.038-2.286,17.905-3.115,28.416.884-.271,11.113-6.031,14.695-9.1l21.1-18.062c2.5-2.14,5.193-4.653,5.339-7.9C374.677,184.635,372.446,181.908,369.73,180.487Z" transform="translate(-199.808 -178.089)" fill="#f2ad93"/>
        <path id="Trazado_1086981" data-name="Trazado 1086981" d="M276.723,207.081" transform="translate(-184.727 -185.802)" fill="none" stroke="#2a1510" stroke-linecap="round" stroke-linejoin="round" stroke-miterlimit="10" stroke-width="1"/>
        <path id="Trazado_1086982" data-name="Trazado 1086982" d="M312.652,208.867a338.311,338.311,0,0,0-10.2,67.462" transform="translate(-191.572 -186.278)" fill="none" stroke="#2a1510" stroke-linecap="round" stroke-linejoin="round" stroke-miterlimit="10" stroke-width="1"/>
        <path id="Trazado_1086983" data-name="Trazado 1086983" d="M278.983,217.842C272.2,258.106,262.374,294.688,245,329.684" transform="translate(-176.288 -188.666)" fill="none" stroke="#2a1510" stroke-linecap="round" stroke-linejoin="round" stroke-miterlimit="10" stroke-width="1"/>
        <path id="Trazado_1086984" data-name="Trazado 1086984" d="M163.535,353.936a14.952,14.952,0,0,0,5.935,11.3,12.726,12.726,0,0,0,12.517,1.375,12.558,12.558,0,0,0,6.95-11.792,14.13,14.13,0,0,0-7.654-11.563c-3.608-1.848-9.325-2.482-13.152-.753C164.358,344.2,163.354,350.27,163.535,353.936Z" transform="translate(-154.607 -221.562)" fill="#d9c29e"/>
        <path id="Trazado_1086985" data-name="Trazado 1086985" d="M209.579,246.028a89.6,89.6,0,0,1,44.633,42.826" transform="translate(-166.863 -196.165)" fill="none" stroke="#2a1510" stroke-linecap="round" stroke-linejoin="round" stroke-miterlimit="10" stroke-width="1"/>
        <path id="Trazado_1086986" data-name="Trazado 1086986" d="M207.263,269.786a49.9,49.9,0,0,1,7.282,42.969" transform="translate(-166.247 -202.486)" fill="none" stroke="#2a1510" stroke-linecap="round" stroke-linejoin="round" stroke-miterlimit="10" stroke-width="1"/>
        <path id="Trazado_1086987" data-name="Trazado 1086987" d="M183.385,301.229A37.632,37.632,0,0,1,207.7,334.81" transform="translate(-159.894 -210.851)" fill="none" stroke="#2a1510" stroke-linecap="round" stroke-linejoin="round" stroke-miterlimit="10" stroke-width="1"/>
        <path id="Trazado_1086988" data-name="Trazado 1086988" d="M159.589,337.507a19.681,19.681,0,0,1,32.471,11.535" transform="translate(-153.562 -219.199)" fill="none" stroke="#2a1510" stroke-linecap="round" stroke-linejoin="round" stroke-miterlimit="10" stroke-width="1"/>
        <path id="Trazado_1086989" data-name="Trazado 1086989" d="M213.918,354.942a47.386,47.386,0,0,1-1.3,11.819c-1.09,3.822-3.286,7.485-6.7,9.517" transform="translate(-165.888 -225.142)" fill="none" stroke="#2a1510" stroke-linecap="round" stroke-linejoin="round" stroke-miterlimit="10" stroke-width="1"/>
        <path id="Trazado_1086990" data-name="Trazado 1086990" d="M303.255,340.779a69.351,69.351,0,0,1-48.463,30.971" transform="translate(-178.892 -221.374)" fill="none" stroke="#2a1510" stroke-linecap="round" stroke-linejoin="round" stroke-miterlimit="10" stroke-width="1"/>
        <path id="Trazado_1086991" data-name="Trazado 1086991" d="M336.172,197.656a246.342,246.342,0,0,0-2.431,63.6" transform="translate(-199.624 -183.295)" fill="none" stroke="#2a1510" stroke-linecap="round" stroke-linejoin="round" stroke-miterlimit="10" stroke-width="1"/>
        <path id="Trazado_1086992" data-name="Trazado 1086992" d="M289.472,363.564a136.593,136.593,0,0,1-75.56,16.4" transform="translate(-168.016 -227.436)" fill="none" stroke="#2a1510" stroke-linecap="round" stroke-linejoin="round" stroke-miterlimit="10" stroke-width="1"/>
        <g id="Grupo_1218176" data-name="Grupo 1218176" transform="translate(10.528 18.559)">
          <path id="Trazado_1086993" data-name="Trazado 1086993" d="M264.046,204.672l-18.776,76.867c-5.086,20.821-10.309,41.985-21.208,60.44-10.637,18.01-27.661,33.383-48.155,37.2a3.725,3.725,0,0,0-2.446,1.593c-3.735,5.671-6.774,13.678-6.834,20.192-.037,4.117.552,8.636-.727,12.374a3.2,3.2,0,0,0,2.335,4.184,58.28,58.28,0,0,0,43.035-7.492c14.068-8.784,24.776-22.25,32.366-37s12.258-30.81,16.193-46.922a585.792,585.792,0,0,0,16.494-122.739C272.066,203.456,268.3,204.592,264.046,204.672Z" transform="translate(-165.723 -203.375)" fill="#4b4bbd"/>
          <path id="Trazado_1086994" data-name="Trazado 1086994" d="M293.943,204.912a498.506,498.506,0,0,1-26.18,110.679" transform="translate(-192.871 -203.784)" fill="none" stroke="#2a1510" stroke-linecap="round" stroke-linejoin="round" stroke-miterlimit="10" stroke-width="1"/>
          <path id="Trazado_1086995" data-name="Trazado 1086995" d="M283.731,217.768A515.688,515.688,0,0,1,251.1,352.219c-4.481,11.455-9.429,22.853-16.6,32.847s-16.773,18.586-28.357,22.723" transform="translate(-176.477 -207.204)" fill="none" stroke="#2a1510" stroke-linecap="round" stroke-linejoin="round" stroke-miterlimit="10" stroke-width="1"/>
          <path id="Trazado_1086996" data-name="Trazado 1086996" d="M177.453,440.176a59.48,59.48,0,0,0,52.774-26.536" transform="translate(-168.844 -259.318)" fill="none" stroke="#2a1510" stroke-linecap="round" stroke-linejoin="round" stroke-miterlimit="10" stroke-width="1"/>
          <path id="Trazado_1086997" data-name="Trazado 1086997" d="M170.7,484.957a34.4,34.4,0,0,0,21.753-1.362" transform="translate(-167.047 -277.93)" fill="none" stroke="#2a1510" stroke-linecap="round" stroke-linejoin="round" stroke-miterlimit="10" stroke-width="1"/>
        </g>
        <path id="Trazado_1086998" data-name="Trazado 1086998" d="M301.039,374.591a369.367,369.367,0,0,1-13.675,90.61" transform="translate(-187.558 -230.37)" fill="none" stroke="#2a1510" stroke-linecap="round" stroke-linejoin="round" stroke-miterlimit="10" stroke-width="1"/>
        <path id="Trazado_1086999" data-name="Trazado 1086999" d="M268.265,441.72a181.228,181.228,0,0,1-27.314,42.431" transform="translate(-175.21 -248.231)" fill="none" stroke="#2a1510" stroke-linecap="round" stroke-linejoin="round" stroke-miterlimit="10" stroke-width="1"/>
        <path id="Trazado_1087000" data-name="Trazado 1087000" d="M166.626,400.966c-.037,4.117.552,8.636-.727,12.374a3.2,3.2,0,0,0,2.335,4.184,58.28,58.28,0,0,0,43.035-7.492c14.068-8.784,24.776-22.25,32.366-37s12.258-30.81,16.193-46.922a585.792,585.792,0,0,0,16.494-122.739" transform="translate(-155.194 -184.816)" fill="none" stroke="#2a1510" stroke-linecap="round" stroke-linejoin="round" stroke-miterlimit="10" stroke-width="1"/>
      </g>
      <g id="Grupo_1218184" data-name="Grupo 1218184" transform="translate(55.328 25.748)">
        <path id="Trazado_1087001" data-name="Trazado 1087001" d="M249.565,224.694l-12.537,5.567c9.888,14.164,18.089,26.759,27.976,40.923,4.768-16.516,7.328-30.608,10.283-46.87C267.282,223.624,256.91,221.432,249.565,224.694Z" transform="translate(-229.494 -153.363)" fill="#f2ad93"/>
        <path id="Trazado_1087002" data-name="Trazado 1087002" d="M259.421,184.415a77.779,77.779,0,0,0-13.316-.48,16.16,16.16,0,0,1-8.947-2.2c-4.931-2.914-8.188-8.178-9.538-13.744s-.956-11.429.152-17.049c1.314-6.667,3.792-13.4,8.779-18.02s12.962-6.49,18.752-2.932c4.906-3.141,12.313-1.272,16.315,2.96s5.72,10.1,6.931,15.794c1.269,5.967,2.131,12.143,1.091,18.154s-4.227,11.889-9.492,14.97A17.9,17.9,0,0,1,259.421,184.415Z" transform="translate(-226.763 -128.137)" fill="#e64a19"/>
        <path id="Trazado_1087003" data-name="Trazado 1087003" d="M259.691,185.276a69.827,69.827,0,0,0-12.345-.46,14.6,14.6,0,0,1-8.294-2.106c-4.572-2.792-7.59-7.835-8.843-13.168a39.463,39.463,0,0,1,.141-16.334c1.218-6.387,3.515-12.842,8.139-17.264s12.017-6.217,17.385-2.81c4.547-3.009,11.416-1.219,15.126,2.836s5.3,9.674,6.426,15.132c1.177,5.717,1.975,11.634,1.011,17.393s-3.918,11.391-8.8,14.342A16.177,16.177,0,0,1,259.691,185.276Z" transform="translate(-227.469 -128.993)" fill="#bf360c"/>
        <g id="Grupo_1218178" data-name="Grupo 1218178" transform="translate(16.814 37.009)">
          <path id="Trazado_1087004" data-name="Trazado 1087004" d="M250.053,205.13q.12,8.325.241,16.65c-.466.5,7.893,13.48,13.086,17.869,4.126-4.7,8.621-17.665,7.645-18.021-.124-.84-.237-1.687-.344-2.536C263.113,222.155,255.695,214.069,250.053,205.13Z" transform="translate(-249.773 -185.631)" fill="#f2ad93"/>
          <path id="Trazado_1087005" data-name="Trazado 1087005" d="M249.672,178.715q.14,9.674.28,19.347c5.641,8.939,13.06,17.024,20.628,13.96a220.167,220.167,0,0,1-1.4-22.988C264.415,181.28,256.274,177.761,249.672,178.715Z" transform="translate(-249.672 -178.562)" fill="#f77f54"/>
        </g>
        <g id="Grupo_1218183" data-name="Grupo 1218183" transform="translate(4.035 8.069)">
          <g id="Grupo_1218181" data-name="Grupo 1218181">
            <g id="Grupo_1218180" data-name="Grupo 1218180">
              <path id="Trazado_1087006" data-name="Trazado 1087006" d="M238.488,173.887a8.058,8.058,0,0,0-2.1-2.71,2.755,2.755,0,0,0-3.214-.169,2.632,2.632,0,0,0-.9,1.877,6.325,6.325,0,0,0,.284,2.114,22.178,22.178,0,0,0,1.316,3.607,5.588,5.588,0,0,0,1.978,2.557,3.165,3.165,0,0,0,4.633-1.707" transform="translate(-232.261 -147.494)" fill="#f77f54"/>
              <path id="Trazado_1087007" data-name="Trazado 1087007" d="M287.695,173.887a8.058,8.058,0,0,1,2.1-2.71,2.755,2.755,0,0,1,3.214-.169,2.632,2.632,0,0,1,.9,1.877,6.326,6.326,0,0,1-.284,2.114,22.181,22.181,0,0,1-1.316,3.607,5.588,5.588,0,0,1-1.978,2.557,3.165,3.165,0,0,1-4.633-1.707" transform="translate(-246.479 -147.494)" fill="#f77f54"/>
              <g id="Grupo_1218179" data-name="Grupo 1218179" transform="translate(4.934)">
                <path id="Trazado_1087008" data-name="Trazado 1087008" d="M260.043,139.131l-2,.009c-2.685,6.956-11.9,14.358-18.845,18.283a37.278,37.278,0,0,0,.219,9.567c1.092,7.065.313,9.032,5.312,14.323,2.587,2.738,9.234,4.5,13.682,4.7,4.1.178,11.354-4.236,13.683-6.815,4.737-5.248,3.656-6.247,4.214-11.472,0-2.8.247-6.6.4-10.035a29.5,29.5,0,0,1-2.779-1.763C268.93,152.59,262,145.355,260.043,139.131Z" transform="translate(-238.984 -139.131)" fill="#f2ad93"/>
              </g>
              <path id="Trazado_1087009" data-name="Trazado 1087009" d="M258.419,169.13a1.753,1.753,0,1,1-1.753-1.753A1.753,1.753,0,0,1,258.419,169.13Z" transform="translate(-238.287 -146.646)" fill="#2a1510"/>
              <path id="Trazado_1087010" data-name="Trazado 1087010" d="M273.789,169.13a1.753,1.753,0,1,1-1.753-1.753A1.753,1.753,0,0,1,273.789,169.13Z" transform="translate(-242.377 -146.646)" fill="#2a1510"/>
              <path id="Trazado_1087011" data-name="Trazado 1087011" d="M263.917,169.089c-1.334.961-3.536,6.742-2.735,8.089.837,1.408,4.675,1.173,5.549-.054C267.479,176.073,264.946,169.3,263.917,169.089Z" transform="translate(-239.91 -147.102)" fill="url(#linear-gradient)"/>
            </g>
            <path id="Trazado_1087012" data-name="Trazado 1087012" d="M250.579,161.729a4.966,4.966,0,0,1,7.482-1.854" transform="translate(-237.134 -144.386)" fill="none" stroke="#2a1510" stroke-linecap="round" stroke-linejoin="round" stroke-miterlimit="10" stroke-width="1"/>
            <path id="Trazado_1087013" data-name="Trazado 1087013" d="M268.99,159.81a4.443,4.443,0,0,1,7.218,1.092" transform="translate(-242.033 -144.263)" fill="none" stroke="#2a1510" stroke-linecap="round" stroke-linejoin="round" stroke-miterlimit="10" stroke-width="1"/>
            <path id="Trazado_1087014" data-name="Trazado 1087014" d="M263.969,189.371a5.137,5.137,0,0,0,3.142-.677,5.544,5.544,0,0,0,2.131-2.579,8.886,8.886,0,0,0-2.708-1.733,3.017,3.017,0,0,0-3.033.492h-.264a3.017,3.017,0,0,0-3.033-.492,8.861,8.861,0,0,0-2.707,1.733,5.552,5.552,0,0,0,2.131,2.579,5.127,5.127,0,0,0,3.142.677Z" transform="translate(-238.975 -151.119)" fill="#d13a3a"/>
            <path id="Trazado_1087015" data-name="Trazado 1087015" d="M255.9,186.314a15.489,15.489,0,0,0,13.292-.181" transform="translate(-238.551 -151.636)" fill="none" stroke="#2a1510" stroke-linecap="round" stroke-linejoin="round" stroke-miterlimit="10" stroke-width="1"/>
          </g>
          <g id="Grupo_1218182" data-name="Grupo 1218182" transform="translate(3.208 10.473)">
            <path id="Trazado_1087016" data-name="Trazado 1087016" d="M277.182,165.8c-2.589,2.823-6.688,3.735-10.519,3.72s-7.634-.8-11.463-.71c-3.168.075-6.31.749-9.479.676s-6.545-1.052-8.466-3.573c-.046-1.455-.577-3.039-.623-4.495a31.214,31.214,0,0,1,41.76-.019C278.216,162.509,277.358,164.7,277.182,165.8Z" transform="translate(-236.632 -153.401)" fill="#f4e6d0"/>
            <path id="Trazado_1087017" data-name="Trazado 1087017" d="M238.43,165.061a58.334,58.334,0,0,1,20.784-4.076" transform="translate(-237.11 -155.419)" fill="none" stroke="#2a1510" stroke-linecap="round" stroke-linejoin="round" stroke-miterlimit="10" stroke-width="1"/>
            <path id="Trazado_1087018" data-name="Trazado 1087018" d="M240.9,169.908c3.838,1.084,7.9-.04,11.78-.98s8.141-1.656,11.707.128" transform="translate(-237.768 -157.274)" fill="none" stroke="#2a1510" stroke-linecap="round" stroke-linejoin="round" stroke-miterlimit="10" stroke-width="1"/>
            <path id="Trazado_1087019" data-name="Trazado 1087019" d="M261.065,156.169a27.252,27.252,0,0,1,21.389,4.892" transform="translate(-243.133 -154.005)" fill="none" stroke="#2a1510" stroke-linecap="round" stroke-linejoin="round" stroke-miterlimit="10" stroke-width="1"/>
            <path id="Trazado_1087020" data-name="Trazado 1087020" d="M275.811,168.88a11.486,11.486,0,0,0,9.165-1.91" transform="translate(-247.056 -157.011)" fill="none" stroke="#2a1510" stroke-linecap="round" stroke-linejoin="round" stroke-miterlimit="10" stroke-width="1"/>
          </g>
        </g>
      </g>
      <g id="Grupo_1218188" data-name="Grupo 1218188" transform="translate(8.088)">
        <g id="Grupo_1218186" data-name="Grupo 1218186" transform="translate(29.54)">
          <path id="Trazado_1087021" data-name="Trazado 1087021" d="M240.121,297.558A1.9,1.9,0,0,0,238,295.9l-4.392.544a1.9,1.9,0,0,0-1.654,2.122L235.36,326.1l8.168-1.011Z" transform="translate(-210.439 -147.021)" fill="#c08329"/>
          <path id="Trazado_1087022" data-name="Trazado 1087022" d="M236.6,336.687l.029.231a4.115,4.115,0,0,0,8.168-1.011l-.029-.231Z" transform="translate(-211.68 -157.606)" fill="#6c301e"/>
          <g id="Grupo_1218185" data-name="Grupo 1218185">
            <path id="Trazado_1087023" data-name="Trazado 1087023" d="M207.093,94.911l-4.147,18.663a12.594,12.594,0,0,0-.124,4.829L224.053,244.06l3.447-.426-18.625-150.5A2.3,2.3,0,0,0,207.093,94.911Z" transform="translate(-202.645 -93.075)" fill="#efebe9"/>
            <path id="Trazado_1087024" data-name="Trazado 1087024" d="M223.744,116.068a12.6,12.6,0,0,0-1.32-4.638l-8.685-17.094a2.314,2.314,0,0,0-2.606-1.223l18.626,150.5,4.757-.589Z" transform="translate(-204.904 -93.055)" fill="#d7ccc8"/>
          </g>
          <path id="Trazado_1087025" data-name="Trazado 1087025" d="M245.393,292.389a4.629,4.629,0,0,0-3.891-.28c-1.776.573-3.441,1.823-5.294,1.611a9.657,9.657,0,0,1-2.945-1.17,5.033,5.033,0,0,0-5.392.667,9.657,9.657,0,0,1-2.571,1.853c-1.745.658-3.665-.149-5.527-.272a4.627,4.627,0,0,0-3.706,1.221,2.489,2.489,0,0,0,.032,3.521,2.868,2.868,0,0,0,2.936.157,8.3,8.3,0,0,0,2.374-1.935c.685-.717,1.858-.395,2.795-.054s1.737.958,2.636,1.386A9.829,9.829,0,0,0,235.7,298c.767-.633,1.393-1.427,2.218-1.986s1.885-1.158,2.724-.63a8.289,8.289,0,0,0,2.774,1.3,2.867,2.867,0,0,0,2.809-.868A2.491,2.491,0,0,0,245.393,292.389Z" transform="translate(-206.027 -145.937)" fill="#6c301e"/>
          <path id="Trazado_1087026" data-name="Trazado 1087026" d="M240.239,305.216l-2.415,1.381a1.579,1.579,0,0,1-1.166.145l-2.679-.75a.681.681,0,0,1-.164-1.324l2.415-1.381a1.579,1.579,0,0,1,1.166-.145l2.679.75A.681.681,0,0,1,240.239,305.216Z" transform="translate(-210.815 -148.936)" fill="#6c301e"/>
          <path id="Trazado_1087027" data-name="Trazado 1087027" d="M241.065,311.884l-2.415,1.381a1.579,1.579,0,0,1-1.166.145l-2.679-.75a.681.681,0,0,1-.164-1.324l2.415-1.381a1.579,1.579,0,0,1,1.166-.145l2.679.75A.681.681,0,0,1,241.065,311.884Z" transform="translate(-211.035 -150.711)" fill="#6c301e"/>
          <path id="Trazado_1087028" data-name="Trazado 1087028" d="M241.89,318.552l-2.415,1.381a1.582,1.582,0,0,1-1.166.145l-2.679-.75a.681.681,0,0,1-.164-1.324l2.415-1.381a1.578,1.578,0,0,1,1.166-.145l2.679.75A.681.681,0,0,1,241.89,318.552Z" transform="translate(-211.255 -152.485)" fill="#6c301e"/>
          <path id="Trazado_1087029" data-name="Trazado 1087029" d="M242.715,325.22,240.3,326.6a1.579,1.579,0,0,1-1.166.145l-2.679-.75a.681.681,0,0,1-.164-1.324l2.415-1.381a1.579,1.579,0,0,1,1.166-.145l2.679.75A.681.681,0,0,1,242.715,325.22Z" transform="translate(-211.474 -154.259)" fill="#6c301e"/>
          <path id="Trazado_1087030" data-name="Trazado 1087030" d="M243.54,331.888l-2.415,1.381a1.579,1.579,0,0,1-1.166.145l-2.679-.75a.681.681,0,0,1-.164-1.324l2.415-1.381a1.582,1.582,0,0,1,1.166-.145l2.679.75A.681.681,0,0,1,243.54,331.888Z" transform="translate(-211.694 -156.033)" fill="#6c301e"/>
        </g>
        <g id="Grupo_1218187" data-name="Grupo 1218187" transform="translate(0 157.408)">
          <path id="Trazado_1087031" data-name="Trazado 1087031" d="M227.368,312.649a2.107,2.107,0,0,0-1.532-1.458,4.3,4.3,0,0,0,.964-1.345,1.461,1.461,0,0,0-.245-1.553,2.189,2.189,0,0,0-1.963-.231,98.508,98.508,0,0,0-10.012,2.215l-.4-2.752a25.764,25.764,0,0,0-6.766,1.039,2.784,2.784,0,0,0-1.544,1.293c-2.031,3.7-4.563,10.756-6.746,14.157l-29.659,8.113a9.536,9.536,0,0,0-6.547,12.295h0a9.535,9.535,0,0,0,13.157,5.506L206.464,335.3c6.975-3.036,15.087-10.14,21.19-14.682a1.789,1.789,0,0,0,.7-1.608,1.751,1.751,0,0,0-.991-1.419,2.1,2.1,0,0,0-.492-3.06A1.8,1.8,0,0,0,227.368,312.649Z" transform="translate(-162.397 -307.525)" fill="#f2ad93"/>
          <line id="Línea_702" data-name="Línea 702" x1="9.811" y2="3.469" transform="translate(53.629 3.667)" fill="none" stroke="#2a1510" stroke-linecap="round" stroke-linejoin="round" stroke-miterlimit="10" stroke-width="1"/>
          <line id="Línea_703" data-name="Línea 703" x1="9.811" y2="3.469" transform="translate(54.478 7.244)" fill="none" stroke="#2a1510" stroke-linecap="round" stroke-linejoin="round" stroke-miterlimit="10" stroke-width="1"/>
          <line id="Línea_704" data-name="Línea 704" x1="9.811" y2="3.469" transform="translate(55.029 10.046)" fill="none" stroke="#2a1510" stroke-linecap="round" stroke-linejoin="round" stroke-miterlimit="10" stroke-width="1"/>
        </g>
      </g>
      <g id="Grupo_1218194" data-name="Grupo 1218194" transform="translate(103.828 0.112)">
        <path id="Trazado_1087032" data-name="Trazado 1087032" d="M346.783,197.127,305.152,182.98a.537.537,0,0,1-.335-.682h0a.537.537,0,0,1,.682-.336l41.631,14.147a.538.538,0,0,1,.336.682h0A.537.537,0,0,1,346.783,197.127Z" transform="translate(-296.022 -116.813)" fill="#6c301e"/>
        <path id="Trazado_1087033" data-name="Trazado 1087033" d="M343.284,110.551A54.159,54.159,0,0,0,335.5,117.6a1,1,0,0,1-1.737-.6,6.447,6.447,0,0,1,.743-3.574c1.792-3.3,5.4-5.105,8.8-6.686" transform="translate(-303.726 -96.807)" fill="#f77f54"/>
        <g id="Grupo_1218189" data-name="Grupo 1218189" transform="translate(26.551 10.587)">
          <path id="Trazado_1087034" data-name="Trazado 1087034" d="M333.469,132.523v-5.543c1.048-2.163,1.965-4.568,1.144-6.784-.291-.787-.793-1.506-1.144-2.263v-3.168a9.74,9.74,0,0,1,.873-1.456,8.546,8.546,0,0,0,1.192-2.039,2.522,2.522,0,0,0-.2-2.272,1.56,1.56,0,0,0-1.867-.528.846.846,0,0,0-1.692.005A1.558,1.558,0,0,0,329.9,109a2.524,2.524,0,0,0-.2,2.272,8.55,8.55,0,0,0,1.192,2.039,9.663,9.663,0,0,1,.881,1.475v3.127c-.352.765-.859,1.491-1.153,2.285-.824,2.222.1,4.635,1.153,6.8v5.506c-.08.168-.161.336-.251.5-.934,1.712-.556,8.275.251,9.656v5.568a11.16,11.16,0,0,0-1.359,3.941c-.082,1.621.7,3.173,1.359,4.71V171.33a.847.847,0,0,0,1.695,0V156.86c.654-1.53,1.431-3.075,1.349-4.688a11.068,11.068,0,0,0-1.349-3.921v-5.6c.807-1.375,1.176-7.928.241-9.64C333.625,132.847,333.547,132.685,333.469,132.523Z" transform="translate(-329.155 -107.632)" fill="#6c301e"/>
          <path id="Trazado_1087035" data-name="Trazado 1087035" d="M335.956,191.167a3.468,3.468,0,1,1-3.468-3.468A3.468,3.468,0,0,1,335.956,191.167Z" transform="translate(-329.02 -128.935)" fill="#6c301e"/>
          <path id="Trazado_1087036" data-name="Trazado 1087036" d="M335.709,174.221c0,.6-1.384,1.081-3.092,1.081s-3.092-.484-3.092-1.081,1.384-1.081,3.092-1.081S335.709,173.624,335.709,174.221Z" transform="translate(-329.154 -125.061)" fill="#6c301e"/>
          <path id="Trazado_1087037" data-name="Trazado 1087037" d="M335.709,161.938c0,.6-1.384,1.081-3.092,1.081s-3.092-.484-3.092-1.081,1.384-1.081,3.092-1.081S335.709,161.341,335.709,161.938Z" transform="translate(-329.154 -121.793)" fill="#6c301e"/>
        </g>
        <g id="Grupo_1218191" data-name="Grupo 1218191" transform="translate(17.586)">
          <path id="Trazado_1087038" data-name="Trazado 1087038" d="M341.846,108.276l8.547,2.617a12.221,12.221,0,0,0,3.2.674,8.2,8.2,0,0,0,4.528-1.4,24.457,24.457,0,0,0,3.69-3.075c-1.822-1.716-4.346-2.425-6.763-3.076a19.234,19.234,0,0,0-5.659-.931,9.742,9.742,0,0,0-7.473,4.045" transform="translate(-323.467 -95.832)" fill="#f77f54"/>
          <g id="Grupo_1218190" data-name="Grupo 1218190">
            <path id="Trazado_1087039" data-name="Trazado 1087039" d="M330.214,93.207l-12.423,2.539a1.232,1.232,0,0,0-.957,1.47l2.172,9.955a1.71,1.71,0,0,0,1.121,1.255l7.892,2.674a1.054,1.054,0,0,0,1.313-1.4h0a5.032,5.032,0,0,0-2.484-2.626l-3.814-1.821-.918-5.424,6.479-.2,4.87,9.276a1.588,1.588,0,0,0,2.016.728l9.614-4v-2.278h5.046a9.357,9.357,0,0,0,6.067-2.233l3.7-1.745-.123-.753a4.747,4.747,0,0,0-4.414-3.976Z" transform="translate(-316.805 -93.207)" fill="#f2ad93"/>
            <line id="Línea_705" data-name="Línea 705" x1="4.25" y1="10.572" transform="translate(16.489 4.994)" fill="none" stroke="#2a1510" stroke-linecap="round" stroke-linejoin="round" stroke-miterlimit="10" stroke-width="1"/>
            <line id="Línea_706" data-name="Línea 706" x1="2.812" y1="8.621" transform="translate(21.855 5.311)" fill="none" stroke="#2a1510" stroke-linecap="round" stroke-linejoin="round" stroke-miterlimit="10" stroke-width="1"/>
            <path id="Trazado_1087040" data-name="Trazado 1087040" d="M354.905,107.655a12.814,12.814,0,0,0-1.235-6.842" transform="translate(-326.613 -95.231)" fill="none" stroke="#2a1510" stroke-linecap="round" stroke-linejoin="round" stroke-miterlimit="10" stroke-width="1"/>
            <path id="Trazado_1087041" data-name="Trazado 1087041" d="M355.45,105.211l1-1.55" transform="translate(-327.087 -95.988)" fill="none" stroke="#2a1510" stroke-linecap="round" stroke-linejoin="round" stroke-miterlimit="10" stroke-width="1"/>
          </g>
        </g>
        <path id="Trazado_1087042" data-name="Trazado 1087042" d="M361.521,94.719l.283,68.589a10.111,10.111,0,0,0,12.065,9.92h0a10.111,10.111,0,0,0,8.025-11.546L371.687,99.024a4.747,4.747,0,0,0-4.414-3.976Z" transform="translate(-311.116 -93.609)" fill="#f2ad93"/>
        <path id="Trazado_1087043" data-name="Trazado 1087043" d="M335.128,191.638a2.169,2.169,0,1,1-2.169-2.169A2.169,2.169,0,0,1,335.128,191.638Z" transform="translate(-302.94 -118.818)" fill="#c08329"/>
        <g id="Grupo_1218192" data-name="Grupo 1218192" transform="translate(0 65.795)">
          <path id="Trazado_1087044" data-name="Trazado 1087044" d="M302.608,182.853l-8.36,20.3h16.721Z" transform="translate(-293.218 -182.853)" fill="none" stroke="#2a1510" stroke-linecap="round" stroke-linejoin="round" stroke-miterlimit="10" stroke-width="1"/>
          <path id="Trazado_1087045" data-name="Trazado 1087045" d="M292.844,209.514c.382,3.463,4.436,6.191,9.391,6.191s9.009-2.727,9.391-6.191Z" transform="translate(-292.844 -189.946)" fill="#fbcc34"/>
        </g>
        <g id="Grupo_1218193" data-name="Grupo 1218193" transform="translate(41.494 79.813)">
          <path id="Trazado_1087046" data-name="Trazado 1087046" d="M359.144,201.953l-8.361,20.3H367.5Z" transform="translate(-349.753 -201.953)" fill="none" stroke="#2a1510" stroke-linecap="round" stroke-linejoin="round" stroke-miterlimit="10" stroke-width="1"/>
          <path id="Trazado_1087047" data-name="Trazado 1087047" d="M349.38,228.615c.382,3.463,4.436,6.191,9.391,6.191s9.009-2.727,9.391-6.191Z" transform="translate(-349.38 -209.047)" fill="#fbcc34"/>
        </g>
        <path id="Trazado_1087048" data-name="Trazado 1087048" d="M292.844,209.514c.382,3.463,4.436,6.191,9.391,6.191" transform="translate(-292.844 -124.152)" fill="none" stroke="#2a1510" stroke-linecap="round" stroke-linejoin="round" stroke-miterlimit="10" stroke-width="1"/>
        <path id="Trazado_1087049" data-name="Trazado 1087049" d="M349.38,228.615c.382,3.463,4.436,6.191,9.391,6.191" transform="translate(-307.886 -129.234)" fill="none" stroke="#2a1510" stroke-linecap="round" stroke-linejoin="round" stroke-miterlimit="10" stroke-width="1"/>
      </g>
    </g>
  </g>
</svg>
