<svg xmlns="http://www.w3.org/2000/svg" width="94.5" height="95" viewBox="0 0 94.5 95">
  <g id="Grupo_1219812" data-name="Grupo 1219812" transform="translate(-1292.5 -663)">
    <rect id="Rectángulo_420937" data-name="Rectángulo 420937" width="63" height="95" transform="translate(1324 663)" fill="#1172b3"/>
    <g id="igualdad-social_1_" data-name="igualdad-social (1)" transform="translate(1292.499 663.5)">
      <g id="Grupo_1219809" data-name="Grupo 1219809" transform="translate(1.152 1.384)">
        <path id="Trazado_1091377" data-name="Trazado 1091377" d="M244.712,68.195H243.56a2.221,2.221,0,0,1-2.215-2.215V10.256a2.222,2.222,0,0,1,1.4-2.058c.252-.1.59.054.877.054l.736.417c1.218,0,2.229.334,2.229,1.552l.14,55.865A1.972,1.972,0,0,1,244.712,68.195Z" transform="translate(-197.951 -8.041)" fill="#ffd15b"/>
        <path id="Trazado_1091378" data-name="Trazado 1091378" d="M253.115,9.715V65.438a2.221,2.221,0,0,1-2.215,2.215h-1.152a2.181,2.181,0,0,1-.814-.157,2.22,2.22,0,0,0,1.4-2.058V9.715a2.22,2.22,0,0,0-1.4-2.058,2.182,2.182,0,0,1,.814-.157H250.9A2.221,2.221,0,0,1,253.115,9.715Z" transform="translate(-204.139 -7.5)" fill="#ffc143"/>
        <path id="Trazado_1091379" data-name="Trazado 1091379" d="M222.208,284.6l-5.354-.177H208.74a2.221,2.221,0,0,0-2.215,2.215v2.587a2.219,2.219,0,0,0,2.215,2.212l7.385,1.482,6.1-1.748a2.006,2.006,0,0,0,2.215-1.945v-2.587A2.1,2.1,0,0,0,222.208,284.6Z" transform="translate(-169.558 -233.307)" fill="#ffe177"/>
        <path id="Trazado_1091380" data-name="Trazado 1091380" d="M268.2,286.632v2.588a2.217,2.217,0,0,1-2.213,2.211l-3.147.893-3.287-.893a2.218,2.218,0,0,0,2.215-2.211v-2.588a2.221,2.221,0,0,0-2.215-2.215h6.432A2.221,2.221,0,0,1,268.2,286.632Z" transform="translate(-212.8 -233.306)" fill="#ffd15b"/>
        <path id="Trazado_1091381" data-name="Trazado 1091381" d="M166.123,331.3v-6.341a2.537,2.537,0,0,1,2.537-2.536h14l13.8.244a2.312,2.312,0,0,1,2.5,2.293l-.141,8.116c0,1.4-.485,2.536-1.886,2.536H174.229Z" transform="translate(-136.613 -264.294)" fill="#ffd15b"/>
        <path id="Trazado_1091382" data-name="Trazado 1091382" d="M270.228,324.956v8.116a2.537,2.537,0,0,1-2.536,2.538H252.9a2.537,2.537,0,0,0,2.536-2.538v-8.116a2.536,2.536,0,0,0-2.536-2.536h14.8A2.536,2.536,0,0,1,270.228,324.956Z" transform="translate(-207.369 -264.295)" fill="#ffc143"/>
        <path id="Trazado_1091383" data-name="Trazado 1091383" d="M395.966,357.292l7.539-1.91a3.7,3.7,0,0,1,4.825,3.452,3.887,3.887,0,0,1-2.625,3.676l-7.021,2.953Z" transform="translate(-324.034 -291.065)" fill="#c46255"/>
        <path id="Trazado_1091384" data-name="Trazado 1091384" d="M72.5,360.652l3.338,1.555c1.054.011,5.639-2.932,6.66-3.193l9.074-2.318a4.317,4.317,0,0,1,2.717,8.172l-17.228,7.123a14.425,14.425,0,0,1-5.511,1.094H54.7a9.614,9.614,0,0,0-8.65,5.417l-1.562,3a1.29,1.29,0,0,1-1.145.694L23.2,382.189a.529.529,0,0,1-.433-.831l8.817-12.641a9.57,9.57,0,0,0,1.721-5.353,8.94,8.94,0,0,1,3.606-7.06h0a9.042,9.042,0,0,1,5.41-1.785Z" transform="translate(-19.634 -290.469)" fill="#ce7165"/>
        <path id="Trazado_1091385" data-name="Trazado 1091385" d="M195.308,387.618l-19.771.726a2.021,2.021,0,0,1-2.18-1.844c-.006-.057-.007-.113-.007-.17a2.021,2.021,0,0,1,1.851-2.01l16.293-1.757,3.195-2.054,2.606,0a12.154,12.154,0,0,0,3.127-.375l4.943-1.259C205.534,382.722,202.164,387.618,195.308,387.618Z" transform="translate(-142.506 -310.332)" fill="#c46255"/>
        <path id="Trazado_1091386" data-name="Trazado 1091386" d="M129.131,354.518h28.314a4.033,4.033,0,0,1,.306,8.054L139.016,364Z" transform="translate(-106.448 -290.469)" fill="#ce7165"/>
        <path id="Trazado_1091387" data-name="Trazado 1091387" d="M79.153,63.384h65.453v5.834H79.153Z" transform="translate(-65.695 -53.069)" fill="#ffc143"/>
        <path id="Trazado_1091388" data-name="Trazado 1091388" d="M10.8,186.293A15.938,15.938,0,0,1,8.569,184c-.052-.081-.212-.2-.263-.285a14.114,14.114,0,0,1,19.407-19.408c.114.07.243.3.355.377a14.855,14.855,0,0,1,2.037,2.144c5.506,5.506,5.346,13.334-.157,18.837S16.3,191.8,10.8,186.293Z" transform="translate(-6.236 -133.676)" fill="#f2fbff"/>
        <path id="Trazado_1091389" data-name="Trazado 1091389" d="M39.478,195.479a14.125,14.125,0,0,1-2.143,1.76A51.849,51.849,0,0,1,29.6,198.4a46.108,46.108,0,0,1-7.954-1.17,14.183,14.183,0,0,1-4.2-4.369,14.114,14.114,0,0,0,19.407-19.408,14.132,14.132,0,0,1,2.62,22.03Z" transform="translate(-15.38 -142.82)" fill="#dff6fd"/>
        <path id="Trazado_1091390" data-name="Trazado 1091390" d="M39.3,253.663v-.9a3.581,3.581,0,0,1,2.629-3.451l1.962-.423c.052-.014.158-.288.205-.31a.99.99,0,0,0,.58-.9v-3.968H49.94v3.968a.992.992,0,0,0,.584.9,1.138,1.138,0,0,0,.142.082l2.036.647a3.582,3.582,0,0,1,2.629,3.451v.9H39.3Z" transform="translate(-33.197 -200.116)" fill="#c46255"/>
        <path id="Trazado_1091391" data-name="Trazado 1091391" d="M58.847,202.91l.612.347a3.192,3.192,0,0,0,3.15,0l.612-.347a5.359,5.359,0,0,0,2.715-4.661v-1.361a4.9,4.9,0,0,0-9.8,0v1.361A5.359,5.359,0,0,0,58.847,202.91Z" transform="translate(-46.923 -157.943)" fill="#ce7165"/>
        <path id="Trazado_1091392" data-name="Trazado 1091392" d="M359.246,187.022c-.692-.692-1.772-1.169-2.288-1.958-.076-.116-.358-.347-.43-.464a13.91,13.91,0,0,1,19.127-19.127c.11.068.217.217.326.288a11.745,11.745,0,0,1,1.851,1.861,12.913,12.913,0,0,1-.078,18.818C372.329,191.864,364.672,192.449,359.246,187.022Z" transform="translate(-290.211 -134.653)" fill="#f2fbff"/>
        <path id="Trazado_1091393" data-name="Trazado 1091393" d="M387.25,196.195a13.908,13.908,0,0,1-2.087,1.716l-7.765-.24-7.714.251a13.984,13.984,0,0,1-4.143-4.311,13.909,13.909,0,0,0,19.126-19.127,13.927,13.927,0,0,1,2.582,21.711Z" transform="translate(-299.224 -143.664)" fill="#dff6fd"/>
        <path id="Trazado_1091394" data-name="Trazado 1091394" d="M386.536,253.663v-.9a3.581,3.581,0,0,1,2.629-3.451l2.04-.606c.057-.016.076-.1.128-.127a1.039,1.039,0,0,0,.58-.9v-3.968h5.264v3.968a.992.992,0,0,0,.585.9c.046.021.086.145.136.159l2.042.571a3.582,3.582,0,0,1,2.629,3.451v.9H386.536Z" transform="translate(-316.344 -200.116)" fill="#ffcebe"/>
        <path id="Trazado_1091395" data-name="Trazado 1091395" d="M406.083,202.91l.612.347a3.192,3.192,0,0,0,3.15,0l.612-.347a5.359,5.359,0,0,0,2.715-4.661v-1.361a4.9,4.9,0,0,0-9.8,0v1.361a5.358,5.358,0,0,0,2.715,4.661Z" transform="translate(-330.069 -157.943)" fill="#ffdfcf"/>
        <path id="Trazado_1091396" data-name="Trazado 1091396" d="M397.719,270.616c-1.838,3.433-4.42,6.187-8.3,7.119a.007.007,0,0,0-.006,0,12.044,12.044,0,0,1-4.765-2.511l-.427-1.153a3.332,3.332,0,0,1,1.057-2.344,3.584,3.584,0,0,1,1.565-.906l2.453-.677a.838.838,0,0,0,.148-.055l.131.3a3.489,3.489,0,0,0,6.163,0l.135-.294a.952.952,0,0,0,.144.052Z" transform="translate(-314.457 -221.624)" fill="#b3dafe"/>
        <path id="Trazado_1091397" data-name="Trazado 1091397" d="M412.058,56.107a4.554,4.554,0,0,1-4.613,4.888,5.009,5.009,0,0,1-4.811-2.961c-.005-.014-.041-.041-.046-.055a5.06,5.06,0,0,1,4.721-6.877,4.725,4.725,0,0,1,1.818.339,4.806,4.806,0,0,1,2.932,4.666Z" transform="translate(-329.158 -43.054)" fill="#ffe177"/>
        <path id="Trazado_1091398" data-name="Trazado 1091398" d="M412.375,61.233a5.058,5.058,0,0,1-7.152,0,5,5,0,0,1-1.145-1.756,5.057,5.057,0,0,0,6.539-6.538,5,5,0,0,1,1.758,1.142A5.058,5.058,0,0,1,412.375,61.233Z" transform="translate(-330.648 -44.552)" fill="#ffd15b"/>
        <path id="Trazado_1091399" data-name="Trazado 1091399" d="M217.417,59.3l-5.166.38h-7.958a3.809,3.809,0,0,1-3.809-3.809v-3.8a3.809,3.809,0,0,1,3.809-3.809h7.881l5.186.2a3.435,3.435,0,0,1,3.555,3.611V55.8A3.3,3.3,0,0,1,217.417,59.3Z" transform="translate(-164.632 -40.743)" fill="#ffe177"/>
        <path id="Trazado_1091400" data-name="Trazado 1091400" d="M270.94,52.078v3.8a3.809,3.809,0,0,1-3.81,3.81h-5.585a3.809,3.809,0,0,0,3.808-3.81v-3.8a3.809,3.809,0,0,0-3.808-3.808h5.585A3.809,3.809,0,0,1,270.94,52.078Z" transform="translate(-214.423 -40.745)" fill="#ffd15b"/>
        <path id="Trazado_1091401" data-name="Trazado 1091401" d="M50.487,270.618c-1.838,3.433-4.429,6.185-8.309,7.117a.007.007,0,0,0-.006,0,12.554,12.554,0,0,1-4.917-2.457l-.275-1.216a3.325,3.325,0,0,1,1.058-2.335,3.583,3.583,0,0,1,1.565-.906l2.453-.677a.839.839,0,0,0,.148-.055l.131.3a3.489,3.489,0,0,0,6.163,0l.135-.293a.95.95,0,0,0,.144.051Z" transform="translate(-31.306 -221.624)" fill="#b3dafe"/>
        <path id="Trazado_1091402" data-name="Trazado 1091402" d="M53.832,276.606v2.663a15.234,15.234,0,0,1-16.883-.014v-2.649q0-.105.006-.21a15.187,15.187,0,0,0,13.507-3.446l.742.2a3.584,3.584,0,0,1,2.628,3.451Z" transform="translate(-31.28 -223.956)" fill="#8ac9fe"/>
        <path id="Trazado_1091403" data-name="Trazado 1091403" d="M401.074,276.6v2.646a15.214,15.214,0,0,1-16.883.012V276.6c0-.068,0-.133.006-.2a15.166,15.166,0,0,0,13.5-3.457l.751.207a3.583,3.583,0,0,1,2.628,3.451Z" transform="translate(-314.432 -223.948)" fill="#8ac9fe"/>
        <path id="Trazado_1091404" data-name="Trazado 1091404" d="M65.68,56.107a4.554,4.554,0,0,1-4.613,4.888,5.009,5.009,0,0,1-4.811-2.961c-.005-.014-.041-.041-.046-.055A5.06,5.06,0,0,1,60.93,51.1a4.725,4.725,0,0,1,1.818.339A4.805,4.805,0,0,1,65.68,56.107Z" transform="translate(-46.711 -43.054)" fill="#ffe177"/>
        <path id="Trazado_1091405" data-name="Trazado 1091405" d="M66,61.233a5.058,5.058,0,0,1-7.152,0A5,5,0,0,1,57.7,59.477a5.057,5.057,0,0,0,6.539-6.538A5,5,0,0,1,66,54.081,5.058,5.058,0,0,1,66,61.233Z" transform="translate(-48.202 -44.552)" fill="#ffd15b"/>
      </g>
      <g id="Grupo_1219810" data-name="Grupo 1219810" transform="translate(1.152 1.384)">
        <path id="Trazado_1091406" data-name="Trazado 1091406" d="M244.712,68.195H243.56a2.221,2.221,0,0,1-2.215-2.215V10.256a2.222,2.222,0,0,1,1.4-2.058c.252-.1.59.054.877.054l.736.417c1.218,0,2.229.334,2.229,1.552l.14,55.865A1.972,1.972,0,0,1,244.712,68.195Z" transform="translate(-197.951 -8.041)" fill="#ffd15b"/>
        <path id="Trazado_1091407" data-name="Trazado 1091407" d="M253.115,9.715V65.438a2.221,2.221,0,0,1-2.215,2.215h-1.152a2.181,2.181,0,0,1-.814-.157,2.22,2.22,0,0,0,1.4-2.058V9.715a2.22,2.22,0,0,0-1.4-2.058,2.182,2.182,0,0,1,.814-.157H250.9A2.221,2.221,0,0,1,253.115,9.715Z" transform="translate(-204.139 -7.5)" fill="#ffc143"/>
        <path id="Trazado_1091408" data-name="Trazado 1091408" d="M222.208,284.6l-5.354-.177H208.74a2.221,2.221,0,0,0-2.215,2.215v2.587a2.219,2.219,0,0,0,2.215,2.212l7.385,1.482,6.1-1.748a2.006,2.006,0,0,0,2.215-1.945v-2.587A2.1,2.1,0,0,0,222.208,284.6Z" transform="translate(-169.558 -233.307)" fill="#ffe177"/>
        <path id="Trazado_1091409" data-name="Trazado 1091409" d="M268.2,286.632v2.588a2.217,2.217,0,0,1-2.213,2.211l-3.147.893-3.287-.893a2.218,2.218,0,0,0,2.215-2.211v-2.588a2.221,2.221,0,0,0-2.215-2.215h6.432A2.221,2.221,0,0,1,268.2,286.632Z" transform="translate(-212.8 -233.306)" fill="#ffd15b"/>
        <path id="Trazado_1091410" data-name="Trazado 1091410" d="M166.123,331.3v-6.341a2.537,2.537,0,0,1,2.537-2.536h14l13.8.244a2.312,2.312,0,0,1,2.5,2.293l-.141,8.116c0,1.4-.485,2.536-1.886,2.536H174.229Z" transform="translate(-136.613 -264.294)" fill="#ffd15b"/>
        <path id="Trazado_1091411" data-name="Trazado 1091411" d="M270.228,324.956v8.116a2.537,2.537,0,0,1-2.536,2.538H252.9a2.537,2.537,0,0,0,2.536-2.538v-8.116a2.536,2.536,0,0,0-2.536-2.536h14.8A2.536,2.536,0,0,1,270.228,324.956Z" transform="translate(-207.369 -264.295)" fill="#ffc143"/>
        <path id="Trazado_1091412" data-name="Trazado 1091412" d="M395.966,357.292l7.539-1.91a3.7,3.7,0,0,1,4.825,3.452,3.887,3.887,0,0,1-2.625,3.676l-7.021,2.953Z" transform="translate(-324.034 -291.065)" fill="#c46255"/>
        <path id="Trazado_1091413" data-name="Trazado 1091413" d="M72.5,360.652l3.338,1.555c1.054.011,5.639-2.932,6.66-3.193l9.074-2.318a4.317,4.317,0,0,1,2.717,8.172l-17.228,7.123a14.425,14.425,0,0,1-5.511,1.094H54.7a9.614,9.614,0,0,0-8.65,5.417l-1.562,3a1.29,1.29,0,0,1-1.145.694L23.2,382.189a.529.529,0,0,1-.433-.831l8.817-12.641a9.57,9.57,0,0,0,1.721-5.353,8.94,8.94,0,0,1,3.606-7.06h0a9.042,9.042,0,0,1,5.41-1.785Z" transform="translate(-19.634 -290.469)" fill="#ce7165"/>
        <path id="Trazado_1091414" data-name="Trazado 1091414" d="M195.308,387.618l-19.771.726a2.021,2.021,0,0,1-2.18-1.844c-.006-.057-.007-.113-.007-.17a2.021,2.021,0,0,1,1.851-2.01l16.293-1.757,3.195-2.054,2.606,0a12.154,12.154,0,0,0,3.127-.375l4.943-1.259C205.534,382.722,202.164,387.618,195.308,387.618Z" transform="translate(-142.506 -310.332)" fill="#c46255"/>
        <path id="Trazado_1091415" data-name="Trazado 1091415" d="M129.131,354.518h28.314a4.033,4.033,0,0,1,.306,8.054L139.016,364Z" transform="translate(-106.448 -290.469)" fill="#ce7165"/>
        <path id="Trazado_1091416" data-name="Trazado 1091416" d="M79.153,63.384h65.453v5.834H79.153Z" transform="translate(-65.695 -53.069)" fill="#ffc143"/>
        <path id="Trazado_1091417" data-name="Trazado 1091417" d="M10.8,186.293A15.938,15.938,0,0,1,8.569,184c-.052-.081-.212-.2-.263-.285a14.114,14.114,0,0,1,19.407-19.408c.114.07.243.3.355.377a14.855,14.855,0,0,1,2.037,2.144c5.506,5.506,5.346,13.334-.157,18.837S16.3,191.8,10.8,186.293Z" transform="translate(-6.236 -133.676)" fill="#f2fbff"/>
        <path id="Trazado_1091418" data-name="Trazado 1091418" d="M39.478,195.479a14.125,14.125,0,0,1-2.143,1.76A51.849,51.849,0,0,1,29.6,198.4a46.108,46.108,0,0,1-7.954-1.17,14.183,14.183,0,0,1-4.2-4.369,14.114,14.114,0,0,0,19.407-19.408,14.132,14.132,0,0,1,2.62,22.03Z" transform="translate(-15.38 -142.82)" fill="#dff6fd"/>
        <path id="Trazado_1091419" data-name="Trazado 1091419" d="M39.3,253.663v-.9a3.581,3.581,0,0,1,2.629-3.451l1.962-.423c.052-.014.158-.288.205-.31a.99.99,0,0,0,.58-.9v-3.968H49.94v3.968a.992.992,0,0,0,.584.9,1.138,1.138,0,0,0,.142.082l2.036.647a3.582,3.582,0,0,1,2.629,3.451v.9H39.3Z" transform="translate(-33.197 -200.116)" fill="#c46255"/>
        <path id="Trazado_1091420" data-name="Trazado 1091420" d="M58.847,202.91l.612.347a3.192,3.192,0,0,0,3.15,0l.612-.347a5.359,5.359,0,0,0,2.715-4.661v-1.361a4.9,4.9,0,0,0-9.8,0v1.361A5.359,5.359,0,0,0,58.847,202.91Z" transform="translate(-46.923 -157.943)" fill="#ce7165"/>
        <path id="Trazado_1091421" data-name="Trazado 1091421" d="M359.246,187.022c-.692-.692-1.772-1.169-2.288-1.958-.076-.116-.358-.347-.43-.464a13.91,13.91,0,0,1,19.127-19.127c.11.068.217.217.326.288a11.745,11.745,0,0,1,1.851,1.861,12.913,12.913,0,0,1-.078,18.818C372.329,191.864,364.672,192.449,359.246,187.022Z" transform="translate(-290.211 -134.653)" fill="#f2fbff"/>
        <path id="Trazado_1091422" data-name="Trazado 1091422" d="M387.25,196.195a13.908,13.908,0,0,1-2.087,1.716l-7.765-.24-7.714.251a13.984,13.984,0,0,1-4.143-4.311,13.909,13.909,0,0,0,19.126-19.127,13.927,13.927,0,0,1,2.582,21.711Z" transform="translate(-299.224 -143.664)" fill="#dff6fd"/>
        <path id="Trazado_1091423" data-name="Trazado 1091423" d="M386.536,253.663v-.9a3.581,3.581,0,0,1,2.629-3.451l2.04-.606c.057-.016.076-.1.128-.127a1.039,1.039,0,0,0,.58-.9v-3.968h5.264v3.968a.992.992,0,0,0,.585.9c.046.021.086.145.136.159l2.042.571a3.582,3.582,0,0,1,2.629,3.451v.9H386.536Z" transform="translate(-316.344 -200.116)" fill="#ffcebe"/>
        <path id="Trazado_1091424" data-name="Trazado 1091424" d="M406.083,202.91l.612.347a3.192,3.192,0,0,0,3.15,0l.612-.347a5.359,5.359,0,0,0,2.715-4.661v-1.361a4.9,4.9,0,0,0-9.8,0v1.361a5.358,5.358,0,0,0,2.715,4.661Z" transform="translate(-330.069 -157.943)" fill="#ffdfcf"/>
        <path id="Trazado_1091425" data-name="Trazado 1091425" d="M397.719,270.616c-1.838,3.433-4.42,6.187-8.3,7.119a.007.007,0,0,0-.006,0,12.044,12.044,0,0,1-4.765-2.511l-.427-1.153a3.332,3.332,0,0,1,1.057-2.344,3.584,3.584,0,0,1,1.565-.906l2.453-.677a.838.838,0,0,0,.148-.055l.131.3a3.489,3.489,0,0,0,6.163,0l.135-.294a.952.952,0,0,0,.144.052Z" transform="translate(-314.457 -221.624)" fill="#b3dafe"/>
        <path id="Trazado_1091426" data-name="Trazado 1091426" d="M412.058,56.107a4.554,4.554,0,0,1-4.613,4.888,5.009,5.009,0,0,1-4.811-2.961c-.005-.014-.041-.041-.046-.055a5.06,5.06,0,0,1,4.721-6.877,4.725,4.725,0,0,1,1.818.339,4.806,4.806,0,0,1,2.932,4.666Z" transform="translate(-329.158 -43.054)" fill="#ffe177"/>
        <path id="Trazado_1091427" data-name="Trazado 1091427" d="M412.375,61.233a5.058,5.058,0,0,1-7.152,0,5,5,0,0,1-1.145-1.756,5.057,5.057,0,0,0,6.539-6.538,5,5,0,0,1,1.758,1.142A5.058,5.058,0,0,1,412.375,61.233Z" transform="translate(-330.648 -44.552)" fill="#ffd15b"/>
        <path id="Trazado_1091428" data-name="Trazado 1091428" d="M217.417,59.3l-5.166.38h-7.958a3.809,3.809,0,0,1-3.809-3.809v-3.8a3.809,3.809,0,0,1,3.809-3.809h7.881l5.186.2a3.435,3.435,0,0,1,3.555,3.611V55.8A3.3,3.3,0,0,1,217.417,59.3Z" transform="translate(-164.632 -40.743)" fill="#ffe177"/>
        <path id="Trazado_1091429" data-name="Trazado 1091429" d="M270.94,52.078v3.8a3.809,3.809,0,0,1-3.81,3.81h-5.585a3.809,3.809,0,0,0,3.808-3.81v-3.8a3.809,3.809,0,0,0-3.808-3.808h5.585A3.809,3.809,0,0,1,270.94,52.078Z" transform="translate(-214.423 -40.745)" fill="#ffd15b"/>
        <path id="Trazado_1091430" data-name="Trazado 1091430" d="M50.487,270.618c-1.838,3.433-4.429,6.185-8.309,7.117a.007.007,0,0,0-.006,0,12.554,12.554,0,0,1-4.917-2.457l-.275-1.216a3.325,3.325,0,0,1,1.058-2.335,3.583,3.583,0,0,1,1.565-.906l2.453-.677a.839.839,0,0,0,.148-.055l.131.3a3.489,3.489,0,0,0,6.163,0l.135-.293a.95.95,0,0,0,.144.051Z" transform="translate(-31.306 -221.624)" fill="#b3dafe"/>
        <path id="Trazado_1091431" data-name="Trazado 1091431" d="M53.832,276.606v2.663a15.234,15.234,0,0,1-16.883-.014v-2.649q0-.105.006-.21a15.187,15.187,0,0,0,13.507-3.446l.742.2a3.584,3.584,0,0,1,2.628,3.451Z" transform="translate(-31.28 -223.956)" fill="#8ac9fe"/>
        <path id="Trazado_1091432" data-name="Trazado 1091432" d="M401.074,276.6v2.646a15.214,15.214,0,0,1-16.883.012V276.6c0-.068,0-.133.006-.2a15.166,15.166,0,0,0,13.5-3.457l.751.207a3.583,3.583,0,0,1,2.628,3.451Z" transform="translate(-314.432 -223.948)" fill="#8ac9fe"/>
        <path id="Trazado_1091433" data-name="Trazado 1091433" d="M65.68,56.107a4.554,4.554,0,0,1-4.613,4.888,5.009,5.009,0,0,1-4.811-2.961c-.005-.014-.041-.041-.046-.055A5.06,5.06,0,0,1,60.93,51.1a4.725,4.725,0,0,1,1.818.339A4.805,4.805,0,0,1,65.68,56.107Z" transform="translate(-46.711 -43.054)" fill="#ffe177"/>
        <path id="Trazado_1091434" data-name="Trazado 1091434" d="M66,61.233a5.058,5.058,0,0,1-7.152,0A5,5,0,0,1,57.7,59.477a5.057,5.057,0,0,0,6.539-6.538A5,5,0,0,1,66,54.081,5.058,5.058,0,0,1,66,61.233Z" transform="translate(-48.202 -44.552)" fill="#ffd15b"/>
      </g>
      <g id="Grupo_1219811" data-name="Grupo 1219811" transform="translate(0.001 0)">
        <path id="Trazado_1091435" data-name="Trazado 1091435" d="M19.016,461.919a1.384,1.384,0,0,0-1.927.343l-4.54,6.509a1.384,1.384,0,0,0,2.271,1.584l4.54-6.509A1.384,1.384,0,0,0,19.016,461.919Z" transform="translate(-10.03 -376.459)"/>
        <path id="Trazado_1091436" data-name="Trazado 1091436" d="M170.538,429.338l-5.559,2.3a12.974,12.974,0,0,1-4.982.989H143.153a11.061,11.061,0,0,0-9.886,6.179l-1.915,3.681a1.384,1.384,0,1,0,2.456,1.278l1.924-3.7.018-.035a8.277,8.277,0,0,1,7.4-4.637H160a15.728,15.728,0,0,0,6.04-1.2l5.559-2.3a1.384,1.384,0,1,0-1.058-2.558Z" transform="translate(-106.981 -350.009)"/>
        <path id="Trazado_1091437" data-name="Trazado 1091437" d="M65.493,37.641a15.216,15.216,0,1,0,27.583,0c-.007-.018-.013-.037-.022-.054L84.268,18.53a6.437,6.437,0,0,0-9.912-8.215H58.416a5.2,5.2,0,0,0-4.6-2.79H51.466V3.6a3.6,3.6,0,0,0-3.6-3.6H46.715a3.6,3.6,0,0,0-3.6,3.6V7.525H40.768a5.2,5.2,0,0,0-4.6,2.79h-3.8a1.384,1.384,0,1,0,0,2.769h3.207v3.065H21.55a6.416,6.416,0,0,0,.061-3.065h4.154a1.384,1.384,0,1,0,0-2.769H20.226a6.437,6.437,0,0,0-9.963,8.151L1.448,37.586a15.216,15.216,0,1,0,27.539,0l-8.608-18.67H36.166a5.2,5.2,0,0,0,4.6,2.79h2.348V51.065H40.288a3.6,3.6,0,0,0-3.6,3.6v3.46H33.154a3.925,3.925,0,0,0-3.921,3.921v2H23.774a10.493,10.493,0,0,0-6.22,2.059,10.385,10.385,0,0,0-4.164,8.154,8.154,8.154,0,0,1-1.472,4.579l-1.107,1.587a1.384,1.384,0,0,0,2.271,1.584l1.107-1.587a10.912,10.912,0,0,0,1.97-6.128,7.6,7.6,0,0,1,3.048-5.968,7.705,7.705,0,0,1,4.568-1.512H52.1a2.648,2.648,0,0,1,.2,5.289L33.569,73.531a1.384,1.384,0,0,0,.21,2.761l18.735-1.424a5.413,5.413,0,0,0,3.73-1.922,13.433,13.433,0,0,0,3.12-.417l14.017-3.576a2.933,2.933,0,0,1,3.658,2.841,2.962,2.962,0,0,1-2.016,2.794l-5.561,2.3a1.384,1.384,0,1,0,1.058,2.559c3.158-1.293,9.588-3.987,12.755-5.324a5.272,5.272,0,0,0,3.513-4.969,4.8,4.8,0,0,0-1.857-3.869,5.426,5.426,0,0,0-4.692-.925c-3.745.946-11.149,2.828-14.888,3.785v-6.1a3.925,3.925,0,0,0-3.921-3.921H57.893v-3.46a3.6,3.6,0,0,0-3.6-3.6H51.466V44.857a1.384,1.384,0,0,0-2.769,0v6.208H45.885V21.707H48.7V38.255a1.384,1.384,0,0,0,2.769,0V21.707h2.348a5.2,5.2,0,0,0,4.6-2.79H74.123L65.515,37.586c-.009.018-.015.036-.022.055ZM15.325,10.816a3.672,3.672,0,1,1-3.674,3.673,3.677,3.677,0,0,1,3.674-3.673ZM22.275,54.3a12.418,12.418,0,0,1-14.115,0v-.26a2.2,2.2,0,0,1,1.613-2.117l1.583-.437a4.87,4.87,0,0,0,7.723,0l1.583.437a2.2,2.2,0,0,1,1.613,2.117v.26ZM16.711,50a2.11,2.11,0,0,1-2.987,0,2.361,2.361,0,0,0,.246-1.046v-.629a4.565,4.565,0,0,0,2.5,0v.629A2.363,2.363,0,0,0,16.711,50Zm-.6-4.5a1.817,1.817,0,0,1-1.784,0l-.612-.347A3.981,3.981,0,0,1,11.7,41.691V40.33a3.517,3.517,0,0,1,7.035,0v1.361a3.982,3.982,0,0,1-2.014,3.457Zm11.556-1.438a12.377,12.377,0,0,1-3,8.086A4.949,4.949,0,0,0,21.4,49.25l-2.165-.6V46.733a6.755,6.755,0,0,0,2.27-5.042V40.33a6.286,6.286,0,0,0-12.572,0v1.361a6.755,6.755,0,0,0,2.27,5.042v1.919l-2.166.6A4.95,4.95,0,0,0,5.77,52.142a12.44,12.44,0,1,1,21.9-8.086Zm-4.8-13.141a15.17,15.17,0,0,0-15.291,0l4.91-10.649a6.423,6.423,0,0,0,5.51.084ZM80.911,67.045a2.711,2.711,0,0,1,2.313.421,2.057,2.057,0,0,1,.794,1.688,2.5,2.5,0,0,1-1.691,2.367c-.107.035-2.476,1.041-2.579,1.08a5.749,5.749,0,0,0,.058-.807,5.658,5.658,0,0,0-1.682-4.044ZM45.885,3.6a.842.842,0,0,1,.831-.831h1.152A.842.842,0,0,1,48.7,3.6V7.525H45.885Zm16.7,58.446v6.806l-3.9,1a10.714,10.714,0,0,1-1.195.232,5.4,5.4,0,0,0-5.382-6.03H32v-2a1.154,1.154,0,0,1,1.153-1.152H61.429a1.154,1.154,0,0,1,1.153,1.152Zm-8.287-8.212a.842.842,0,0,1,.831.831v3.46H39.458v-3.46a.842.842,0,0,1,.831-.831Zm1.945-37.32a2.427,2.427,0,0,1-2.425,2.425H40.768a2.427,2.427,0,0,1-2.425-2.425v-3.8a2.427,2.427,0,0,1,2.425-2.425H53.814a2.427,2.427,0,0,1,2.425,2.425Zm2.769-.365V13.083H72.971a6.416,6.416,0,0,0,.061,3.065H59.008ZM86.342,54.3a12.418,12.418,0,0,1-14.115,0v-.26a2.2,2.2,0,0,1,1.613-2.117l1.583-.437a4.87,4.87,0,0,0,7.723,0l1.583.437a2.2,2.2,0,0,1,1.613,2.117ZM80.778,50a2.11,2.11,0,0,1-2.987,0,2.361,2.361,0,0,0,.246-1.046v-.629a4.565,4.565,0,0,0,2.5,0v.629A2.361,2.361,0,0,0,80.778,50Zm-.6-4.5a1.817,1.817,0,0,1-1.784,0l-.612-.347a3.981,3.981,0,0,1-2.014-3.457V40.33a3.517,3.517,0,0,1,7.035,0v1.361a3.982,3.982,0,0,1-2.014,3.457Zm-.92-34.678a3.672,3.672,0,1,1-3.674,3.672,3.677,3.677,0,0,1,3.674-3.672Zm-2.732,9.5a6.431,6.431,0,0,0,5.511-.021L86.93,30.915a15.171,15.171,0,0,0-15.291,0Zm2.76,11.3a12.428,12.428,0,0,1,9.448,20.526,4.949,4.949,0,0,0-3.266-2.893l-2.166-.6V46.733a6.755,6.755,0,0,0,2.27-5.042V40.329a6.286,6.286,0,0,0-12.572,0v1.361a6.755,6.755,0,0,0,2.27,5.042v1.919l-2.165.6a4.949,4.949,0,0,0-3.266,2.893,12.428,12.428,0,0,1,9.447-20.526Z" transform="translate(-0.001 0)"/>
      </g>
    </g>
  </g>
</svg>
