<svg xmlns="http://www.w3.org/2000/svg" xmlns:xlink="http://www.w3.org/1999/xlink" width="108" height="108" viewBox="0 0 108 108">
  <defs>
    <filter id="Trazado_904820" x="0" y="0" width="108" height="108" filterUnits="userSpaceOnUse">
      <feOffset dy="3" input="SourceAlpha"/>
      <feGaussianBlur stdDeviation="3" result="blur"/>
      <feFlood flood-opacity="0.161"/>
      <feComposite operator="in" in2="blur"/>
      <feComposite in="SourceGraphic"/>
    </filter>
  </defs>
  <g id="Grupo_1219362" data-name="Grupo 1219362" transform="translate(-191 -496)">
    <g id="Grupo_1218011" data-name="Grupo 1218011" transform="translate(-14 158.5)">
      <g id="Grupo_1211578" data-name="Grupo 1211578" transform="translate(8 -2328.555)">
        <g id="Grupo_1207774" data-name="Grupo 1207774" transform="translate(206 2670.713)">
          <g id="Grupo_1206630" data-name="Grupo 1206630" transform="translate(0 1.342)">
            <g id="Grupo_1185091" data-name="Grupo 1185091" transform="translate(0 0)">
              <g id="Grupo_1179560" data-name="Grupo 1179560">
                <g id="Grupo_1173787" data-name="Grupo 1173787" transform="translate(0)">
                  <g id="Grupo_1171910" data-name="Grupo 1171910">
                    <g id="Grupo_1167341" data-name="Grupo 1167341">
                      <g id="Grupo_1166792" data-name="Grupo 1166792">
                        <g transform="matrix(1, 0, 0, 1, -9, -6)" filter="url(#Trazado_904820)">
                          <g id="Trazado_904820-2" data-name="Trazado 904820" transform="translate(9 6)" fill="#edeef2">
                            <path d="M 44.99999618530273 88.50006866455078 C 39.12687301635742 88.50006866455078 33.43022155761719 87.35014343261719 28.06829643249512 85.08222961425781 C 22.88852119445801 82.89136505126953 18.23629570007324 79.75465393066406 14.24084663391113 75.75919342041016 C 10.24540901184082 71.76374053955078 7.108683586120605 67.11151885986328 4.917821407318115 61.93174362182617 C 2.649921178817749 56.56980514526367 1.499996185302734 50.87315368652344 1.499996185302734 45.00003051757812 C 1.499996185302734 39.12690734863281 2.649921178817749 33.43025588989258 4.917821407318115 28.06831741333008 C 7.108683586120605 22.88854217529297 10.24540901184082 18.23631858825684 14.24084663391113 14.24086761474609 C 18.23629570007324 10.24541759490967 22.88852119445801 7.10869312286377 28.06829643249512 4.917842864990234 C 33.43022155761719 2.649930477142334 39.12687301635742 1.500005483627319 44.99999618530273 1.500005483627319 C 50.87311935424805 1.500005483627319 56.56977081298828 2.649930477142334 61.93169784545898 4.917842864990234 C 67.11147308349609 7.10869312286377 71.76369476318359 10.24541759490967 75.75914764404297 14.24086761474609 C 79.75458526611328 18.23631858825684 82.89131164550781 22.88854217529297 85.08216857910156 28.06831741333008 C 87.35007476806641 33.43025588989258 88.5 39.12690734863281 88.5 45.00003051757812 C 88.5 50.87315368652344 87.35007476806641 56.56980514526367 85.08216857910156 61.93174362182617 C 82.89131164550781 67.11151885986328 79.75458526611328 71.76374053955078 75.75914764404297 75.75919342041016 C 71.76369476318359 79.75465393066406 67.11147308349609 82.89136505126953 61.93169784545898 85.08222961425781 C 56.56977081298828 87.35014343261719 50.87311935424805 88.50006866455078 44.99999618530273 88.50006866455078 Z" stroke="none"/>
                            <path d="M 44.99999618530273 3 C 39.32870864868164 3 33.82865142822266 4.110061645507812 28.65262603759766 6.299346923828125 C 23.65165710449219 8.414573669433594 19.15968322753906 11.44334411621094 15.301513671875 15.30152893066406 C 11.44333648681641 19.15969848632812 8.414566040039062 23.65167236328125 6.299339294433594 28.65264511108398 C 4.110054016113281 33.82868576049805 2.999992370605469 39.32874298095703 2.999992370605469 45.00003051757812 C 2.999992370605469 50.67131805419922 4.110054016113281 56.1713752746582 6.299339294433594 61.34741592407227 C 8.414566040039062 66.348388671875 11.44333648681641 70.84036254882812 15.301513671875 74.69853210449219 C 19.15968322753906 78.55671691894531 23.65165710449219 81.58548736572266 28.65262603759766 83.70071411132812 C 33.82865142822266 85.88999938964844 39.32870864868164 87.00006103515625 44.99999618530273 87.00006103515625 C 50.67128372192383 87.00006103515625 56.17134094238281 85.88999938964844 61.34736633300781 83.70071411132812 C 66.34834289550781 81.58548736572266 70.84030914306641 78.55671691894531 74.69847869873047 74.69853210449219 C 78.55665588378906 70.84036254882812 81.58542633056641 66.348388671875 83.70065307617188 61.34741592407227 C 85.88993835449219 56.1713752746582 87 50.67131805419922 87 45.00003051757812 C 87 39.32874298095703 85.88993835449219 33.82868576049805 83.70065307617188 28.65264511108398 C 81.58542633056641 23.65167236328125 78.55665588378906 19.15969848632812 74.69847869873047 15.30152893066406 C 70.84030914306641 11.44334411621094 66.34834289550781 8.414573669433594 61.34736633300781 6.299346923828125 C 56.17134094238281 4.110061645507812 50.67128372192383 3 44.99999618530273 3 M 44.99999618530273 0 C 69.85281372070312 0 90 20.14720153808594 90 45.00003051757812 C 90 69.85285949707031 69.85281372070312 90.00006103515625 44.99999618530273 90.00006103515625 C 20.14717864990234 90.00006103515625 -7.62939453125e-06 69.85285949707031 -7.62939453125e-06 45.00003051757812 C -7.62939453125e-06 20.14720153808594 20.14717864990234 0 44.99999618530273 0 Z" stroke="none" fill="#56678d"/>
                          </g>
                        </g>
                      </g>
                    </g>
                  </g>
                </g>
              </g>
            </g>
          </g>
        </g>
      </g>
    </g>
    <g id="gobierno_9_" data-name="gobierno (9)" transform="translate(213 517)">
      <g id="Grupo_1219360" data-name="Grupo 1219360">
        <g id="Grupo_1219333" data-name="Grupo 1219333">
          <path id="Trazado_1089704" data-name="Trazado 1089704" d="M14,27l3,4,1.77-7.07a13.685,13.685,0,0,1,6.39,9.6l.16,1.03A9.984,9.984,0,0,0,22.46,39H2l.84-5.47a13.685,13.685,0,0,1,6.39-9.6L11,31Z" fill="#4fc1e9"/>
        </g>
        <g id="Grupo_1219334" data-name="Grupo 1219334">
          <path id="Trazado_1089705" data-name="Trazado 1089705" d="M18.77,23.92v.01L17,31l-3-4,3-4A13.463,13.463,0,0,1,18.77,23.92Z" fill="#3bafda"/>
        </g>
        <g id="Grupo_1219335" data-name="Grupo 1219335">
          <path id="Trazado_1089706" data-name="Trazado 1089706" d="M11,23l3,4-3,4L9.23,23.93v-.01A13.463,13.463,0,0,1,11,23Z" fill="#3bafda"/>
        </g>
        <g id="Grupo_1219336" data-name="Grupo 1219336">
          <path id="Trazado_1089707" data-name="Trazado 1089707" d="M55,39H41.54a10,10,0,0,0-2.47-4.07c-.13-.13-.25-.25-.39-.37l.16-1.03a13.661,13.661,0,0,1,2.72-6.32,13.5,13.5,0,0,1,2.14-2.2A13.811,13.811,0,0,1,47,23a17.774,17.774,0,0,0,.45,4h.01a17.758,17.758,0,0,0,2.11,5.29L50,33l.43-.71A17.758,17.758,0,0,0,52.54,27h.01A17.774,17.774,0,0,0,53,23a13.811,13.811,0,0,1,3.3,2.01,13.5,13.5,0,0,1,2.14,2.2,13.661,13.661,0,0,1,2.72,6.32L62,39Z" fill="#ff826e"/>
        </g>
        <g id="Grupo_1219337" data-name="Grupo 1219337">
          <path id="Trazado_1089708" data-name="Trazado 1089708" d="M2,48H14v4H2Z" fill="#aab2bd"/>
        </g>
        <g id="Grupo_1219338" data-name="Grupo 1219338">
          <path id="Trazado_1089709" data-name="Trazado 1089709" d="M50,48H62v4H50Z" fill="#aab2bd"/>
        </g>
        <g id="Grupo_1219339" data-name="Grupo 1219339">
          <path id="Trazado_1089710" data-name="Trazado 1089710" d="M50,52V62H62V52Z" fill="#ccd1d9"/>
        </g>
        <g id="Grupo_1219340" data-name="Grupo 1219340">
          <path id="Trazado_1089711" data-name="Trazado 1089711" d="M42,42v2H22V42a10,10,0,0,1,16.68-7.44c.14.12.26.24.39.37A9.984,9.984,0,0,1,42,42Z" fill="#aab2bd"/>
        </g>
        <g id="Grupo_1219341" data-name="Grupo 1219341">
          <path id="Trazado_1089712" data-name="Trazado 1089712" d="M24,44H40v6H24Z" fill="#aab2bd"/>
        </g>
        <g id="Grupo_1219342" data-name="Grupo 1219342">
          <path id="Trazado_1089713" data-name="Trazado 1089713" d="M46,50v4H18V50H46Z" fill="#ccd1d9"/>
        </g>
        <g id="Grupo_1219343" data-name="Grupo 1219343">
          <path id="Trazado_1089714" data-name="Trazado 1089714" d="M46,54H14v8H50V54Z" fill="#e6e9ed"/>
        </g>
        <g id="Grupo_1219344" data-name="Grupo 1219344">
          <path id="Trazado_1089715" data-name="Trazado 1089715" d="M42,58h4v4H42Z" fill="#aab2bd"/>
        </g>
        <g id="Grupo_1219345" data-name="Grupo 1219345">
          <path id="Trazado_1089716" data-name="Trazado 1089716" d="M34,58h4v4H34Z" fill="#aab2bd"/>
        </g>
        <g id="Grupo_1219346" data-name="Grupo 1219346">
          <path id="Trazado_1089717" data-name="Trazado 1089717" d="M26,58h4v4H26Z" fill="#aab2bd"/>
        </g>
        <g id="Grupo_1219347" data-name="Grupo 1219347">
          <path id="Trazado_1089718" data-name="Trazado 1089718" d="M18,58h4v4H18Z" fill="#aab2bd"/>
        </g>
        <g id="Grupo_1219348" data-name="Grupo 1219348">
          <path id="Trazado_1089719" data-name="Trazado 1089719" d="M2,52V62H14V52Z" fill="#ccd1d9"/>
        </g>
        <g id="Grupo_1219349" data-name="Grupo 1219349">
          <path id="Trazado_1089720" data-name="Trazado 1089720" d="M6,56h4v6H6Z" fill="#69d6f4"/>
        </g>
        <g id="Grupo_1219350" data-name="Grupo 1219350">
          <path id="Trazado_1089721" data-name="Trazado 1089721" d="M54,56h4v6H54Z" fill="#69d6f4"/>
        </g>
        <g id="Grupo_1219351" data-name="Grupo 1219351">
          <path id="Trazado_1089722" data-name="Trazado 1089722" d="M47.46,27h5.08a17.758,17.758,0,0,1-2.11,5.29L50,33l-.43-.71A17.758,17.758,0,0,1,47.46,27Z" fill="#e6e9ed"/>
        </g>
        <g id="Grupo_1219352" data-name="Grupo 1219352">
          <path id="Trazado_1089723" data-name="Trazado 1089723" d="M8,11a2.978,2.978,0,0,0-2.41,1.22A7.428,7.428,0,0,1,5,9.33,7.328,7.328,0,0,1,12.33,2h3.34A7.341,7.341,0,0,1,23,9.33a7.428,7.428,0,0,1-.59,2.89,3.071,3.071,0,0,0-.29-.34A2.993,2.993,0,0,0,20,11H19a4.829,4.829,0,0,1-3.41-1.41L14,8,12.41,9.59A4.829,4.829,0,0,1,9,11Z" fill="#656d78"/>
        </g>
        <g id="Grupo_1219353" data-name="Grupo 1219353">
          <path id="Trazado_1089724" data-name="Trazado 1089724" d="M59,11v9a5.985,5.985,0,0,1-2.7,5.01A13.811,13.811,0,0,0,53,23l-.57-2.27A3.982,3.982,0,0,0,55,17V12a4.368,4.368,0,0,1-3.83-2.97L48,9l-.26.09A3.987,3.987,0,0,0,45,12.88V17a3.982,3.982,0,0,0,2.57,3.73L47,23a13.811,13.811,0,0,0-3.3,2.01A5.985,5.985,0,0,1,41,20V11a9,9,0,0,1,18,0Z" fill="#fcd770"/>
        </g>
        <g id="Grupo_1219354" data-name="Grupo 1219354">
          <path id="Trazado_1089725" data-name="Trazado 1089725" d="M22.41,12.22A3,3,0,0,1,20,17H19V11h1a2.993,2.993,0,0,1,2.12.88A3.07,3.07,0,0,1,22.41,12.22Z" fill="#f0d0b4"/>
        </g>
        <g id="Grupo_1219355" data-name="Grupo 1219355">
          <path id="Trazado_1089726" data-name="Trazado 1089726" d="M9,11v6H8a3,3,0,0,1,0-6Z" fill="#f0d0b4"/>
        </g>
        <g id="Grupo_1219356" data-name="Grupo 1219356">
          <path id="Trazado_1089727" data-name="Trazado 1089727" d="M15,21a3.789,3.789,0,0,0,1.43-.27L17,23l-3,4-3-4,.57-2.27A3.753,3.753,0,0,0,13,21Z" fill="#f0d0b4"/>
        </g>
        <g id="Grupo_1219357" data-name="Grupo 1219357">
          <path id="Trazado_1089728" data-name="Trazado 1089728" d="M19,11v6a3.982,3.982,0,0,1-2.57,3.73A3.789,3.789,0,0,1,15,21H13a3.753,3.753,0,0,1-1.43-.27A3.982,3.982,0,0,1,9,17V11a4.829,4.829,0,0,0,3.41-1.41L14,8l1.59,1.59A4.829,4.829,0,0,0,19,11Z" fill="#f0d0b4"/>
        </g>
        <g id="Grupo_1219358" data-name="Grupo 1219358">
          <path id="Trazado_1089729" data-name="Trazado 1089729" d="M53,23a17.774,17.774,0,0,1-.45,4h-5.1A17.774,17.774,0,0,1,47,23l.57-2.27A3.753,3.753,0,0,0,49,21h2a3.789,3.789,0,0,0,1.43-.27Z" fill="#f0d0b4"/>
        </g>
        <g id="Grupo_1219359" data-name="Grupo 1219359">
          <path id="Trazado_1089730" data-name="Trazado 1089730" d="M55,12v5a3.982,3.982,0,0,1-2.57,3.73A3.789,3.789,0,0,1,51,21H49a3.753,3.753,0,0,1-1.43-.27A3.982,3.982,0,0,1,45,17V12.88a3.987,3.987,0,0,1,2.74-3.79L48,9l3.17.03A4.368,4.368,0,0,0,55,12Z" fill="#f0d0b4"/>
        </g>
      </g>
      <g id="Grupo_1219361" data-name="Grupo 1219361">
        <path id="Trazado_1089731" data-name="Trazado 1089731" d="M49,53H47V49H41V45h2V42a10.989,10.989,0,0,0-.191-2H63.166l-1.02-6.625a14.635,14.635,0,0,0-4.316-8.326A6.971,6.971,0,0,0,60,20V11a10,10,0,0,0-20,0v9a6.974,6.974,0,0,0,2.169,5.049,14.609,14.609,0,0,0-4.187,7.732A10.921,10.921,0,0,0,33,31.05V29a3,3,0,0,0,0-6H31a1,1,0,0,1,0-2h2a1,1,0,0,1,1,1h2a3,3,0,0,0-3-3V17H31v2a3,3,0,0,0,0,6h2a1,1,0,0,1,0,2H31a1,1,0,0,1-1-1H28a3,3,0,0,0,3,3v2.051a10.921,10.921,0,0,0-4.982,1.731,14.611,14.611,0,0,0-8.165-10.495l-.259-1.033A5,5,0,0,0,19.9,18H20a4,4,0,0,0,4-4,3.95,3.95,0,0,0-.491-1.88A8.258,8.258,0,0,0,24,9.333,8.342,8.342,0,0,0,15.667,1H12.333A8.31,8.31,0,0,0,4.49,12.121,3.957,3.957,0,0,0,4,14a4,4,0,0,0,4,4h.1a5,5,0,0,0,2.305,3.253l-.259,1.033A14.634,14.634,0,0,0,1.853,33.375L.834,40H21.191A10.989,10.989,0,0,0,21,42v3h2v4H17v4H15V47H1V63H63V47H49Zm0,8H47V57H41v4H39V57H33v4H31V57H25v4H23V57H17v4H15V55H49Zm-4,0H43V59h2Zm-8,0H35V59h2Zm-8,0H27V59h2Zm-8,0H19V59h2ZM39,49H37V45h2Zm-8-4v4H29V45Zm2,0h2v4H33Zm8-2H23V42a9,9,0,0,1,18,0Zm1-23V11a8,8,0,0,1,16,0v9a4.988,4.988,0,0,1-1.708,3.76,14.8,14.8,0,0,0-2.439-1.474l-.259-1.033A4.986,4.986,0,0,0,56,17V9H54v1.767A3.329,3.329,0,0,1,52,8H50a5.321,5.321,0,0,0,4,4.877V17a3,3,0,0,1-3,3H49a3,3,0,0,1-3-3V12.883a3,3,0,0,1,2.052-2.846l.265-.088-.633-1.9-.265.088A4.993,4.993,0,0,0,44,12.883V17a4.986,4.986,0,0,0,2.406,4.253l-.259,1.033a14.859,14.859,0,0,0-2.439,1.473A4.982,4.982,0,0,1,42,20Zm7,2h2a4.925,4.925,0,0,0,.7-.071L52,23.109A17.025,17.025,0,0,1,51.731,26H48.27A17.025,17.025,0,0,1,48,23.109l.295-1.18A4.9,4.9,0,0,0,49,22Zm2.246,6A17.081,17.081,0,0,1,50,31.013,17.067,17.067,0,0,1,48.754,28ZM39.83,33.68a12.632,12.632,0,0,1,6.244-9.093A19.053,19.053,0,0,0,48.715,32.8L50,34.943,51.285,32.8a19.062,19.062,0,0,0,2.641-8.216,12.636,12.636,0,0,1,6.244,9.093L60.834,38H56.259A28.12,28.12,0,0,0,57,33a5.306,5.306,0,0,0-1.293-3.707l-1.426,1.4A3.452,3.452,0,0,1,55,33a28.87,28.87,0,0,1-.791,5H45.792A28.775,28.775,0,0,1,45,33a3.452,3.452,0,0,1,.719-2.3L45,30l-.707-.707A5.306,5.306,0,0,0,43,33a28.12,28.12,0,0,0,.741,5H42.236a11.036,11.036,0,0,0-2.486-3.8ZM17.3,24.269c.1.053.211.1.314.159L16.539,28.72,15.25,27ZM20,16V12a2,2,0,0,1,0,4ZM6,14a2,2,0,0,1,2-2v4A2,2,0,0,1,6,14Zm3-4H8a3.948,3.948,0,0,0-1.888.5A6.271,6.271,0,0,1,6,9.333,6.34,6.34,0,0,1,12.333,3h3.334A6.34,6.34,0,0,1,22,9.333a6.252,6.252,0,0,1-.112,1.162A3.956,3.956,0,0,0,20,10H19a3.857,3.857,0,0,1-2.707-1.121L14,6.586,11.707,8.879A3.857,3.857,0,0,1,9,10Zm1,1.912a5.872,5.872,0,0,0,3.121-1.619L14,9.414l.879.879A5.872,5.872,0,0,0,18,11.912V17a3,3,0,0,1-3,3H13a3,3,0,0,1-3-3ZM13,22h2a4.94,4.94,0,0,0,.7-.071l.213.852L14,25.333,12.085,22.78l.213-.852A4.8,4.8,0,0,0,13,22Zm-.25,5-1.289,1.719-1.073-4.292c.1-.055.209-.106.314-.159ZM9,38V34H7v4H3.166l.664-4.32a12.648,12.648,0,0,1,4.778-8.126l1.931,7.727L14,28.667l3.461,4.614,1.931-7.727A12.648,12.648,0,0,1,24.17,33.68l.081.523A11.022,11.022,0,0,0,21.765,38Zm16,7h2v4H25Zm-6,6H45v2H19Zm-6-2v2H3V49ZM3,53H13v8H11V55H5v6H3Zm6,8H7V57H9Zm48,0H55V57h2Zm2,0V55H53v6H51V53H61v8Zm2-12v2H51V49Z"/>
        <path id="Trazado_1089732" data-name="Trazado 1089732" d="M13,32h2v4H13Z"/>
      </g>
    </g>
  </g>
</svg>
