<svg xmlns="http://www.w3.org/2000/svg" xmlns:xlink="http://www.w3.org/1999/xlink" width="108" height="108" viewBox="0 0 108 108">
  <defs>
    <filter id="Trazado_904820" x="0" y="0" width="108" height="108" filterUnits="userSpaceOnUse">
      <feOffset dy="3" input="SourceAlpha"/>
      <feGaussianBlur stdDeviation="3" result="blur"/>
      <feFlood flood-opacity="0.161"/>
      <feComposite operator="in" in2="blur"/>
      <feComposite in="SourceGraphic"/>
    </filter>
  </defs>
  <g id="Grupo_1219332" data-name="Grupo 1219332" transform="translate(-720 -7175)">
    <g id="Grupo_1218010" data-name="Grupo 1218010" transform="translate(729 7181)">
      <g id="Grupo_1211578" data-name="Grupo 1211578">
        <g id="Grupo_1207774" data-name="Grupo 1207774" transform="translate(0 0)">
          <g id="Grupo_1206630" data-name="Grupo 1206630">
            <g id="Grupo_1185091" data-name="Grupo 1185091">
              <g id="Grupo_1179560" data-name="Grupo 1179560">
                <g id="Grupo_1173787" data-name="Grupo 1173787">
                  <g id="Grupo_1171910" data-name="Grupo 1171910">
                    <g id="Grupo_1167341" data-name="Grupo 1167341">
                      <g id="Grupo_1166792" data-name="Grupo 1166792">
                        <g transform="matrix(1, 0, 0, 1, -9, -6)" filter="url(#Trazado_904820)">
                          <g id="Trazado_904820-2" data-name="Trazado 904820" transform="translate(9 6)" fill="#e5f0f6">
                            <path d="M 44.99999618530273 88.50006866455078 C 39.12687301635742 88.50006866455078 33.43022155761719 87.35014343261719 28.06829643249512 85.08222961425781 C 22.88852119445801 82.89136505126953 18.23629570007324 79.75465393066406 14.24084663391113 75.75919342041016 C 10.24540901184082 71.76374053955078 7.108683586120605 67.11151885986328 4.917821407318115 61.93174362182617 C 2.649921178817749 56.56980514526367 1.499996185302734 50.87315368652344 1.499996185302734 45.00003051757812 C 1.499996185302734 39.12690734863281 2.649921178817749 33.43025588989258 4.917821407318115 28.06831741333008 C 7.108683586120605 22.88854217529297 10.24540901184082 18.23631858825684 14.24084663391113 14.24086761474609 C 18.23629570007324 10.24541759490967 22.88852119445801 7.10869312286377 28.06829643249512 4.917842864990234 C 33.43022155761719 2.649930477142334 39.12687301635742 1.500005483627319 44.99999618530273 1.500005483627319 C 50.87311935424805 1.500005483627319 56.56977081298828 2.649930477142334 61.93169784545898 4.917842864990234 C 67.11147308349609 7.10869312286377 71.76369476318359 10.24541759490967 75.75914764404297 14.24086761474609 C 79.75458526611328 18.23631858825684 82.89131164550781 22.88854217529297 85.08216857910156 28.06831741333008 C 87.35007476806641 33.43025588989258 88.5 39.12690734863281 88.5 45.00003051757812 C 88.5 50.87315368652344 87.35007476806641 56.56980514526367 85.08216857910156 61.93174362182617 C 82.89131164550781 67.11151885986328 79.75458526611328 71.76374053955078 75.75914764404297 75.75919342041016 C 71.76369476318359 79.75465393066406 67.11147308349609 82.89136505126953 61.93169784545898 85.08222961425781 C 56.56977081298828 87.35014343261719 50.87311935424805 88.50006866455078 44.99999618530273 88.50006866455078 Z" stroke="none"/>
                            <path d="M 44.99999618530273 3 C 39.32870864868164 3 33.82865142822266 4.110061645507812 28.65262603759766 6.299346923828125 C 23.65165710449219 8.414573669433594 19.15968322753906 11.44334411621094 15.301513671875 15.30152893066406 C 11.44333648681641 19.15969848632812 8.414566040039062 23.65167236328125 6.299339294433594 28.65264511108398 C 4.110054016113281 33.82868576049805 2.999992370605469 39.32874298095703 2.999992370605469 45.00003051757812 C 2.999992370605469 50.67131805419922 4.110054016113281 56.1713752746582 6.299339294433594 61.34741592407227 C 8.414566040039062 66.348388671875 11.44333648681641 70.84036254882812 15.301513671875 74.69853210449219 C 19.15968322753906 78.55671691894531 23.65165710449219 81.58548736572266 28.65262603759766 83.70071411132812 C 33.82865142822266 85.88999938964844 39.32870864868164 87.00006103515625 44.99999618530273 87.00006103515625 C 50.67128372192383 87.00006103515625 56.17134094238281 85.88999938964844 61.34736633300781 83.70071411132812 C 66.34834289550781 81.58548736572266 70.84030914306641 78.55671691894531 74.69847869873047 74.69853210449219 C 78.55665588378906 70.84036254882812 81.58542633056641 66.348388671875 83.70065307617188 61.34741592407227 C 85.88993835449219 56.1713752746582 87 50.67131805419922 87 45.00003051757812 C 87 39.32874298095703 85.88993835449219 33.82868576049805 83.70065307617188 28.65264511108398 C 81.58542633056641 23.65167236328125 78.55665588378906 19.15969848632812 74.69847869873047 15.30152893066406 C 70.84030914306641 11.44334411621094 66.34834289550781 8.414573669433594 61.34736633300781 6.299346923828125 C 56.17134094238281 4.110061645507812 50.67128372192383 3 44.99999618530273 3 M 44.99999618530273 0 C 69.85281372070312 0 90 20.14720153808594 90 45.00003051757812 C 90 69.85285949707031 69.85281372070312 90.00006103515625 44.99999618530273 90.00006103515625 C 20.14717864990234 90.00006103515625 -7.62939453125e-06 69.85285949707031 -7.62939453125e-06 45.00003051757812 C -7.62939453125e-06 20.14720153808594 20.14717864990234 0 44.99999618530273 0 Z" stroke="none" fill="#1172b3"/>
                          </g>
                        </g>
                      </g>
                    </g>
                  </g>
                </g>
              </g>
            </g>
          </g>
        </g>
      </g>
    </g>
    <g id="publico" transform="translate(718.706 7165.886)">
      <g id="Grupo_1219331" data-name="Grupo 1219331" transform="translate(20.777 29.206)">
        <path id="Trazado_1089692" data-name="Trazado 1089692" d="M78.009,36.456l27-.509a3.6,3.6,0,0,1,3.527,3.7V90.007a3.643,3.643,0,0,1-3.527,3.7l-40.837.509a3.608,3.608,0,0,1-3.527-3.7V54.654L69.569,45.3Z" transform="translate(-55.572 -35.946)" fill="#19cfba" fill-rule="evenodd"/>
        <path id="Trazado_1089693" data-name="Trazado 1089693" d="M74.483,57.469H60.65l8.44-8.85,8.919-9.349v14.5A3.626,3.626,0,0,1,74.483,57.469Z" transform="translate(-55.572 -38.76)" fill="#218380" fill-rule="evenodd"/>
        <path id="Trazado_1089694" data-name="Trazado 1089694" d="M284.175,128.542c-17.969-8.9-16.168-9.971-15.881-31.062a27.29,27.29,0,0,0,15.881-8.21,27.29,27.29,0,0,0,15.881,8.21C300.344,118.571,302.144,119.644,284.175,128.542Z" transform="translate(-231.207 -81.09)" fill="#d81159" fill-rule="evenodd"/>
        <path id="Trazado_1089695" data-name="Trazado 1089695" d="M308.965,153.371c-12.946-6.414-11.645-7.184-11.441-22.377a19.657,19.657,0,0,0,11.441-5.914,19.657,19.657,0,0,0,11.441,5.914C320.611,146.187,321.906,146.957,308.965,153.371Z" transform="translate(-255.997 -111.406)" fill="#fbb13c" fill-rule="evenodd"/>
        <path id="Trazado_1089696" data-name="Trazado 1089696" d="M210.52,69.4h14.463v5.423H210.52Z" transform="translate(-182.451 -64.268)" fill="#fbb13c" fill-rule="evenodd"/>
        <path id="Trazado_1089697" data-name="Trazado 1089697" d="M32.576,369.9h6.288a5.04,5.04,0,0,1,5.027,5.023v7.572H27.55v-7.571A5.04,5.04,0,0,1,32.576,369.9Z" transform="translate(-27.55 -318.669)" fill="#fbb13c" fill-rule="evenodd"/>
        <path id="Trazado_1089698" data-name="Trazado 1089698" d="M55.184,314.88a4.646,4.646,0,1,1-4.644,4.644A4.646,4.646,0,0,1,55.184,314.88Z" transform="translate(-47.013 -272.09)" fill="#de8383" fill-rule="evenodd"/>
        <path id="Trazado_1089699" data-name="Trazado 1089699" d="M182.833,369.9h6.293a5.039,5.039,0,0,1,5.023,5.023v7.572H177.81v-7.571A5.039,5.039,0,0,1,182.833,369.9Z" transform="translate(-154.759 -318.669)" fill="#1d4e89" fill-rule="evenodd"/>
        <path id="Trazado_1089700" data-name="Trazado 1089700" d="M205.414,314.88a4.646,4.646,0,1,1-4.644,4.644A4.646,4.646,0,0,1,205.414,314.88Z" transform="translate(-174.197 -272.09)" fill="#de8383" fill-rule="evenodd"/>
        <path id="Trazado_1089701" data-name="Trazado 1089701" d="M107.687,401.57h6.288A5.037,5.037,0,0,1,119,406.593v7.566H102.66v-7.566A5.037,5.037,0,0,1,107.687,401.57Z" transform="translate(-91.138 -345.481)" fill="#d81159" fill-rule="evenodd"/>
        <path id="Trazado_1089702" data-name="Trazado 1089702" d="M130.3,346.55a4.644,4.644,0,1,1-4.644,4.644A4.643,4.643,0,0,1,130.3,346.55Z" transform="translate(-110.609 -298.901)" fill="#de8383" fill-rule="evenodd"/>
      </g>
      <path id="Trazado_1089703" data-name="Trazado 1089703" d="M68.415,58.686a1.223,1.223,0,1,1,1.622-1.83l3.527,3.114,6.314-8.379A1.225,1.225,0,1,1,81.83,53.07L74.724,62.5a1.229,1.229,0,0,1-1.787.178ZM40.472,75.627a5.876,5.876,0,0,1,5.641,4.222l.775-.318a5.873,5.873,0,1,1,10.229,0A6.271,6.271,0,0,1,61.4,85.457v.391l8.81-.109a2.417,2.417,0,0,0,2.313-2.474V77.416C56.147,69.258,56.185,67.392,56.55,50.755c.035-1.588.069-3.318.1-5.174a1.226,1.226,0,0,1,1.039-1.2v0a27.233,27.233,0,0,0,8.371-2.7A24.944,24.944,0,0,0,72.521,36.9l0-4.053a2.385,2.385,0,0,0-2.244-2.413c-.114,0-.021,0,0,0h-.04l-25.8.486v13.3a4.854,4.854,0,0,1-4.753,4.923H27.084V71.071a5.872,5.872,0,0,1,6.98,8.457l.775.318A5.87,5.87,0,0,1,40.472,75.627Zm5.744,7.1a5.843,5.843,0,0,1-.626,1.657,6.267,6.267,0,0,1,4.279,5.931V91.8h9.071v-6.34a3.808,3.808,0,0,0-3.8-3.8h-.1a5.873,5.873,0,0,1-6.1,0h-.1a3.76,3.76,0,0,0-2.636,1.066Zm-2.7,3.792a5.865,5.865,0,0,1-6.092,0h-.1a3.811,3.811,0,0,0-3.8,3.8v6.34H47.416v-6.34a3.811,3.811,0,0,0-3.8-3.8Zm-8.163-2.135a5.843,5.843,0,0,1-.626-1.657A3.856,3.856,0,0,0,33.657,82a3.708,3.708,0,0,0-1.566-.334H32a5.873,5.873,0,0,1-6.1,0h-.1a3.808,3.808,0,0,0-3.8,3.8V91.8h9.071V90.317A6.268,6.268,0,0,1,35.357,84.385Zm7.532-5.3a3.416,3.416,0,1,0,0,4.831,3.419,3.419,0,0,0,0-4.831Zm6.978,15.172v3.627a1.228,1.228,0,0,1-1.226,1.23H32.3a1.228,1.228,0,0,1-1.226-1.23V94.257H20.78a1.231,1.231,0,0,1-1.23-1.226V85.46a6.274,6.274,0,0,1,4.283-5.931,5.874,5.874,0,0,1,.8-6.862V47.914a1.217,1.217,0,0,1,.4-.908l17.3-18.133a1.186,1.186,0,0,1,.922-.379L70.2,27.985A4.832,4.832,0,0,1,74.973,32.9v4a24.968,24.968,0,0,0,6.471,4.783,27.071,27.071,0,0,0,8.367,2.7,1.225,1.225,0,0,1,1.043,1.3c.026,1.818.061,3.518.1,5.079.361,16.637.4,18.5-15.977,26.661v5.849a4.863,4.863,0,0,1-4.736,4.918l-8.841.109v4.736a1.231,1.231,0,0,1-1.23,1.226Zm4.545-20.029a3.416,3.416,0,1,0,0,4.831,3.419,3.419,0,0,0,0-4.831Zm-23.048,0a3.418,3.418,0,1,0,0,4.831,3.421,3.421,0,0,0,0-4.831Zm.46-5.6a1.228,1.228,0,0,1,0-2.456h7.54a1.228,1.228,0,1,1,0,2.456Zm11.841,0a1.228,1.228,0,0,1,0-2.456H53.726a1.228,1.228,0,0,1,0,2.456Zm5.3-6.8a1.228,1.228,0,0,1,0-2.456h4.757a1.228,1.228,0,0,1,0,2.456Zm-17.143,0a1.228,1.228,0,0,1,0-2.456H44.988a1.228,1.228,0,0,1,0,2.456Zm0-6.8a1.226,1.226,0,1,1,0-2.451h7.54a1.226,1.226,0,1,1,0,2.451Zm11.841,0a1.226,1.226,0,1,1,0-2.451H53.726a1.226,1.226,0,1,1,0,2.451Zm5.179-21.913H63.309a1.228,1.228,0,0,1,1.23,1.226v5.423a1.232,1.232,0,0,1-1.23,1.23H48.846a1.228,1.228,0,0,1-1.226-1.23V34.338A1.224,1.224,0,0,1,48.846,33.112Zm13.237,2.453H50.073v2.97h12.01Zm11.123,36.7C60.74,66.07,60.744,64.9,61.014,52.506c.026-1.147.052-2.4.069-3.726a1.229,1.229,0,0,1,1.043-1.2v0A18.422,18.422,0,0,0,72.85,42.043a1.232,1.232,0,0,1,1.8,0A18.419,18.419,0,0,0,85.369,47.58a1.225,1.225,0,0,1,1.039,1.3c.021,1.292.048,2.51.069,3.631.27,12.346.3,13.576-12.19,19.76a1.225,1.225,0,0,1-1.08,0ZM63.458,52.555C63.228,63.3,63.2,64.539,73.747,69.8c10.55-5.262,10.524-6.5,10.289-17.246-.017-.848-.04-1.752-.057-2.731a20.968,20.968,0,0,1-10.232-5.21,20.961,20.961,0,0,1-10.232,5.21C63.5,50.8,63.479,51.706,63.458,52.555Zm-4.467-1.749c-.334,15.272-.365,16.959,14.755,24.487C88.87,67.765,88.835,66.078,88.5,50.806c-.031-1.287-.061-2.666-.083-4.17a28.623,28.623,0,0,1-14.676-7.5,28.6,28.6,0,0,1-14.672,7.5c-.026,1.5-.057,2.883-.083,4.17ZM28.718,46.689H39.694a2.4,2.4,0,0,0,2.3-2.47V32.773ZM70.28,30.429Z" transform="translate(0 0)"/>
    </g>
  </g>
</svg>
