<svg xmlns="http://www.w3.org/2000/svg" xmlns:xlink="http://www.w3.org/1999/xlink" width="400" height="323" viewBox="0 0 400 323">
  <defs>
    <clipPath id="clip-path">
      <rect id="Rectángulo_420936" data-name="Rectángulo 420936" width="400" height="323" transform="translate(180 8956)" fill="#fff" stroke="#707070" stroke-width="1"/>
    </clipPath>
    <clipPath id="clip-path-2">
      <rect id="Rectángulo_420898" data-name="Rectángulo 420898" width="352.991" height="330.997" transform="translate(-22)"/>
    </clipPath>
    <clipPath id="clip-path-3">
      <rect id="Rectángulo_420899" data-name="Rectángulo 420899" width="330.991" height="330.997"/>
    </clipPath>
    <linearGradient id="linear-gradient" x1="0.501" y1="0.202" x2="0.495" y2="0.934" gradientUnits="objectBoundingBox">
      <stop offset="0.047" stop-color="#d6805f" stop-opacity="0"/>
      <stop offset="0.682" stop-color="#d6805f"/>
      <stop offset="1" stop-color="#d6653a"/>
    </linearGradient>
  </defs>
  <g id="Enmascarar_grupo_1098937" data-name="Enmascarar grupo 1098937" transform="translate(-180 -8956)" clip-path="url(#clip-path)">
    <g id="Grupo_1219794" data-name="Grupo 1219794" transform="translate(225.505 8948.316)">
      <g id="Grupo_1219763" data-name="Grupo 1219763" transform="translate(0 -0.005)" clip-path="url(#clip-path-2)">
        <g id="Grupo_1219760" data-name="Grupo 1219760" transform="translate(-37.757 165.498)">
          <g id="Grupo_1219759" data-name="Grupo 1219759">
            <path id="Trazado_1091252" data-name="Trazado 1091252" d="M35.775,273.158a48.3,48.3,0,0,1-25.088,18.319c-1.858.573-4.433.72-5.184-1.073a2.238,2.238,0,0,1-.034-1.542,3.338,3.338,0,0,1,1.174-1.652,8.406,8.406,0,0,1,3.406-1.238,54.485,54.485,0,0,0,12-3.506,19.516,19.516,0,0,0,9.229-8.144,13.241,13.241,0,0,0,1.516-5.377,10.8,10.8,0,0,0-1.609-6.566c-1.388-2.139-3.553-3.667-5.033-5.741-1.384-1.939-2-4.823-.577-6.64a8.131,8.131,0,0,1-1.678,1.4c-2.9,1.825-6.9,2.032-10.44,2.027a44.408,44.408,0,0,0-8.988.458,12.652,12.652,0,0,0-4.053,1.542c-4.126,2.516-6.029,7.547-6.608,12.345s-.126,9.692-.92,14.459c-.257,1.542-.885,3.294-2.174,4a2.522,2.522,0,0,1-.761.273,3.283,3.283,0,0,1-3.169-1.608,8.177,8.177,0,0,1-1.039-3.586,35.7,35.7,0,0,1,6.183-24.156c-5.026,1.7-9.16,3.167-14.186,4.87-4.47,9.326-5.228,20.876-1.084,30.351a18.112,18.112,0,0,1,1.852,5.339c.18,1.837-.543,3.914-2.19,4.714-.042.021-.081.044-.124.062-1.752.76-3.878-.19-5.027-1.715a11.33,11.33,0,0,1-1.793-5.374,59.677,59.677,0,0,1,4.364-31.719c-7.331,2.582-11.615,9.176-16.031,15.574-2.65,3.839-5.3,7.683-7.688,11.693q-.641,1.078-1.254,2.185c-3.417,6.162-6.035,12.91-5.783,19.906.281,7.833,5.013,15.928,12.566,18.022,5.661,1.57,11.88.309,17.455-1.873A71.958,71.958,0,0,1-38.46,340.526a1.229,1.229,0,0,0,1.542,1.912,76.671,76.671,0,0,0,10.379-9.916,21.115,21.115,0,0,0,.511,14.447A21.088,21.088,0,0,0-11.638,359.2c5.832,1.376,12.085.134,17.4-2.629a45.205,45.205,0,0,0,13.6-11.57A22.018,22.018,0,0,1,4.6,343.755c-1.611-.755-3.371-2.376-2.646-4,.024-.055.056-.1.083-.153.826-1.5,3.138-1.205,4.872-.833A24.807,24.807,0,0,0,27.241,334a24.8,24.8,0,0,0,9.228-18.733A43.806,43.806,0,0,1,6.411,326.651a10.164,10.164,0,0,1-5.625-1.3,4.311,4.311,0,0,1-1.9-4.466,2.922,2.922,0,0,1,.241-.606,4.2,4.2,0,0,1,3.477-1.926,14.365,14.365,0,0,1,4.092.581,38.164,38.164,0,0,0,16.689.528c5.481-1.209,10.692-4.241,13.788-8.921s3.778-11.076,1.035-15.972C30.754,302.642,20.1,308.08,9.105,308.025a8.059,8.059,0,0,1-3.972-.773,3.181,3.181,0,0,1-1.69-3.4,2.436,2.436,0,0,1,.152-.4,3.44,3.44,0,0,1,2.327-1.692,10.8,10.8,0,0,1,3.388-.034A36.5,36.5,0,0,0,25.717,299.8c5.172-2.028,9.781-5.852,11.988-10.95S39.4,277.372,35.775,273.158ZM-16.51,336.886a2.666,2.666,0,0,1-3.742-.238,18.228,18.228,0,0,1-1.853-2.832,2.694,2.694,0,0,1,1.223-3.543,2.683,2.683,0,0,1,3.543,1.223c.114.228.232.453.363.673l.015.024a6.2,6.2,0,0,1,.687.951A2.716,2.716,0,0,1-16.51,336.886Zm8.188-4.559a19.54,19.54,0,0,1-6.059-3.547,2.7,2.7,0,0,1-.732-3.677,2.677,2.677,0,0,1,3.677-.732,15.8,15.8,0,0,0,4.845,2.945C-3.324,328.322-5.065,333.329-8.322,332.327Zm-5.53-35.717a2.68,2.68,0,0,1-3.543-1.223L-18.41,293.3a2.7,2.7,0,0,1,1.223-3.543,2.68,2.68,0,0,1,3.543,1.223l1.016,2.087A2.7,2.7,0,0,1-13.852,296.61Z" transform="translate(57.036 -249.999)" fill="#006064"/>
          </g>
          <path id="Trazado_1091253" data-name="Trazado 1091253" d="M33.41,260.567c-6.6,6.154-13.259,12.378-18.293,19.866C8.46,290.335,4.962,301.959.109,312.86s-11.677,21.7-22.354,27.024" transform="translate(45.276 -253.571)" fill="none" stroke="#231f20" stroke-miterlimit="10" stroke-width="1"/>
          <path id="Trazado_1091254" data-name="Trazado 1091254" d="M36.847,262.446q.11,8,.221,16.005a202.037,202.037,0,0,0,19.744-6.062" transform="translate(25.302 -254.206)" fill="none" stroke="#231f20" stroke-miterlimit="10" stroke-width="1"/>
          <path id="Trazado_1091255" data-name="Trazado 1091255" d="M-2.782,287.322a51.4,51.4,0,0,0,6.355,29.2c1.35,2.4,2.434,5.51,1.762,8.185A13.877,13.877,0,0,1,13.7,322.7a50.452,50.452,0,0,1,7.938,1.836,39.1,39.1,0,0,0,12.49,1.643,19.208,19.208,0,0,0,11.609-4.418" transform="translate(38.755 -262.615)" fill="none" stroke="#231f20" stroke-miterlimit="10" stroke-width="1"/>
          <path id="Trazado_1091256" data-name="Trazado 1091256" d="M-35.759,311.744c-1.57,5.282-.144,11.119,2.753,15.805s7.136,8.385,11.524,11.718a17.75,17.75,0,0,1,4.35,4.091,5.526,5.526,0,0,1,.522,5.672c3.15-.725,6.422.553,9.193,2.218S-2.094,355,.926,356.159a20.154,20.154,0,0,0,12.176.263,60.017,60.017,0,0,0,11.422-4.706" transform="translate(50.063 -270.87)" fill="none" stroke="#231f20" stroke-miterlimit="10" stroke-width="1"/>
        </g>
        <g id="Grupo_1219762" data-name="Grupo 1219762" transform="translate(-33.798 231.123)">
          <g id="Grupo_1219761" data-name="Grupo 1219761">
            <path id="Trazado_1091257" data-name="Trazado 1091257" d="M50.634,378.676a48.3,48.3,0,0,1-29.706,9.086c-1.943-.068-4.425-.773-4.546-2.713a2.242,2.242,0,0,1,.473-1.468,3.339,3.339,0,0,1,1.65-1.176,8.4,8.4,0,0,1,3.624-.053,54.493,54.493,0,0,0,12.483.619A19.52,19.52,0,0,0,46,378.3a13.242,13.242,0,0,0,3.195-4.584,10.813,10.813,0,0,0,.632-6.73c-.61-2.475-2.155-4.628-2.874-7.074-.672-2.286-.307-5.211,1.631-6.462a8.142,8.142,0,0,1-2.044.771c-3.336.775-7.182-.341-10.527-1.506a44.363,44.363,0,0,0-8.642-2.512,12.656,12.656,0,0,0-4.335.128c-4.723,1.025-8.17,5.154-10.289,9.5s-3.295,9.115-5.608,13.359c-.748,1.372-1.916,2.822-3.363,3.062a2.541,2.541,0,0,1-.808.009A3.283,3.283,0,0,1,.5,373.705,8.179,8.179,0,0,1,.7,369.977a35.7,35.7,0,0,1,13.758-20.8c-5.306-.038-9.691-.01-15-.048-7.279,7.346-11.781,18.01-10.97,28.32a18.115,18.115,0,0,1,0,5.651c-.432,1.795-1.8,3.52-3.614,3.736-.046.005-.091.015-.137.018-1.9.144-3.6-1.45-4.188-3.268a11.335,11.335,0,0,1,.067-5.665A59.68,59.68,0,0,1-4.869,349.387c-7.773.037-13.981,4.863-20.249,9.46-3.762,2.759-7.527,5.521-11.1,8.527q-.96.808-1.9,1.654c-5.248,4.7-9.932,10.219-11.987,16.912-2.3,7.492-.484,16.691,5.965,21.145,4.834,3.338,11.123,4.185,17.1,3.951A71.954,71.954,0,0,1-41.577,418a1.229,1.229,0,0,0,.83,2.312,76.7,76.7,0,0,0,13.056-5.968,21.115,21.115,0,0,0-4.252,13.816,21.088,21.088,0,0,0,9.585,16.275c5.059,3.212,11.373,4.087,17.3,3.219a45.192,45.192,0,0,0,16.642-6.474,22.022,22.022,0,0,1-13.542-6.021c-1.276-1.241-2.406-3.35-1.188-4.647.041-.044.086-.078.129-.117,1.271-1.143,3.36-.111,4.876.809a24.806,24.806,0,0,0,20.771,2.162,24.8,24.8,0,0,0,14.858-14.675,43.8,43.8,0,0,1-32.128.9,10.16,10.16,0,0,1-4.887-3.074,4.311,4.311,0,0,1-.33-4.842,2.942,2.942,0,0,1,.426-.494,4.205,4.205,0,0,1,3.917-.681,14.353,14.353,0,0,1,3.676,1.89,38.166,38.166,0,0,0,15.594,5.968c5.574.653,11.491-.5,15.951-3.91s7.2-9.227,6.213-14.751c-9.692,5.189-21.542,6.834-31.91,3.18a8.053,8.053,0,0,1-3.5-2.032,3.18,3.18,0,0,1-.482-3.767,2.38,2.38,0,0,1,.275-.327,3.441,3.441,0,0,1,2.753-.836,10.81,10.81,0,0,1,3.213,1.078A36.5,36.5,0,0,0,32.4,400.55c5.551-.221,11.158-2.324,14.914-6.417S52.674,383.843,50.634,378.676Zm-70.282,43.073a2.667,2.667,0,0,1-3.458-1.45,18.245,18.245,0,0,1-.822-3.283,2.694,2.694,0,0,1,2.317-2.946,2.683,2.683,0,0,1,2.946,2.317c.033.253.071.5.122.754,0,.009,0,.019.006.028a6.165,6.165,0,0,1,.338,1.123A2.716,2.716,0,0,1-19.648,421.749Zm9.23-1.625a19.527,19.527,0,0,1-4.562-5.337,2.7,2.7,0,0,1,.513-3.714,2.678,2.678,0,0,1,3.714.513,15.807,15.807,0,0,0,3.612,4.37C-4.383,417.979-7.669,422.14-10.418,420.125Zm6.481-35.556a2.68,2.68,0,0,1-2.946-2.317l-.276-2.3A2.7,2.7,0,0,1-4.843,377,2.68,2.68,0,0,1-1.9,379.317l.276,2.3A2.7,2.7,0,0,1-3.937,384.568Z" transform="translate(51.055 -349.133)" fill="#24767a"/>
          </g>
          <path id="Trazado_1091258" data-name="Trazado 1091258" d="M50.28,363.7c-8.251,3.651-16.583,7.349-23.794,12.774-9.534,7.173-16.648,17.01-24.805,25.717S-16.462,418.865-28.3,420.4" transform="translate(43.362 -354.057)" fill="none" stroke="#231f20" stroke-miterlimit="10" stroke-width="1"/>
          <path id="Trazado_1091259" data-name="Trazado 1091259" d="M63.612,357.287l-5.036,15.194a202.249,202.249,0,0,0,20.64.743" transform="translate(13.998 -351.889)" fill="none" stroke="#231f20" stroke-miterlimit="10" stroke-width="1"/>
          <path id="Trazado_1091260" data-name="Trazado 1091260" d="M18.335,367.832A51.4,51.4,0,0,0,14.77,397.5c.487,2.715.495,6-1.017,8.31a13.876,13.876,0,0,1,8.565.846,50.464,50.464,0,0,1,6.9,4.337,39.083,39.083,0,0,0,11.262,5.645,19.21,19.21,0,0,0,12.415-.369" transform="translate(29.149 -355.454)" fill="none" stroke="#231f20" stroke-miterlimit="10" stroke-width="1"/>
          <path id="Trazado_1091261" data-name="Trazado 1091261" d="M-19.869,380.177c-3.214,4.476-3.78,10.457-2.578,15.835s3.994,10.26,7.047,14.848a17.753,17.753,0,0,1,2.769,5.291A5.524,5.524,0,0,1-14,421.679c3.214.348,5.886,2.627,7.958,5.109s3.8,5.291,6.272,7.373a20.161,20.161,0,0,0,11.418,4.24,60.082,60.082,0,0,0,12.334-.7" transform="translate(41.582 -359.626)" fill="none" stroke="#231f20" stroke-miterlimit="10" stroke-width="1"/>
        </g>
      </g>
      <g id="Grupo_1219764" data-name="Grupo 1219764" transform="translate(0 -0.005)" clip-path="url(#clip-path-3)">
        <circle id="Elipse_12117" data-name="Elipse 12117" cx="55.473" cy="55.473" r="55.473" transform="translate(16.728 130.734) rotate(-45)" fill="#6c301e"/>
        <circle id="Elipse_12118" data-name="Elipse 12118" cx="52.065" cy="52.065" r="52.065" transform="translate(21.547 130.734) rotate(-45)" fill="#d4b26e"/>
        <circle id="Elipse_12119" data-name="Elipse 12119" cx="49.952" cy="49.952" r="49.952" transform="translate(37.52 171.543) rotate(-80.288)" fill="#f0daac"/>
        <path id="Trazado_1091262" data-name="Trazado 1091262" d="M159.2,188.108,147.78,156.455a1.263,1.263,0,0,0,.145-.051,1.843,1.843,0,0,0,.993-1.728l.007-.07-.012-.069a1.718,1.718,0,0,0-1.258-1.5,1.955,1.955,0,0,0-1.993.8l.9.673a.865.865,0,0,1,.829-.385.467.467,0,0,1,.3.236.762.762,0,0,1,.063.548.663.663,0,0,1-.229.438.221.221,0,0,1-.026.017.428.428,0,0,1-.194.024.5.5,0,0,1-.094-.01,1.68,1.68,0,0,1-.324-.089,4.3,4.3,0,0,1-1.085-.647l-.477-.4-.349.518a1.48,1.48,0,0,1-.974.575,2.663,2.663,0,0,1-2-.9c-2.684-2.44-4.5-1.95-7.756-.787a10.115,10.115,0,0,1-5.906-.155,1.905,1.905,0,0,0-.785-1.22,1.648,1.648,0,0,0,.143-.681,1.253,1.253,0,1,0-2.471,0,1.644,1.644,0,0,0,.143.681,1.9,1.9,0,0,0-.787,1.219,10.112,10.112,0,0,1-5.9.156c-3.251-1.162-5.073-1.654-7.756.786a2.665,2.665,0,0,1-2,.9,1.488,1.488,0,0,1-.975-.575l-.348-.519-.479.4a4.289,4.289,0,0,1-1.086.647,1.756,1.756,0,0,1-.324.09.676.676,0,0,1-.095.007l-.031-.1a1.82,1.82,0,0,1-.191.053.678.678,0,0,1-.227-.432.766.766,0,0,1,.064-.549.465.465,0,0,1,.3-.236.867.867,0,0,1,.829.387l.9-.674a1.955,1.955,0,0,0-1.993-.8,1.717,1.717,0,0,0-1.258,1.5l-.011.07.007.07a1.843,1.843,0,0,0,.993,1.728,1.264,1.264,0,0,0,.148.044l-11.424,31.66H92.526v1.162a2.659,2.659,0,0,0,2.658,2.659h18.951a2.658,2.658,0,0,0,2.658-2.659v-1.162h-.71L106.2,157.235l-.115-.785a2.6,2.6,0,0,0,.285-.084,4.619,4.619,0,0,0,1.033-.537,2.556,2.556,0,0,0,1.373.629,3.706,3.706,0,0,0,2.892-1.189c2.2-2,3.42-1.705,6.624-.562a15.848,15.848,0,0,0,6.822.5h0a2.113,2.113,0,0,0,.216.183,16.6,16.6,0,0,0,.224,2.613c.048.237.1.464.137.686-1.745.063-3.057.336-3.057.662s1.373.611,3.178.663a4.758,4.758,0,0,1-.257,1.358c-.449,1.348,0,1.8,0,1.8s-4.043,1.348-3.594,2.022,3.144.675,2.695,4.495a54.687,54.687,0,0,1-1.348,6.965,16.166,16.166,0,0,0-.224,6.517c.449,1.8,1.348,1.346,1.348,2.921s1.348,5.842-.675,9.887,1.574,4.269,1.125,7.416-2.247,4.718-6.517,6.29-5.168,3.146-2.247,3.146h20.672c2.921,0,2.022-1.574-2.247-3.146s-6.066-3.146-6.515-6.29,3.144-3.372,1.123-7.416-.675-8.314-.675-9.887.9-1.125,1.348-2.921a16.166,16.166,0,0,0-.224-6.517,54.736,54.736,0,0,1-1.348-6.965c-.449-3.82,2.247-3.82,2.7-4.495s-3.6-2.022-3.6-2.022.449-.449,0-1.8a4.749,4.749,0,0,1-.255-1.358c1.8-.054,3.176-.331,3.176-.663s-1.312-.6-3.056-.662c.039-.222.087-.449.135-.686a16.257,16.257,0,0,0,.224-2.614,1.752,1.752,0,0,0,.216-.183,15.841,15.841,0,0,0,6.822-.5c3.2-1.143,4.424-1.437,6.623.563a3.713,3.713,0,0,0,2.893,1.188,2.557,2.557,0,0,0,1.373-.631,4.6,4.6,0,0,0,1.034.538,2.374,2.374,0,0,0,.285.084l-.115.788-9.883,30.869h-.708v1.021a2.8,2.8,0,0,0,2.8,2.8h18.668a2.8,2.8,0,0,0,2.8-2.8v-1.021H159.2Zm-65.134,0,11.4-31.6c.035,0,.07.009.105.009l.044,0,.251.783,4.49,30.809Zm21.665,0H110.7L106.5,159.252Zm21.448,0,9.236-28.854-4.206,28.854Zm5.372,0,4.49-30.813.25-.779a.329.329,0,0,0,.044,0c.034,0,.071,0,.105,0l11.4,31.594Z" transform="translate(-31.276 -50.745)" fill="#d4b26e"/>
      </g>
      <g id="Grupo_1219765" data-name="Grupo 1219765" transform="translate(0 -0.005)" clip-path="url(#clip-path-3)">
        <rect id="Rectángulo_420900" data-name="Rectángulo 420900" width="125.587" height="5.103" transform="translate(205.403 13.199)" fill="#9ec6e0"/>
        <rect id="Rectángulo_420901" data-name="Rectángulo 420901" width="125.587" height="5.103" transform="translate(205.403 22.805)" fill="#9ec6e0"/>
        <rect id="Rectángulo_420902" data-name="Rectángulo 420902" width="125.587" height="5.103" transform="translate(205.403 32.41)" fill="#9ec6e0"/>
        <rect id="Rectángulo_420903" data-name="Rectángulo 420903" width="125.587" height="5.103" transform="translate(205.403 42.015)" fill="#9ec6e0"/>
        <rect id="Rectángulo_420904" data-name="Rectángulo 420904" width="125.587" height="5.103" transform="translate(205.403 51.621)" fill="#9ec6e0"/>
        <rect id="Rectángulo_420905" data-name="Rectángulo 420905" width="125.587" height="5.103" transform="translate(205.403 61.227)" fill="#9ec6e0"/>
        <rect id="Rectángulo_420906" data-name="Rectángulo 420906" width="125.587" height="5.103" transform="translate(205.403 70.832)" fill="#9ec6e0"/>
        <rect id="Rectángulo_420907" data-name="Rectángulo 420907" width="125.587" height="5.103" transform="translate(205.403 80.437)" fill="#9ec6e0"/>
        <rect id="Rectángulo_420908" data-name="Rectángulo 420908" width="125.587" height="5.103" transform="translate(205.403 90.043)" fill="#9ec6e0"/>
        <rect id="Rectángulo_420909" data-name="Rectángulo 420909" width="125.587" height="5.103" transform="translate(205.403 99.649)" fill="#9ec6e0"/>
        <rect id="Rectángulo_420910" data-name="Rectángulo 420910" width="125.587" height="5.103" transform="translate(205.403 109.254)" fill="#9ec6e0"/>
        <rect id="Rectángulo_420911" data-name="Rectángulo 420911" width="125.587" height="5.103" transform="translate(205.403 118.859)" fill="#9ec6e0"/>
        <rect id="Rectángulo_420912" data-name="Rectángulo 420912" width="125.587" height="5.103" transform="translate(205.403 128.465)" fill="#9ec6e0"/>
        <rect id="Rectángulo_420913" data-name="Rectángulo 420913" width="125.587" height="5.103" transform="translate(205.403 138.071)" fill="#9ec6e0"/>
        <rect id="Rectángulo_420914" data-name="Rectángulo 420914" width="125.587" height="5.103" transform="translate(205.403 147.676)" fill="#9ec6e0"/>
        <rect id="Rectángulo_420915" data-name="Rectángulo 420915" width="125.587" height="5.103" transform="translate(205.403 157.281)" fill="#9ec6e0"/>
        <rect id="Rectángulo_420916" data-name="Rectángulo 420916" width="125.587" height="5.103" transform="translate(205.403 166.887)" fill="#9ec6e0"/>
        <rect id="Rectángulo_420917" data-name="Rectángulo 420917" width="125.587" height="5.103" transform="translate(205.403 176.493)" fill="#9ec6e0"/>
        <rect id="Rectángulo_420918" data-name="Rectángulo 420918" width="125.587" height="5.103" transform="translate(205.403 186.098)" fill="#9ec6e0"/>
        <rect id="Rectángulo_420919" data-name="Rectángulo 420919" width="125.587" height="5.103" transform="translate(205.403 195.703)" fill="#9ec6e0"/>
        <rect id="Rectángulo_420920" data-name="Rectángulo 420920" width="125.587" height="5.103" transform="translate(205.403 205.309)" fill="#9ec6e0"/>
        <rect id="Rectángulo_420921" data-name="Rectángulo 420921" width="125.587" height="5.103" transform="translate(205.403 214.915)" fill="#9ec6e0"/>
        <rect id="Rectángulo_420922" data-name="Rectángulo 420922" width="125.587" height="5.103" transform="translate(205.403 224.52)" fill="#9ec6e0"/>
        <rect id="Rectángulo_420923" data-name="Rectángulo 420923" width="125.587" height="5.103" transform="translate(205.403 234.126)" fill="#9ec6e0"/>
        <rect id="Rectángulo_420924" data-name="Rectángulo 420924" width="125.587" height="5.103" transform="translate(205.403 243.732)" fill="#9ec6e0"/>
        <rect id="Rectángulo_420925" data-name="Rectángulo 420925" width="125.587" height="5.103" transform="translate(205.403 253.337)" fill="#9ec6e0"/>
        <rect id="Rectángulo_420926" data-name="Rectángulo 420926" width="125.587" height="5.103" transform="translate(205.403 262.942)" fill="#9ec6e0"/>
        <rect id="Rectángulo_420927" data-name="Rectángulo 420927" width="125.587" height="5.103" transform="translate(205.403 272.548)" fill="#9ec6e0"/>
        <rect id="Rectángulo_420928" data-name="Rectángulo 420928" width="125.587" height="5.103" transform="translate(205.403 282.154)" fill="#9ec6e0"/>
        <rect id="Rectángulo_420929" data-name="Rectángulo 420929" width="125.587" height="5.103" transform="translate(205.403 291.759)" fill="#9ec6e0"/>
      </g>
      <g id="Grupo_1219775" data-name="Grupo 1219775" transform="translate(0 -0.005)" clip-path="url(#clip-path-3)">
        <g id="Grupo_1219766" data-name="Grupo 1219766" transform="translate(16.262 230.728)" opacity="0.7">
          <path id="Trazado_1091263" data-name="Trazado 1091263" d="M95.808,388.134c3.56,1.3,5.13,1.871,5.788,2.108.344.128.439.16.439.16l.087.032c.316.117,1.638.6,6.141,2.239a7.131,7.131,0,0,0,5.208.056,4.109,4.109,0,0,0,2.2-1.956,2.758,2.758,0,0,0,.265-.976,2.578,2.578,0,0,0-.532-1.728c-.054-.074-.111-.144-.174-.218a4.309,4.309,0,0,1-.783-1.2,1.678,1.678,0,0,1,.04-1.519,2.173,2.173,0,0,1,1-.872,2.305,2.305,0,0,0,1.718-4.237l.73-2.006s19.342,5.269,27.8,8.17c0,.569.147.98.439,1.086a.643.643,0,0,0,.543-.1c-.022.618.1,1.049.373,1.148s.643-.153,1.024-.639a.636.636,0,0,0,.348.427c.3.108.685-.123,1.057-.571.821.307,1.635.617,2.433.935,9.748,3.87,20.118,10.555,25.86,11.112a4.262,4.262,0,1,0,2.337-6.411c-4.754-3.273-16.994-4.824-26.948-8.136-.814-.271-1.638-.555-2.463-.848,0-.585-.143-1.009-.442-1.117a.629.629,0,0,0-.54.1c.019-.619-.1-1.05-.375-1.149s-.641.154-1.021.639a.632.632,0,0,0-.351-.426c-.292-.109-.67.113-1.037.549-8.342-3.224-26.535-11.635-26.535-11.635l.751-2.057a2.306,2.306,0,0,0,1.2-4.412,2.152,2.152,0,0,1-.2-1.3,1.667,1.667,0,0,1,.944-1.19,4.4,4.4,0,0,1,1.378-.419,2.072,2.072,0,0,0,.269-.055,2.555,2.555,0,0,0,1.521-.978,2.727,2.727,0,0,0,.427-.919,4.154,4.154,0,0,0-.427-2.918,7.139,7.139,0,0,0-4.024-3.306l-6.227-2.269s-.04-.014-.162-.06-.272-.1-.526-.191c-.775-.282-2.368-.861-5.54-2.018a7.12,7.12,0,0,0-5.206-.056,4.123,4.123,0,0,0-2.2,1.957,2.662,2.662,0,0,0-.263.976,2.545,2.545,0,0,0,.531,1.729c.054.073.109.142.171.216a4.36,4.36,0,0,1,.786,1.2,1.671,1.671,0,0,1-.042,1.519,2.172,2.172,0,0,1-1,.873,2.305,2.305,0,0,0-1.722,4.235L96.9,372.638a2.305,2.305,0,0,0-1.206,4.411,2.166,2.166,0,0,1,.2,1.3,1.676,1.676,0,0,1-.946,1.189,4.359,4.359,0,0,1-1.376.42,2.243,2.243,0,0,0-.272.054,2.559,2.559,0,0,0-1.517.979,2.673,2.673,0,0,0-.428.919,4.139,4.139,0,0,0,.425,2.917A7.131,7.131,0,0,0,95.808,388.134Z" transform="translate(-47.107 -348.536)" fill="#c7a36a"/>
          <path id="Trazado_1091264" data-name="Trazado 1091264" d="M102.322,431.186c0-.019.009-.036.009-.055v-3.106a1.147,1.147,0,0,0-.951-1.252v-4.355a3.433,3.433,0,0,0-1.775-3.207,1.739,1.739,0,0,0,.009-.187v-.764a1.571,1.571,0,0,0-1.335-1.728H63.455a1.572,1.572,0,0,0-1.335,1.728v.764c0,.063,0,.126.009.187a3.433,3.433,0,0,0-1.775,3.207v4.355a1.147,1.147,0,0,0-.951,1.252v3.106c0,.02.007.036.009.055H24.566v8.157h5.888v32.443H326.966V439.343h5.888v-8.157Z" transform="translate(-24.566 -371.52)" fill="#c7a36a"/>
        </g>
        <g id="Grupo_1219774" data-name="Grupo 1219774" transform="translate(11.352 230.728)">
          <g id="Grupo_1219772" data-name="Grupo 1219772" transform="translate(34.837)">
            <g id="Grupo_1219767" data-name="Grupo 1219767" transform="translate(0 45.012)">
              <path id="Trazado_1091265" data-name="Trazado 1091265" d="M111.372,418.26v.764a1.731,1.731,0,0,1-.009.187,1.518,1.518,0,0,1-1.327,1.542H75.214a1.52,1.52,0,0,1-1.327-1.542c-.006-.06-.009-.124-.009-.187v-.764a1.572,1.572,0,0,1,1.335-1.728h34.822A1.571,1.571,0,0,1,111.372,418.26Z" transform="translate(-71.161 -416.532)" fill="#2a1510"/>
              <path id="Trazado_1091266" data-name="Trazado 1091266" d="M112.236,423.694v6.816H71.209v-6.816a3.433,3.433,0,0,1,1.775-3.207,2.083,2.083,0,0,1,.839-.179h35.8a2.1,2.1,0,0,1,.839.179A3.433,3.433,0,0,1,112.236,423.694Z" transform="translate(-70.258 -417.809)" fill="#89411d"/>
              <path id="Trazado_1091267" data-name="Trazado 1091267" d="M112.7,433.255v3.106a.515.515,0,0,1-.436.566H70.209a.515.515,0,0,1-.436-.566v-3.106A1.147,1.147,0,0,1,70.724,432h41.027A1.148,1.148,0,0,1,112.7,433.255Z" transform="translate(-69.773 -421.761)" fill="#2a1510"/>
            </g>
            <g id="Grupo_1219771" data-name="Grupo 1219771" transform="translate(9.308)">
              <g id="Grupo_1219770" data-name="Grupo 1219770">
                <path id="Trazado_1091268" data-name="Trazado 1091268" d="M190.143,409.722a4.256,4.256,0,0,1-7.564.874c-5.743-.557-16.113-7.242-25.86-11.112-.8-.318-1.613-.628-2.433-.935-.371.449-.759.679-1.057.571a.637.637,0,0,1-.348-.428c-.381.486-.751.738-1.024.639s-.4-.53-.373-1.148a.641.641,0,0,1-.543.1c-.292-.105-.438-.516-.439-1.086-8.457-2.9-27.8-8.17-27.8-8.17l-2.845-1.037,2.5-6.863,2.846,1.037s18.193,8.411,26.535,11.635c.367-.436.745-.658,1.037-.549a.632.632,0,0,1,.351.426c.381-.485.751-.737,1.021-.639s.394.53.375,1.149a.629.629,0,0,1,.54-.1c.3.109.446.532.442,1.117.825.293,1.648.577,2.463.848,9.954,3.311,22.194,4.863,26.948,8.136a4.211,4.211,0,0,1,2.684.073A4.262,4.262,0,0,1,190.143,409.722Z" transform="translate(-96.01 -359.553)" fill="#2a1510"/>
                <path id="Trazado_1091269" data-name="Trazado 1091269" d="M116.694,375.506l-.073.2-.751,2.057-2.5,6.863-.731,2.006-.089.244-10.126-3.689L101.9,383l-9.652-3.52.082-.224,3.98-10.928.079-.22,9.526,3.472.525.191Z" transform="translate(-86.677 -355.151)" fill="#2a1510"/>
                <g id="Grupo_1219768" data-name="Grupo 1219768" transform="translate(0 28.099)">
                  <path id="Trazado_1091270" data-name="Trazado 1091270" d="M108.257,405.121a4.109,4.109,0,0,1-2.2,1.956,7.131,7.131,0,0,1-5.208-.056c-4.5-1.642-5.825-2.122-6.141-2.239l-.087-.032s-.1-.032-.439-.16c-.659-.236-2.228-.811-5.789-2.108a7.126,7.126,0,0,1-4.024-3.306,4.142,4.142,0,0,1-.426-2.917,2.666,2.666,0,0,1,.428-.919,2.562,2.562,0,0,1,1.517-.979,2.391,2.391,0,0,1,.273-.054,4.359,4.359,0,0,0,1.376-.42,1.674,1.674,0,0,0,.946-1.188,2.166,2.166,0,0,0-.2-1.3.958.958,0,0,0-.3-.413l9.827,3.291.53.177.03.01,10.191,4.02a.96.96,0,0,0-.483.12,2.173,2.173,0,0,0-1,.872,1.68,1.68,0,0,0-.04,1.519,4.32,4.32,0,0,0,.784,1.2c.063.074.12.144.174.218a2.579,2.579,0,0,1,.532,1.728A2.751,2.751,0,0,1,108.257,405.121Z" transform="translate(-83.834 -390.983)" fill="#89411d"/>
                </g>
                <path id="Trazado_1091271" data-name="Trazado 1091271" d="M112.37,395.11a2.3,2.3,0,0,1-2.749,1.44c-.062-.015-.123-.034-.183-.055l-.024-.008-9.722-3.544-.526-.191-9.246-3.37c-.032-.012-.064-.026-.1-.037a2.305,2.305,0,0,1,1.206-4.411,2.213,2.213,0,0,1,.447.109l.025.009L100.7,388.4l.525.191,9.771,3.561a2.7,2.7,0,0,1,.347.158A2.312,2.312,0,0,1,112.37,395.11Z" transform="translate(-85.379 -360.832)" fill="#662a10"/>
                <g id="Grupo_1219769" data-name="Grupo 1219769" transform="translate(10.871)">
                  <path id="Trazado_1091272" data-name="Trazado 1091272" d="M124.444,360.737a2.555,2.555,0,0,1-1.521.978,2.1,2.1,0,0,1-.269.055,4.408,4.408,0,0,0-1.378.419,1.668,1.668,0,0,0-.944,1.19,2.152,2.152,0,0,0,.2,1.3.959.959,0,0,0,.3.413l-10.386-3.478-.045-.019-.52-.2-9.622-3.8a.985.985,0,0,0,.483-.12,2.169,2.169,0,0,0,1-.873,1.671,1.671,0,0,0,.042-1.519,4.345,4.345,0,0,0-.786-1.2c-.062-.074-.118-.142-.171-.216a2.546,2.546,0,0,1-.531-1.729,2.662,2.662,0,0,1,.263-.976,4.125,4.125,0,0,1,2.2-1.957,7.124,7.124,0,0,1,5.206.056c3.172,1.158,4.766,1.737,5.54,2.018.254.1.419.154.526.191l.162.06s.812.295,6.227,2.269a7.131,7.131,0,0,1,4.024,3.306,4.158,4.158,0,0,1,.428,2.918A2.706,2.706,0,0,1,124.444,360.737Z" transform="translate(-100.255 -348.537)" fill="#89411d"/>
                </g>
                <path id="Trazado_1091273" data-name="Trazado 1091273" d="M120.582,372.123a2.306,2.306,0,0,1-2.483,1.493,2.161,2.161,0,0,1-.447-.109l-.025-.009-9.8-3.571-.526-.191-9.17-3.344a2.626,2.626,0,0,1-.347-.159A2.305,2.305,0,0,1,99.508,362c.062.015.122.034.183.055l.024.009,9.118,3.326.526.191,9.846,3.588c.034.012.066.026.1.037A2.305,2.305,0,0,1,120.582,372.123Z" transform="translate(-88.155 -353.062)" fill="#662a10"/>
                <path id="Trazado_1091274" data-name="Trazado 1091274" d="M97.22,362.077" transform="translate(-88.359 -353.114)" fill="#894e34"/>
                <path id="Trazado_1091275" data-name="Trazado 1091275" d="M116.418,357.1" transform="translate(-94.848 -351.431)" fill="#b4711a"/>
              </g>
            </g>
          </g>
          <g id="Grupo_1219773" data-name="Grupo 1219773" transform="translate(0 59.666)">
            <rect id="Rectángulo_420931" data-name="Rectángulo 420931" width="308.287" height="8.157" fill="#6c301e"/>
            <rect id="Rectángulo_420932" data-name="Rectángulo 420932" width="296.512" height="32.443" transform="translate(5.888 8.157)" fill="#6c301e"/>
            <rect id="Rectángulo_420933" data-name="Rectángulo 420933" width="296.512" height="4.728" transform="translate(5.888 8.157)" fill="#3d1b11"/>
          </g>
        </g>
      </g>
      <g id="Grupo_1219793" data-name="Grupo 1219793" transform="translate(0 -0.005)" clip-path="url(#clip-path-3)">
        <g id="Grupo_1219792" data-name="Grupo 1219792" transform="translate(97.435 27.271)">
          <g id="Grupo_1219785" data-name="Grupo 1219785" transform="translate(41.018)">
            <path id="Trazado_1091276" data-name="Trazado 1091276" d="M239.847,456.354H369.2V370.915l-115,3.694Z" transform="translate(-219.526 -152.644)" fill="#223d44"/>
            <g id="Grupo_1219783" data-name="Grupo 1219783" transform="translate(45.806)">
              <g id="Grupo_1219776" data-name="Grupo 1219776" transform="translate(0 3.813)">
                <path id="Trazado_1091277" data-name="Trazado 1091277" d="M294.4,47.648a8.67,8.67,0,0,0-5.1,7.106,8.424,8.424,0,0,0-6.217,15.618,10.772,10.772,0,0,0,12.162,14.436,13.4,13.4,0,0,0,8.526-6.4,24.419,24.419,0,0,0,3.076-10.436,38.982,38.982,0,0,0-1.937-17C303.436,47.094,297.984,46.1,294.4,47.648Z" transform="translate(-278.345 -46.952)" fill="#f4e6d0"/>
                <path id="Trazado_1091278" data-name="Trazado 1091278" d="M295.685,52.508a7.928,7.928,0,0,0-4.666,6.5,7.7,7.7,0,0,0-5.684,14.282,9.851,9.851,0,0,0,11.121,13.2,12.26,12.26,0,0,0,7.8-5.852,22.339,22.339,0,0,0,2.813-9.542,35.657,35.657,0,0,0-1.771-15.545C303.947,52,298.963,51.1,295.685,52.508Z" transform="translate(-279.244 -48.615)" fill="#dbcfbb"/>
              </g>
              <g id="Grupo_1219777" data-name="Grupo 1219777" transform="translate(45.318 3.813)">
                <path id="Trazado_1091279" data-name="Trazado 1091279" d="M359.445,47.648a8.67,8.67,0,0,1,5.1,7.106,8.424,8.424,0,0,1,6.217,15.618A10.772,10.772,0,0,1,358.6,84.808a13.4,13.4,0,0,1-8.526-6.4A24.42,24.42,0,0,1,347,67.972a38.982,38.982,0,0,1,1.937-17C350.408,47.094,355.86,46.1,359.445,47.648Z" transform="translate(-346.804 -46.952)" fill="#f4e6d0"/>
                <path id="Trazado_1091280" data-name="Trazado 1091280" d="M359.414,52.508a7.928,7.928,0,0,1,4.666,6.5,7.7,7.7,0,0,1,5.684,14.282,9.851,9.851,0,0,1-11.121,13.2,12.261,12.261,0,0,1-7.8-5.852,22.339,22.339,0,0,1-2.813-9.542A35.647,35.647,0,0,1,349.8,55.549C351.15,52,356.136,51.1,359.414,52.508Z" transform="translate(-347.159 -48.615)" fill="#dbcfbb"/>
              </g>
              <g id="Grupo_1219782" data-name="Grupo 1219782" transform="translate(7.263)">
                <g id="Grupo_1219778" data-name="Grupo 1219778" transform="translate(5.344 34.786)">
                  <path id="Trazado_1091281" data-name="Trazado 1091281" d="M299.844,127.416q.232,9.518.464,19.035c-.9.572-2.02,1.388-2.918,1.959a150.9,150.9,0,0,0,28.134,18.469,86.059,86.059,0,0,0,20.353-19.472c-1.879-.407-3.742-.724-5.621-1.131-.239-.961-.457-1.928-.663-2.9C325.01,146.88,310.714,137.636,299.844,127.416Z" transform="translate(-297.39 -105.123)" fill="#db9d86"/>
                  <path id="Trazado_1091282" data-name="Trazado 1091282" d="M300.282,93.915q.269,11.059.539,22.118c10.87,10.22,25.167,19.464,39.749,15.96a150.969,150.969,0,0,1-2.691-26.281C328.689,96.848,313,92.825,300.282,93.915Z" transform="translate(-298.368 -93.74)" fill="#db744f"/>
                </g>
                <g id="Grupo_1219781" data-name="Grupo 1219781">
                  <path id="Trazado_1091283" data-name="Trazado 1091283" d="M296.437,87.4a9.225,9.225,0,0,0-2.4-3.1,3.148,3.148,0,0,0-3.675-.193,3.009,3.009,0,0,0-1.034,2.145,7.227,7.227,0,0,0,.325,2.417,25.317,25.317,0,0,0,1.5,4.124,6.388,6.388,0,0,0,2.261,2.923,3.618,3.618,0,0,0,5.3-1.952" transform="translate(-289.317 -55.526)" fill="#db744f"/>
                  <path id="Trazado_1091284" data-name="Trazado 1091284" d="M363.862,87.4a9.225,9.225,0,0,1,2.4-3.1,3.148,3.148,0,0,1,3.675-.193,3.009,3.009,0,0,1,1.034,2.145,7.227,7.227,0,0,1-.325,2.417,25.317,25.317,0,0,1-1.5,4.124,6.388,6.388,0,0,1-2.261,2.923,3.618,3.618,0,0,1-5.3-1.952" transform="translate(-313.744 -55.526)" fill="#db744f"/>
                  <g id="Grupo_1219779" data-name="Grupo 1219779" transform="translate(6.639)">
                    <path id="Trazado_1091285" data-name="Trazado 1091285" d="M344.872,74.511c.005-4.652-.675-10.022-.67-14.673-1.8-1.35-3.058-2.085-4.86-3.434-.018-2.5-.6-4.858-.614-7.359-6.9-10.324-23.9-10.663-31.6.141-.322,2.954-.626,5.85-.948,8.8-1.458.989-2.708,1.625-4.167,2.613a57.172,57.172,0,0,0-2.4,13.365c-.463,3.183-1.156,21.524,5.889,25.874,3.75,2.316,12.173,1.781,18.162,1.516,5.262-.232,12.318.074,15.69-1.83C346.567,95.46,345.015,75.855,344.872,74.511Z" transform="translate(-299.346 -41.192)" fill="#db9d86"/>
                  </g>
                  <path id="Trazado_1091286" data-name="Trazado 1091286" d="M324.344,72.828a8.792,8.792,0,0,0-7.951.692c-.841.532-.085,1.889.763,1.352a7.333,7.333,0,0,1,6.753-.555.782.782,0,0,0,.963-.528A.794.794,0,0,0,324.344,72.828Z" transform="translate(-298.346 -51.668)" fill="#dbcfbb"/>
                  <path id="Trazado_1091287" data-name="Trazado 1091287" d="M345.854,73.367a8.791,8.791,0,0,0-7.972-.391c-.9.414-.34,1.859.573,1.443a7.332,7.332,0,0,1,6.765.365.782.782,0,0,0,1.025-.392A.793.793,0,0,0,345.854,73.367Z" transform="translate(-305.578 -51.675)" fill="#dbcfbb"/>
                  <circle id="Elipse_12120" data-name="Elipse 12120" cx="2.004" cy="2.004" r="2.004" transform="translate(20.736 25.401)" fill="#2a1510"/>
                  <circle id="Elipse_12121" data-name="Elipse 12121" cx="2.004" cy="2.004" r="2.004" transform="translate(33.633 25.401)" fill="#2a1510"/>
                  <path id="Trazado_1091288" data-name="Trazado 1091288" d="M325.14,88.094a1.85,1.85,0,0,0-.177,2.242,4.324,4.324,0,0,0,1.969,1.579,9.833,9.833,0,0,0,7.311.3c1.366-.5,2.711-1.522,2.661-2.829a2.079,2.079,0,0,0-1.231-1.74C334.956,87.311,326.035,87.194,325.14,88.094Z" transform="translate(-301.267 -56.81)" fill="url(#linear-gradient)"/>
                  <g id="Grupo_1219780" data-name="Grupo 1219780" transform="translate(17.632 37.021)">
                    <path id="Trazado_1091289" data-name="Trazado 1091289" d="M318.22,99.462c4.123,3.234,17.294,2.682,19.991-.288" transform="translate(-316.719 -97.812)" fill="none" stroke="#2a1510" stroke-linecap="round" stroke-linejoin="round" stroke-miterlimit="10" stroke-width="1"/>
                    <path id="Trazado_1091290" data-name="Trazado 1091290" d="M315.952,99.34a3.106,3.106,0,0,1,2.147-1.623" transform="translate(-315.952 -97.32)" fill="none" stroke="#2a1510" stroke-linecap="round" stroke-linejoin="round" stroke-miterlimit="10" stroke-width="1"/>
                    <path id="Trazado_1091291" data-name="Trazado 1091291" d="M346.365,97.117a4.326,4.326,0,0,1,2.8,1.548" transform="translate(-326.232 -97.117)" fill="none" stroke="#2a1510" stroke-linecap="round" stroke-linejoin="round" stroke-miterlimit="10" stroke-width="1"/>
                  </g>
                </g>
              </g>
            </g>
            <g id="Grupo_1219784" data-name="Grupo 1219784" transform="translate(45.807 66.652)">
              <path id="Trazado_1091292" data-name="Trazado 1091292" d="M283.391,151.73l5.206-.867,1.712-8.985,20.045,6.318,4.792,7.061,4.1-7.9,17.919-5.475.984,6.318,9.8,2.617,7.842,146.406H278.347Z" transform="translate(-278.347 -141.878)" fill="#f4e6d0"/>
              <path id="Trazado_1091293" data-name="Trazado 1091293" d="M312.839,158.7H326l-3.552,11.767,25.151,73.6-55.182,2.375,24.97-75.768Z" transform="translate(-283.104 -147.566)" fill="#d13a3a"/>
              <path id="Trazado_1091294" data-name="Trazado 1091294" d="M313.729,153.336a24.03,24.03,0,0,0-3.033,12.676,35.292,35.292,0,0,1-17-8.148l.252.117" transform="translate(-283.536 -145.751)" fill="none" stroke="#2a1510" stroke-linecap="round" stroke-linejoin="round" stroke-miterlimit="10" stroke-width="1"/>
              <path id="Trazado_1091295" data-name="Trazado 1091295" d="M341.327,152.254a25,25,0,0,1,2.854,13l13.008-10.741" transform="translate(-299.635 -145.385)" fill="none" stroke="#2a1510" stroke-linecap="round" stroke-linejoin="round" stroke-miterlimit="10" stroke-width="1"/>
              <path id="Trazado_1091296" data-name="Trazado 1091296" d="M330.141,176.8H335.2l12.249,60.318" transform="translate(-295.854 -153.681)" fill="none" stroke="#2a1510" stroke-linecap="round" stroke-linejoin="round" stroke-miterlimit="10" stroke-width="1"/>
              <line id="Línea_777" data-name="Línea 777" x1="17.999" y2="67.98" transform="translate(18.391 23.115)" fill="none" stroke="#2a1510" stroke-linecap="round" stroke-linejoin="round" stroke-miterlimit="10" stroke-width="1"/>
            </g>
            <path id="Trazado_1091297" data-name="Trazado 1091297" d="M266.92,141.878V379.136H217.788L209.15,171.157Z" transform="translate(-209.15 -75.226)" fill="#2a1510"/>
            <path id="Trazado_1091298" data-name="Trazado 1091298" d="M367.194,141.878l3.868,237.258h49.132l8.638-207.979Z" transform="translate(-262.572 -75.226)" fill="#2a1510"/>
            <line id="Línea_778" data-name="Línea 778" y2="81.105" transform="translate(79.906 140.415)" fill="none" stroke="#2a1510" stroke-linecap="round" stroke-linejoin="round" stroke-miterlimit="10" stroke-width="1"/>
            <line id="Línea_779" data-name="Línea 779" x2="48.408" transform="translate(60.264 236.229)" fill="none" stroke="#2a1510" stroke-linecap="round" stroke-linejoin="round" stroke-miterlimit="10" stroke-width="1"/>
            <path id="Trazado_1091299" data-name="Trazado 1091299" d="M329.134,392.254v46.081l5.041,3.219,4.28,22.215" transform="translate(-249.707 -159.857)" fill="none" stroke="#2a1510" stroke-linecap="round" stroke-linejoin="round" stroke-miterlimit="10" stroke-width="1"/>
          </g>
          <g id="Grupo_1219791" data-name="Grupo 1219791" transform="translate(0 95.931)">
            <path id="Trazado_1091300" data-name="Trazado 1091300" d="M393.336,275.642l27.305,50.637c1.766,3.275,4.217,6.99,7.938,7.043,3.638.053,6.2-3.449,7.991-6.613a175.354,175.354,0,0,0,19.483-52.517c5.851-29.7-7.158-66.425-18.386-88.085a273.657,273.657,0,0,0-41.3,81.781" transform="translate(-230.39 -186.107)" fill="#2a1510"/>
            <g id="Grupo_1219786" data-name="Grupo 1219786" transform="translate(157.638 56.388)">
              <path id="Trazado_1091301" data-name="Trazado 1091301" d="M410.793,316.1c6.777-2.985,10.36-14.063,8.21-25.388-1.582-8.334-6.516-16.815-12.231-18.9-4.672-1.707-8.9,1.008-11.9,5.018-3.491,4.663-10.069,18.571-5.46,27.419C394.468,313.943,404.448,318.893,410.793,316.1Z" transform="translate(-386.168 -271.288)" fill="#f4e6d0"/>
              <path id="Trazado_1091302" data-name="Trazado 1091302" d="M403.094,306.129c5.379-2.306,8.368-10.531,6.851-18.849-1.117-6.122-4.868-12.3-9.333-13.752-3.65-1.186-7.014.88-9.438,3.884-2.819,3.493-8.209,13.851-4.718,20.3C390.282,304.791,398.059,308.287,403.094,306.129Z" transform="translate(-385.318 -271.93)" fill="#b09774"/>
            </g>
            <path id="Trazado_1091303" data-name="Trazado 1091303" d="M194.707,186.107c-2.038,9.172-23.23,61.8-25.267,70.974-.819,3.686-2.4,7.578-2.933,11.259s1.572,8.434,2.516,11.961a316.255,316.255,0,0,0,17.933,49.818q1.766,3.856,3.635,7.663c1.44,2.933,3.275,6.139,6.435,6.969s6.411-1.107,8.784-3.37c5.817-5.547,9-13.248,11.793-20.786a400.875,400.875,0,0,0,13.3-43.248Z" transform="translate(-153.689 -186.107)" fill="#2a1510"/>
            <g id="Grupo_1219787" data-name="Grupo 1219787" transform="translate(46.502 78.483)">
              <path id="Trazado_1091304" data-name="Trazado 1091304" d="M217.483,322.209a16.987,16.987,0,0,0,14.063,14.884c5.365.774,11.4-1.634,13.679-6.554,1.859-4.021.94-8.828-.983-12.819-2.236-4.641-9.577-14.793-15.784-12.8C221.654,307.108,216.887,315.339,217.483,322.209Z" transform="translate(-217.433 -304.665)" fill="#f4e6d0"/>
              <path id="Trazado_1091305" data-name="Trazado 1091305" d="M229.085,318.547c.467,5.806,4.966,10.944,10.309,11.777,3.933.612,8.36-1.293,10.027-5.185,1.362-3.181.689-6.985-.72-10.143-1.639-3.671-7.02-11.705-11.571-10.127C232.142,306.6,228.648,313.111,229.085,318.547Z" transform="translate(-221.359 -304.665)" fill="#b09774"/>
            </g>
            <g id="Grupo_1219788" data-name="Grupo 1219788" transform="translate(0 3.738)">
              <path id="Trazado_1091306" data-name="Trazado 1091306" d="M351.448,273.9,330.64,213.4l-81.8,35.16-.731-.512,25.241,55.278.375.265Z" transform="translate(-181.3 -199.072)" fill="#b09774"/>
              <path id="Trazado_1091307" data-name="Trazado 1091307" d="M356.859,279.143l-18.2-55.565L248.837,252l-.731-.512,25.241,55.278.375.265Z" transform="translate(-181.3 -202.51)" fill="#571b66"/>
              <path id="Trazado_1091308" data-name="Trazado 1091308" d="M155.791,191.753l25.381,56.258,60.971,48L216.9,240.734Z" transform="translate(-150.095 -191.753)" fill="#f4e6d0"/>
              <path id="Trazado_1091309" data-name="Trazado 1091309" d="M147.187,195.066l26.379,55.714,65.669,46.352-25.241-55.278Z" transform="translate(-147.187 -192.873)" fill="#6f2282"/>
            </g>
            <g id="Grupo_1219789" data-name="Grupo 1219789" transform="translate(54.191 60.445)">
              <path id="Trazado_1091310" data-name="Trazado 1091310" d="M230.935,299.513l-.919-19.939a2.442,2.442,0,0,1,.33-1.673,1.618,1.618,0,0,1,1.83-.35,4.054,4.054,0,0,1,1.519,1.261,18.819,18.819,0,0,1,4.266,10.32c2.429,2.76,4.924,5.016,7.353,7.777a64.534,64.534,0,0,1,11.345-7.083,9.158,9.158,0,0,1,3.711-1.263,4.071,4.071,0,0,1,2.063.44,1.564,1.564,0,0,1,.546,2.283,47.446,47.446,0,0,1-9.636,9.478c.359,1,1.063.987,1.423,1.989,3.712-.049,8.955-1.4,11.491-3.883a27.24,27.24,0,0,1,7.044-5.108c2.478-1.206,4.556-2.512,6.74-2.2a1.426,1.426,0,0,1,.857,2.315c-1.129,1.37-2.361,2.722-3.367,4.113a6.263,6.263,0,0,1,4.805-1.905,1.409,1.409,0,0,1,.919,2.377c-1.2,1.287-2.471,2.6-3.567,3.848.225-.028.523-.326.748-.353a31.82,31.82,0,0,1-23.057,14.179c-4.291-.748-8.929-1.663-13.22-2.411-.939,1.914-3.026,2.845-5.14,3.3a8.281,8.281,0,0,1-4.786-.283c-3.9-1.532-5.32-5.564-5.176-9.317C229.164,304.662,231.062,302.27,230.935,299.513Z" transform="translate(-229.048 -277.416)" fill="#db9d86"/>
              <path id="Trazado_1091311" data-name="Trazado 1091311" d="M295.626,303.3a35.339,35.339,0,0,1-20.533,14.092" transform="translate(-244.612 -286.166)" fill="none" stroke="#2a1510" stroke-linecap="round" stroke-linejoin="round" stroke-miterlimit="10" stroke-width="1"/>
              <path id="Trazado_1091312" data-name="Trazado 1091312" d="M274.8,324.742a35.29,35.29,0,0,0,21-10.263" transform="translate(-244.511 -289.944)" fill="none" stroke="#2a1510" stroke-linecap="round" stroke-linejoin="round" stroke-miterlimit="10" stroke-width="1"/>
              <path id="Trazado_1091313" data-name="Trazado 1091313" d="M256.747,300.779c-6.583,4.016-7.6,4.917-12.048,4.975" transform="translate(-234.338 -285.313)" fill="none" stroke="#2a1510" stroke-linecap="round" stroke-linejoin="round" stroke-miterlimit="10" stroke-width="1"/>
              <path id="Trazado_1091314" data-name="Trazado 1091314" d="M257.287,311.834a27.767,27.767,0,0,0,13.036-10.11" transform="translate(-238.593 -285.633)" fill="none" stroke="#2a1510" stroke-linecap="round" stroke-linejoin="round" stroke-miterlimit="10" stroke-width="1"/>
            </g>
            <g id="Grupo_1219790" data-name="Grupo 1219790" transform="translate(146.244 51.753)">
              <path id="Trazado_1091315" data-name="Trazado 1091315" d="M392.04,267.175,382.3,269a10.8,10.8,0,0,0-3.514,1.087,3.664,3.664,0,0,0-1.952,2.946,2.249,2.249,0,0,0,2.306,2.3c-2.3.225-4.592.662-6.9.886-1.276.124-2.681.313-3.523,1.279a2.54,2.54,0,0,0,1.393,4.154,2.18,2.18,0,0,0-1.235,2.827,3.924,3.924,0,0,0,2.6,2.336,11.609,11.609,0,0,0,3.592.381l15.473.02a5.026,5.026,0,0,1-5.436,2.074,35.28,35.28,0,0,0-3.453-1.212c-1.209-.181-2.721.545-2.681,1.768.031.944.942,1.592,1.785,2.018a19.189,19.189,0,0,0,18.3-.734c2.543-1.552,3.764-4.678,4.063-7.641a30.848,30.848,0,0,0-.828-8.865c-.505-2.627-1.084-5.406-2.916-7.357-2.684-2.859-7.41-3.023-11.331-2.984.617,2.1,1.356,4.288,1.973,6.383C390.751,269.391,391.311,268.456,392.04,267.175Z" transform="translate(-368.105 -264.286)" fill="#db9d86"/>
              <path id="Trazado_1091316" data-name="Trazado 1091316" d="M383.649,278.154l10.712-.579c1.4-.076,3.057-.3,3.709-1.549.6-1.138.019-2.512-.556-3.661" transform="translate(-373.359 -267.017)" fill="none" stroke="#2a1510" stroke-linecap="round" stroke-linejoin="round" stroke-miterlimit="10" stroke-width="1"/>
              <path id="Trazado_1091317" data-name="Trazado 1091317" d="M402.529,279.28c1.928-.441,4.317-.726,6.245-1.166" transform="translate(-379.741 -268.96)" fill="none" stroke="#2a1510" stroke-linecap="round" stroke-linejoin="round" stroke-miterlimit="10" stroke-width="1"/>
              <path id="Trazado_1091318" data-name="Trazado 1091318" d="M371.028,289.56a73.429,73.429,0,0,0,23.855-1.963" transform="translate(-369.093 -272.165)" fill="none" stroke="#2a1510" stroke-linecap="round" stroke-linejoin="round" stroke-miterlimit="10" stroke-width="1"/>
              <path id="Trazado_1091319" data-name="Trazado 1091319" d="M385.1,298.506c5.971-.211,10.144.21,16.116,0" transform="translate(-373.851 -275.832)" fill="none" stroke="#2a1510" stroke-linecap="round" stroke-linejoin="round" stroke-miterlimit="10" stroke-width="1"/>
              <path id="Trazado_1091320" data-name="Trazado 1091320" d="M394.759,269.673a36.867,36.867,0,0,1,9.679-1.427" transform="translate(-377.115 -265.624)" fill="none" stroke="#2a1510" stroke-linecap="round" stroke-linejoin="round" stroke-miterlimit="10" stroke-width="1"/>
            </g>
          </g>
        </g>
      </g>
    </g>
  </g>
</svg>
