<svg xmlns="http://www.w3.org/2000/svg" xmlns:xlink="http://www.w3.org/1999/xlink" width="103" height="103" viewBox="0 0 103 103">
  <defs>
    <filter id="Trazado_978624" x="0" y="0" width="103" height="103" filterUnits="userSpaceOnUse">
      <feOffset dy="3" input="SourceAlpha"/>
      <feGaussianBlur stdDeviation="3" result="blur"/>
      <feFlood flood-opacity="0.161"/>
      <feComposite operator="in" in2="blur"/>
      <feComposite in="SourceGraphic"/>
    </filter>
  </defs>
  <g id="Grupo_1219799" data-name="Grupo 1219799" transform="translate(-195 -9585.701)">
    <g id="Grupo_1218096" data-name="Grupo 1218096" transform="translate(3 -1206.485)">
      <g id="Grupo_1216310" data-name="Grupo 1216310" transform="translate(0 10478.186)">
        <g id="Grupo_1180764" data-name="Grupo 1180764" transform="translate(1 -4144)">
          <g id="Grupo_1179463" data-name="Grupo 1179463" transform="translate(200 4464)">
            <g id="Grupo_1144531" data-name="Grupo 1144531">
              <g transform="matrix(1, 0, 0, 1, -9, -6)" filter="url(#Trazado_978624)">
                <g id="Trazado_978624-2" data-name="Trazado 978624" transform="translate(9 6)" fill="#f7f4ed">
                  <path d="M 42.5 83.5 C 36.96437835693359 83.5 31.59512901306152 82.41617584228516 26.54141235351562 80.27863311767578 C 21.65934181213379 78.21369171142578 17.27447128295898 75.25723266601562 13.50862312316895 71.49137878417969 C 9.742764472961426 67.72553253173828 6.786305904388428 63.34066009521484 4.721364498138428 58.45858764648438 C 2.583823442459106 53.40486907958984 1.5 48.03562164306641 1.5 42.5 C 1.5 36.96437835693359 2.583823442459106 31.59512901306152 4.721364498138428 26.54141235351562 C 6.786305904388428 21.65934181213379 9.742764472961426 17.27447128295898 13.50862312316895 13.50862312316895 C 17.27447128295898 9.742764472961426 21.65934181213379 6.786305904388428 26.54141235351562 4.721364498138428 C 31.59512901306152 2.583823442459106 36.96437835693359 1.5 42.5 1.5 C 48.03562164306641 1.5 53.40486907958984 2.583823442459106 58.45858764648438 4.721364498138428 C 63.34066009521484 6.786305904388428 67.72553253173828 9.742764472961426 71.49137878417969 13.50862312316895 C 75.25723266601562 17.27447128295898 78.21369171142578 21.65934181213379 80.27863311767578 26.54141235351562 C 82.41617584228516 31.59512901306152 83.5 36.96437835693359 83.5 42.5 C 83.5 48.03562164306641 82.41617584228516 53.40486907958984 80.27863311767578 58.45858764648438 C 78.21369171142578 63.34066009521484 75.25723266601562 67.72553253173828 71.49137878417969 71.49137878417969 C 67.72553253173828 75.25723266601562 63.34066009521484 78.21369171142578 58.45858764648438 80.27863311767578 C 53.40486907958984 82.41617584228516 48.03562164306641 83.5 42.5 83.5 Z" stroke="none"/>
                  <path d="M 42.5 3 C 37.16621398925781 3 31.99356079101562 4.043960571289062 27.125732421875 6.102882385253906 C 22.42246627807617 8.092185974121094 18.19785308837891 10.94070434570312 14.56928253173828 14.56928253173828 C 10.94070434570312 18.19785308837891 8.092185974121094 22.42246627807617 6.102882385253906 27.125732421875 C 4.043960571289062 31.99356079101562 3 37.16621398925781 3 42.5 C 3 47.83378601074219 4.043960571289062 53.00643920898438 6.102882385253906 57.87425231933594 C 8.092185974121094 62.57753372192383 10.94070434570312 66.80213165283203 14.56928253173828 70.43071746826172 C 18.19786834716797 74.05929565429688 22.42246627807617 76.90781402587891 27.125732421875 78.89711761474609 C 31.99356079101562 80.95603942871094 37.16621398925781 82 42.5 82 C 47.83378601074219 82 53.00642395019531 80.95603942871094 57.87425231933594 78.89711761474609 C 62.57753372192383 76.90781402587891 66.80213165283203 74.05929565429688 70.43071746826172 70.43071746826172 C 74.05929565429688 66.80213165283203 76.90781402587891 62.57753372192383 78.89711761474609 57.87425231933594 C 80.95603942871094 53.00642395019531 82 47.83378601074219 82 42.5 C 82 37.16621398925781 80.95603942871094 31.99356079101562 78.89711761474609 27.125732421875 C 76.90781402587891 22.42246627807617 74.05929565429688 18.19786834716797 70.43071746826172 14.56928253173828 C 66.80213165283203 10.94070434570312 62.57753372192383 8.092185974121094 57.87425231933594 6.102882385253906 C 53.00643920898438 4.043960571289062 47.83378601074219 3 42.5 3 M 42.5 0 C 65.97209167480469 0 85 19.02789306640625 85 42.5 C 85 65.97209167480469 65.97209167480469 85 42.5 85 C 19.02789306640625 85 0 65.97209167480469 0 42.5 C 0 19.02789306640625 19.02789306640625 0 42.5 0 Z" stroke="none" fill="#ba9c5a"/>
                </g>
              </g>
            </g>
          </g>
        </g>
      </g>
    </g>
    <g id="buen-trabajo" transform="translate(215.811 9593.675)">
      <g id="Grupo_1219797" data-name="Grupo 1219797" transform="translate(0.899 12.078)">
        <path id="Trazado_1091321" data-name="Trazado 1091321" d="M80.534,47.135c0,2.94-5.412,4.988-6.274,7.641-.893,2.75,2.25,7.582.585,9.871-1.682,2.311-7.261.807-9.572,2.489a3.765,3.765,0,0,0-.879.952c-2.674,1.668-2.138,5.781-4.49,6.545-2.653.861-5.74-3.378-8.68-3.378s-6.554,4.481-9.207,3.62c-2.75-.893-3.033-6.672-5.321-8.338-2.311-1.682-7.89-.177-9.572-2.489-1.666-2.289,1.478-7.121.585-9.871-.861-2.653-4.92-3.885-4.92-6.825,0-2.817,3.136-5.032,4.31-7.528a2.836,2.836,0,0,0,.131-.33c.893-2.75-2.25-7.582-.585-9.871,1.682-2.311,7.261-.807,9.572-2.489,2.289-1.666,2.572-7.445,5.321-8.338,2.653-.861,6.267,3.62,9.207,3.62s6.554-4.481,9.207-3.62c2.75.893,3.033,6.672,5.321,8.338,2.311,1.682,7.89.177,9.572,2.489,1.666,2.289-1.478,7.121-.585,9.871.861,2.653,6.273,4.7,6.273,7.641Z" transform="translate(-20.955 -18.686)" fill="#b4e555"/>
        <path id="Trazado_1091322" data-name="Trazado 1091322" d="M50.939,224.2c-1.543,2.28-2.089,6.622-4.441,7.386-2.653.861-6.267-3.62-9.208-3.62s-6.555,4.481-9.208,3.62c-2.749-.893-3.032-6.672-5.32-8.337-2.312-1.683-7.89-.177-9.573-2.49-1.665-2.288,1.478-7.121.585-9.871-.861-2.653-6.273-4.7-6.273-7.641,0-2.77,4.807-4.746,6.081-7.185-.013.363-.021.725-.021,1.092A28.488,28.488,0,0,0,50.939,224.2Z" transform="translate(-7.5 -174.8)" fill="#a3db4b"/>
        <circle id="Elipse_12122" data-name="Elipse 12122" cx="17.382" cy="17.382" r="17.382" transform="translate(12.265 11.066)" fill="#f9f7f8"/>
        <g id="Grupo_1219796" data-name="Grupo 1219796" transform="translate(20.493 15.358)">
          <path id="Trazado_1091323" data-name="Trazado 1091323" d="M216.669,162.1l.316-.21c.917,0,1.389-.516,1.777-1.449a1.661,1.661,0,0,0-1.66-1.662h-.433c.355,0,.524-.238.794-.428a2.411,2.411,0,0,0,.866-1.233,1.661,1.661,0,0,0-1.661-1.661h-3.713a2.734,2.734,0,0,1-2.683-3.279l.392-2.1a2.944,2.944,0,0,0-1.589-3.182.9.9,0,0,0-1.248.522l-1.875,5.572a7.193,7.193,0,0,1-3.174,4.041L201.766,168h13.919c.817,0,1.35-.283,1.35-1.1,0-.068.116-.2.116-.2a1.48,1.48,0,0,0-1.466-1.28l.984-.252c.917,0,1.661-1.407,1.661-1.407A1.662,1.662,0,0,0,216.669,162.1Z" transform="translate(-198.971 -146.803)" fill="#fed2a4"/>
          <path id="Trazado_1091324" data-name="Trazado 1091324" d="M220.536,313a1.479,1.479,0,0,1-1.479,1.479H205.6V312.8h14.926A1.578,1.578,0,0,1,220.536,313Z" transform="translate(-202.342 -292.902)" fill="#ffbd86"/>
          <path id="Trazado_1091325" data-name="Trazado 1091325" d="M180.466,219.742a1.16,1.16,0,0,1,1.16-1.16l.465-.172h.731a1.16,1.16,0,0,1,1.16,1.16v10.155l-.4,1.769a1.16,1.16,0,0,1-1.16,1.16h-.849a1.16,1.16,0,0,1-1.16-1.16Z" transform="translate(-180.173 -209.826)" fill="#99e6fc"/>
          <path id="Trazado_1091326" data-name="Trazado 1091326" d="M180.368,229.127V218.411h-.759a1.16,1.16,0,0,0-1.159,1.16v12.159a1.16,1.16,0,0,0,1.16,1.16H181.1a1.159,1.159,0,0,0,1.159-1.159v-2.006h-1.291A.6.6,0,0,1,180.368,229.127Z" transform="translate(-178.45 -209.827)" fill="#62dbfb"/>
          <g id="Grupo_1219795" data-name="Grupo 1219795" transform="translate(14.538 10.317)">
            <path id="Trazado_1091327" data-name="Trazado 1091327" d="M299.72,233.7h0a.829.829,0,0,1,.83-.83h3.992a1.66,1.66,0,0,1-1.66,1.661H300.55A.83.83,0,0,1,299.72,233.7Z" transform="translate(-299.72 -232.868)" fill="#ffbd86"/>
            <path id="Trazado_1091328" data-name="Trazado 1091328" d="M300.55,288.281h3.992a1.66,1.66,0,0,1-1.66,1.659H300.55a.83.83,0,0,1-.83-.83h0A.83.83,0,0,1,300.55,288.281Z" transform="translate(-299.72 -281.638)" fill="#ffbd86"/>
            <path id="Trazado_1091329" data-name="Trazado 1091329" d="M299.72,261.412h0a.83.83,0,0,1,.83-.83h4.425a1.66,1.66,0,0,1-1.66,1.659H300.55A.83.83,0,0,1,299.72,261.412Z" transform="translate(-299.72 -257.259)" fill="#ffbd86"/>
          </g>
        </g>
      </g>
      <g id="Grupo_1219798" data-name="Grupo 1219798" transform="translate(0 11.177)">
        <path id="Trazado_1091330" data-name="Trazado 1091330" d="M133.587,110.206a.9.9,0,0,0,.008-1.271,18.243,18.243,0,1,0,2.692,3.472.9.9,0,0,0-1.543.923,16.5,16.5,0,1,1-2.428-3.132.9.9,0,0,0,1.271.008Z" transform="translate(-90.044 -92.433)"/>
        <path id="Trazado_1091331" data-name="Trazado 1091331" d="M42.373,136.779a.9.9,0,0,0-1.211.387c-.5.975-.993,1.512-1.544,1.691-1.026.333-2.593-.663-4.108-1.626-1.575-1-3.2-2.037-4.822-2.037s-3.247,1.036-4.822,2.037c-1.515.963-3.082,1.96-4.108,1.626-1.1-.358-1.8-2.138-2.474-3.859-.663-1.692-1.349-3.443-2.6-4.35-1.264-.92-3.156-1.035-4.985-1.147s-3.722-.227-4.389-1.144c-.655-.9-.186-2.721.267-4.482.459-1.786.935-3.632.446-5.138-.468-1.441-1.9-2.619-3.292-3.758-1.444-1.185-2.937-2.41-2.937-3.606s1.493-2.421,2.937-3.606c1.389-1.139,2.825-2.317,3.292-3.758.489-1.506.014-3.352-.446-5.138-.453-1.761-.922-3.582-.267-4.482a3.046,3.046,0,0,1,2.065-.929.9.9,0,1,0-.29-1.775,4.8,4.8,0,0,0-3.229,1.646c-1.153,1.585-.577,3.823-.02,5.988.4,1.537.8,3.126.477,4.134-.305.94-1.534,1.948-2.723,2.923-1.767,1.45-3.6,2.949-3.6,5s1.828,3.546,3.6,5c1.188.975,2.417,1.983,2.722,2.923.328,1.009-.081,2.6-.477,4.134-.557,2.165-1.133,4.4.02,5.988,1.166,1.6,3.488,1.744,5.733,1.881,1.572.1,3.2.2,4.037.806.823.6,1.411,2.1,1.98,3.553.827,2.111,1.682,4.293,3.593,4.913a3.2,3.2,0,0,0,1,.155c1.527,0,3.1-1,4.632-1.974,1.358-.863,2.762-1.756,3.857-1.756s2.5.893,3.857,1.756c1.866,1.187,3.8,2.414,5.628,1.82a4.826,4.826,0,0,0,2.587-2.577.9.9,0,0,0-.387-1.211Z" transform="translate(0 -82.025)"/>
        <path id="Trazado_1091332" data-name="Trazado 1091332" d="M149.593,35.53c-1.188-.975-2.417-1.983-2.722-2.923-.328-1.009.081-2.6.477-4.134.557-2.165,1.133-4.4-.02-5.988-1.166-1.6-3.488-1.744-5.733-1.881-1.572-.1-3.2-.195-4.037-.806-.823-.6-1.411-2.1-1.98-3.553-.827-2.11-1.682-4.293-3.592-4.913-1.832-.6-3.762.633-5.628,1.819-1.358.863-2.762,1.756-3.857,1.756s-2.5-.893-3.857-1.756c-1.866-1.187-3.8-2.414-5.628-1.819-1.91.62-2.765,2.8-3.592,4.913-.569,1.452-1.157,2.954-1.98,3.552a5.27,5.27,0,0,1-2.326.674.9.9,0,1,0,.2,1.787,6.721,6.721,0,0,0,3.185-1.008c1.247-.908,1.933-2.658,2.6-4.35.674-1.721,1.372-3.5,2.474-3.859,1.026-.333,2.593.663,4.108,1.626,1.575,1,3.2,2.037,4.822,2.037s3.247-1.036,4.822-2.037c1.515-.963,3.082-1.96,4.108-1.626,1.1.358,1.8,2.138,2.474,3.859.663,1.693,1.349,3.443,2.6,4.35,1.264.92,3.156,1.035,4.985,1.147s3.722.227,4.389,1.144c.655.9.186,2.72-.267,4.482-.459,1.786-.935,3.632-.446,5.138.468,1.44,1.9,2.619,3.292,3.758,1.444,1.185,2.937,2.41,2.937,3.606s-1.493,2.421-2.937,3.606c-1.389,1.139-2.825,2.317-3.292,3.758-.489,1.506-.014,3.352.446,5.138.453,1.761.922,3.582.267,4.482-.667.917-2.559,1.032-4.389,1.144s-3.721.227-4.985,1.147a6.671,6.671,0,0,0-1.922,2.707.9.9,0,1,0,1.64.737,5.23,5.23,0,0,1,1.34-1.989c.84-.611,2.465-.71,4.037-.806,2.245-.137,4.568-.279,5.733-1.881,1.153-1.585.577-3.823.02-5.988-.4-1.537-.8-3.126-.477-4.134.305-.94,1.534-1.948,2.723-2.923,1.767-1.45,3.595-2.949,3.595-5s-1.828-3.546-3.6-5Z" transform="translate(-91.811 -11.177)"/>
        <path id="Trazado_1091333" data-name="Trazado 1091333" d="M192.539,153.843a2.554,2.554,0,0,0-.858-1.911,2.558,2.558,0,0,0-2.135-3.97h-3.713a1.8,1.8,0,0,1-1.407-.652,1.892,1.892,0,0,1-.392-1.564l.392-2.1a3.855,3.855,0,0,0-2.075-4.154,1.8,1.8,0,0,0-2.5,1.042l-1.875,5.572a7.012,7.012,0,0,1-1.719,2.786,2.058,2.058,0,0,0-1.763-1h-1.489a2.061,2.061,0,0,0-2.059,2.059v4.259a.9.9,0,1,0,1.8,0V149.95a.261.261,0,0,1,.261-.261H174.5a.261.261,0,0,1,.261.261v12.159a.261.261,0,0,1-.261.261h-1.489a.261.261,0,0,1-.261-.261v-3.7a.9.9,0,1,0-1.8,0v3.7a2.061,2.061,0,0,0,2.059,2.059H174.5a2.062,2.062,0,0,0,1.976-1.486h12.089a2.378,2.378,0,0,0,2.205-3.269,2.557,2.557,0,0,0,.913-3.659,2.554,2.554,0,0,0,.858-1.91Zm-2.56.761H187.27a.9.9,0,1,0,0,1.8h2.276a.761.761,0,1,1,0,1.523H187.27a.9.9,0,1,0,0,1.8h1.292a.58.58,0,0,1,0,1.16H176.555v-9.939a8.255,8.255,0,0,0,3.127-4.266l1.873-5.574a2.05,2.05,0,0,1,1.1,2.21l-.392,2.1a3.686,3.686,0,0,0,.777,3.042,3.613,3.613,0,0,0,2.79,1.3h3.713a.761.761,0,1,1,0,1.523H187.27a.9.9,0,0,0,0,1.8h2.709a.761.761,0,0,1,0,1.523Z" transform="translate(-150.455 -123.947)"/>
      </g>
    </g>
  </g>
</svg>
