<svg xmlns="http://www.w3.org/2000/svg" xmlns:xlink="http://www.w3.org/1999/xlink" width="103" height="103" viewBox="0 0 103 103">
  <defs>
    <filter id="Trazado_978624" x="0" y="0" width="103" height="103" filterUnits="userSpaceOnUse">
      <feOffset dy="3" input="SourceAlpha"/>
      <feGaussianBlur stdDeviation="3" result="blur"/>
      <feFlood flood-opacity="0.161"/>
      <feComposite operator="in" in2="blur"/>
      <feComposite in="SourceGraphic"/>
    </filter>
  </defs>
  <g id="Grupo_1219801" data-name="Grupo 1219801" transform="translate(-171 -10349.701)">
    <g id="Grupo_1218097" data-name="Grupo 1218097" transform="translate(6.211 9107.701)">
      <g id="Grupo_1209736" data-name="Grupo 1209736" transform="translate(-0.711 184)">
        <g id="Grupo_1178144" data-name="Grupo 1178144" transform="translate(-19.5 -2004)">
          <g id="Grupo_1177896" data-name="Grupo 1177896" transform="translate(14 196)">
            <g id="Grupo_1176881" data-name="Grupo 1176881">
              <g id="Grupo_1175148" data-name="Grupo 1175148" transform="translate(0 1580)">
                <g id="Grupo_1173798" data-name="Grupo 1173798" transform="translate(-3 -3520)">
                  <g id="Grupo_1171925" data-name="Grupo 1171925" transform="translate(-22 -2246)">
                    <g id="Grupo_1164524" data-name="Grupo 1164524" transform="translate(205 7058)">
                      <g id="Grupo_1144123" data-name="Grupo 1144123">
                        <g transform="matrix(1, 0, 0, 1, -9, -6)" filter="url(#Trazado_978624)">
                          <g id="Trazado_978624-2" data-name="Trazado 978624" transform="translate(9 6)" fill="#edeef2">
                            <path d="M 42.5 83.5 C 36.96437835693359 83.5 31.59512901306152 82.41617584228516 26.54141235351562 80.27863311767578 C 21.65934181213379 78.21369171142578 17.27447128295898 75.25723266601562 13.50862312316895 71.49137878417969 C 9.742764472961426 67.72553253173828 6.786305904388428 63.34066009521484 4.721364498138428 58.45858764648438 C 2.583823442459106 53.40486907958984 1.5 48.03562164306641 1.5 42.5 C 1.5 36.96437835693359 2.583823442459106 31.59512901306152 4.721364498138428 26.54141235351562 C 6.786305904388428 21.65934181213379 9.742764472961426 17.27447128295898 13.50862312316895 13.50862312316895 C 17.27447128295898 9.742764472961426 21.65934181213379 6.786305904388428 26.54141235351562 4.721364498138428 C 31.59512901306152 2.583823442459106 36.96437835693359 1.5 42.5 1.5 C 48.03562164306641 1.5 53.40486907958984 2.583823442459106 58.45858764648438 4.721364498138428 C 63.34066009521484 6.786305904388428 67.72553253173828 9.742764472961426 71.49137878417969 13.50862312316895 C 75.25723266601562 17.27447128295898 78.21369171142578 21.65934181213379 80.27863311767578 26.54141235351562 C 82.41617584228516 31.59512901306152 83.5 36.96437835693359 83.5 42.5 C 83.5 48.03562164306641 82.41617584228516 53.40486907958984 80.27863311767578 58.45858764648438 C 78.21369171142578 63.34066009521484 75.25723266601562 67.72553253173828 71.49137878417969 71.49137878417969 C 67.72553253173828 75.25723266601562 63.34066009521484 78.21369171142578 58.45858764648438 80.27863311767578 C 53.40486907958984 82.41617584228516 48.03562164306641 83.5 42.5 83.5 Z" stroke="none"/>
                            <path d="M 42.5 3 C 37.16621398925781 3 31.99356079101562 4.043960571289062 27.125732421875 6.102882385253906 C 22.42246627807617 8.092185974121094 18.19785308837891 10.94070434570312 14.56928253173828 14.56928253173828 C 10.94070434570312 18.19785308837891 8.092185974121094 22.42246627807617 6.102882385253906 27.125732421875 C 4.043960571289062 31.99356079101562 3 37.16621398925781 3 42.5 C 3 47.83378601074219 4.043960571289062 53.00643920898438 6.102882385253906 57.87425231933594 C 8.092185974121094 62.57753372192383 10.94070434570312 66.80213165283203 14.56928253173828 70.43071746826172 C 18.19786834716797 74.05929565429688 22.42246627807617 76.90781402587891 27.125732421875 78.89711761474609 C 31.99356079101562 80.95603942871094 37.16621398925781 82 42.5 82 C 47.83378601074219 82 53.00642395019531 80.95603942871094 57.87425231933594 78.89711761474609 C 62.57753372192383 76.90781402587891 66.80213165283203 74.05929565429688 70.43071746826172 70.43071746826172 C 74.05929565429688 66.80213165283203 76.90781402587891 62.57753372192383 78.89711761474609 57.87425231933594 C 80.95603942871094 53.00642395019531 82 47.83378601074219 82 42.5 C 82 37.16621398925781 80.95603942871094 31.99356079101562 78.89711761474609 27.125732421875 C 76.90781402587891 22.42246627807617 74.05929565429688 18.19786834716797 70.43071746826172 14.56928253173828 C 66.80213165283203 10.94070434570312 62.57753372192383 8.092185974121094 57.87425231933594 6.102882385253906 C 53.00643920898438 4.043960571289062 47.83378601074219 3 42.5 3 M 42.5 0 C 65.97209167480469 0 85 19.02789306640625 85 42.5 C 85 65.97209167480469 65.97209167480469 85 42.5 85 C 19.02789306640625 85 0 65.97209167480469 0 42.5 C 0 19.02789306640625 19.02789306640625 0 42.5 0 Z" stroke="none" fill="#9ec6e0"/>
                          </g>
                        </g>
                      </g>
                    </g>
                  </g>
                </g>
              </g>
            </g>
          </g>
        </g>
      </g>
    </g>
    <g id="gobierno_10_" data-name="gobierno (10)" transform="translate(123 10318.905)">
      <g id="Grupo_1219800" data-name="Grupo 1219800" transform="translate(68.046 51.063)">
        <path id="Trazado_1091334" data-name="Trazado 1091334" d="M245.6,56.1h2.736V70.2H245.6Z" transform="translate(-215.522 -56.1)" fill="gray" fill-rule="evenodd"/>
        <path id="Trazado_1091335" data-name="Trazado 1091335" d="M158.11,123.2c10.769,0,19.57,9.393,20.11,21.225H138C138.558,132.593,147.34,123.2,158.11,123.2Z" transform="translate(-126.673 -111.507)" fill="#e6e6e6" fill-rule="evenodd"/>
        <path id="Trazado_1091336" data-name="Trazado 1091336" d="M93.2,236.1h55.869v5.437H93.2Z" transform="translate(-89.68 -204.733)" fill="#e6e6e6" fill-rule="evenodd"/>
        <path id="Trazado_1091337" data-name="Trazado 1091337" d="M121.117,162l13.976,6.465,13.958,6.448H93.2l13.958-6.448Z" transform="translate(-89.68 -143.546)" fill="#b3b4b4" fill-rule="evenodd"/>
        <path id="Trazado_1091338" data-name="Trazado 1091338" d="M113.1,267.2h10.682v4.653H113.1Zm19.117,0H142.9v4.653H132.217Zm19.1,0H162v4.653H151.316Z" transform="translate(-106.112 -230.413)" fill="#b3b4b4" fill-rule="evenodd"/>
        <path id="Trazado_1091339" data-name="Trazado 1091339" d="M122.7,293.9h7.284v19.535H122.7Zm38.286,0h7.284v19.535h-7.284Zm-19.151,0h7.284v19.535h-7.284Z" transform="translate(-114.039 -252.46)" fill="gray" fill-rule="evenodd"/>
        <path id="Trazado_1091340" data-name="Trazado 1091340" d="M261.3,63.9h11.832l-3.206,3.294,3.206,3.189H261.3Z" transform="translate(-228.486 -62.541)" fill="#ed2024" fill-rule="evenodd"/>
        <path id="Trazado_1091341" data-name="Trazado 1091341" d="M73,430.7h62.891v4.426H73Z" transform="translate(-73 -365.421)" fill="gray" fill-rule="evenodd"/>
        <path id="Trazado_1091342" data-name="Trazado 1091342" d="M364.251,339.4a3.851,3.851,0,1,0,3.834,3.851A3.852,3.852,0,0,0,364.251,339.4Z" transform="translate(-310.317 -290.031)" fill="#fbc6b3" fill-rule="evenodd"/>
        <path id="Trazado_1091343" data-name="Trazado 1091343" d="M347.916,384.5h-4.339A5.589,5.589,0,0,0,338,390.059v2.475h15.475v-2.475A5.552,5.552,0,0,0,347.916,384.5Z" transform="translate(-291.82 -327.272)" fill="#80311a" fill-rule="evenodd"/>
        <path id="Trazado_1091344" data-name="Trazado 1091344" d="M106.151,339.4A3.851,3.851,0,1,0,110,343.251,3.852,3.852,0,0,0,106.151,339.4Z" transform="translate(-97.194 -290.031)" fill="#fbc6b3" fill-rule="evenodd"/>
        <path id="Trazado_1091345" data-name="Trazado 1091345" d="M89.9,384.5H85.576A5.589,5.589,0,0,0,80,390.059v2.475H95.475v-2.475A5.578,5.578,0,0,0,89.9,384.5Z" transform="translate(-78.78 -327.272)" fill="#80311a" fill-rule="evenodd"/>
        <path id="Trazado_1091346" data-name="Trazado 1091346" d="M164.947,332.4a4.147,4.147,0,1,0,4.147,4.147A4.146,4.146,0,0,0,164.947,332.4Z" transform="translate(-145.5 -284.251)" fill="#fbc6b3" fill-rule="evenodd"/>
        <path id="Trazado_1091347" data-name="Trazado 1091347" d="M147.465,380.9h-4.67a6.017,6.017,0,0,0-5.995,5.995v2.666h16.66v-2.666A6.017,6.017,0,0,0,147.465,380.9Z" transform="translate(-125.682 -324.299)" fill="#bb572e" fill-rule="evenodd"/>
        <path id="Trazado_1091348" data-name="Trazado 1091348" d="M302.647,332.4a4.147,4.147,0,1,0,4.147,4.147A4.146,4.146,0,0,0,302.647,332.4Z" transform="translate(-259.204 -284.251)" fill="#fbc6b3" fill-rule="evenodd"/>
        <path id="Trazado_1091349" data-name="Trazado 1091349" d="M285.165,380.9h-4.67a6.017,6.017,0,0,0-5.995,5.995v2.666h16.66v-2.666A6.017,6.017,0,0,0,285.165,380.9Z" transform="translate(-239.386 -324.299)" fill="#bb572e" fill-rule="evenodd"/>
        <path id="Trazado_1091350" data-name="Trazado 1091350" d="M231.683,321.6a4.592,4.592,0,1,0,4.6,4.6A4.592,4.592,0,0,0,231.683,321.6Z" transform="translate(-200.246 -275.333)" fill="#fbc6b3" fill-rule="evenodd"/>
        <path id="Trazado_1091351" data-name="Trazado 1091351" d="M212.232,375.5h-5.176a6.679,6.679,0,0,0-6.657,6.657v2.962h18.489v-2.962A6.667,6.667,0,0,0,212.232,375.5Z" transform="translate(-178.199 -319.84)" fill="#dd6e42" fill-rule="evenodd"/>
      </g>
      <path id="Trazado_1091352" data-name="Trazado 1091352" d="M107.69,115.3v-1.917a5.63,5.63,0,0,0-5.611-5.611H96.9a5.63,5.63,0,0,0-5.611,5.611V115.3Zm-18.489,0v-1.917a7.77,7.77,0,0,1,1.516-4.583,4.8,4.8,0,0,0-.889-.087h-4.67a4.968,4.968,0,0,0-4.949,4.949v1.621H89.2Zm3.206-8.173a7.768,7.768,0,0,1,2.387-1.15v-.906a5.7,5.7,0,0,1,0-6.273V93.548H94.15A1.049,1.049,0,0,1,93.1,92.5V88.9H86.779V92.5a1.049,1.049,0,0,1-1.046,1.046h-.68v5.228a5.19,5.19,0,0,1,7.633,4.566,5.255,5.255,0,0,1-1.307,3.45Zm11.763-1.168a7.768,7.768,0,0,1,2.387,1.15l1.046-.314a5.187,5.187,0,0,1,3.869-8.626,5.288,5.288,0,0,1,2.457.61V93.548h-.68A1.049,1.049,0,0,1,112.2,92.5V88.9h-6.343V92.5a1.049,1.049,0,0,1-1.046,1.046h-.645v5.245a5.5,5.5,0,0,1,.941,3.137,5.725,5.725,0,0,1-.941,3.137Zm4.1,2.84a7.577,7.577,0,0,1,1.516,4.583V115.3h8.992v-1.621a4.968,4.968,0,0,0-4.949-4.949h-4.67a3.68,3.68,0,0,0-.889.07ZM99.483,98.375a3.542,3.542,0,1,0,3.538,3.538A3.546,3.546,0,0,0,99.483,98.375Zm-2.6-1.464a5.687,5.687,0,0,1,5.193,0V93.548H96.886Zm19.151,10.055a7.013,7.013,0,0,1,1.464.68,5.324,5.324,0,0,1,.749-.227,4.89,4.89,0,0,1,2.98-7.981v-5.89h-5.193v7.3a5.138,5.138,0,0,1,0,4.984Zm3.346,2.387a7.043,7.043,0,0,1,1.481,4.322V115.3h7.807v-1.429a4.541,4.541,0,0,0-4.513-4.531H119.8a3.358,3.358,0,0,0-.418.017Zm-7.894-9.1a3.093,3.093,0,1,0,3.084,3.084,3.1,3.1,0,0,0-3.084-3.084ZM78.1,115.3v-1.621a7.081,7.081,0,0,1,1.481-4.322c-.645-.052-3.782-.017-4.757-.017a4.544,4.544,0,0,0-4.531,4.531V115.3Zm3.381-7.633a7.013,7.013,0,0,1,1.464-.68v-1.133a5.1,5.1,0,0,1-.645-2.492,5.006,5.006,0,0,1,.645-2.492v-7.3H77.752v5.89a4.887,4.887,0,0,1,2.98,7.981A5.326,5.326,0,0,1,81.481,107.664Zm6.012-7.406a3.093,3.093,0,1,0,3.084,3.084A3.1,3.1,0,0,0,87.493,100.257ZM68.22,115.3v-1.429a6.641,6.641,0,0,1,5.054-6.43,4.9,4.9,0,0,1,2.387-7.859V93.548h-.627A1.049,1.049,0,0,1,73.988,92.5V88.9h-2.44A1.049,1.049,0,0,1,70.5,87.85V82.413a1.04,1.04,0,0,1,.68-.976l8.225-3.8c2.492-8.19,9.166-14.725,17.67-15.788v-10.8A1.049,1.049,0,0,1,98.123,50h2.736a1.049,1.049,0,0,1,1.046,1.046v.331h10.787a1.047,1.047,0,0,1,.7,1.83L110.966,55.7l2.475,2.475a1.039,1.039,0,0,1-.732,1.777H101.922v1.9c8.5,1.063,15.161,7.6,17.653,15.788l8.225,3.8a1.04,1.04,0,0,1,.68.976V87.85a1.049,1.049,0,0,1-1.046,1.046h-2.44V92.5a1.049,1.049,0,0,1-1.046,1.046h-.627v6.029a4.894,4.894,0,0,1,2.4,7.859,6.645,6.645,0,0,1,5.054,6.43V115.3h.174A1.049,1.049,0,0,1,132,116.342v4.409a1.049,1.049,0,0,1-1.046,1.046H68.046A1.049,1.049,0,0,1,67,120.751v-4.426a1.049,1.049,0,0,1,1.046-1.046h.174ZM77,101.477a2.8,2.8,0,1,0,2.788,2.806A2.8,2.8,0,0,0,77,101.477Zm44.977,0a2.8,2.8,0,1,0,2.788,2.806A2.8,2.8,0,0,0,121.98,101.477Zm-52.889,15.91v2.335h60.8v-2.335Zm41.126-63.92H101.9v4.391h8.26l-1.412-1.412a1.026,1.026,0,0,1-.017-1.464ZM76.706,91.457H84.67V88.9H76.079v2.562Zm38.268,0h7.912V88.9h-8.591v2.562Zm-19.134,0h7.946V88.9H95.2v2.562ZM82.056,76.418l16.991-7.842a1.017,1.017,0,0,1,.871,0l16.991,7.842c-2.91-7.249-9.48-12.634-17.426-12.634C91.536,63.8,84.966,69.186,82.056,76.418Zm40.621,4.966L99.5,70.668,76.323,81.385Zm3.694,2.091H72.594V86.8h53.777ZM99.169,61.71h.645v-9.6h-.645Z"/>
    </g>
  </g>
</svg>
