<svg xmlns="http://www.w3.org/2000/svg" width="125" height="181" viewBox="0 0 125 181">
  <g id="Grupo_1219365" data-name="Grupo 1219365" transform="translate(-1210 -1094)">
    <rect id="Rectángulo_420817" data-name="Rectángulo 420817" width="125" height="181" transform="translate(1210 1094)" fill="#ba9c5a"/>
    <g id="escudo-de-armas" transform="translate(1219.999 1138.752)">
      <g id="Grupo_1219363" data-name="Grupo 1219363" transform="translate(1.539 1.54)">
        <path id="Trazado_1089733" data-name="Trazado 1089733" d="M152.833,405.982a23,23,0,0,0,16.4-3.3l-4.164-4.656C164.872,398.272,156,405.969,152.833,405.982Z" transform="translate(-123.029 -317.936)" fill="#d16161"/>
        <path id="Trazado_1089734" data-name="Trazado 1089734" d="M192.295,401.441q1.857,1.733,4.047,3.419a21.351,21.351,0,0,0,4.26-2.182l-4.164-4.656C196.351,398.133,194.548,399.716,192.295,401.441Z" transform="translate(-154.398 -317.935)" fill="#ae3030"/>
        <path id="Trazado_1089735" data-name="Trazado 1089735" d="M115.021,363.414q.314-.392.609-.767l-8.161-9.126L90.639,366.2a39.171,39.171,0,0,0,12.755,4.4C106.559,370.594,111.568,367.729,115.021,363.414Z" transform="translate(-73.59 -282.561)" fill="#eec06b"/>
        <path id="Trazado_1089736" data-name="Trazado 1089736" d="M166.424,363.414q.314-.392.609-.767l-8.161-9.126L155.3,356.21l.1.387a37.1,37.1,0,0,0,7.989,9.932A22.938,22.938,0,0,0,166.424,363.414Z" transform="translate(-124.993 -282.561)" fill="#e69642"/>
        <path id="Trazado_1089737" data-name="Trazado 1089737" d="M54.782,169.11l-9.314-6.988s-.33,2.158-.719,5.717l2.146,5.205-2.688.437c-.383,4.615-.7,10.262-.7,16.212,0,14.713,2.861,20.653,9.667,24.363,3.2,1.742,6.85,1.5,10.289.188-5.146-3.307-8.676-45.133-8.676-45.133Z" transform="translate(-36.119 -130.413)" fill="#f8e883"/>
        <path id="Trazado_1089738" data-name="Trazado 1089738" d="M57.068,197.192,47.479,190c-.177,1.616-.366,3.519-.542,5.642L56.75,203Z" transform="translate(-38.85 -152.572)" fill="#eec06b"/>
        <path id="Trazado_1089739" data-name="Trazado 1089739" d="M100.306,200.533,94.527,196.2s-.213,2.316-.445,5.923l1.813,4.438-2.132,1.372c-.151,3.337-.263,7.1-.263,10.9,0,14.713,4.555,19.194,9.7,22.5a23.124,23.124,0,0,0,5.935-3.431C103.836,235.14,100.306,200.533,100.306,200.533Z" transform="translate(-75.865 -157.501)" fill="#5a86cc"/>
        <path id="Trazado_1089740" data-name="Trazado 1089740" d="M101.017,229.516,95.1,225.078c-.108,1.689-.221,3.66-.318,5.809l6.005,4.506Z" transform="translate(-76.884 -180.458)" fill="#3b68b0"/>
        <path id="Trazado_1089741" data-name="Trazado 1089741" d="M124.154,217.338s-.151,2.56-.308,6.025l1.936,3.779-2.164,2.1c-.069,2.212-.116,4.44-.116,6.4,0,11.681,4.182,16.309,9.484,19.069a24.609,24.609,0,0,0,3.968-3.9l-7.222-29.282Z" transform="translate(-99.713 -174.306)" fill="#d97b7b"/>
        <path id="Trazado_1089742" data-name="Trazado 1089742" d="M131.714,233.365l-3.432-2.575c-.278,1.333-.646,3.3-.936,5.554l-3.049-2.287c-.081,1.793-.164,3.828-.228,5.877l2.817,2.114c-.009.363-.015.727-.015,1.091,0,8.467,2.355,15.313,7.5,21.487a24.078,24.078,0,0,0,3.034-3.127Z" transform="translate(-100.165 -184.999)" fill="#d16161"/>
        <path id="Trazado_1089743" data-name="Trazado 1089743" d="M295.6,405.982a23,23,0,0,1-16.4-3.3l4.164-4.656C283.562,398.272,292.435,405.969,295.6,405.982Z" transform="translate(-223.482 -317.936)" fill="#d16161"/>
        <path id="Trazado_1089744" data-name="Trazado 1089744" d="M300.115,363.414q-.314-.392-.609-.767l8.161-9.126L324.5,366.2a39.171,39.171,0,0,1-12.755,4.4C308.576,370.594,303.568,367.729,300.115,363.414Z" transform="translate(-239.623 -282.561)" fill="#eec06b"/>
        <path id="Trazado_1089745" data-name="Trazado 1089745" d="M379.871,169.11l9.314-6.988s.33,2.158.719,5.717l-2.146,5.205,2.688.437c.383,4.615.7,10.262.7,16.212,0,14.713-2.861,20.653-9.667,24.363-3.2,1.742-6.85,1.5-10.289.188,5.146-3.307,8.676-45.133,8.676-45.133Z" transform="translate(-296.61 -130.413)" fill="#f8e883"/>
        <path id="Trazado_1089746" data-name="Trazado 1089746" d="M415.668,197.192,425.257,190c.177,1.616.366,3.519.542,5.642L415.986,203Z" transform="translate(-331.963 -152.572)" fill="#eec06b"/>
        <path id="Trazado_1089747" data-name="Trazado 1089747" d="M351.089,200.533l5.778-4.335s.213,2.316.445,5.923l-1.813,4.438,2.132,1.372c.151,3.337.263,7.1.263,10.9,0,14.713-4.555,19.194-9.7,22.5a23.124,23.124,0,0,1-5.935-3.431C347.559,235.14,351.089,200.533,351.089,200.533Z" transform="translate(-273.607 -157.501)" fill="#5a86cc"/>
        <path id="Trazado_1089748" data-name="Trazado 1089748" d="M386.825,229.516l5.915-4.438c.108,1.689.221,3.66.318,5.809l-6.005,4.506Z" transform="translate(-309.035 -180.458)" fill="#3b68b0"/>
        <path id="Trazado_1089749" data-name="Trazado 1089749" d="M334.141,227.214l1.875-3.851c-.157-3.465-.308-6.025-.308-6.025l-7.109,5.333L322.908,250.8a24.591,24.591,0,0,0,3.968,3.9c5.3-2.76,9.484-7.388,9.484-19.069,0-1.955-.047-4.183-.116-6.4Z" transform="translate(-258.226 -174.306)" fill="#d97b7b"/>
        <path id="Trazado_1089750" data-name="Trazado 1089750" d="M358.323,250.984l-.2,6.2,6.114-4.587c-.064-2.049-.147-4.084-.228-5.877Z" transform="translate(-286.219 -197.66)" fill="#d16161"/>
        <path id="Trazado_1089751" data-name="Trazado 1089751" d="M208.6,420.727l-6.243,11.492A11.573,11.573,0,0,0,209,437.273l5.3-16.546Z" transform="translate(-162.401 -335.984)" fill="#f8e883"/>
        <path id="Trazado_1089752" data-name="Trazado 1089752" d="M222.719,424.533q1.383.985,2.884,1.963a1.783,1.783,0,0,0,1.823.076c.508-.275,1-.571,1.462-.878l1.591-4.968h-5.692Z" transform="translate(-178.583 -335.983)" fill="#eec06b"/>
        <path id="Trazado_1089753" data-name="Trazado 1089753" d="M263.379,432.219l-6.243-11.492h-5.692l5.3,16.546A11.573,11.573,0,0,0,263.379,432.219Z" transform="translate(-201.417 -335.984)" fill="#d97b7b"/>
        <path id="Trazado_1089754" data-name="Trazado 1089754" d="M251.444,420.727l1.35,4.215a21.09,21.09,0,0,0,4.342-4.215Z" transform="translate(-201.417 -335.984)" fill="#d16161"/>
        <path id="Trazado_1089755" data-name="Trazado 1089755" d="M238.15,420.727l-3.43,16.546a15.323,15.323,0,0,0,8.729,0l-3.43-16.546Z" transform="translate(-188.124 -335.984)" fill="#5a86cc"/>
        <path id="Trazado_1089756" data-name="Trazado 1089756" d="M245.521,426.587l.031-.014a22.109,22.109,0,0,0,3.73-2.584l-.676-3.262h-1.87Z" transform="translate(-196.709 -335.984)" fill="#3b68b0"/>
        <path id="Trazado_1089757" data-name="Trazado 1089757" d="M232.784,7.5a6.657,6.657,0,0,0-2.555.631l-3.5,2.24s3.022,6.172,4.113,6.726,6.3-2.951,6.3-2.951v-2.3a4.35,4.35,0,0,0-4.35-4.35Z" transform="translate(-181.767 -7.502)" fill="#f5deb2"/>
        <path id="Trazado_1089758" data-name="Trazado 1089758" d="M222.38,26.4V25.016c0-1.7-1.358-3.514-4.113-3.514-1.834,1.173-3.04,2.908-1.429,6.255,2.052,0,3.911,1.388,5.256,3.631l.007.013,6.575-3.213V25.276a16.518,16.518,0,0,0-5.185,1.777A.746.746,0,0,1,222.38,26.4Z" transform="translate(-173.309 -18.631)" fill="#f4c497"/>
        <path id="Trazado_1089759" data-name="Trazado 1089759" d="M80.806,42.406c10.117,0,18.454-7.629,18.454-7.629l11.334,4.358,8.319-7.933L95.724,22.286a11.492,11.492,0,0,0-4.115-.785,6.726,6.726,0,0,0-6.726,6.724,6.727,6.727,0,0,1-6.726,6.728H64.341a6.727,6.727,0,0,1-6.726-6.728A6.726,6.726,0,0,0,50.89,21.5a11.491,11.491,0,0,0-4.115.785L23.586,31.2,31.9,39.135l11.334-4.358s8.336,7.629,18.454,7.629H80.806Z" transform="translate(-20.288 -18.63)" fill="#ab7b64"/>
        <path id="Trazado_1089760" data-name="Trazado 1089760" d="M66.6,78.164a20.148,20.148,0,0,0,12.8-4l3.617-2.714a2.926,2.926,0,0,1,2.823-.384l11.346,4.444,8.934-6.7,3.3,1.268L97.808,78.789,86.474,74.431l-4.921,3.692A20.735,20.735,0,0,1,68.68,82.331H48.247a20.735,20.735,0,0,1-12.872-4.208l-4.921-3.692L19.119,78.789,7.5,70.073,10.8,68.8l8.934,6.7,11.346-4.444a2.926,2.926,0,0,1,2.823.384l3.617,2.714a20.147,20.147,0,0,0,12.8,4Z" transform="translate(-7.502 -56.233)" fill="#8c5e5e"/>
        <path id="Trazado_1089761" data-name="Trazado 1089761" d="M221.808,87.255c-1.135,2.893-.62,10.7-.315,15.208l16.677-4.079c.585-8.027,1.041-12.88-5.5-19.423C227.464,78.962,223.334,83.367,221.808,87.255Z" transform="translate(-177.302 -64.307)" fill="#ab7b64"/>
        <path id="Trazado_1089762" data-name="Trazado 1089762" d="M211.394,79.094c-.306-4.5-.534-8.7.6-11.6A15.789,15.789,0,0,1,220.8,59.2v-5.1a20.647,20.647,0,0,0-6.575,3.213,18.624,18.624,0,0,0-2.236,1.884c-8.577,8.577-5.125,14.249-5.125,27.976H225.93c0-3.256.194-6.058.376-8.553a77.477,77.477,0,0,0-9.906,1.278S214.272,79.469,211.394,79.094Z" transform="translate(-165.438 -44.55)" fill="#8c5e5e"/>
        <path id="Trazado_1089763" data-name="Trazado 1089763" d="M205.25,221.073a66.539,66.539,0,0,0-1.821-14.171,27.785,27.785,0,0,1-19.357,0,27.775,27.775,0,0,1-15.917,1.031c-.521,2.743-4.76,12.973-1.282,22.885s11.74,16.459,17.043,20.3c9.618-2.783,17.518-14.016,17.628-14.145l0,0,3.669-14.15q.034-.863.035-1.747Z" transform="translate(-133.11 -166.01)" fill="#80b6fc"/>
        <path id="Trazado_1089764" data-name="Trazado 1089764" d="M161.742,236.97a30.94,30.94,0,0,1-4.736-14.15c-.113-1.23-.172-2.494-.172-3.8a62.09,62.09,0,0,1,1.16-11.089,27.417,27.417,0,0,1-3.44-1.031,66.537,66.537,0,0,0-1.821,14.171q0,.886.035,1.747l3.669,14.15c3.346,6.253,9.049,11.668,17.474,17.033,8.424-5.365,14.126-10.778,17.473-17.03-.106.124-6.732,8.572-15.436,12.411a2.289,2.289,0,0,1-2.15-.17A45.267,45.267,0,0,1,161.742,236.97Z" transform="translate(-122.949 -166.01)" fill="#5a86cc"/>
        <path id="Trazado_1089765" data-name="Trazado 1089765" d="M175.429,298.672h29.642a32.036,32.036,0,0,0,3.669-14.15H170.693c.242,2.633-1.3,5.107-.519,7.454s3.9,4.568,5.255,6.7Z" transform="translate(-136.636 -227.712)" fill="#f3f1f4"/>
        <path id="Trazado_1089766" data-name="Trazado 1089766" d="M157.143,284.522H152.9a32.036,32.036,0,0,0,3.669,14.15h5.306A30.942,30.942,0,0,1,157.143,284.522Z" transform="translate(-123.085 -227.712)" fill="#c8c3ca"/>
        <path id="Trazado_1089767" data-name="Trazado 1089767" d="M277.922,256.692c0-1.993.779-3.65,2.338-3.65s4.118,3.158,5.408.607h0c-.641,2.312-.451,5.849-4.076,5.849C279.082,259.5,277.922,257.7,277.922,256.692Z" transform="translate(-222.465 -202.687)" fill="#eec06b"/>
        <path id="Trazado_1089768" data-name="Trazado 1089768" d="M204.057,256.692c0-1.993-.779-3.65-2.338-3.65s-4.118,3.158-5.408.607h0c.64,2.312.451,5.849,4.076,5.849C202.9,259.5,204.057,257.7,204.057,256.692Z" transform="translate(-157.591 -202.687)" fill="#eec06b"/>
        <path id="Trazado_1089769" data-name="Trazado 1089769" d="M242.318,292.52s-2.026-8-4.758-8-4.758,8-4.758,8Z" transform="translate(-186.599 -227.712)" fill="#d16161"/>
      </g>
      <g id="Grupo_1219364" data-name="Grupo 1219364" transform="translate(0.001 0.002)">
        <path id="Trazado_1089770" data-name="Trazado 1089770" d="M49.942,101.7a14.38,14.38,0,0,0,5.117,0l-2.21-10.663a1.537,1.537,0,0,1-.7,0Zm-6.655-3.988A10.128,10.128,0,0,0,47,100.737l2.368-11.422q-.563-.382-1.106-.763Zm12.348-8.393L58,100.733a10.2,10.2,0,0,0,3.712-3.027l-4.973-9.154Q56.2,88.934,55.634,89.315Zm8.526-6.8c3.133,3.411,7.043,5.445,9.368,5.53a31.783,31.783,0,0,0,3.525-.737,20,20,0,0,1-2.241-.81,26.147,26.147,0,0,1-8.589-6.108q-.972,1.072-2.063,2.125ZM27.947,87.309a31.879,31.879,0,0,0,3.525.737c2.325-.086,6.235-2.119,9.368-5.53q-1.092-1.054-2.063-2.125A26.149,26.149,0,0,1,30.188,86.5,20.056,20.056,0,0,1,27.947,87.309Zm15.169-2.726a24.94,24.94,0,0,1-3.916,3.45,19.934,19.934,0,0,0,5.785-1.914Q44.015,85.352,43.116,84.583Zm16.9,1.536A19.916,19.916,0,0,0,65.8,88.033a24.936,24.936,0,0,1-3.916-3.45q-.9.77-1.868,1.536ZM48.693,85.072Q50.484,86.392,52.5,87.7q2.018-1.314,3.808-2.632c.024-.018.048-.037.073-.054q2.209-1.632,4.081-3.286c-1.787-1.432-4.2-1.607-7.9-.648a23.763,23.763,0,0,1-7.984.687q1.856,1.637,4.037,3.247c.025.017.049.035.073.054ZM10.948,47.522c-.28,4-.489,8.558-.489,13.3,0,15.206,3.25,19.952,8.865,23.012a9.361,9.361,0,0,0,6.055.919,18.129,18.129,0,0,1-4.643-5.634c-2.085-3.946-3.1-9.261-3.1-16.246,0-3.507.1-7,.231-10.156Zm9.911,7.436c-.088,2.529-.146,5.217-.146,7.912,0,13.585,3.869,17.774,8.338,20.775a20.92,20.92,0,0,0,2.934-1.582c-4.168-2.773-8.2-7.778-8.2-19.193,0-1.73.037-3.679.094-5.644ZM73.016,82.063a20.941,20.941,0,0,0,2.934,1.582c4.469-3,8.338-7.19,8.338-20.775,0-2.7-.058-5.383-.146-7.912l-3.024,2.269c.057,1.965.094,3.914.094,5.644C81.211,74.285,77.184,79.29,73.016,82.063ZM26.9,59.493c-.024,1.178-.038,2.319-.038,3.377,0,10.829,3.793,14.909,7.77,17.219a23.581,23.581,0,0,0,2.146-2.077q-.912-1.181-1.7-2.4A32.314,32.314,0,0,1,30.113,61.9ZM68.219,78.012a23.634,23.634,0,0,0,2.146,2.077c3.978-2.31,7.77-6.39,7.77-17.219,0-1.058-.014-2.2-.038-3.377L74.888,61.9a32.317,32.317,0,0,1-4.969,13.716Q69.13,76.832,68.219,78.012Zm-11.739-.59a9.138,9.138,0,0,1,6.232,2.19,35.76,35.76,0,0,0,4.558-5.573H37.731q.741,1.133,1.6,2.234c3.532,3.782,10.422,2.363,12.461,1.835a18.866,18.866,0,0,1,4.685-.686Zm-.067-17.533a27.237,27.237,0,0,1,2.336,6.082,1.538,1.538,0,0,1-1.491,1.916h-3.22v3.076H69.033a30.08,30.08,0,0,0,2.978-11.074ZM35.968,70.963H50.962V67.886H47.743a1.538,1.538,0,0,1-1.491-1.916,27.227,27.227,0,0,1,2.336-6.082h-15.6A30.072,30.072,0,0,0,35.968,70.963ZM55.189,64.81c-1.257-3.733-2.211-4.856-2.688-4.916-.477.06-1.431,1.182-2.688,4.916ZM74.744,49.7a55.484,55.484,0,0,1,.473,6.9q0,.614-.016,1.217l2.793-2.1c-.1-3.1-.245-6.1-.352-8.194ZM27.008,55.725l2.793,2.1q-.016-.6-.016-1.217a55.49,55.49,0,0,1,.473-6.9l-2.9-2.173C27.253,49.625,27.112,52.629,27.008,55.725Zm15.355-.771c.372,1.43.819,1.858,1.973,1.858,1.651,0,2.115-1.079,2.132-1.278,0-1.158-.342-2.077-.782-2.1-.641,0-1.9,1.152-3.323,1.522Zm-9.5,1.858h6.88c-.362-.9-.787-3.379-1.235-4.591-.042-.114-.122-.191-.611-.107a1.538,1.538,0,1,1-.52-3.032,3.39,3.39,0,0,1,3.721,1.48c.263.41.358,1.19.62,1.389s.967-.432,1.334-.641a5.488,5.488,0,0,1,2.618-.953c2.318,0,3.876,2.085,3.876,5.188a3.468,3.468,0,0,1-.26,1.267h6.434a3.468,3.468,0,0,1-.26-1.267c0-3.1,1.558-5.188,3.876-5.188a5.488,5.488,0,0,1,2.618.953c.367.209,1.073.839,1.334.641s.357-.978.62-1.389a3.39,3.39,0,0,1,3.721-1.48,1.538,1.538,0,1,1-.52,3.032c-.488-.084-.568-.007-.611.107-.448,1.212-.873,3.695-1.235,4.591h6.88c0-.07,0-.139,0-.209a63.125,63.125,0,0,0-1.408-12.166A29.229,29.229,0,0,1,52.5,44.068a29.226,29.226,0,0,1-18.233.369A63.126,63.126,0,0,0,32.861,56.6c0,.07,0,.139,0,.209h6.88c-.362-.9-.787-3.379-1.235-4.591-.042-.114-.122-.191-.611-.107a1.538,1.538,0,0,1-.52-3.032,3.39,3.39,0,0,1,3.721,1.48c.263.41.358,1.19.62,1.389s.967-.432,1.334-.641a5.488,5.488,0,0,1,2.618-.953c2.318,0,3.876,2.085,3.876,5.188a3.468,3.468,0,0,1-.26,1.267m10.032-3.38c-.44.024-.782.943-.782,2.1.017.2.481,1.278,2.132,1.278,1.154,0,1.6-.427,1.973-1.858-1.426-.37-2.681-1.522-3.323-1.522ZM42.363,54.955c.372,1.43.819,1.858,1.973,1.858,1.651,0,2.115-1.079,2.132-1.278,0-1.158-.342-2.077-.782-2.1-.641,0-1.9,1.152-3.323,1.522ZM80.6,45.308c.08,1.443.247,4.608.386,8.169l3-2.249c-.159-3.307-.35-6.144-.5-8.087Zm-59.589,5.92,3,2.249c.139-3.561.306-6.726.386-8.169L21.51,43.141C21.364,45.084,21.173,47.922,21.014,51.228ZM86.405,40.955c.114,1.377.342,4.3.547,8.048l6.816-5.114c-.286-3.293-.6-6.008-.828-7.838ZM11.234,43.891,18.048,49c.205-3.743.433-6.672.547-8.048l-6.535-4.9c-.229,1.83-.54,4.543-.827,7.839ZM44.022,89.91a24.173,24.173,0,0,1-8.591,1.517c-7.471,0-14.2-3.052-17.579-4.893M76.563,39.149c-2.431-.436-7.119-2.061-11.831-2.061-.294,0-.591,0-.889.011-.116,1.683-.221,3.508-.259,5.5a26.141,26.141,0,0,0,7.736-1.612,1.538,1.538,0,0,1,2.029,1.063c.036.14.445,1.774.872,4.2l28.319-21.246a1.538,1.538,0,0,1,1.846,2.461l-8.62,6.468c.186,1.351.543,4.117.894,7.788l5.88-4.411a1.538,1.538,0,0,1,1.846,2.461l-7.41,5.56c.218,2.748.41,5.819.525,9.068a1.538,1.538,0,1,1-3.074.109c-.087-2.454-.219-4.8-.372-6.986l-6.921,5.193c.134,3.157.23,6.649.23,10.156,0,6.986-1.014,12.3-3.1,16.246a18.129,18.129,0,0,1-4.643,5.634,9.361,9.361,0,0,0,6.055-.919c5.614-3.06,8.865-7.807,8.865-23.012a1.538,1.538,0,1,1,3.076,0c0,7.57-.762,12.938-2.4,16.9a17.068,17.068,0,0,1-8.071,8.818c-3.378,1.841-10.108,4.893-17.579,4.893a24.178,24.178,0,0,1-8.591-1.517h0l3.874,7.13a1.538,1.538,0,0,1,.013,1.443C64.728,98.75,61.377,105,52.5,105S40.274,98.75,40.136,98.484a1.538,1.538,0,0,1,.013-1.443l3.874-7.131a24.173,24.173,0,0,1-8.591,1.517c-7.471,0-14.2-3.052-17.579-4.893a17.066,17.066,0,0,1-8.071-8.818c-1.636-3.957-2.4-9.326-2.4-16.9,0-5.615.288-10.988.645-15.488L.616,39.77A1.538,1.538,0,0,1,2.462,37.31l5.881,4.413c.351-3.674.707-6.439.893-7.789L.616,27.466a1.538,1.538,0,0,1,1.846-2.461L30.781,46.251c.427-2.423.836-4.056.872-4.2a1.538,1.538,0,0,1,2.029-1.063A26.133,26.133,0,0,0,41.417,42.6c-.039-2.029-.146-3.867-.259-5.5-.3-.007-.6-.011-.889-.011-4.711,0-9.4,1.624-11.831,2.061A4,4,0,0,1,23.8,35.9a4.441,4.441,0,0,1,1.549-3.841c.533-.59.853-.968.8-1.246a.924.924,0,0,0-1.07-.749L18.9,31.158a1.538,1.538,0,0,1-.534-3.029l6.187-1.091a4,4,0,0,1,4.633,3.244,4.441,4.441,0,0,1-1.549,3.841c-.533.59-.853.968-.8,1.246a.912.912,0,0,0,1.07.749c2.353-.512,8.207-1.947,11.564-2.09A14.675,14.675,0,0,1,36.8,28.586a21.552,21.552,0,0,1-8.327-3.934,1.538,1.538,0,1,1,1.868-2.444A18.325,18.325,0,0,0,36.2,25.245q-.1-1.064-.1-2.181A19.411,19.411,0,0,1,38,14.393a8.286,8.286,0,0,1-.667-3.256,5.194,5.194,0,0,0-5.188-5.188,10.047,10.047,0,0,0-3.563.682L2.091,16.816a1.538,1.538,0,0,1-1.1-2.871L27.474,3.76a13.152,13.152,0,0,1,4.667-.887A8.273,8.273,0,0,1,40.405,11.1a7.524,7.524,0,0,1,2.586-1.609c-.686-2.657.209-4.8,2.677-6.373l3.5-2.24A7.778,7.778,0,0,1,52.478,0l.078,0A5.894,5.894,0,0,1,58.444,5.89V9.228a12.232,12.232,0,0,1,1.538-.1,1.538,1.538,0,1,1,0,3.076,9.6,9.6,0,0,0-1.538.13v3.232c.252.261.751.759.964.759A5.194,5.194,0,0,0,64.6,11.137,8.273,8.273,0,0,1,72.86,2.873a13.156,13.156,0,0,1,4.667.887l26.487,10.185a1.538,1.538,0,0,1-1.1,2.871L76.423,6.631a10.047,10.047,0,0,0-3.563-.682,5.194,5.194,0,0,0-5.188,5.188,8.279,8.279,0,0,1-6.3,8.028,16.44,16.44,0,0,1,2.653,6.9,18.649,18.649,0,0,0,10.629-3.856,1.538,1.538,0,0,1,1.868,2.444,21.6,21.6,0,0,1-12.27,4.481c.022,1.536-.069,3.148-.19,4.884q.335-.006.668-.006c5.044,0,10.012,1.6,12.365,2.107a.924.924,0,0,0,1.07-.749c.049-.278-.271-.656-.8-1.246a4.441,4.441,0,0,1-1.549-3.841,4,4,0,0,1,4.634-3.245l6.187,1.091a1.538,1.538,0,0,1-.534,3.029l-6.187-1.091a.923.923,0,0,0-1.07.749c-.049.278.271.656.8,1.246A4.441,4.441,0,0,1,81.2,35.9a4.006,4.006,0,0,1-4.634,3.244ZM7.9,21.174A1.538,1.538,0,1,1,6.8,18.3L18.13,13.944a1.538,1.538,0,1,1,1.1,2.871Zm5.809,4.358a1.538,1.538,0,1,1-1.1-2.871L23.938,18.3a1.538,1.538,0,0,1,1.1,2.871ZM97.1,21.174,85.767,16.816a1.538,1.538,0,0,1,1.1-2.871L98.205,18.3a1.538,1.538,0,0,1-1.1,2.871Zm-5.809,4.358L79.959,21.174a1.538,1.538,0,1,1,1.1-2.871L92.4,22.66a1.538,1.538,0,1,1-1.1,2.871ZM44.253,37.277c.106,1.591.2,3.36.24,5.311a26.138,26.138,0,0,0,7.469-1.6,1.538,1.538,0,0,1,1.075,0,26.146,26.146,0,0,0,7.469,1.6c.036-1.925.132-3.684.24-5.311A79.212,79.212,0,0,0,52.809,38.4a1.541,1.541,0,0,1-.617,0A79.189,79.189,0,0,0,44.253,37.277Zm5.645-2.4c1.219.192,2.145.365,2.6.453A80.362,80.362,0,0,1,60.97,34.17c.5-7.075.539-11.2-5.152-16.888a1.537,1.537,0,0,1-.451-1.088V13.231a19.785,19.785,0,0,0-3.029,1.57,19.675,19.675,0,0,1,1.7,8.264C54.039,28.1,52.4,32.428,49.9,34.874Zm-.091-18.179a16.574,16.574,0,0,0-5.344,7.841,1.538,1.538,0,0,1-1.914,1.034,1.515,1.515,0,0,1-1.034-1.914,20.4,20.4,0,0,1,6.734-9.677A4.252,4.252,0,0,0,45.1,12.2h-.028c-3.2,0-5.895,4.974-5.895,10.861s2.7,10.861,5.895,10.861,5.895-4.974,5.895-10.861a17.339,17.339,0,0,0-1.156-6.37ZM46.123,9.219a7.693,7.693,0,0,1,4.611,2.963,22.2,22.2,0,0,1,4.634-2.228V5.89A2.815,2.815,0,0,0,52.6,3.078a5.091,5.091,0,0,0-1.766.388l-3.5,2.24c-1.058.677-1.936,1.466-1.2,3.512Z" transform="translate(-0.001 -0.002)"/>
      </g>
    </g>
  </g>
</svg>
