<svg xmlns="http://www.w3.org/2000/svg" xmlns:xlink="http://www.w3.org/1999/xlink" width="93.934" height="93.934" viewBox="0 0 93.934 93.934">
  <defs>
    <filter id="Trazado_982547" x="0" y="0" width="93.934" height="93.934" filterUnits="userSpaceOnUse">
      <feOffset dy="3" input="SourceAlpha"/>
      <feGaussianBlur stdDeviation="3" result="blur"/>
      <feFlood flood-opacity="0.161"/>
      <feComposite operator="in" in2="blur"/>
      <feComposite in="SourceGraphic"/>
    </filter>
  </defs>
  <g id="Grupo_1219378" data-name="Grupo 1219378" transform="translate(-1031.066 -1676.416)">
    <g id="Grupo_1218014" data-name="Grupo 1218014" transform="translate(0 -5560.619)">
      <g id="Grupo_1216282" data-name="Grupo 1216282" transform="translate(0 6194.186)">
        <g id="Grupo_1215983" data-name="Grupo 1215983" transform="translate(-0.229 -2679.151)">
          <g id="Grupo_1214661" data-name="Grupo 1214661" transform="translate(0 -1406)">
            <g id="Grupo_1214434" data-name="Grupo 1214434" transform="translate(-0.771 -2738.522)">
              <g id="Grupo_1183184" data-name="Grupo 1183184" transform="translate(1 1016.523)">
                <g id="Grupo_1179612" data-name="Grupo 1179612" transform="translate(848 4723.467)">
                  <g id="Grupo_1175227" data-name="Grupo 1175227" transform="translate(-5.967 140.533)">
                    <g id="Grupo_1167337" data-name="Grupo 1167337" transform="translate(198.033 1992)">
                      <g id="Grupo_1166720" data-name="Grupo 1166720">
                        <g id="Grupo_1164305" data-name="Grupo 1164305">
                          <g id="Grupo_1163948" data-name="Grupo 1163948">
                            <g id="Grupo_1158168" data-name="Grupo 1158168">
                              <g id="Grupo_1152576" data-name="Grupo 1152576">
                                <g id="Grupo_1148633" data-name="Grupo 1148633">
                                  <g id="Grupo_1148525" data-name="Grupo 1148525">
                                    <g transform="matrix(1, 0, 0, 1, -9, -6)" filter="url(#Trazado_982547)">
                                      <g id="Trazado_982547-2" data-name="Trazado 982547" transform="translate(9 6)" fill="#f7f4ed">
                                        <path d="M 37.966796875 74.43359375 C 33.04315185546875 74.43359375 28.26757431030273 73.46962738037109 23.77274131774902 71.56847381591797 C 19.43047523498535 69.73184967041016 15.53040790557861 67.10224914550781 12.18087482452393 63.75271987915039 C 8.831341743469238 60.4031867980957 6.201741218566895 56.50312042236328 4.365118980407715 52.16086196899414 C 2.463963508605957 47.66601943969727 1.499996900558472 42.89044189453125 1.499996900558472 37.966796875 C 1.499996900558472 33.04315185546875 2.463963508605957 28.26757431030273 4.365118980407715 23.77274131774902 C 6.201741218566895 19.43047523498535 8.831341743469238 15.53040790557861 12.18087482452393 12.18087482452393 C 15.53040790557861 8.831341743469238 19.43047523498535 6.201741218566895 23.77274131774902 4.365118980407715 C 28.26757431030273 2.463963508605957 33.04315185546875 1.499996900558472 37.966796875 1.499996900558472 C 42.89044189453125 1.499996900558472 47.66601943969727 2.463963508605957 52.16086196899414 4.365118980407715 C 56.50312042236328 6.201741218566895 60.4031867980957 8.831341743469238 63.75271987915039 12.18087482452393 C 67.10224914550781 15.53040790557861 69.73184967041016 19.43047523498535 71.56847381591797 23.77274131774902 C 73.46962738037109 28.26757431030273 74.43359375 33.04315185546875 74.43359375 37.966796875 C 74.43359375 42.89044189453125 73.46962738037109 47.66601943969727 71.56847381591797 52.16086196899414 C 69.73184967041016 56.50313186645508 67.10224914550781 60.4031867980957 63.75271987915039 63.75271987915039 C 60.4031867980957 67.10224914550781 56.50313186645508 69.73184967041016 52.16086196899414 71.56847381591797 C 47.66601943969727 73.46962738037109 42.89044189453125 74.43359375 37.966796875 74.43359375 Z" stroke="none"/>
                                        <path d="M 37.966796875 3 C 33.2449836730957 3 28.66600799560547 3.924095153808594 24.35705947875977 5.746635437011719 C 20.19359588623047 7.507637023925781 16.45379638671875 10.02928161621094 13.24153518676758 13.24153518676758 C 10.02927398681641 16.45379638671875 7.507621765136719 20.19359588623047 5.746635437011719 24.35705947875977 C 3.924095153808594 28.66600799560547 3 33.2449836730957 3 37.966796875 C 3 42.6886100769043 3.924095153808594 47.26758575439453 5.746635437011719 51.57653427124023 C 7.507621765136719 55.73999786376953 10.02927398681641 59.47979736328125 13.24153518676758 62.69205856323242 C 16.45379638671875 65.90431976318359 20.19359588623047 68.42597198486328 24.35705947875977 70.18695831298828 C 28.66600799560547 72.00949859619141 33.2449836730957 72.93359375 37.966796875 72.93359375 C 42.6886100769043 72.93359375 47.26758575439453 72.00949859619141 51.57653427124023 70.18695831298828 C 55.73999786376953 68.42597198486328 59.47979736328125 65.90431976318359 62.69205856323242 62.69205856323242 C 65.90431976318359 59.47979736328125 68.42597198486328 55.73999786376953 70.18695831298828 51.57653427124023 C 72.00949859619141 47.26758575439453 72.93359375 42.6886100769043 72.93359375 37.966796875 C 72.93359375 33.2449836730957 72.00949859619141 28.66600799560547 70.18695831298828 24.35705947875977 C 68.42597198486328 20.19359588623047 65.90431976318359 16.45379638671875 62.69205856323242 13.24153518676758 C 59.47979736328125 10.02928161621094 55.73999786376953 7.507637023925781 51.57653427124023 5.746635437011719 C 47.26758575439453 3.924095153808594 42.6886100769043 3 37.966796875 3 M 37.966796875 0 C 58.93528366088867 0 75.93359375 16.99832153320312 75.93359375 37.966796875 C 75.93359375 58.93528366088867 58.93528366088867 75.93359375 37.966796875 75.93359375 C 16.99831008911133 75.93359375 0 58.93528366088867 0 37.966796875 C 0 16.99832153320312 16.99831008911133 0 37.966796875 0 Z" stroke="none" fill="#847625"/>
                                      </g>
                                    </g>
                                  </g>
                                </g>
                              </g>
                            </g>
                          </g>
                        </g>
                      </g>
                    </g>
                  </g>
                </g>
              </g>
            </g>
          </g>
        </g>
      </g>
    </g>
    <g id="discurso_2_" data-name="discurso (2)" transform="translate(1036.109 1693.132)">
      <g id="Grupo_1219377" data-name="Grupo 1219377" transform="translate(13.795 0.941)">
        <path id="Trazado_1089863" data-name="Trazado 1089863" d="M170.22,41.06H145.777V19.721a12.221,12.221,0,1,1,24.443,0Z" transform="translate(-130.035 -7.5)" fill="#f6df7f"/>
        <path id="Trazado_1089864" data-name="Trazado 1089864" d="M230.03,7.5a12.314,12.314,0,0,0-1.883.144,12.224,12.224,0,0,1,10.339,12.077V41.06h3.765V19.721A12.221,12.221,0,0,0,230.03,7.5Z" transform="translate(-202.066 -7.5)" fill="#efd06f"/>
        <g id="Grupo_1219372" data-name="Grupo 1219372" transform="translate(6.086 22.983)">
          <g id="Grupo_1219370" data-name="Grupo 1219370" transform="translate(37.217)">
            <path id="Trazado_1089865" data-name="Trazado 1089865" d="M371.343,196.6a1.883,1.883,0,0,1-2.663,0l-2.773-2.773a1.883,1.883,0,1,1,2.663-2.663l2.773,2.773A1.883,1.883,0,0,1,371.343,196.6Z" transform="translate(-365.355 -190.608)" fill="#685e68"/>
          </g>
          <g id="Grupo_1219371" data-name="Grupo 1219371">
            <path id="Trazado_1089866" data-name="Trazado 1089866" d="M69.393,196.6a1.883,1.883,0,0,0,2.663,0l2.773-2.773a1.883,1.883,0,0,0-2.663-2.663l-2.773,2.773A1.883,1.883,0,0,0,69.393,196.6Z" transform="translate(-68.841 -190.608)" fill="#685e68"/>
          </g>
        </g>
        <g id="Grupo_1219373" data-name="Grupo 1219373" transform="translate(42.795 0)">
          <path id="Trazado_1089867" data-name="Trazado 1089867" d="M370.074,7.5c-4.194,0-7.594,2.613-7.594,5.836a4.746,4.746,0,0,0,.8,2.6.507.507,0,0,1-.073.633l-1.747,1.747a.5.5,0,0,0,.355.857h8.263c4.194,0,7.594-2.613,7.594-5.836S374.268,7.5,370.074,7.5Z" transform="translate(-361.308 -7.5)" fill="#f6df7f"/>
          <path id="Trazado_1089868" data-name="Trazado 1089868" d="M404.912,7.5a9.784,9.784,0,0,0-1.883.181c3.283.644,5.711,2.932,5.711,5.655,0,3.223-3.4,5.836-7.594,5.836h3.765c4.194,0,7.594-2.613,7.594-5.836S409.106,7.5,404.912,7.5Z" transform="translate(-396.147 -7.5)" fill="#efd06f"/>
        </g>
        <g id="Grupo_1219375" data-name="Grupo 1219375" transform="translate(8.826 8.819)">
          <path id="Trazado_1089869" data-name="Trazado 1089869" d="M121.265,204.54l-5.782-1.627a2.677,2.677,0,0,1-1.952-2.577v-1.405H106.1v1.4a2.677,2.677,0,0,1-1.951,2.576l-5.784,1.63a9.517,9.517,0,0,0-7.684,9.318v6.435h13.009l6.2-1.883,6.057,1.883h13.009v-6.434a9.517,9.517,0,0,0-7.686-9.318Z" transform="translate(-90.676 -183.723)" fill="#7a6d79"/>
          <g id="Grupo_1219374" data-name="Grupo 1219374" transform="translate(19.09 15.208)">
            <path id="Trazado_1089870" data-name="Trazado 1089870" d="M254.267,204.54l-5.782-1.627a2.677,2.677,0,0,1-1.952-2.577v-1.405h-3.765v3.288a2.677,2.677,0,0,0,1.952,2.577l5.782,1.627a9.517,9.517,0,0,1,7.686,9.319v4.551h3.765v-6.434A9.517,9.517,0,0,0,254.267,204.54Z" transform="translate(-242.768 -198.931)" fill="#685e68"/>
          </g>
          <path id="Trazado_1089871" data-name="Trazado 1089871" d="M207.181,231.371l-12,0-.023.006,1.5,17.284H205.7Z" transform="translate(-182.046 -212.088)" fill="#fff"/>
          <path id="Trazado_1089872" data-name="Trazado 1089872" d="M249.647,231.381h-5.926a2.675,2.675,0,0,0,1.832,1.792l3.572,1.005.546-2.788Z" transform="translate(-224.512 -212.098)" fill="#f3f0f3"/>
          <path id="Trazado_1089873" data-name="Trazado 1089873" d="M195.342,203a7.652,7.652,0,0,0,12,0l-.579.007a2.677,2.677,0,0,1-1.952-2.577v-1.405l-7.185-.1v1.4a2.677,2.677,0,0,1-1.951,2.576Z" transform="translate(-182.205 -183.722)" fill="#ffcebf"/>
          <path id="Trazado_1089874" data-name="Trazado 1089874" d="M247.5,202.4a2.676,2.676,0,0,1-.969-2.06v-1.405h-3.765v3.288a2.677,2.677,0,0,0,1.952,2.577l1.353.381a7.69,7.69,0,0,0,2.74-2.171l-.328-.092A2.661,2.661,0,0,1,247.5,202.4Z" transform="translate(-223.678 -183.723)" fill="#ffb09e"/>
          <path id="Trazado_1089875" data-name="Trazado 1089875" d="M151.235,105.539h-2.744a2.9,2.9,0,0,0,0,5.81h2.743v-5.81Z" transform="translate(-138.695 -102.053)" fill="#ffb09e"/>
          <path id="Trazado_1089876" data-name="Trazado 1089876" d="M295.706,105.539h2.743a2.9,2.9,0,0,1,0,5.81h-2.743Z" transform="translate(-269.972 -102.053)" fill="#ffcebf"/>
          <path id="Trazado_1089877" data-name="Trazado 1089877" d="M192.547,81.249v4.728a7.7,7.7,0,0,1-8.532,8.151,11.327,11.327,0,0,1-3.666-.528,8.48,8.48,0,0,1-4.762-7.623V81.249a14.177,14.177,0,0,0,7.93-3.278.876.876,0,0,1,1.111-.018,15.616,15.616,0,0,0,7.918,3.3Z" transform="translate(-164.93 -77.763)" fill="#ffcebf"/>
          <path id="Trazado_1089878" data-name="Trazado 1089878" d="M220.732,79.8a15.629,15.629,0,0,1-2.922-1.839.88.88,0,0,0-1.115.014,14.272,14.272,0,0,1-1.282.959,15.508,15.508,0,0,0,3.718,1.72,4.03,4.03,0,0,1,2.827,3.853v1.476a7.544,7.544,0,0,1-1.882,5.326,7.831,7.831,0,0,1-6.55,2.3,8.654,8.654,0,0,0,2.761.8,8.476,8.476,0,0,0,9.437-8.425V81.256a15.673,15.673,0,0,1-4.992-1.455Z" transform="translate(-198.107 -77.77)" fill="#ffb09e"/>
          <path id="Trazado_1089879" data-name="Trazado 1089879" d="M270.355,237.066l1.471-4.412-4.291-1.207-3.386,17.28h3.493l4.129-8.918a.879.879,0,0,0-.24-1.048l-.9-.738A.878.878,0,0,1,270.355,237.066Z" transform="translate(-242.376 -212.157)" fill="#685e68"/>
          <path id="Trazado_1089880" data-name="Trazado 1089880" d="M289.26,231.992l-1.94-.546-.547,2.788,2.21.622a9.612,9.612,0,0,1,1.721.514l.906-2.717Z" transform="translate(-262.161 -212.157)" fill="#554e56"/>
          <path id="Trazado_1089881" data-name="Trazado 1089881" d="M160.8,232.628l1.471,4.414A.879.879,0,0,1,162,238l-.9.738a.879.879,0,0,0-.24,1.048l4.129,8.918h3.493l-3.387-17.284Z" transform="translate(-151.977 -212.133)" fill="#685e68"/>
        </g>
        <g id="Grupo_1219376" data-name="Grupo 1219376" transform="translate(0 45.389)">
          <path id="Trazado_1089882" data-name="Trazado 1089882" d="M57.223,411.735l-3.85-13.659h47.639l-3.85,13.659a.879.879,0,0,1-.846.64H58.069A.879.879,0,0,1,57.223,411.735Z" transform="translate(-49.229 -394.442)" fill="#e19974"/>
          <path id="Trazado_1089883" data-name="Trazado 1089883" d="M370.2,398.076l-3.85,13.659a.879.879,0,0,1-.846.64h3.765a.879.879,0,0,0,.846-.64l3.85-13.659Z" transform="translate(-322.184 -394.442)" fill="#dc8758"/>
          <path id="Trazado_1089884" data-name="Trazado 1089884" d="M74.4,376.521H22.238a1.883,1.883,0,0,1-1.883-1.883V371a1.883,1.883,0,0,1,1.883-1.883H74.4A1.883,1.883,0,0,1,76.282,371v3.634A1.883,1.883,0,0,1,74.4,376.521Z" transform="translate(-20.355 -369.121)" fill="#f4d7c8"/>
          <path id="Trazado_1089885" data-name="Trazado 1089885" d="M424.7,369.121h-3.765A1.883,1.883,0,0,1,422.821,371v3.634a1.883,1.883,0,0,1-1.883,1.883H424.7a1.883,1.883,0,0,0,1.883-1.883V371A1.883,1.883,0,0,0,424.7,369.121Z" transform="translate(-370.659 -369.121)" fill="#ecbba3"/>
        </g>
      </g>
      <path id="Trazado_1089886" data-name="Trazado 1089886" d="M69.121,5.836a.941.941,0,1,0,.941.941A.941.941,0,0,0,69.121,5.836ZM65.356,0c-4.706,0-8.535,3.04-8.535,6.778a5.668,5.668,0,0,0,.76,2.805l-1.509,1.509a1.443,1.443,0,0,0,1.021,2.464h8.263c4.706,0,8.535-3.04,8.535-6.778S70.062,0,65.356,0Zm0,11.673h-7.2l1-1a1.455,1.455,0,0,0,.2-1.811A3.788,3.788,0,0,1,58.7,6.778c0-2.7,2.984-4.9,6.652-4.9s6.652,2.2,6.652,4.9S69.024,11.673,65.356,11.673ZM67.84,45.389H66.9V34.081a4.053,4.053,0,0,0-1.2-2.886l-1.4-1.4a2.844,2.844,0,0,0-.55-3.212L60.978,23.81A2.824,2.824,0,0,0,56.984,27.8l2.773,2.774a2.817,2.817,0,0,0,3.212.549l1.4,1.4a2.182,2.182,0,0,1,.644,1.554V45.389H61.838V39.9a10.479,10.479,0,0,0-6.916-9.814c0-3.208,0-14.033,0-16.92A13.17,13.17,0,0,0,36.8.968a.941.941,0,0,0,.71,1.744A11.279,11.279,0,0,1,53.031,12.827a3.821,3.821,0,0,0-1.931-.522h-.8a14.693,14.693,0,0,1-4.646-1.361,14.707,14.707,0,0,1-2.75-1.731,1.824,1.824,0,0,0-2.3.034,13.254,13.254,0,0,1-2.926,1.867,13.224,13.224,0,0,1-4.448,1.19h-.811a3.821,3.821,0,0,0-1.934.524A11.318,11.318,0,0,1,34.1,4.883.941.941,0,0,0,32.819,3.5,13.205,13.205,0,0,0,28.6,13.162c0,3.5.083,13.558,0,16.918a10.479,10.479,0,0,0-6.916,9.814v5.494H18.5V34.081a2.182,2.182,0,0,1,.644-1.554l1.4-1.4a2.819,2.819,0,0,0,3.212-.549L26.534,27.8a2.858,2.858,0,0,0,0-3.994,2.827,2.827,0,0,0-3.994,0l-2.774,2.773a2.835,2.835,0,0,0-.55,3.212l-1.4,1.4a4.053,4.053,0,0,0-1.2,2.886V45.389h-.941a2.827,2.827,0,0,0-2.824,2.824v3.634a2.827,2.827,0,0,0,2.824,2.824h2.611l2.51,8.906a.942.942,0,0,0,.906.686.953.953,0,0,0,.907-1.2l-2.366-8.4H63.273l-2.366,8.4a.941.941,0,1,0,1.812.511l2.51-8.906H67.84a2.827,2.827,0,0,0,2.824-2.824V48.213a2.827,2.827,0,0,0-2.824-2.824ZM62.42,29.246a.942.942,0,0,1-1.331,0l-2.773-2.773a.941.941,0,0,1,1.331-1.331l2.774,2.774a.951.951,0,0,1,0,1.331ZM21.1,27.915l2.774-2.773A.941.941,0,0,1,25.2,26.472L22.43,29.246A.941.941,0,0,1,21.1,27.915ZM59.955,39.9v5.493H54.764V43.521a.941.941,0,1,0-1.883,0v1.868h-3.52l3.51-7.581a1.82,1.82,0,0,0-.5-2.172l-.865-.71,1.173-3.52C56.737,32.379,59.963,35.367,59.955,39.9Zm-14.308.046a.941.941,0,0,0-1.1.743l-.922,4.7H39.9L37.19,31.573a8.613,8.613,0,0,0,9.137,0l-.931,4.75a.941.941,0,1,0,1.847.362l1.265-6.453,2.358.663-1.158,3.476a1.83,1.83,0,0,0,.572,1.983l.861.707-3.855,8.328H45.539l.851-4.341a.941.941,0,0,0-.743-1.1ZM33.81,34.372,32.65,30.894l2.358-.665,2.971,15.159H36.232l-3.855-8.328.861-.707a1.83,1.83,0,0,0,.572-1.983Zm3.568-5a3.641,3.641,0,0,0,1.555-2.411,9.426,9.426,0,0,0,5.651,0,3.642,3.642,0,0,0,1.553,2.413,6.7,6.7,0,0,1-8.759,0Zm13.8-15.18a1.963,1.963,0,0,1,1.859,1.669v.582a1.978,1.978,0,0,1-1.863,1.667c0-.122.007-3.785,0-3.918ZM50.959,20a3.956,3.956,0,0,0,2.08-.523V29.552c-.368-.087-5.025-1.415-5.355-1.507a1.773,1.773,0,0,1-1.266-1.887A9.45,9.45,0,0,0,50.959,20ZM34.221,14.086a15.086,15.086,0,0,0,4.252-1.265,15.137,15.137,0,0,0,3.3-2.1,16.6,16.6,0,0,0,3.06,1.919,16.549,16.549,0,0,0,4.46,1.423v3.912a7.538,7.538,0,0,1-15.077,0Zm-3.742,1.775a1.963,1.963,0,0,1,1.859-1.669c0,.133,0,3.8,0,3.918a1.97,1.97,0,0,1-1.863-1.667v-.582Zm0,3.612a3.862,3.862,0,0,0,2.08.524A9.45,9.45,0,0,0,37.1,26.158a1.792,1.792,0,0,1-1.265,1.882l-5.356,1.51ZM23.563,39.895c-.013-4.563,3.139-7.385,7.273-8.49l1.174,3.521-.865.71a1.82,1.82,0,0,0-.5,2.172l3.51,7.581h-3.52V43.521a.941.941,0,1,0-1.883,0v1.868H23.563ZM68.781,51.847a.943.943,0,0,1-.941.941H15.678a.943.943,0,0,1-.941-.941V48.213a.942.942,0,0,1,.941-.941H67.84a.942.942,0,0,1,.941.941ZM61.59,5.836a.941.941,0,1,0,.941.941A.941.941,0,0,0,61.59,5.836Zm3.765,0a.941.941,0,1,0,.941.941A.941.941,0,0,0,65.356,5.836Z" transform="translate(0 0)"/>
    </g>
  </g>
</svg>
