<svg xmlns="http://www.w3.org/2000/svg" xmlns:xlink="http://www.w3.org/1999/xlink" width="93.934" height="93.934" viewBox="0 0 93.934 93.934">
  <defs>
    <filter id="Trazado_982547" x="0" y="0" width="93.934" height="93.934" filterUnits="userSpaceOnUse">
      <feOffset dy="3" input="SourceAlpha"/>
      <feGaussianBlur stdDeviation="3" result="blur"/>
      <feFlood flood-opacity="0.161"/>
      <feComposite operator="in" in2="blur"/>
      <feComposite in="SourceGraphic"/>
    </filter>
  </defs>
  <g id="Grupo_1219187" data-name="Grupo 1219187" transform="translate(-191.066 -2796.609)">
    <g id="Grupo_1218004" data-name="Grupo 1218004" transform="translate(-420 -4605.535)">
      <g id="Grupo_1216301" data-name="Grupo 1216301" transform="translate(0 6207.446)">
        <g id="Grupo_1215985" data-name="Grupo 1215985" transform="translate(-0.229 -2679.151)">
          <g id="Grupo_1214663" data-name="Grupo 1214663" transform="translate(0 -1254.151)">
            <g id="Grupo_1214433" data-name="Grupo 1214433" transform="translate(-0.771 -2738.674)">
              <g id="Grupo_1183190" data-name="Grupo 1183190" transform="translate(1 1016.674)">
                <g id="Grupo_1179611" data-name="Grupo 1179611" transform="translate(428 4723.467)">
                  <g id="Grupo_1175227" data-name="Grupo 1175227" transform="translate(-5.967 140.533)">
                    <g id="Grupo_1167337" data-name="Grupo 1167337" transform="translate(198.033 1992)">
                      <g id="Grupo_1166720" data-name="Grupo 1166720">
                        <g id="Grupo_1164305" data-name="Grupo 1164305">
                          <g id="Grupo_1163948" data-name="Grupo 1163948">
                            <g id="Grupo_1158168" data-name="Grupo 1158168">
                              <g id="Grupo_1152576" data-name="Grupo 1152576">
                                <g id="Grupo_1148633" data-name="Grupo 1148633">
                                  <g id="Grupo_1148525" data-name="Grupo 1148525">
                                    <g transform="matrix(1, 0, 0, 1, -9, -6)" filter="url(#Trazado_982547)">
                                      <g id="Trazado_982547-2" data-name="Trazado 982547" transform="translate(9 6)" fill="#f7f4ed">
                                        <path d="M 37.966796875 74.43359375 C 33.04315185546875 74.43359375 28.26757431030273 73.46962738037109 23.77274131774902 71.56847381591797 C 19.43047523498535 69.73184967041016 15.53040790557861 67.10224914550781 12.18087482452393 63.75271987915039 C 8.831341743469238 60.4031867980957 6.201741218566895 56.50312042236328 4.365118980407715 52.16086196899414 C 2.463963508605957 47.66601943969727 1.499996900558472 42.89044189453125 1.499996900558472 37.966796875 C 1.499996900558472 33.04315185546875 2.463963508605957 28.26757431030273 4.365118980407715 23.77274131774902 C 6.201741218566895 19.43047523498535 8.831341743469238 15.53040790557861 12.18087482452393 12.18087482452393 C 15.53040790557861 8.831341743469238 19.43047523498535 6.201741218566895 23.77274131774902 4.365118980407715 C 28.26757431030273 2.463963508605957 33.04315185546875 1.499996900558472 37.966796875 1.499996900558472 C 42.89044189453125 1.499996900558472 47.66601943969727 2.463963508605957 52.16086196899414 4.365118980407715 C 56.50312042236328 6.201741218566895 60.4031867980957 8.831341743469238 63.75271987915039 12.18087482452393 C 67.10224914550781 15.53040790557861 69.73184967041016 19.43047523498535 71.56847381591797 23.77274131774902 C 73.46962738037109 28.26757431030273 74.43359375 33.04315185546875 74.43359375 37.966796875 C 74.43359375 42.89044189453125 73.46962738037109 47.66601943969727 71.56847381591797 52.16086196899414 C 69.73184967041016 56.50313186645508 67.10224914550781 60.4031867980957 63.75271987915039 63.75271987915039 C 60.4031867980957 67.10224914550781 56.50313186645508 69.73184967041016 52.16086196899414 71.56847381591797 C 47.66601943969727 73.46962738037109 42.89044189453125 74.43359375 37.966796875 74.43359375 Z" stroke="none"/>
                                        <path d="M 37.966796875 3 C 33.2449836730957 3 28.66600799560547 3.924095153808594 24.35705947875977 5.746635437011719 C 20.19359588623047 7.507637023925781 16.45379638671875 10.02928161621094 13.24153518676758 13.24153518676758 C 10.02927398681641 16.45379638671875 7.507621765136719 20.19359588623047 5.746635437011719 24.35705947875977 C 3.924095153808594 28.66600799560547 3 33.2449836730957 3 37.966796875 C 3 42.6886100769043 3.924095153808594 47.26758575439453 5.746635437011719 51.57653427124023 C 7.507621765136719 55.73999786376953 10.02927398681641 59.47979736328125 13.24153518676758 62.69205856323242 C 16.45379638671875 65.90431976318359 20.19359588623047 68.42597198486328 24.35705947875977 70.18695831298828 C 28.66600799560547 72.00949859619141 33.2449836730957 72.93359375 37.966796875 72.93359375 C 42.6886100769043 72.93359375 47.26758575439453 72.00949859619141 51.57653427124023 70.18695831298828 C 55.73999786376953 68.42597198486328 59.47979736328125 65.90431976318359 62.69205856323242 62.69205856323242 C 65.90431976318359 59.47979736328125 68.42597198486328 55.73999786376953 70.18695831298828 51.57653427124023 C 72.00949859619141 47.26758575439453 72.93359375 42.6886100769043 72.93359375 37.966796875 C 72.93359375 33.2449836730957 72.00949859619141 28.66600799560547 70.18695831298828 24.35705947875977 C 68.42597198486328 20.19359588623047 65.90431976318359 16.45379638671875 62.69205856323242 13.24153518676758 C 59.47979736328125 10.02928161621094 55.73999786376953 7.507637023925781 51.57653427124023 5.746635437011719 C 47.26758575439453 3.924095153808594 42.6886100769043 3 37.966796875 3 M 37.966796875 0 C 58.93528366088867 0 75.93359375 16.99832153320312 75.93359375 37.966796875 C 75.93359375 58.93528366088867 58.93528366088867 75.93359375 37.966796875 75.93359375 C 16.99831008911133 75.93359375 0 58.93528366088867 0 37.966796875 C 0 16.99832153320312 16.99831008911133 0 37.966796875 0 Z" stroke="none" fill="#847625"/>
                                      </g>
                                    </g>
                                  </g>
                                </g>
                              </g>
                            </g>
                          </g>
                        </g>
                      </g>
                    </g>
                  </g>
                </g>
              </g>
            </g>
          </g>
        </g>
      </g>
    </g>
    <g id="autoridad" transform="translate(207.191 2810.91)">
      <g id="Grupo_1219186" data-name="Grupo 1219186" transform="translate(1.963 1.963)">
        <path id="Trazado_1089413" data-name="Trazado 1089413" d="M35.552,21.253V10.664H39.4L31.7,2,24,10.664h3.851V21.253Z" transform="translate(-2.822 -2)" fill="#d9a3a4"/>
        <path id="Trazado_1089414" data-name="Trazado 1089414" d="M11.626,27.327V17.7h3.851L8.738,10,2,17.7H5.851v9.626Z" transform="translate(-2 -2.299)" fill="#d9a3a4"/>
        <path id="Trazado_1089415" data-name="Trazado 1089415" d="M57.626,27.327V17.7h3.851L54.738,10,48,17.7h3.851v9.626Z" transform="translate(-3.719 -2.299)" fill="#d9a3a4"/>
      </g>
      <path id="Trazado_1089416" data-name="Trazado 1089416" d="M48.655,43.327A17.327,17.327,0,1,1,31.327,26,17.327,17.327,0,0,1,48.655,43.327Z" transform="translate(-0.486 -0.933)" fill="#99a4bf"/>
      <path id="Trazado_1089417" data-name="Trazado 1089417" d="M39.393,40.055l.035.009v-3.9a2.166,2.166,0,0,0-4.332,0v-2.6a2.166,2.166,0,1,0-4.332,0,2.166,2.166,0,0,0-4.332,0v3.587a2.249,2.249,0,0,0-1.941-2.279A2.166,2.166,0,0,0,22.1,37.031V48.979a5.2,5.2,0,0,0,2.876,4.652l.589.295v5.839a17.392,17.392,0,0,0,12.129,0V53.059l.589-.295a5.2,5.2,0,0,0,2.876-4.652V43.529a4.315,4.315,0,0,0-1.767-3.474Z" transform="translate(-0.788 -1.135)" fill="#ffdbac"/>
      <path id="Trazado_1089418" data-name="Trazado 1089418" d="M34.552,10.627V21.216h1.925V11.59h2.888a.963.963,0,0,0,.719-1.6l-7.7-8.664a.992.992,0,0,0-1.438,0l-7.7,8.664a.963.963,0,0,0,.719,1.6h2.888v9.626h1.925V10.627a.963.963,0,0,0-.963-.963H26.106l5.557-6.252,5.557,6.252H35.514A.963.963,0,0,0,34.552,10.627Z" transform="translate(-0.822)"/>
      <path id="Trazado_1089419" data-name="Trazado 1089419" d="M1.963,18.627H4.851v8.664H6.776V17.664a.963.963,0,0,0-.963-.963H4.08L8.7,11.425,13.322,16.7H11.589a.963.963,0,0,0-.963.963v9.626h1.925V18.627H15.44a.963.963,0,0,0,.725-1.6L9.426,9.33a.992.992,0,0,0-1.45,0l-6.738,7.7a.963.963,0,0,0,.725,1.6Z" transform="translate(0 -0.299)"/>
      <path id="Trazado_1089420" data-name="Trazado 1089420" d="M55.426,9.33a.992.992,0,0,0-1.45,0l-6.738,7.7a.963.963,0,0,0,.725,1.6h2.888v8.664h1.925V17.664a.963.963,0,0,0-.963-.963H50.08L54.7,11.425,59.322,16.7H57.589a.963.963,0,0,0-.963.963v9.626h1.925V18.627H61.44a.963.963,0,0,0,.725-1.6Z" transform="translate(-1.719 -0.299)"/>
      <path id="Trazado_1089421" data-name="Trazado 1089421" d="M31.29,25A18.29,18.29,0,1,0,49.58,43.29,18.29,18.29,0,0,0,31.29,25Zm5.633,26.96a.963.963,0,0,0-.531.861v6.01a16.189,16.189,0,0,1-10.2,0V53.687a.963.963,0,0,0-.533-.862l-.588-.289a4.216,4.216,0,0,1-2.344-3.8V44.878a3.109,3.109,0,0,0,3.369-.638,3.116,3.116,0,0,0,4.766-.513,3.1,3.1,0,0,0,1.733.527h2.935v.742a6.651,6.651,0,0,0-6.065,6.959h1.925c0-4.924,4.583-5.1,5.1-5.1a.963.963,0,0,0,.963-.963v-2.6a.963.963,0,0,0-.963-.963h-3.9a1.2,1.2,0,0,1,0-2.407h3.9a3.369,3.369,0,0,1,3.369,3.369v4.583a4.215,4.215,0,0,1-2.345,3.792Zm-14.2-9.969v-5.2a1.2,1.2,0,0,1,1.2-1.2,1.107,1.107,0,0,1,.126.007,1.284,1.284,0,0,1,1.076,1.32v5.075a1.2,1.2,0,1,1-2.407,0Zm4.332,0V33.327a1.2,1.2,0,1,1,2.407,0v8.664a1.2,1.2,0,1,1-2.407,0Zm4.332-3.754V33.327a1.2,1.2,0,1,1,2.407,0V38h-1.2a3.131,3.131,0,0,0-1.2.238ZM35.718,38V35.926a1.2,1.2,0,0,1,2.407,0v2.332A5.259,5.259,0,0,0,36.488,38Zm2.6,20.052V53.415l.057-.029a6.13,6.13,0,0,0,3.409-5.513V43.29a5.277,5.277,0,0,0-1.733-3.906V35.926a3.126,3.126,0,0,0-4.36-2.874,3.109,3.109,0,0,0-5.267-1.972,3.121,3.121,0,0,0-5.295,2.248v.6a2.914,2.914,0,0,0-.884-.246A3.128,3.128,0,0,0,20.8,36.792V48.74a6.129,6.129,0,0,0,3.41,5.514l.056.028v3.766a16.365,16.365,0,1,1,14.055,0Z" transform="translate(-0.448 -0.896)"/>
      <path id="Trazado_1089422" data-name="Trazado 1089422" d="M58.668,48.348,57.093,47.24a.963.963,0,0,0-1.341.234l-2.77,3.935,1.574,1.107,2.214-3.149,1.575,1.108a.963.963,0,0,0,1.34-.234l2.77-3.935L60.884,45.2Z" transform="translate(-1.942 -1.651)"/>
      <path id="Trazado_1089423" data-name="Trazado 1089423" d="M6.539,47.24,4.964,48.348,2.748,45.2,1.174,46.307l2.77,3.935a.963.963,0,0,0,1.34.234l1.575-1.108,2.214,3.149,1.574-1.108L7.88,47.474a.963.963,0,0,0-1.341-.234Z" transform="translate(-0.007 -1.651)"/>
    </g>
  </g>
</svg>
